ISO-10303-21;
HEADER;
/* Generated by software containing ST-Developer
 * from STEP Tools, Inc. (www.steptools.com) 
 */

FILE_DESCRIPTION(
/* description */ (''),
/* implementation_level */ '2;1');

FILE_NAME(
/* name */ 'C_0805_2012Metric.step',
/* time_stamp */ '2026-09-16T09:35:22+05:45',
/* author */ (''),
/* organization */ (''),
/* preprocessor_version */ 'ST-DEVELOPER v20.2',
/* originating_system */ 'Autodesk Translation Framework v15.15.0.0',
/* authorisation */ '');

FILE_SCHEMA (('AUTOMOTIVE_DESIGN { 1 0 10303 214 3 1 1 }'));
ENDSEC;

DATA;
#10=MECHANICAL_DESIGN_GEOMETRIC_PRESENTATION_REPRESENTATION('',(#490,#491,
#492,#493,#494,#495,#496,#497,#498,#499,#500,#501,#502,#503,#504,#505,#506,
#507,#508,#509,#510,#511,#512,#513,#514,#515,#516,#517,#518),#929);
#11=ITEM_DEFINED_TRANSFORMATION($,$,#561,#614);
#12=(
REPRESENTATION_RELATIONSHIP($,$,#940,#939)
REPRESENTATION_RELATIONSHIP_WITH_TRANSFORMATION(#11)
SHAPE_REPRESENTATION_RELATIONSHIP()
);
#13=CONTEXT_DEPENDENT_SHAPE_REPRESENTATION(#12,#938);
#14=NEXT_ASSEMBLY_USAGE_OCCURRENCE('C_0805_2012Metric:1',
'C_0805_2012Metric:1','C_0805_2012Metric:1',#942,#943,
'C_0805_2012Metric:1');
#15=SHAPE_REPRESENTATION_RELATIONSHIP('SRR','None',#940,#16);
#16=ADVANCED_BREP_SHAPE_REPRESENTATION('',(#17),#928);
#17=MANIFOLD_SOLID_BREP('Body1',#547);
#18=FACE_BOUND('',#70,.T.);
#19=FACE_BOUND('',#80,.T.);
#20=CYLINDRICAL_SURFACE('',#568,0.04);
#21=CYLINDRICAL_SURFACE('',#570,0.04);
#22=CYLINDRICAL_SURFACE('',#574,0.04);
#23=CYLINDRICAL_SURFACE('',#576,0.04);
#24=CYLINDRICAL_SURFACE('',#584,0.04);
#25=CYLINDRICAL_SURFACE('',#587,0.04);
#26=CYLINDRICAL_SURFACE('',#590,0.04);
#27=CYLINDRICAL_SURFACE('',#593,0.04);
#28=CYLINDRICAL_SURFACE('',#602,0.04);
#29=CYLINDRICAL_SURFACE('',#604,0.04);
#30=CYLINDRICAL_SURFACE('',#608,0.04);
#31=CYLINDRICAL_SURFACE('',#610,0.04);
#32=FACE_OUTER_BOUND('',#60,.T.);
#33=FACE_OUTER_BOUND('',#61,.T.);
#34=FACE_OUTER_BOUND('',#62,.T.);
#35=FACE_OUTER_BOUND('',#63,.T.);
#36=FACE_OUTER_BOUND('',#64,.T.);
#37=FACE_OUTER_BOUND('',#65,.T.);
#38=FACE_OUTER_BOUND('',#66,.T.);
#39=FACE_OUTER_BOUND('',#67,.T.);
#40=FACE_OUTER_BOUND('',#68,.T.);
#41=FACE_OUTER_BOUND('',#69,.T.);
#42=FACE_OUTER_BOUND('',#71,.T.);
#43=FACE_OUTER_BOUND('',#72,.T.);
#44=FACE_OUTER_BOUND('',#73,.T.);
#45=FACE_OUTER_BOUND('',#74,.T.);
#46=FACE_OUTER_BOUND('',#75,.T.);
#47=FACE_OUTER_BOUND('',#76,.T.);
#48=FACE_OUTER_BOUND('',#77,.T.);
#49=FACE_OUTER_BOUND('',#78,.T.);
#50=FACE_OUTER_BOUND('',#79,.T.);
#51=FACE_OUTER_BOUND('',#81,.T.);
#52=FACE_OUTER_BOUND('',#82,.T.);
#53=FACE_OUTER_BOUND('',#83,.T.);
#54=FACE_OUTER_BOUND('',#84,.T.);
#55=FACE_OUTER_BOUND('',#85,.T.);
#56=FACE_OUTER_BOUND('',#86,.T.);
#57=FACE_OUTER_BOUND('',#87,.T.);
#58=FACE_OUTER_BOUND('',#88,.T.);
#59=FACE_OUTER_BOUND('',#89,.T.);
#60=EDGE_LOOP('',(#330,#331,#332,#333,#334,#335,#336,#337));
#61=EDGE_LOOP('',(#338,#339,#340,#341));
#62=EDGE_LOOP('',(#342,#343,#344,#345));
#63=EDGE_LOOP('',(#346,#347,#348,#349));
#64=EDGE_LOOP('',(#350,#351,#352,#353));
#65=EDGE_LOOP('',(#354,#355,#356,#357));
#66=EDGE_LOOP('',(#358,#359,#360,#361));
#67=EDGE_LOOP('',(#362,#363,#364,#365));
#68=EDGE_LOOP('',(#366,#367,#368,#369));
#69=EDGE_LOOP('',(#370,#371,#372,#373,#374,#375,#376,#377));
#70=EDGE_LOOP('',(#378,#379,#380,#381,#382,#383,#384,#385));
#71=EDGE_LOOP('',(#386,#387,#388,#389));
#72=EDGE_LOOP('',(#390,#391,#392,#393));
#73=EDGE_LOOP('',(#394,#395,#396,#397));
#74=EDGE_LOOP('',(#398,#399,#400,#401));
#75=EDGE_LOOP('',(#402,#403,#404,#405));
#76=EDGE_LOOP('',(#406,#407,#408,#409));
#77=EDGE_LOOP('',(#410,#411,#412,#413));
#78=EDGE_LOOP('',(#414,#415,#416,#417));
#79=EDGE_LOOP('',(#418,#419,#420,#421,#422,#423,#424,#425));
#80=EDGE_LOOP('',(#426,#427,#428,#429,#430,#431,#432,#433));
#81=EDGE_LOOP('',(#434,#435,#436,#437));
#82=EDGE_LOOP('',(#438,#439,#440,#441));
#83=EDGE_LOOP('',(#442,#443,#444,#445));
#84=EDGE_LOOP('',(#446,#447,#448,#449));
#85=EDGE_LOOP('',(#450,#451,#452,#453));
#86=EDGE_LOOP('',(#454,#455,#456,#457));
#87=EDGE_LOOP('',(#458,#459,#460,#461));
#88=EDGE_LOOP('',(#462,#463,#464,#465));
#89=EDGE_LOOP('',(#466,#467,#468,#469,#470,#471,#472,#473));
#90=CIRCLE('',#563,0.04);
#91=CIRCLE('',#564,0.04);
#92=CIRCLE('',#565,0.04);
#93=CIRCLE('',#566,0.04);
#94=CIRCLE('',#569,0.04);
#95=CIRCLE('',#571,0.04);
#96=CIRCLE('',#575,0.04);
#97=CIRCLE('',#577,0.04);
#98=CIRCLE('',#580,0.04);
#99=CIRCLE('',#581,0.04);
#100=CIRCLE('',#582,0.04);
#101=CIRCLE('',#583,0.04);
#102=CIRCLE('',#585,0.04);
#103=CIRCLE('',#588,0.04);
#104=CIRCLE('',#591,0.04);
#105=CIRCLE('',#594,0.04);
#106=CIRCLE('',#597,0.04);
#107=CIRCLE('',#598,0.04);
#108=CIRCLE('',#599,0.04);
#109=CIRCLE('',#600,0.04);
#110=CIRCLE('',#603,0.04);
#111=CIRCLE('',#605,0.04);
#112=CIRCLE('',#609,0.04);
#113=CIRCLE('',#611,0.04);
#114=LINE('',#778,#162);
#115=LINE('',#782,#163);
#116=LINE('',#786,#164);
#117=LINE('',#790,#165);
#118=LINE('',#795,#166);
#119=LINE('',#796,#167);
#120=LINE('',#797,#168);
#121=LINE('',#800,#169);
#122=LINE('',#805,#170);
#123=LINE('',#808,#171);
#124=LINE('',#809,#172);
#125=LINE('',#812,#173);
#126=LINE('',#813,#174);
#127=LINE('',#816,#175);
#128=LINE('',#821,#176);
#129=LINE('',#823,#177);
#130=LINE('',#829,#178);
#131=LINE('',#833,#179);
#132=LINE('',#837,#180);
#133=LINE('',#840,#181);
#134=LINE('',#843,#182);
#135=LINE('',#846,#183);
#136=LINE('',#849,#184);
#137=LINE('',#850,#185);
#138=LINE('',#853,#186);
#139=LINE('',#857,#187);
#140=LINE('',#858,#188);
#141=LINE('',#861,#189);
#142=LINE('',#865,#190);
#143=LINE('',#866,#191);
#144=LINE('',#869,#192);
#145=LINE('',#872,#193);
#146=LINE('',#876,#194);
#147=LINE('',#880,#195);
#148=LINE('',#884,#196);
#149=LINE('',#888,#197);
#150=LINE('',#893,#198);
#151=LINE('',#894,#199);
#152=LINE('',#895,#200);
#153=LINE('',#898,#201);
#154=LINE('',#903,#202);
#155=LINE('',#906,#203);
#156=LINE('',#907,#204);
#157=LINE('',#910,#205);
#158=LINE('',#911,#206);
#159=LINE('',#914,#207);
#160=LINE('',#919,#208);
#161=LINE('',#921,#209);
#162=VECTOR('',#621,1.);
#163=VECTOR('',#624,1.);
#164=VECTOR('',#627,1.);
#165=VECTOR('',#630,1.);
#166=VECTOR('',#635,1.);
#167=VECTOR('',#636,1.);
#168=VECTOR('',#637,1.);
#169=VECTOR('',#640,1.);
#170=VECTOR('',#647,1.);
#171=VECTOR('',#650,1.);
#172=VECTOR('',#651,1.);
#173=VECTOR('',#654,1.);
#174=VECTOR('',#655,1.);
#175=VECTOR('',#658,1.);
#176=VECTOR('',#665,1.);
#177=VECTOR('',#668,1.);
#178=VECTOR('',#673,1.);
#179=VECTOR('',#676,1.);
#180=VECTOR('',#679,1.);
#181=VECTOR('',#682,1.);
#182=VECTOR('',#685,1.);
#183=VECTOR('',#688,1.);
#184=VECTOR('',#691,1.);
#185=VECTOR('',#692,1.);
#186=VECTOR('',#695,1.);
#187=VECTOR('',#700,1.);
#188=VECTOR('',#701,1.);
#189=VECTOR('',#704,1.);
#190=VECTOR('',#709,1.);
#191=VECTOR('',#710,1.);
#192=VECTOR('',#713,1.);
#193=VECTOR('',#718,1.);
#194=VECTOR('',#721,1.);
#195=VECTOR('',#724,1.);
#196=VECTOR('',#727,1.);
#197=VECTOR('',#730,1.);
#198=VECTOR('',#735,1.);
#199=VECTOR('',#736,1.);
#200=VECTOR('',#737,1.);
#201=VECTOR('',#740,1.);
#202=VECTOR('',#747,1.);
#203=VECTOR('',#750,1.);
#204=VECTOR('',#751,1.);
#205=VECTOR('',#754,1.);
#206=VECTOR('',#755,1.);
#207=VECTOR('',#758,1.);
#208=VECTOR('',#765,1.);
#209=VECTOR('',#768,1.);
#210=VERTEX_POINT('',#776);
#211=VERTEX_POINT('',#777);
#212=VERTEX_POINT('',#779);
#213=VERTEX_POINT('',#781);
#214=VERTEX_POINT('',#783);
#215=VERTEX_POINT('',#785);
#216=VERTEX_POINT('',#787);
#217=VERTEX_POINT('',#789);
#218=VERTEX_POINT('',#793);
#219=VERTEX_POINT('',#794);
#220=VERTEX_POINT('',#799);
#221=VERTEX_POINT('',#803);
#222=VERTEX_POINT('',#807);
#223=VERTEX_POINT('',#811);
#224=VERTEX_POINT('',#815);
#225=VERTEX_POINT('',#819);
#226=VERTEX_POINT('',#825);
#227=VERTEX_POINT('',#826);
#228=VERTEX_POINT('',#828);
#229=VERTEX_POINT('',#830);
#230=VERTEX_POINT('',#832);
#231=VERTEX_POINT('',#834);
#232=VERTEX_POINT('',#836);
#233=VERTEX_POINT('',#838);
#234=VERTEX_POINT('',#842);
#235=VERTEX_POINT('',#844);
#236=VERTEX_POINT('',#848);
#237=VERTEX_POINT('',#852);
#238=VERTEX_POINT('',#856);
#239=VERTEX_POINT('',#860);
#240=VERTEX_POINT('',#864);
#241=VERTEX_POINT('',#868);
#242=VERTEX_POINT('',#874);
#243=VERTEX_POINT('',#875);
#244=VERTEX_POINT('',#877);
#245=VERTEX_POINT('',#879);
#246=VERTEX_POINT('',#881);
#247=VERTEX_POINT('',#883);
#248=VERTEX_POINT('',#885);
#249=VERTEX_POINT('',#887);
#250=VERTEX_POINT('',#891);
#251=VERTEX_POINT('',#892);
#252=VERTEX_POINT('',#897);
#253=VERTEX_POINT('',#901);
#254=VERTEX_POINT('',#905);
#255=VERTEX_POINT('',#909);
#256=VERTEX_POINT('',#913);
#257=VERTEX_POINT('',#917);
#258=EDGE_CURVE('',#210,#211,#114,.T.);
#259=EDGE_CURVE('',#211,#212,#90,.T.);
#260=EDGE_CURVE('',#212,#213,#115,.T.);
#261=EDGE_CURVE('',#214,#213,#91,.T.);
#262=EDGE_CURVE('',#215,#214,#116,.T.);
#263=EDGE_CURVE('',#215,#216,#92,.T.);
#264=EDGE_CURVE('',#217,#216,#117,.T.);
#265=EDGE_CURVE('',#210,#217,#93,.T.);
#266=EDGE_CURVE('',#218,#219,#118,.T.);
#267=EDGE_CURVE('',#211,#219,#119,.T.);
#268=EDGE_CURVE('',#210,#218,#120,.T.);
#269=EDGE_CURVE('',#217,#220,#121,.T.);
#270=EDGE_CURVE('',#218,#220,#94,.T.);
#271=EDGE_CURVE('',#219,#221,#95,.T.);
#272=EDGE_CURVE('',#212,#221,#122,.T.);
#273=EDGE_CURVE('',#216,#222,#123,.T.);
#274=EDGE_CURVE('',#220,#222,#124,.T.);
#275=EDGE_CURVE('',#221,#223,#125,.T.);
#276=EDGE_CURVE('',#213,#223,#126,.T.);
#277=EDGE_CURVE('',#215,#224,#127,.T.);
#278=EDGE_CURVE('',#224,#222,#96,.T.);
#279=EDGE_CURVE('',#225,#223,#97,.T.);
#280=EDGE_CURVE('',#214,#225,#128,.T.);
#281=EDGE_CURVE('',#224,#225,#129,.T.);
#282=EDGE_CURVE('',#226,#227,#98,.T.);
#283=EDGE_CURVE('',#226,#228,#130,.T.);
#284=EDGE_CURVE('',#228,#229,#99,.T.);
#285=EDGE_CURVE('',#229,#230,#131,.T.);
#286=EDGE_CURVE('',#231,#230,#100,.T.);
#287=EDGE_CURVE('',#232,#231,#132,.T.);
#288=EDGE_CURVE('',#232,#233,#101,.T.);
#289=EDGE_CURVE('',#227,#233,#133,.T.);
#290=EDGE_CURVE('',#227,#234,#134,.T.);
#291=EDGE_CURVE('',#235,#234,#102,.T.);
#292=EDGE_CURVE('',#226,#235,#135,.T.);
#293=EDGE_CURVE('',#233,#236,#136,.T.);
#294=EDGE_CURVE('',#234,#236,#137,.T.);
#295=EDGE_CURVE('',#232,#237,#138,.T.);
#296=EDGE_CURVE('',#237,#236,#103,.T.);
#297=EDGE_CURVE('',#237,#238,#139,.T.);
#298=EDGE_CURVE('',#231,#238,#140,.T.);
#299=EDGE_CURVE('',#230,#239,#141,.T.);
#300=EDGE_CURVE('',#238,#239,#104,.T.);
#301=EDGE_CURVE('',#229,#240,#142,.T.);
#302=EDGE_CURVE('',#240,#239,#143,.T.);
#303=EDGE_CURVE('',#228,#241,#144,.T.);
#304=EDGE_CURVE('',#241,#240,#105,.T.);
#305=EDGE_CURVE('',#235,#241,#145,.T.);
#306=EDGE_CURVE('',#242,#243,#146,.T.);
#307=EDGE_CURVE('',#243,#244,#106,.T.);
#308=EDGE_CURVE('',#244,#245,#147,.T.);
#309=EDGE_CURVE('',#246,#245,#107,.T.);
#310=EDGE_CURVE('',#247,#246,#148,.T.);
#311=EDGE_CURVE('',#247,#248,#108,.T.);
#312=EDGE_CURVE('',#249,#248,#149,.T.);
#313=EDGE_CURVE('',#242,#249,#109,.T.);
#314=EDGE_CURVE('',#250,#251,#150,.T.);
#315=EDGE_CURVE('',#243,#251,#151,.T.);
#316=EDGE_CURVE('',#242,#250,#152,.T.);
#317=EDGE_CURVE('',#249,#252,#153,.T.);
#318=EDGE_CURVE('',#250,#252,#110,.T.);
#319=EDGE_CURVE('',#251,#253,#111,.T.);
#320=EDGE_CURVE('',#244,#253,#154,.T.);
#321=EDGE_CURVE('',#248,#254,#155,.T.);
#322=EDGE_CURVE('',#252,#254,#156,.T.);
#323=EDGE_CURVE('',#253,#255,#157,.T.);
#324=EDGE_CURVE('',#245,#255,#158,.T.);
#325=EDGE_CURVE('',#247,#256,#159,.T.);
#326=EDGE_CURVE('',#256,#254,#112,.T.);
#327=EDGE_CURVE('',#257,#255,#113,.T.);
#328=EDGE_CURVE('',#246,#257,#160,.T.);
#329=EDGE_CURVE('',#256,#257,#161,.T.);
#330=ORIENTED_EDGE('',*,*,#258,.T.);
#331=ORIENTED_EDGE('',*,*,#259,.T.);
#332=ORIENTED_EDGE('',*,*,#260,.T.);
#333=ORIENTED_EDGE('',*,*,#261,.F.);
#334=ORIENTED_EDGE('',*,*,#262,.F.);
#335=ORIENTED_EDGE('',*,*,#263,.T.);
#336=ORIENTED_EDGE('',*,*,#264,.F.);
#337=ORIENTED_EDGE('',*,*,#265,.F.);
#338=ORIENTED_EDGE('',*,*,#266,.T.);
#339=ORIENTED_EDGE('',*,*,#267,.F.);
#340=ORIENTED_EDGE('',*,*,#258,.F.);
#341=ORIENTED_EDGE('',*,*,#268,.T.);
#342=ORIENTED_EDGE('',*,*,#265,.T.);
#343=ORIENTED_EDGE('',*,*,#269,.T.);
#344=ORIENTED_EDGE('',*,*,#270,.F.);
#345=ORIENTED_EDGE('',*,*,#268,.F.);
#346=ORIENTED_EDGE('',*,*,#267,.T.);
#347=ORIENTED_EDGE('',*,*,#271,.T.);
#348=ORIENTED_EDGE('',*,*,#272,.F.);
#349=ORIENTED_EDGE('',*,*,#259,.F.);
#350=ORIENTED_EDGE('',*,*,#264,.T.);
#351=ORIENTED_EDGE('',*,*,#273,.T.);
#352=ORIENTED_EDGE('',*,*,#274,.F.);
#353=ORIENTED_EDGE('',*,*,#269,.F.);
#354=ORIENTED_EDGE('',*,*,#260,.F.);
#355=ORIENTED_EDGE('',*,*,#272,.T.);
#356=ORIENTED_EDGE('',*,*,#275,.T.);
#357=ORIENTED_EDGE('',*,*,#276,.F.);
#358=ORIENTED_EDGE('',*,*,#277,.T.);
#359=ORIENTED_EDGE('',*,*,#278,.T.);
#360=ORIENTED_EDGE('',*,*,#273,.F.);
#361=ORIENTED_EDGE('',*,*,#263,.F.);
#362=ORIENTED_EDGE('',*,*,#261,.T.);
#363=ORIENTED_EDGE('',*,*,#276,.T.);
#364=ORIENTED_EDGE('',*,*,#279,.F.);
#365=ORIENTED_EDGE('',*,*,#280,.F.);
#366=ORIENTED_EDGE('',*,*,#281,.F.);
#367=ORIENTED_EDGE('',*,*,#277,.F.);
#368=ORIENTED_EDGE('',*,*,#262,.T.);
#369=ORIENTED_EDGE('',*,*,#280,.T.);
#370=ORIENTED_EDGE('',*,*,#266,.F.);
#371=ORIENTED_EDGE('',*,*,#270,.T.);
#372=ORIENTED_EDGE('',*,*,#274,.T.);
#373=ORIENTED_EDGE('',*,*,#278,.F.);
#374=ORIENTED_EDGE('',*,*,#281,.T.);
#375=ORIENTED_EDGE('',*,*,#279,.T.);
#376=ORIENTED_EDGE('',*,*,#275,.F.);
#377=ORIENTED_EDGE('',*,*,#271,.F.);
#378=ORIENTED_EDGE('',*,*,#282,.F.);
#379=ORIENTED_EDGE('',*,*,#283,.T.);
#380=ORIENTED_EDGE('',*,*,#284,.T.);
#381=ORIENTED_EDGE('',*,*,#285,.T.);
#382=ORIENTED_EDGE('',*,*,#286,.F.);
#383=ORIENTED_EDGE('',*,*,#287,.F.);
#384=ORIENTED_EDGE('',*,*,#288,.T.);
#385=ORIENTED_EDGE('',*,*,#289,.F.);
#386=ORIENTED_EDGE('',*,*,#282,.T.);
#387=ORIENTED_EDGE('',*,*,#290,.T.);
#388=ORIENTED_EDGE('',*,*,#291,.F.);
#389=ORIENTED_EDGE('',*,*,#292,.F.);
#390=ORIENTED_EDGE('',*,*,#289,.T.);
#391=ORIENTED_EDGE('',*,*,#293,.T.);
#392=ORIENTED_EDGE('',*,*,#294,.F.);
#393=ORIENTED_EDGE('',*,*,#290,.F.);
#394=ORIENTED_EDGE('',*,*,#295,.T.);
#395=ORIENTED_EDGE('',*,*,#296,.T.);
#396=ORIENTED_EDGE('',*,*,#293,.F.);
#397=ORIENTED_EDGE('',*,*,#288,.F.);
#398=ORIENTED_EDGE('',*,*,#297,.F.);
#399=ORIENTED_EDGE('',*,*,#295,.F.);
#400=ORIENTED_EDGE('',*,*,#287,.T.);
#401=ORIENTED_EDGE('',*,*,#298,.T.);
#402=ORIENTED_EDGE('',*,*,#286,.T.);
#403=ORIENTED_EDGE('',*,*,#299,.T.);
#404=ORIENTED_EDGE('',*,*,#300,.F.);
#405=ORIENTED_EDGE('',*,*,#298,.F.);
#406=ORIENTED_EDGE('',*,*,#285,.F.);
#407=ORIENTED_EDGE('',*,*,#301,.T.);
#408=ORIENTED_EDGE('',*,*,#302,.T.);
#409=ORIENTED_EDGE('',*,*,#299,.F.);
#410=ORIENTED_EDGE('',*,*,#303,.T.);
#411=ORIENTED_EDGE('',*,*,#304,.T.);
#412=ORIENTED_EDGE('',*,*,#301,.F.);
#413=ORIENTED_EDGE('',*,*,#284,.F.);
#414=ORIENTED_EDGE('',*,*,#305,.T.);
#415=ORIENTED_EDGE('',*,*,#303,.F.);
#416=ORIENTED_EDGE('',*,*,#283,.F.);
#417=ORIENTED_EDGE('',*,*,#292,.T.);
#418=ORIENTED_EDGE('',*,*,#306,.T.);
#419=ORIENTED_EDGE('',*,*,#307,.T.);
#420=ORIENTED_EDGE('',*,*,#308,.T.);
#421=ORIENTED_EDGE('',*,*,#309,.F.);
#422=ORIENTED_EDGE('',*,*,#310,.F.);
#423=ORIENTED_EDGE('',*,*,#311,.T.);
#424=ORIENTED_EDGE('',*,*,#312,.F.);
#425=ORIENTED_EDGE('',*,*,#313,.F.);
#426=ORIENTED_EDGE('',*,*,#291,.T.);
#427=ORIENTED_EDGE('',*,*,#294,.T.);
#428=ORIENTED_EDGE('',*,*,#296,.F.);
#429=ORIENTED_EDGE('',*,*,#297,.T.);
#430=ORIENTED_EDGE('',*,*,#300,.T.);
#431=ORIENTED_EDGE('',*,*,#302,.F.);
#432=ORIENTED_EDGE('',*,*,#304,.F.);
#433=ORIENTED_EDGE('',*,*,#305,.F.);
#434=ORIENTED_EDGE('',*,*,#314,.T.);
#435=ORIENTED_EDGE('',*,*,#315,.F.);
#436=ORIENTED_EDGE('',*,*,#306,.F.);
#437=ORIENTED_EDGE('',*,*,#316,.T.);
#438=ORIENTED_EDGE('',*,*,#313,.T.);
#439=ORIENTED_EDGE('',*,*,#317,.T.);
#440=ORIENTED_EDGE('',*,*,#318,.F.);
#441=ORIENTED_EDGE('',*,*,#316,.F.);
#442=ORIENTED_EDGE('',*,*,#315,.T.);
#443=ORIENTED_EDGE('',*,*,#319,.T.);
#444=ORIENTED_EDGE('',*,*,#320,.F.);
#445=ORIENTED_EDGE('',*,*,#307,.F.);
#446=ORIENTED_EDGE('',*,*,#312,.T.);
#447=ORIENTED_EDGE('',*,*,#321,.T.);
#448=ORIENTED_EDGE('',*,*,#322,.F.);
#449=ORIENTED_EDGE('',*,*,#317,.F.);
#450=ORIENTED_EDGE('',*,*,#308,.F.);
#451=ORIENTED_EDGE('',*,*,#320,.T.);
#452=ORIENTED_EDGE('',*,*,#323,.T.);
#453=ORIENTED_EDGE('',*,*,#324,.F.);
#454=ORIENTED_EDGE('',*,*,#325,.T.);
#455=ORIENTED_EDGE('',*,*,#326,.T.);
#456=ORIENTED_EDGE('',*,*,#321,.F.);
#457=ORIENTED_EDGE('',*,*,#311,.F.);
#458=ORIENTED_EDGE('',*,*,#309,.T.);
#459=ORIENTED_EDGE('',*,*,#324,.T.);
#460=ORIENTED_EDGE('',*,*,#327,.F.);
#461=ORIENTED_EDGE('',*,*,#328,.F.);
#462=ORIENTED_EDGE('',*,*,#329,.F.);
#463=ORIENTED_EDGE('',*,*,#325,.F.);
#464=ORIENTED_EDGE('',*,*,#310,.T.);
#465=ORIENTED_EDGE('',*,*,#328,.T.);
#466=ORIENTED_EDGE('',*,*,#314,.F.);
#467=ORIENTED_EDGE('',*,*,#318,.T.);
#468=ORIENTED_EDGE('',*,*,#322,.T.);
#469=ORIENTED_EDGE('',*,*,#326,.F.);
#470=ORIENTED_EDGE('',*,*,#329,.T.);
#471=ORIENTED_EDGE('',*,*,#327,.T.);
#472=ORIENTED_EDGE('',*,*,#323,.F.);
#473=ORIENTED_EDGE('',*,*,#319,.F.);
#474=PLANE('',#562);
#475=PLANE('',#567);
#476=PLANE('',#572);
#477=PLANE('',#573);
#478=PLANE('',#578);
#479=PLANE('',#579);
#480=PLANE('',#586);
#481=PLANE('',#589);
#482=PLANE('',#592);
#483=PLANE('',#595);
#484=PLANE('',#596);
#485=PLANE('',#601);
#486=PLANE('',#606);
#487=PLANE('',#607);
#488=PLANE('',#612);
#489=PLANE('',#613);
#490=STYLED_ITEM('',(#954),#519);
#491=STYLED_ITEM('',(#954),#520);
#492=STYLED_ITEM('',(#954),#521);
#493=STYLED_ITEM('',(#954),#522);
#494=STYLED_ITEM('',(#954),#523);
#495=STYLED_ITEM('',(#954),#524);
#496=STYLED_ITEM('',(#954),#525);
#497=STYLED_ITEM('',(#954),#526);
#498=STYLED_ITEM('',(#954),#527);
#499=STYLED_ITEM('',(#954),#528);
#500=STYLED_ITEM('',(#955),#529);
#501=STYLED_ITEM('',(#955),#530);
#502=STYLED_ITEM('',(#955),#531);
#503=STYLED_ITEM('',(#955),#532);
#504=STYLED_ITEM('',(#955),#533);
#505=STYLED_ITEM('',(#955),#534);
#506=STYLED_ITEM('',(#955),#535);
#507=STYLED_ITEM('',(#955),#536);
#508=STYLED_ITEM('',(#954),#537);
#509=STYLED_ITEM('',(#954),#538);
#510=STYLED_ITEM('',(#954),#539);
#511=STYLED_ITEM('',(#954),#540);
#512=STYLED_ITEM('',(#954),#541);
#513=STYLED_ITEM('',(#954),#542);
#514=STYLED_ITEM('',(#954),#543);
#515=STYLED_ITEM('',(#954),#544);
#516=STYLED_ITEM('',(#954),#545);
#517=STYLED_ITEM('',(#954),#546);
#518=STYLED_ITEM('',(#953),#17);
#519=ADVANCED_FACE('',(#32),#474,.F.);
#520=ADVANCED_FACE('',(#33),#475,.F.);
#521=ADVANCED_FACE('',(#34),#20,.T.);
#522=ADVANCED_FACE('',(#35),#21,.T.);
#523=ADVANCED_FACE('',(#36),#476,.F.);
#524=ADVANCED_FACE('',(#37),#477,.T.);
#525=ADVANCED_FACE('',(#38),#22,.T.);
#526=ADVANCED_FACE('',(#39),#23,.T.);
#527=ADVANCED_FACE('',(#40),#478,.T.);
#528=ADVANCED_FACE('',(#41,#18),#479,.T.);
#529=ADVANCED_FACE('',(#42),#24,.T.);
#530=ADVANCED_FACE('',(#43),#480,.F.);
#531=ADVANCED_FACE('',(#44),#25,.T.);
#532=ADVANCED_FACE('',(#45),#481,.T.);
#533=ADVANCED_FACE('',(#46),#26,.T.);
#534=ADVANCED_FACE('',(#47),#482,.T.);
#535=ADVANCED_FACE('',(#48),#27,.T.);
#536=ADVANCED_FACE('',(#49),#483,.F.);
#537=ADVANCED_FACE('',(#50,#19),#484,.F.);
#538=ADVANCED_FACE('',(#51),#485,.F.);
#539=ADVANCED_FACE('',(#52),#28,.T.);
#540=ADVANCED_FACE('',(#53),#29,.T.);
#541=ADVANCED_FACE('',(#54),#486,.F.);
#542=ADVANCED_FACE('',(#55),#487,.T.);
#543=ADVANCED_FACE('',(#56),#30,.T.);
#544=ADVANCED_FACE('',(#57),#31,.T.);
#545=ADVANCED_FACE('',(#58),#488,.T.);
#546=ADVANCED_FACE('',(#59),#489,.T.);
#547=CLOSED_SHELL('',(#519,#520,#521,#522,#523,#524,#525,#526,#527,#528,
#529,#530,#531,#532,#533,#534,#535,#536,#537,#538,#539,#540,#541,#542,#543,
#544,#545,#546));
#548=DERIVED_UNIT_ELEMENT(#550,1.);
#549=DERIVED_UNIT_ELEMENT(#931,-3.);
#550=(
MASS_UNIT()
NAMED_UNIT(*)
SI_UNIT(.KILO.,.GRAM.)
);
#551=DERIVED_UNIT((#548,#549));
#552=MEASURE_REPRESENTATION_ITEM('density measure',
POSITIVE_RATIO_MEASURE(7850.),#551);
#553=PROPERTY_DEFINITION_REPRESENTATION(#558,#555);
#554=PROPERTY_DEFINITION_REPRESENTATION(#559,#556);
#555=REPRESENTATION('material name',(#557),#928);
#556=REPRESENTATION('density',(#552),#928);
#557=DESCRIPTIVE_REPRESENTATION_ITEM('Steel','Steel');
#558=PROPERTY_DEFINITION('material property','material name',#943);
#559=PROPERTY_DEFINITION('material property','density of part',#943);
#560=AXIS2_PLACEMENT_3D('',#773,#615,#616);
#561=AXIS2_PLACEMENT_3D('',#774,#617,#618);
#562=AXIS2_PLACEMENT_3D('',#775,#619,#620);
#563=AXIS2_PLACEMENT_3D('',#780,#622,#623);
#564=AXIS2_PLACEMENT_3D('',#784,#625,#626);
#565=AXIS2_PLACEMENT_3D('',#788,#628,#629);
#566=AXIS2_PLACEMENT_3D('',#791,#631,#632);
#567=AXIS2_PLACEMENT_3D('',#792,#633,#634);
#568=AXIS2_PLACEMENT_3D('',#798,#638,#639);
#569=AXIS2_PLACEMENT_3D('',#801,#641,#642);
#570=AXIS2_PLACEMENT_3D('',#802,#643,#644);
#571=AXIS2_PLACEMENT_3D('',#804,#645,#646);
#572=AXIS2_PLACEMENT_3D('',#806,#648,#649);
#573=AXIS2_PLACEMENT_3D('',#810,#652,#653);
#574=AXIS2_PLACEMENT_3D('',#814,#656,#657);
#575=AXIS2_PLACEMENT_3D('',#817,#659,#660);
#576=AXIS2_PLACEMENT_3D('',#818,#661,#662);
#577=AXIS2_PLACEMENT_3D('',#820,#663,#664);
#578=AXIS2_PLACEMENT_3D('',#822,#666,#667);
#579=AXIS2_PLACEMENT_3D('',#824,#669,#670);
#580=AXIS2_PLACEMENT_3D('',#827,#671,#672);
#581=AXIS2_PLACEMENT_3D('',#831,#674,#675);
#582=AXIS2_PLACEMENT_3D('',#835,#677,#678);
#583=AXIS2_PLACEMENT_3D('',#839,#680,#681);
#584=AXIS2_PLACEMENT_3D('',#841,#683,#684);
#585=AXIS2_PLACEMENT_3D('',#845,#686,#687);
#586=AXIS2_PLACEMENT_3D('',#847,#689,#690);
#587=AXIS2_PLACEMENT_3D('',#851,#693,#694);
#588=AXIS2_PLACEMENT_3D('',#854,#696,#697);
#589=AXIS2_PLACEMENT_3D('',#855,#698,#699);
#590=AXIS2_PLACEMENT_3D('',#859,#702,#703);
#591=AXIS2_PLACEMENT_3D('',#862,#705,#706);
#592=AXIS2_PLACEMENT_3D('',#863,#707,#708);
#593=AXIS2_PLACEMENT_3D('',#867,#711,#712);
#594=AXIS2_PLACEMENT_3D('',#870,#714,#715);
#595=AXIS2_PLACEMENT_3D('',#871,#716,#717);
#596=AXIS2_PLACEMENT_3D('',#873,#719,#720);
#597=AXIS2_PLACEMENT_3D('',#878,#722,#723);
#598=AXIS2_PLACEMENT_3D('',#882,#725,#726);
#599=AXIS2_PLACEMENT_3D('',#886,#728,#729);
#600=AXIS2_PLACEMENT_3D('',#889,#731,#732);
#601=AXIS2_PLACEMENT_3D('',#890,#733,#734);
#602=AXIS2_PLACEMENT_3D('',#896,#738,#739);
#603=AXIS2_PLACEMENT_3D('',#899,#741,#742);
#604=AXIS2_PLACEMENT_3D('',#900,#743,#744);
#605=AXIS2_PLACEMENT_3D('',#902,#745,#746);
#606=AXIS2_PLACEMENT_3D('',#904,#748,#749);
#607=AXIS2_PLACEMENT_3D('',#908,#752,#753);
#608=AXIS2_PLACEMENT_3D('',#912,#756,#757);
#609=AXIS2_PLACEMENT_3D('',#915,#759,#760);
#610=AXIS2_PLACEMENT_3D('',#916,#761,#762);
#611=AXIS2_PLACEMENT_3D('',#918,#763,#764);
#612=AXIS2_PLACEMENT_3D('',#920,#766,#767);
#613=AXIS2_PLACEMENT_3D('',#922,#769,#770);
#614=AXIS2_PLACEMENT_3D('',#923,#771,#772);
#615=DIRECTION('axis',(0.,0.,1.));
#616=DIRECTION('refdir',(1.,0.,0.));
#617=DIRECTION('axis',(0.,0.,1.));
#618=DIRECTION('refdir',(1.,0.,0.));
#619=DIRECTION('center_axis',(1.,0.,0.));
#620=DIRECTION('ref_axis',(0.,0.,1.));
#621=DIRECTION('',(0.,0.,1.));
#622=DIRECTION('center_axis',(-1.,0.,0.));
#623=DIRECTION('ref_axis',(0.,0.,1.));
#624=DIRECTION('',(0.,1.,0.));
#625=DIRECTION('center_axis',(1.,0.,0.));
#626=DIRECTION('ref_axis',(0.,0.,1.));
#627=DIRECTION('',(0.,0.,1.));
#628=DIRECTION('center_axis',(-1.,0.,0.));
#629=DIRECTION('ref_axis',(0.,0.,1.));
#630=DIRECTION('',(0.,1.,0.));
#631=DIRECTION('center_axis',(1.,0.,0.));
#632=DIRECTION('ref_axis',(0.,0.,1.));
#633=DIRECTION('center_axis',(0.,1.,0.));
#634=DIRECTION('ref_axis',(0.,0.,1.));
#635=DIRECTION('',(0.,0.,1.));
#636=DIRECTION('',(1.,0.,0.));
#637=DIRECTION('',(1.,0.,0.));
#638=DIRECTION('center_axis',(1.,0.,0.));
#639=DIRECTION('ref_axis',(0.,-1.,0.));
#640=DIRECTION('',(1.,0.,0.));
#641=DIRECTION('center_axis',(1.,0.,0.));
#642=DIRECTION('ref_axis',(0.,0.,1.));
#643=DIRECTION('center_axis',(1.,0.,0.));
#644=DIRECTION('ref_axis',(0.,-1.,0.));
#645=DIRECTION('center_axis',(-1.,0.,0.));
#646=DIRECTION('ref_axis',(0.,0.,1.));
#647=DIRECTION('',(1.,0.,0.));
#648=DIRECTION('center_axis',(0.,0.,1.));
#649=DIRECTION('ref_axis',(1.,0.,0.));
#650=DIRECTION('',(1.,0.,0.));
#651=DIRECTION('',(0.,1.,0.));
#652=DIRECTION('center_axis',(0.,0.,1.));
#653=DIRECTION('ref_axis',(1.,0.,0.));
#654=DIRECTION('',(0.,1.,0.));
#655=DIRECTION('',(1.,0.,0.));
#656=DIRECTION('center_axis',(1.,0.,0.));
#657=DIRECTION('ref_axis',(0.,1.,0.));
#658=DIRECTION('',(1.,0.,0.));
#659=DIRECTION('center_axis',(-1.,0.,0.));
#660=DIRECTION('ref_axis',(0.,0.,1.));
#661=DIRECTION('center_axis',(1.,0.,0.));
#662=DIRECTION('ref_axis',(0.,1.,0.));
#663=DIRECTION('center_axis',(1.,0.,0.));
#664=DIRECTION('ref_axis',(0.,0.,1.));
#665=DIRECTION('',(1.,0.,0.));
#666=DIRECTION('center_axis',(0.,1.,0.));
#667=DIRECTION('ref_axis',(0.,0.,1.));
#668=DIRECTION('',(0.,0.,1.));
#669=DIRECTION('center_axis',(1.,0.,0.));
#670=DIRECTION('ref_axis',(0.,0.,1.));
#671=DIRECTION('center_axis',(1.,0.,0.));
#672=DIRECTION('ref_axis',(0.,0.,1.));
#673=DIRECTION('',(0.,0.,1.));
#674=DIRECTION('center_axis',(-1.,0.,0.));
#675=DIRECTION('ref_axis',(0.,0.,1.));
#676=DIRECTION('',(0.,1.,0.));
#677=DIRECTION('center_axis',(1.,0.,0.));
#678=DIRECTION('ref_axis',(0.,0.,1.));
#679=DIRECTION('',(0.,0.,1.));
#680=DIRECTION('center_axis',(-1.,0.,0.));
#681=DIRECTION('ref_axis',(0.,0.,1.));
#682=DIRECTION('',(0.,1.,0.));
#683=DIRECTION('center_axis',(1.,0.,0.));
#684=DIRECTION('ref_axis',(0.,-1.,0.));
#685=DIRECTION('',(1.,0.,0.));
#686=DIRECTION('center_axis',(1.,0.,0.));
#687=DIRECTION('ref_axis',(0.,0.,1.));
#688=DIRECTION('',(1.,0.,0.));
#689=DIRECTION('center_axis',(0.,0.,1.));
#690=DIRECTION('ref_axis',(1.,0.,0.));
#691=DIRECTION('',(1.,0.,0.));
#692=DIRECTION('',(0.,1.,0.));
#693=DIRECTION('center_axis',(1.,0.,0.));
#694=DIRECTION('ref_axis',(0.,1.,0.));
#695=DIRECTION('',(1.,0.,0.));
#696=DIRECTION('center_axis',(-1.,0.,0.));
#697=DIRECTION('ref_axis',(0.,0.,1.));
#698=DIRECTION('center_axis',(0.,1.,0.));
#699=DIRECTION('ref_axis',(0.,0.,1.));
#700=DIRECTION('',(0.,0.,1.));
#701=DIRECTION('',(1.,0.,0.));
#702=DIRECTION('center_axis',(1.,0.,0.));
#703=DIRECTION('ref_axis',(0.,1.,0.));
#704=DIRECTION('',(1.,0.,0.));
#705=DIRECTION('center_axis',(1.,0.,0.));
#706=DIRECTION('ref_axis',(0.,0.,1.));
#707=DIRECTION('center_axis',(0.,0.,1.));
#708=DIRECTION('ref_axis',(1.,0.,0.));
#709=DIRECTION('',(1.,0.,0.));
#710=DIRECTION('',(0.,1.,0.));
#711=DIRECTION('center_axis',(1.,0.,0.));
#712=DIRECTION('ref_axis',(0.,-1.,0.));
#713=DIRECTION('',(1.,0.,0.));
#714=DIRECTION('center_axis',(-1.,0.,0.));
#715=DIRECTION('ref_axis',(0.,0.,1.));
#716=DIRECTION('center_axis',(0.,1.,0.));
#717=DIRECTION('ref_axis',(0.,0.,1.));
#718=DIRECTION('',(0.,0.,1.));
#719=DIRECTION('center_axis',(1.,0.,0.));
#720=DIRECTION('ref_axis',(0.,0.,1.));
#721=DIRECTION('',(0.,0.,1.));
#722=DIRECTION('center_axis',(-1.,0.,0.));
#723=DIRECTION('ref_axis',(0.,0.,1.));
#724=DIRECTION('',(0.,1.,0.));
#725=DIRECTION('center_axis',(1.,0.,0.));
#726=DIRECTION('ref_axis',(0.,0.,1.));
#727=DIRECTION('',(0.,0.,1.));
#728=DIRECTION('center_axis',(-1.,0.,0.));
#729=DIRECTION('ref_axis',(0.,0.,1.));
#730=DIRECTION('',(0.,1.,0.));
#731=DIRECTION('center_axis',(1.,0.,0.));
#732=DIRECTION('ref_axis',(0.,0.,1.));
#733=DIRECTION('center_axis',(0.,1.,0.));
#734=DIRECTION('ref_axis',(0.,0.,1.));
#735=DIRECTION('',(0.,0.,1.));
#736=DIRECTION('',(1.,0.,0.));
#737=DIRECTION('',(1.,0.,0.));
#738=DIRECTION('center_axis',(1.,0.,0.));
#739=DIRECTION('ref_axis',(0.,-1.,0.));
#740=DIRECTION('',(1.,0.,0.));
#741=DIRECTION('center_axis',(1.,0.,0.));
#742=DIRECTION('ref_axis',(0.,0.,1.));
#743=DIRECTION('center_axis',(1.,0.,0.));
#744=DIRECTION('ref_axis',(0.,-1.,0.));
#745=DIRECTION('center_axis',(-1.,0.,0.));
#746=DIRECTION('ref_axis',(0.,0.,1.));
#747=DIRECTION('',(1.,0.,0.));
#748=DIRECTION('center_axis',(0.,0.,1.));
#749=DIRECTION('ref_axis',(1.,0.,0.));
#750=DIRECTION('',(1.,0.,0.));
#751=DIRECTION('',(0.,1.,0.));
#752=DIRECTION('center_axis',(0.,0.,1.));
#753=DIRECTION('ref_axis',(1.,0.,0.));
#754=DIRECTION('',(0.,1.,0.));
#755=DIRECTION('',(1.,0.,0.));
#756=DIRECTION('center_axis',(1.,0.,0.));
#757=DIRECTION('ref_axis',(0.,1.,0.));
#758=DIRECTION('',(1.,0.,0.));
#759=DIRECTION('center_axis',(-1.,0.,0.));
#760=DIRECTION('ref_axis',(0.,0.,1.));
#761=DIRECTION('center_axis',(1.,0.,0.));
#762=DIRECTION('ref_axis',(0.,1.,0.));
#763=DIRECTION('center_axis',(1.,0.,0.));
#764=DIRECTION('ref_axis',(0.,0.,1.));
#765=DIRECTION('',(1.,0.,0.));
#766=DIRECTION('center_axis',(0.,1.,0.));
#767=DIRECTION('ref_axis',(0.,0.,1.));
#768=DIRECTION('',(0.,0.,1.));
#769=DIRECTION('center_axis',(1.,0.,0.));
#770=DIRECTION('ref_axis',(0.,0.,1.));
#771=DIRECTION('',(0.,0.,1.));
#772=DIRECTION('',(1.,0.,0.));
#773=CARTESIAN_POINT('',(0.,0.,0.));
#774=CARTESIAN_POINT('',(0.,0.,0.));
#775=CARTESIAN_POINT('Origin',(-1.,-0.625,0.));
#776=CARTESIAN_POINT('',(-1.,-0.625,0.04));
#777=CARTESIAN_POINT('',(-1.,-0.625,1.21));
#778=CARTESIAN_POINT('',(-1.,-0.625,0.));
#779=CARTESIAN_POINT('',(-1.,-0.585,1.25));
#780=CARTESIAN_POINT('Origin',(-1.,-0.585,1.21));
#781=CARTESIAN_POINT('',(-1.,0.585,1.25));
#782=CARTESIAN_POINT('',(-1.,-0.625,1.25));
#783=CARTESIAN_POINT('',(-1.,0.625,1.21));
#784=CARTESIAN_POINT('Origin',(-1.,0.585,1.21));
#785=CARTESIAN_POINT('',(-1.,0.625,0.04));
#786=CARTESIAN_POINT('',(-1.,0.625,0.));
#787=CARTESIAN_POINT('',(-1.,0.585,0.));
#788=CARTESIAN_POINT('Origin',(-1.,0.585,0.04));
#789=CARTESIAN_POINT('',(-1.,-0.585,0.));
#790=CARTESIAN_POINT('',(-1.,-0.625,0.));
#791=CARTESIAN_POINT('Origin',(-1.,-0.585,0.04));
#792=CARTESIAN_POINT('Origin',(-1.,-0.625,0.));
#793=CARTESIAN_POINT('',(-0.6,-0.625,0.04));
#794=CARTESIAN_POINT('',(-0.6,-0.625,1.21));
#795=CARTESIAN_POINT('',(-0.6,-0.625,0.));
#796=CARTESIAN_POINT('',(-1.,-0.625,1.21));
#797=CARTESIAN_POINT('',(-1.,-0.625,0.04));
#798=CARTESIAN_POINT('Origin',(-1.,-0.585,0.04));
#799=CARTESIAN_POINT('',(-0.6,-0.585,0.));
#800=CARTESIAN_POINT('',(-1.,-0.585,0.));
#801=CARTESIAN_POINT('Origin',(-0.6,-0.585,0.04));
#802=CARTESIAN_POINT('Origin',(-1.,-0.585,1.21));
#803=CARTESIAN_POINT('',(-0.6,-0.585,1.25));
#804=CARTESIAN_POINT('Origin',(-0.6,-0.585,1.21));
#805=CARTESIAN_POINT('',(-1.,-0.585,1.25));
#806=CARTESIAN_POINT('Origin',(-1.,-0.625,0.));
#807=CARTESIAN_POINT('',(-0.6,0.585,0.));
#808=CARTESIAN_POINT('',(-1.,0.585,0.));
#809=CARTESIAN_POINT('',(-0.6,-0.625,0.));
#810=CARTESIAN_POINT('Origin',(-1.,-0.625,1.25));
#811=CARTESIAN_POINT('',(-0.6,0.585,1.25));
#812=CARTESIAN_POINT('',(-0.6,-0.625,1.25));
#813=CARTESIAN_POINT('',(-1.,0.585,1.25));
#814=CARTESIAN_POINT('Origin',(-1.,0.585,0.04));
#815=CARTESIAN_POINT('',(-0.6,0.625,0.04));
#816=CARTESIAN_POINT('',(-1.,0.625,0.04));
#817=CARTESIAN_POINT('Origin',(-0.6,0.585,0.04));
#818=CARTESIAN_POINT('Origin',(-1.,0.585,1.21));
#819=CARTESIAN_POINT('',(-0.6,0.625,1.21));
#820=CARTESIAN_POINT('Origin',(-0.6,0.585,1.21));
#821=CARTESIAN_POINT('',(-1.,0.625,1.21));
#822=CARTESIAN_POINT('Origin',(-1.,0.625,0.));
#823=CARTESIAN_POINT('',(-0.6,0.625,0.));
#824=CARTESIAN_POINT('Origin',(-0.6,-0.625,0.));
#825=CARTESIAN_POINT('',(-0.6,-0.585,0.08));
#826=CARTESIAN_POINT('',(-0.6,-0.545,0.04));
#827=CARTESIAN_POINT('Origin',(-0.6,-0.545,0.08));
#828=CARTESIAN_POINT('',(-0.6,-0.585,1.17));
#829=CARTESIAN_POINT('',(-0.6,-0.585,0.04));
#830=CARTESIAN_POINT('',(-0.6,-0.545,1.21));
#831=CARTESIAN_POINT('Origin',(-0.6,-0.545,1.17));
#832=CARTESIAN_POINT('',(-0.6,0.545,1.21));
#833=CARTESIAN_POINT('',(-0.6,-0.585,1.21));
#834=CARTESIAN_POINT('',(-0.6,0.585,1.17));
#835=CARTESIAN_POINT('Origin',(-0.6,0.545,1.17));
#836=CARTESIAN_POINT('',(-0.6,0.585,0.08));
#837=CARTESIAN_POINT('',(-0.6,0.585,0.04));
#838=CARTESIAN_POINT('',(-0.6,0.545,0.04));
#839=CARTESIAN_POINT('Origin',(-0.6,0.545,0.08));
#840=CARTESIAN_POINT('',(-0.6,-0.585,0.04));
#841=CARTESIAN_POINT('Origin',(-0.6,-0.545,0.08));
#842=CARTESIAN_POINT('',(0.6,-0.545,0.04));
#843=CARTESIAN_POINT('',(-0.6,-0.545,0.04));
#844=CARTESIAN_POINT('',(0.6,-0.585,0.08));
#845=CARTESIAN_POINT('Origin',(0.6,-0.545,0.08));
#846=CARTESIAN_POINT('',(-0.6,-0.585,0.08));
#847=CARTESIAN_POINT('Origin',(-0.6,-0.585,0.04));
#848=CARTESIAN_POINT('',(0.6,0.545,0.04));
#849=CARTESIAN_POINT('',(-0.6,0.545,0.04));
#850=CARTESIAN_POINT('',(0.6,-0.585,0.04));
#851=CARTESIAN_POINT('Origin',(-0.6,0.545,0.08));
#852=CARTESIAN_POINT('',(0.6,0.585,0.08));
#853=CARTESIAN_POINT('',(-0.6,0.585,0.08));
#854=CARTESIAN_POINT('Origin',(0.6,0.545,0.08));
#855=CARTESIAN_POINT('Origin',(-0.6,0.585,0.04));
#856=CARTESIAN_POINT('',(0.6,0.585,1.17));
#857=CARTESIAN_POINT('',(0.6,0.585,0.04));
#858=CARTESIAN_POINT('',(-0.6,0.585,1.17));
#859=CARTESIAN_POINT('Origin',(-0.6,0.545,1.17));
#860=CARTESIAN_POINT('',(0.6,0.545,1.21));
#861=CARTESIAN_POINT('',(-0.6,0.545,1.21));
#862=CARTESIAN_POINT('Origin',(0.6,0.545,1.17));
#863=CARTESIAN_POINT('Origin',(-0.6,-0.585,1.21));
#864=CARTESIAN_POINT('',(0.6,-0.545,1.21));
#865=CARTESIAN_POINT('',(-0.6,-0.545,1.21));
#866=CARTESIAN_POINT('',(0.6,-0.585,1.21));
#867=CARTESIAN_POINT('Origin',(-0.6,-0.545,1.17));
#868=CARTESIAN_POINT('',(0.6,-0.585,1.17));
#869=CARTESIAN_POINT('',(-0.6,-0.585,1.17));
#870=CARTESIAN_POINT('Origin',(0.6,-0.545,1.17));
#871=CARTESIAN_POINT('Origin',(-0.6,-0.585,0.04));
#872=CARTESIAN_POINT('',(0.6,-0.585,0.04));
#873=CARTESIAN_POINT('Origin',(0.6,-0.625,0.));
#874=CARTESIAN_POINT('',(0.6,-0.625,0.04));
#875=CARTESIAN_POINT('',(0.6,-0.625,1.21));
#876=CARTESIAN_POINT('',(0.6,-0.625,0.));
#877=CARTESIAN_POINT('',(0.6,-0.585,1.25));
#878=CARTESIAN_POINT('Origin',(0.6,-0.585,1.21));
#879=CARTESIAN_POINT('',(0.6,0.585,1.25));
#880=CARTESIAN_POINT('',(0.6,-0.625,1.25));
#881=CARTESIAN_POINT('',(0.6,0.625,1.21));
#882=CARTESIAN_POINT('Origin',(0.6,0.585,1.21));
#883=CARTESIAN_POINT('',(0.6,0.625,0.04));
#884=CARTESIAN_POINT('',(0.6,0.625,0.));
#885=CARTESIAN_POINT('',(0.6,0.585,0.));
#886=CARTESIAN_POINT('Origin',(0.6,0.585,0.04));
#887=CARTESIAN_POINT('',(0.6,-0.585,0.));
#888=CARTESIAN_POINT('',(0.6,-0.625,0.));
#889=CARTESIAN_POINT('Origin',(0.6,-0.585,0.04));
#890=CARTESIAN_POINT('Origin',(0.6,-0.625,0.));
#891=CARTESIAN_POINT('',(1.,-0.625,0.04));
#892=CARTESIAN_POINT('',(1.,-0.625,1.21));
#893=CARTESIAN_POINT('',(1.,-0.625,0.));
#894=CARTESIAN_POINT('',(0.6,-0.625,1.21));
#895=CARTESIAN_POINT('',(0.6,-0.625,0.04));
#896=CARTESIAN_POINT('Origin',(0.6,-0.585,0.04));
#897=CARTESIAN_POINT('',(1.,-0.585,0.));
#898=CARTESIAN_POINT('',(0.6,-0.585,0.));
#899=CARTESIAN_POINT('Origin',(1.,-0.585,0.04));
#900=CARTESIAN_POINT('Origin',(0.6,-0.585,1.21));
#901=CARTESIAN_POINT('',(1.,-0.585,1.25));
#902=CARTESIAN_POINT('Origin',(1.,-0.585,1.21));
#903=CARTESIAN_POINT('',(0.6,-0.585,1.25));
#904=CARTESIAN_POINT('Origin',(0.6,-0.625,0.));
#905=CARTESIAN_POINT('',(1.,0.585,0.));
#906=CARTESIAN_POINT('',(0.6,0.585,0.));
#907=CARTESIAN_POINT('',(1.,-0.625,0.));
#908=CARTESIAN_POINT('Origin',(0.6,-0.625,1.25));
#909=CARTESIAN_POINT('',(1.,0.585,1.25));
#910=CARTESIAN_POINT('',(1.,-0.625,1.25));
#911=CARTESIAN_POINT('',(0.6,0.585,1.25));
#912=CARTESIAN_POINT('Origin',(0.6,0.585,0.04));
#913=CARTESIAN_POINT('',(1.,0.625,0.04));
#914=CARTESIAN_POINT('',(0.6,0.625,0.04));
#915=CARTESIAN_POINT('Origin',(1.,0.585,0.04));
#916=CARTESIAN_POINT('Origin',(0.6,0.585,1.21));
#917=CARTESIAN_POINT('',(1.,0.625,1.21));
#918=CARTESIAN_POINT('Origin',(1.,0.585,1.21));
#919=CARTESIAN_POINT('',(0.6,0.625,1.21));
#920=CARTESIAN_POINT('Origin',(0.6,0.625,0.));
#921=CARTESIAN_POINT('',(1.,0.625,0.));
#922=CARTESIAN_POINT('Origin',(1.,-0.625,0.));
#923=CARTESIAN_POINT('',(0.,0.,0.));
#924=UNCERTAINTY_MEASURE_WITH_UNIT(LENGTH_MEASURE(0.01),#930,
'DISTANCE_ACCURACY_VALUE',
'Maximum model space distance between geometric entities at asserted c
onnectivities');
#925=UNCERTAINTY_MEASURE_WITH_UNIT(LENGTH_MEASURE(0.01),#930,
'DISTANCE_ACCURACY_VALUE',
'Maximum model space distance between geometric entities at asserted c
onnectivities');
#926=UNCERTAINTY_MEASURE_WITH_UNIT(LENGTH_MEASURE(0.01),#930,
'DISTANCE_ACCURACY_VALUE',
'Maximum model space distance between geometric entities at asserted c
onnectivities');
#927=(
GEOMETRIC_REPRESENTATION_CONTEXT(3)
GLOBAL_UNCERTAINTY_ASSIGNED_CONTEXT((#924))
GLOBAL_UNIT_ASSIGNED_CONTEXT((#930,#932,#933))
REPRESENTATION_CONTEXT('','3D')
);
#928=(
GEOMETRIC_REPRESENTATION_CONTEXT(3)
GLOBAL_UNCERTAINTY_ASSIGNED_CONTEXT((#925))
GLOBAL_UNIT_ASSIGNED_CONTEXT((#930,#932,#933))
REPRESENTATION_CONTEXT('','3D')
);
#929=(
GEOMETRIC_REPRESENTATION_CONTEXT(3)
GLOBAL_UNCERTAINTY_ASSIGNED_CONTEXT((#926))
GLOBAL_UNIT_ASSIGNED_CONTEXT((#930,#932,#933))
REPRESENTATION_CONTEXT('','3D')
);
#930=(
LENGTH_UNIT()
NAMED_UNIT(*)
SI_UNIT(.MILLI.,.METRE.)
);
#931=(
LENGTH_UNIT()
NAMED_UNIT(*)
SI_UNIT($,.METRE.)
);
#932=(
NAMED_UNIT(*)
PLANE_ANGLE_UNIT()
SI_UNIT($,.RADIAN.)
);
#933=(
NAMED_UNIT(*)
SI_UNIT($,.STERADIAN.)
SOLID_ANGLE_UNIT()
);
#934=SHAPE_DEFINITION_REPRESENTATION(#936,#939);
#935=SHAPE_DEFINITION_REPRESENTATION(#937,#940);
#936=PRODUCT_DEFINITION_SHAPE('',$,#942);
#937=PRODUCT_DEFINITION_SHAPE('',$,#943);
#938=PRODUCT_DEFINITION_SHAPE($,$,#14);
#939=SHAPE_REPRESENTATION('',(#560,#614),#927);
#940=SHAPE_REPRESENTATION('',(#561),#928);
#941=PRODUCT_DEFINITION_CONTEXT('part definition',#949,'design');
#942=PRODUCT_DEFINITION('2026-09-16-09-35-21-929',
'C_0805_2012Metric (1)',#944,#941);
#943=PRODUCT_DEFINITION('2026-09-16-09-35-21-929_1','C_0805_2012Metric',
#945,#941);
#944=PRODUCT_DEFINITION_FORMATION('',$,#951);
#945=PRODUCT_DEFINITION_FORMATION('',$,#952);
#946=PRODUCT_RELATED_PRODUCT_CATEGORY('C_0805_2012Metric (1)',
'C_0805_2012Metric (1)',(#951));
#947=PRODUCT_RELATED_PRODUCT_CATEGORY('C_0805_2012Metric',
'C_0805_2012Metric',(#952));
#948=APPLICATION_PROTOCOL_DEFINITION('international standard',
'automotive_design',2009,#949);
#949=APPLICATION_CONTEXT(
'Core Data for Automotive Mechanical Design Process');
#950=PRODUCT_CONTEXT('part definition',#949,'mechanical');
#951=PRODUCT('2026-09-16-09-35-21-929','C_0805_2012Metric (1)',$,(#950));
#952=PRODUCT('2026-09-16-09-35-21-929_1','C_0805_2012Metric',$,(#950));
#953=PRESENTATION_STYLE_ASSIGNMENT((#956));
#954=PRESENTATION_STYLE_ASSIGNMENT((#957));
#955=PRESENTATION_STYLE_ASSIGNMENT((#958));
#956=SURFACE_STYLE_USAGE(.BOTH.,#959);
#957=SURFACE_STYLE_USAGE(.BOTH.,#960);
#958=SURFACE_STYLE_USAGE(.BOTH.,#961);
#959=SURFACE_SIDE_STYLE('',(#962));
#960=SURFACE_SIDE_STYLE('',(#963));
#961=SURFACE_SIDE_STYLE('',(#964));
#962=SURFACE_STYLE_FILL_AREA(#965);
#963=SURFACE_STYLE_FILL_AREA(#966);
#964=SURFACE_STYLE_FILL_AREA(#967);
#965=FILL_AREA_STYLE('Steel - Satin',(#968));
#966=FILL_AREA_STYLE('Opaque(210,209,199)',(#969));
#967=FILL_AREA_STYLE('Opaque(97,69,55)',(#970));
#968=FILL_AREA_STYLE_COLOUR('Steel - Satin',#971);
#969=FILL_AREA_STYLE_COLOUR('Opaque(210,209,199)',#972);
#970=FILL_AREA_STYLE_COLOUR('Opaque(97,69,55)',#973);
#971=COLOUR_RGB('Steel - Satin',0.627450980392157,0.627450980392157,0.627450980392157);
#972=COLOUR_RGB('Opaque(210,209,199)',0.823529411764706,0.819607843137255,
0.780392156862745);
#973=COLOUR_RGB('Opaque(97,69,55)',0.380392156862745,0.270588235294118,
0.215686274509804);
ENDSEC;
END-ISO-10303-21;
