ISO-10303-21;
HEADER;
/* Generated by software containing ST-Developer
 * from STEP Tools, Inc. (www.steptools.com) 
 */

FILE_DESCRIPTION(
/* description */ (''),
/* implementation_level */ '2;1');

FILE_NAME(
/* name */ 'LED_WS2812B_PLCC4_5.0x5.0mm_P3.2mm.step',
/* time_stamp */ '2026-09-16T09:40:14+05:45',
/* author */ (''),
/* organization */ (''),
/* preprocessor_version */ 'ST-DEVELOPER v20.2',
/* originating_system */ 'Autodesk Translation Framework v15.15.0.0',
/* authorisation */ '');

FILE_SCHEMA (('AUTOMOTIVE_DESIGN { 1 0 10303 214 3 1 1 }'));
ENDSEC;

DATA;
#10=MECHANICAL_DESIGN_GEOMETRIC_PRESENTATION_REPRESENTATION('',(#1281,#1282,
#1283,#1284,#1285,#1286,#1287,#1288,#1289,#1290,#1291,#1292,#1293,#1294,
#1295,#1296,#1297,#1298,#1299,#1300,#1301,#1302,#1303,#1304,#1305,#1306,
#1307,#1308,#1309,#1310,#1311,#1312,#1313,#1314,#1315,#1316,#1317,#1318,
#1319,#1320,#1321,#1322,#1323,#1324,#1325,#1326,#1327,#1328,#1329,#1330,
#1331,#1332,#1333,#1334,#1335,#1336,#1337,#1338,#1339,#1340,#1341,#1342,
#1343,#1344,#1345,#1346,#1347,#1348,#1349),#2310);
#11=ITEM_DEFINED_TRANSFORMATION($,$,#1432,#1541);
#12=(
REPRESENTATION_RELATIONSHIP($,$,#2321,#2320)
REPRESENTATION_RELATIONSHIP_WITH_TRANSFORMATION(#11)
SHAPE_REPRESENTATION_RELATIONSHIP()
);
#13=CONTEXT_DEPENDENT_SHAPE_REPRESENTATION(#12,#2319);
#14=NEXT_ASSEMBLY_USAGE_OCCURRENCE('LED_WS2812B_PLCC4_50x50mm_P32mm:1',
'LED_WS2812B_PLCC4_50x50mm_P32mm:1','LED_WS2812B_PLCC4_50x50mm_P32mm:1',
#2323,#2324,'LED_WS2812B_PLCC4_50x50mm_P32mm:1');
#15=SHAPE_REPRESENTATION_RELATIONSHIP('SRR','None',#2321,#16);
#16=ADVANCED_BREP_SHAPE_REPRESENTATION('',(#17),#2309);
#17=MANIFOLD_SOLID_BREP('Body1',#1418);
#18=ELLIPSE('',#1438,0.08117941502193,0.075);
#19=ELLIPSE('',#1439,0.08117941502193,0.075);
#20=ELLIPSE('',#1441,0.106066017178,0.075);
#21=ELLIPSE('',#1443,0.106066017178,0.075);
#22=ELLIPSE('',#1445,0.106066017178,0.075);
#23=CYLINDRICAL_SURFACE('',#1437,0.075);
#24=CYLINDRICAL_SURFACE('',#1440,0.075);
#25=CYLINDRICAL_SURFACE('',#1442,0.075);
#26=CYLINDRICAL_SURFACE('',#1444,0.075);
#27=CYLINDRICAL_SURFACE('',#1446,0.075);
#28=CYLINDRICAL_SURFACE('',#1447,1.666666666667);
#29=CYLINDRICAL_SURFACE('',#1513,0.05);
#30=CYLINDRICAL_SURFACE('',#1514,0.05);
#31=CYLINDRICAL_SURFACE('',#1515,0.05);
#32=CYLINDRICAL_SURFACE('',#1517,0.05);
#33=CYLINDRICAL_SURFACE('',#1520,0.05);
#34=CYLINDRICAL_SURFACE('',#1521,0.05);
#35=CYLINDRICAL_SURFACE('',#1522,0.05);
#36=CYLINDRICAL_SURFACE('',#1525,0.05);
#37=CYLINDRICAL_SURFACE('',#1527,0.05);
#38=CYLINDRICAL_SURFACE('',#1528,0.05);
#39=CYLINDRICAL_SURFACE('',#1529,0.05);
#40=CYLINDRICAL_SURFACE('',#1530,0.05);
#41=CYLINDRICAL_SURFACE('',#1533,0.05);
#42=CYLINDRICAL_SURFACE('',#1535,0.05);
#43=CYLINDRICAL_SURFACE('',#1536,0.05);
#44=CYLINDRICAL_SURFACE('',#1539,0.05);
#45=CONICAL_SURFACE('',#1435,1.666666666667,0.785398163397);
#46=FACE_BOUND('',#155,.T.);
#47=FACE_BOUND('',#166,.T.);
#48=FACE_BOUND('',#167,.T.);
#49=FACE_BOUND('',#169,.T.);
#50=FACE_BOUND('',#170,.T.);
#51=CIRCLE('',#1434,1.966666666667);
#52=CIRCLE('',#1436,1.666666666667);
#53=CIRCLE('',#1448,1.666666666667);
#54=CIRCLE('',#1461,0.05);
#55=CIRCLE('',#1462,0.05);
#56=CIRCLE('',#1463,0.05);
#57=CIRCLE('',#1464,0.05);
#58=CIRCLE('',#1467,0.05);
#59=CIRCLE('',#1468,0.05);
#60=CIRCLE('',#1469,0.05);
#61=CIRCLE('',#1470,0.05);
#62=CIRCLE('',#1473,0.05);
#63=CIRCLE('',#1474,0.05);
#64=CIRCLE('',#1475,0.05);
#65=CIRCLE('',#1476,0.05);
#66=CIRCLE('',#1479,0.05);
#67=CIRCLE('',#1480,0.05);
#68=CIRCLE('',#1481,0.05);
#69=CIRCLE('',#1482,0.05);
#70=CIRCLE('',#1487,0.05);
#71=CIRCLE('',#1488,0.05);
#72=CIRCLE('',#1489,0.05);
#73=CIRCLE('',#1490,0.05);
#74=CIRCLE('',#1493,0.05);
#75=CIRCLE('',#1494,0.05);
#76=CIRCLE('',#1495,0.05);
#77=CIRCLE('',#1496,0.05);
#78=CIRCLE('',#1499,0.05);
#79=CIRCLE('',#1500,0.05);
#80=CIRCLE('',#1501,0.05);
#81=CIRCLE('',#1502,0.05);
#82=CIRCLE('',#1505,0.05);
#83=CIRCLE('',#1506,0.05);
#84=CIRCLE('',#1507,0.05);
#85=CIRCLE('',#1508,0.05);
#86=FACE_OUTER_BOUND('',#154,.T.);
#87=FACE_OUTER_BOUND('',#156,.T.);
#88=FACE_OUTER_BOUND('',#157,.T.);
#89=FACE_OUTER_BOUND('',#158,.T.);
#90=FACE_OUTER_BOUND('',#159,.T.);
#91=FACE_OUTER_BOUND('',#160,.T.);
#92=FACE_OUTER_BOUND('',#161,.T.);
#93=FACE_OUTER_BOUND('',#162,.T.);
#94=FACE_OUTER_BOUND('',#163,.T.);
#95=FACE_OUTER_BOUND('',#164,.T.);
#96=FACE_OUTER_BOUND('',#165,.T.);
#97=FACE_OUTER_BOUND('',#168,.T.);
#98=FACE_OUTER_BOUND('',#171,.T.);
#99=FACE_OUTER_BOUND('',#172,.T.);
#100=FACE_OUTER_BOUND('',#173,.T.);
#101=FACE_OUTER_BOUND('',#174,.T.);
#102=FACE_OUTER_BOUND('',#175,.T.);
#103=FACE_OUTER_BOUND('',#176,.T.);
#104=FACE_OUTER_BOUND('',#177,.T.);
#105=FACE_OUTER_BOUND('',#178,.T.);
#106=FACE_OUTER_BOUND('',#179,.T.);
#107=FACE_OUTER_BOUND('',#180,.T.);
#108=FACE_OUTER_BOUND('',#181,.T.);
#109=FACE_OUTER_BOUND('',#182,.T.);
#110=FACE_OUTER_BOUND('',#183,.T.);
#111=FACE_OUTER_BOUND('',#184,.T.);
#112=FACE_OUTER_BOUND('',#185,.T.);
#113=FACE_OUTER_BOUND('',#186,.T.);
#114=FACE_OUTER_BOUND('',#187,.T.);
#115=FACE_OUTER_BOUND('',#188,.T.);
#116=FACE_OUTER_BOUND('',#189,.T.);
#117=FACE_OUTER_BOUND('',#190,.T.);
#118=FACE_OUTER_BOUND('',#191,.T.);
#119=FACE_OUTER_BOUND('',#192,.T.);
#120=FACE_OUTER_BOUND('',#193,.T.);
#121=FACE_OUTER_BOUND('',#194,.T.);
#122=FACE_OUTER_BOUND('',#195,.T.);
#123=FACE_OUTER_BOUND('',#196,.T.);
#124=FACE_OUTER_BOUND('',#197,.T.);
#125=FACE_OUTER_BOUND('',#198,.T.);
#126=FACE_OUTER_BOUND('',#199,.T.);
#127=FACE_OUTER_BOUND('',#200,.T.);
#128=FACE_OUTER_BOUND('',#201,.T.);
#129=FACE_OUTER_BOUND('',#202,.T.);
#130=FACE_OUTER_BOUND('',#203,.T.);
#131=FACE_OUTER_BOUND('',#204,.T.);
#132=FACE_OUTER_BOUND('',#205,.T.);
#133=FACE_OUTER_BOUND('',#206,.T.);
#134=FACE_OUTER_BOUND('',#207,.T.);
#135=FACE_OUTER_BOUND('',#208,.T.);
#136=FACE_OUTER_BOUND('',#209,.T.);
#137=FACE_OUTER_BOUND('',#210,.T.);
#138=FACE_OUTER_BOUND('',#211,.T.);
#139=FACE_OUTER_BOUND('',#212,.T.);
#140=FACE_OUTER_BOUND('',#213,.T.);
#141=FACE_OUTER_BOUND('',#214,.T.);
#142=FACE_OUTER_BOUND('',#215,.T.);
#143=FACE_OUTER_BOUND('',#216,.T.);
#144=FACE_OUTER_BOUND('',#217,.T.);
#145=FACE_OUTER_BOUND('',#218,.T.);
#146=FACE_OUTER_BOUND('',#219,.T.);
#147=FACE_OUTER_BOUND('',#220,.T.);
#148=FACE_OUTER_BOUND('',#221,.T.);
#149=FACE_OUTER_BOUND('',#222,.T.);
#150=FACE_OUTER_BOUND('',#223,.T.);
#151=FACE_OUTER_BOUND('',#224,.T.);
#152=FACE_OUTER_BOUND('',#225,.T.);
#153=FACE_OUTER_BOUND('',#226,.T.);
#154=EDGE_LOOP('',(#850,#851,#852,#853,#854));
#155=EDGE_LOOP('',(#855));
#156=EDGE_LOOP('',(#856,#857,#858,#859));
#157=EDGE_LOOP('',(#860,#861,#862,#863));
#158=EDGE_LOOP('',(#864,#865,#866,#867));
#159=EDGE_LOOP('',(#868,#869,#870,#871));
#160=EDGE_LOOP('',(#872,#873,#874,#875));
#161=EDGE_LOOP('',(#876,#877,#878,#879));
#162=EDGE_LOOP('',(#880,#881,#882,#883));
#163=EDGE_LOOP('',(#884,#885,#886,#887));
#164=EDGE_LOOP('',(#888,#889,#890,#891,#892,#893));
#165=EDGE_LOOP('',(#894,#895,#896,#897,#898,#899,#900,#901,#902,#903));
#166=EDGE_LOOP('',(#904,#905,#906,#907));
#167=EDGE_LOOP('',(#908,#909,#910,#911));
#168=EDGE_LOOP('',(#912,#913,#914,#915,#916,#917,#918,#919));
#169=EDGE_LOOP('',(#920,#921,#922,#923));
#170=EDGE_LOOP('',(#924,#925,#926,#927));
#171=EDGE_LOOP('',(#928,#929,#930,#931));
#172=EDGE_LOOP('',(#932));
#173=EDGE_LOOP('',(#933,#934,#935));
#174=EDGE_LOOP('',(#936,#937,#938,#939,#940,#941,#942,#943,#944,#945,#946,
#947,#948,#949,#950,#951,#952,#953,#954,#955));
#175=EDGE_LOOP('',(#956,#957,#958,#959));
#176=EDGE_LOOP('',(#960,#961,#962,#963));
#177=EDGE_LOOP('',(#964,#965,#966,#967));
#178=EDGE_LOOP('',(#968,#969,#970,#971,#972,#973,#974,#975,#976,#977,#978,
#979,#980));
#179=EDGE_LOOP('',(#981,#982,#983,#984));
#180=EDGE_LOOP('',(#985,#986,#987,#988,#989,#990,#991,#992,#993,#994,#995,
#996,#997));
#181=EDGE_LOOP('',(#998,#999,#1000,#1001));
#182=EDGE_LOOP('',(#1002,#1003,#1004,#1005,#1006,#1007,#1008,#1009,#1010,
#1011,#1012,#1013,#1014));
#183=EDGE_LOOP('',(#1015,#1016,#1017,#1018));
#184=EDGE_LOOP('',(#1019,#1020,#1021,#1022,#1023,#1024,#1025,#1026,#1027,
#1028,#1029,#1030,#1031));
#185=EDGE_LOOP('',(#1032,#1033,#1034,#1035));
#186=EDGE_LOOP('',(#1036,#1037,#1038,#1039));
#187=EDGE_LOOP('',(#1040,#1041,#1042,#1043));
#188=EDGE_LOOP('',(#1044,#1045,#1046,#1047,#1048,#1049,#1050,#1051,#1052,
#1053,#1054,#1055,#1056));
#189=EDGE_LOOP('',(#1057,#1058,#1059,#1060));
#190=EDGE_LOOP('',(#1061,#1062,#1063,#1064,#1065,#1066,#1067,#1068,#1069,
#1070,#1071,#1072,#1073));
#191=EDGE_LOOP('',(#1074,#1075,#1076,#1077));
#192=EDGE_LOOP('',(#1078,#1079,#1080,#1081,#1082,#1083,#1084,#1085,#1086,
#1087,#1088,#1089,#1090));
#193=EDGE_LOOP('',(#1091,#1092,#1093,#1094));
#194=EDGE_LOOP('',(#1095,#1096,#1097,#1098,#1099,#1100,#1101,#1102,#1103,
#1104,#1105,#1106,#1107));
#195=EDGE_LOOP('',(#1108,#1109,#1110,#1111));
#196=EDGE_LOOP('',(#1112,#1113,#1114,#1115));
#197=EDGE_LOOP('',(#1116,#1117,#1118,#1119));
#198=EDGE_LOOP('',(#1120,#1121,#1122,#1123));
#199=EDGE_LOOP('',(#1124,#1125,#1126,#1127));
#200=EDGE_LOOP('',(#1128,#1129,#1130,#1131));
#201=EDGE_LOOP('',(#1132,#1133,#1134,#1135));
#202=EDGE_LOOP('',(#1136,#1137,#1138,#1139));
#203=EDGE_LOOP('',(#1140,#1141,#1142,#1143));
#204=EDGE_LOOP('',(#1144,#1145,#1146,#1147));
#205=EDGE_LOOP('',(#1148,#1149,#1150,#1151));
#206=EDGE_LOOP('',(#1152,#1153,#1154,#1155));
#207=EDGE_LOOP('',(#1156,#1157,#1158,#1159));
#208=EDGE_LOOP('',(#1160,#1161,#1162,#1163));
#209=EDGE_LOOP('',(#1164,#1165,#1166,#1167));
#210=EDGE_LOOP('',(#1168,#1169,#1170,#1171));
#211=EDGE_LOOP('',(#1172,#1173,#1174,#1175));
#212=EDGE_LOOP('',(#1176,#1177,#1178,#1179));
#213=EDGE_LOOP('',(#1180,#1181,#1182,#1183));
#214=EDGE_LOOP('',(#1184,#1185,#1186,#1187));
#215=EDGE_LOOP('',(#1188,#1189,#1190,#1191));
#216=EDGE_LOOP('',(#1192,#1193,#1194,#1195));
#217=EDGE_LOOP('',(#1196,#1197,#1198,#1199));
#218=EDGE_LOOP('',(#1200,#1201,#1202,#1203));
#219=EDGE_LOOP('',(#1204,#1205,#1206,#1207));
#220=EDGE_LOOP('',(#1208,#1209,#1210,#1211));
#221=EDGE_LOOP('',(#1212,#1213,#1214,#1215));
#222=EDGE_LOOP('',(#1216,#1217,#1218,#1219));
#223=EDGE_LOOP('',(#1220,#1221,#1222,#1223));
#224=EDGE_LOOP('',(#1224,#1225,#1226,#1227));
#225=EDGE_LOOP('',(#1228,#1229,#1230,#1231));
#226=EDGE_LOOP('',(#1232,#1233,#1234,#1235));
#227=LINE('',#1922,#380);
#228=LINE('',#1924,#381);
#229=LINE('',#1926,#382);
#230=LINE('',#1928,#383);
#231=LINE('',#1929,#384);
#232=LINE('',#1935,#385);
#233=LINE('',#1940,#386);
#234=LINE('',#1945,#387);
#235=LINE('',#1948,#388);
#236=LINE('',#1952,#389);
#237=LINE('',#1955,#390);
#238=LINE('',#1958,#391);
#239=LINE('',#1962,#392);
#240=LINE('',#1964,#393);
#241=LINE('',#1965,#394);
#242=LINE('',#1968,#395);
#243=LINE('',#1970,#396);
#244=LINE('',#1972,#397);
#245=LINE('',#1973,#398);
#246=LINE('',#1976,#399);
#247=LINE('',#1977,#400);
#248=LINE('',#1979,#401);
#249=LINE('',#1981,#402);
#250=LINE('',#1983,#403);
#251=LINE('',#1985,#404);
#252=LINE('',#1986,#405);
#253=LINE('',#1989,#406);
#254=LINE('',#1991,#407);
#255=LINE('',#1993,#408);
#256=LINE('',#1994,#409);
#257=LINE('',#1997,#410);
#258=LINE('',#1999,#411);
#259=LINE('',#2001,#412);
#260=LINE('',#2002,#413);
#261=LINE('',#2005,#414);
#262=LINE('',#2007,#415);
#263=LINE('',#2009,#416);
#264=LINE('',#2011,#417);
#265=LINE('',#2013,#418);
#266=LINE('',#2014,#419);
#267=LINE('',#2017,#420);
#268=LINE('',#2019,#421);
#269=LINE('',#2021,#422);
#270=LINE('',#2022,#423);
#271=LINE('',#2025,#424);
#272=LINE('',#2027,#425);
#273=LINE('',#2029,#426);
#274=LINE('',#2030,#427);
#275=LINE('',#2032,#428);
#276=LINE('',#2037,#429);
#277=LINE('',#2039,#430);
#278=LINE('',#2040,#431);
#279=LINE('',#2042,#432);
#280=LINE('',#2044,#433);
#281=LINE('',#2045,#434);
#282=LINE('',#2047,#435);
#283=LINE('',#2049,#436);
#284=LINE('',#2050,#437);
#285=LINE('',#2052,#438);
#286=LINE('',#2054,#439);
#287=LINE('',#2055,#440);
#288=LINE('',#2059,#441);
#289=LINE('',#2060,#442);
#290=LINE('',#2061,#443);
#291=LINE('',#2065,#444);
#292=LINE('',#2066,#445);
#293=LINE('',#2067,#446);
#294=LINE('',#2071,#447);
#295=LINE('',#2072,#448);
#296=LINE('',#2073,#449);
#297=LINE('',#2077,#450);
#298=LINE('',#2080,#451);
#299=LINE('',#2084,#452);
#300=LINE('',#2087,#453);
#301=LINE('',#2089,#454);
#302=LINE('',#2093,#455);
#303=LINE('',#2094,#456);
#304=LINE('',#2100,#457);
#305=LINE('',#2101,#458);
#306=LINE('',#2105,#459);
#307=LINE('',#2109,#460);
#308=LINE('',#2113,#461);
#309=LINE('',#2114,#462);
#310=LINE('',#2115,#463);
#311=LINE('',#2121,#464);
#312=LINE('',#2122,#465);
#313=LINE('',#2126,#466);
#314=LINE('',#2129,#467);
#315=LINE('',#2132,#468);
#316=LINE('',#2135,#469);
#317=LINE('',#2136,#470);
#318=LINE('',#2140,#471);
#319=LINE('',#2145,#472);
#320=LINE('',#2148,#473);
#321=LINE('',#2150,#474);
#322=LINE('',#2154,#475);
#323=LINE('',#2156,#476);
#324=LINE('',#2157,#477);
#325=LINE('',#2160,#478);
#326=LINE('',#2162,#479);
#327=LINE('',#2163,#480);
#328=LINE('',#2166,#481);
#329=LINE('',#2168,#482);
#330=LINE('',#2169,#483);
#331=LINE('',#2175,#484);
#332=LINE('',#2176,#485);
#333=LINE('',#2180,#486);
#334=LINE('',#2183,#487);
#335=LINE('',#2186,#488);
#336=LINE('',#2189,#489);
#337=LINE('',#2190,#490);
#338=LINE('',#2194,#491);
#339=LINE('',#2199,#492);
#340=LINE('',#2202,#493);
#341=LINE('',#2204,#494);
#342=LINE('',#2208,#495);
#343=LINE('',#2210,#496);
#344=LINE('',#2211,#497);
#345=LINE('',#2217,#498);
#346=LINE('',#2218,#499);
#347=LINE('',#2222,#500);
#348=LINE('',#2225,#501);
#349=LINE('',#2228,#502);
#350=LINE('',#2231,#503);
#351=LINE('',#2232,#504);
#352=LINE('',#2236,#505);
#353=LINE('',#2241,#506);
#354=LINE('',#2244,#507);
#355=LINE('',#2246,#508);
#356=LINE('',#2249,#509);
#357=LINE('',#2251,#510);
#358=LINE('',#2253,#511);
#359=LINE('',#2255,#512);
#360=LINE('',#2257,#513);
#361=LINE('',#2259,#514);
#362=LINE('',#2261,#515);
#363=LINE('',#2263,#516);
#364=LINE('',#2264,#517);
#365=LINE('',#2268,#518);
#366=LINE('',#2271,#519);
#367=LINE('',#2273,#520);
#368=LINE('',#2274,#521);
#369=LINE('',#2277,#522);
#370=LINE('',#2281,#523);
#371=LINE('',#2283,#524);
#372=LINE('',#2285,#525);
#373=LINE('',#2287,#526);
#374=LINE('',#2288,#527);
#375=LINE('',#2291,#528);
#376=LINE('',#2295,#529);
#377=LINE('',#2297,#530);
#378=LINE('',#2298,#531);
#379=LINE('',#2301,#532);
#380=VECTOR('',#1548,1.00000000000064);
#381=VECTOR('',#1549,1.);
#382=VECTOR('',#1550,1.);
#383=VECTOR('',#1551,1.);
#384=VECTOR('',#1552,1.);
#385=VECTOR('',#1559,1.666666666667);
#386=VECTOR('',#1564,1.00000000000064);
#387=VECTOR('',#1571,1.);
#388=VECTOR('',#1574,1.);
#389=VECTOR('',#1579,1.);
#390=VECTOR('',#1584,1.);
#391=VECTOR('',#1587,1.666666666667);
#392=VECTOR('',#1592,1.);
#393=VECTOR('',#1593,1.00000000000064);
#394=VECTOR('',#1594,1.);
#395=VECTOR('',#1597,1.);
#396=VECTOR('',#1598,1.);
#397=VECTOR('',#1599,1.);
#398=VECTOR('',#1600,1.);
#399=VECTOR('',#1603,1.);
#400=VECTOR('',#1604,1.);
#401=VECTOR('',#1605,1.);
#402=VECTOR('',#1606,1.);
#403=VECTOR('',#1607,1.);
#404=VECTOR('',#1608,1.);
#405=VECTOR('',#1609,1.);
#406=VECTOR('',#1610,1.);
#407=VECTOR('',#1611,1.);
#408=VECTOR('',#1612,1.);
#409=VECTOR('',#1613,1.);
#410=VECTOR('',#1614,1.);
#411=VECTOR('',#1615,1.);
#412=VECTOR('',#1616,1.);
#413=VECTOR('',#1617,1.);
#414=VECTOR('',#1620,1.);
#415=VECTOR('',#1621,1.);
#416=VECTOR('',#1622,1.);
#417=VECTOR('',#1623,1.);
#418=VECTOR('',#1624,1.);
#419=VECTOR('',#1625,1.);
#420=VECTOR('',#1626,1.);
#421=VECTOR('',#1627,1.);
#422=VECTOR('',#1628,1.);
#423=VECTOR('',#1629,1.);
#424=VECTOR('',#1630,1.);
#425=VECTOR('',#1631,1.);
#426=VECTOR('',#1632,1.);
#427=VECTOR('',#1633,1.);
#428=VECTOR('',#1636,1.);
#429=VECTOR('',#1643,1.);
#430=VECTOR('',#1644,1.);
#431=VECTOR('',#1645,1.);
#432=VECTOR('',#1646,1.);
#433=VECTOR('',#1647,1.);
#434=VECTOR('',#1648,1.);
#435=VECTOR('',#1649,1.);
#436=VECTOR('',#1650,1.);
#437=VECTOR('',#1651,1.);
#438=VECTOR('',#1652,1.);
#439=VECTOR('',#1653,1.);
#440=VECTOR('',#1654,1.);
#441=VECTOR('',#1657,1.);
#442=VECTOR('',#1658,1.);
#443=VECTOR('',#1659,1.);
#444=VECTOR('',#1662,1.);
#445=VECTOR('',#1663,1.);
#446=VECTOR('',#1664,1.);
#447=VECTOR('',#1667,1.);
#448=VECTOR('',#1668,1.);
#449=VECTOR('',#1669,1.);
#450=VECTOR('',#1672,1.);
#451=VECTOR('',#1675,1.);
#452=VECTOR('',#1678,1.);
#453=VECTOR('',#1681,1.);
#454=VECTOR('',#1682,1.);
#455=VECTOR('',#1687,1.);
#456=VECTOR('',#1688,1.);
#457=VECTOR('',#1693,1.);
#458=VECTOR('',#1694,1.);
#459=VECTOR('',#1697,1.);
#460=VECTOR('',#1702,1.);
#461=VECTOR('',#1705,1.);
#462=VECTOR('',#1706,1.);
#463=VECTOR('',#1707,1.);
#464=VECTOR('',#1712,1.);
#465=VECTOR('',#1713,1.);
#466=VECTOR('',#1716,1.);
#467=VECTOR('',#1719,1.);
#468=VECTOR('',#1722,1.);
#469=VECTOR('',#1725,1.);
#470=VECTOR('',#1726,1.);
#471=VECTOR('',#1729,1.);
#472=VECTOR('',#1734,1.);
#473=VECTOR('',#1737,1.);
#474=VECTOR('',#1738,1.);
#475=VECTOR('',#1743,1.);
#476=VECTOR('',#1744,1.);
#477=VECTOR('',#1745,1.);
#478=VECTOR('',#1748,1.);
#479=VECTOR('',#1749,1.);
#480=VECTOR('',#1750,1.);
#481=VECTOR('',#1753,1.);
#482=VECTOR('',#1754,1.);
#483=VECTOR('',#1755,1.);
#484=VECTOR('',#1760,1.);
#485=VECTOR('',#1761,1.);
#486=VECTOR('',#1764,1.);
#487=VECTOR('',#1767,1.);
#488=VECTOR('',#1770,1.);
#489=VECTOR('',#1773,1.);
#490=VECTOR('',#1774,1.);
#491=VECTOR('',#1777,1.);
#492=VECTOR('',#1782,1.);
#493=VECTOR('',#1785,1.);
#494=VECTOR('',#1786,1.);
#495=VECTOR('',#1791,1.);
#496=VECTOR('',#1792,1.);
#497=VECTOR('',#1793,1.);
#498=VECTOR('',#1798,1.);
#499=VECTOR('',#1799,1.);
#500=VECTOR('',#1802,1.);
#501=VECTOR('',#1805,1.);
#502=VECTOR('',#1808,1.);
#503=VECTOR('',#1811,1.);
#504=VECTOR('',#1812,1.);
#505=VECTOR('',#1815,1.);
#506=VECTOR('',#1820,1.);
#507=VECTOR('',#1823,1.);
#508=VECTOR('',#1824,1.);
#509=VECTOR('',#1829,1.);
#510=VECTOR('',#1832,1.);
#511=VECTOR('',#1835,1.);
#512=VECTOR('',#1838,1.);
#513=VECTOR('',#1841,1.);
#514=VECTOR('',#1844,1.);
#515=VECTOR('',#1847,1.);
#516=VECTOR('',#1850,1.);
#517=VECTOR('',#1851,1.);
#518=VECTOR('',#1858,1.);
#519=VECTOR('',#1863,1.);
#520=VECTOR('',#1866,1.);
#521=VECTOR('',#1867,1.);
#522=VECTOR('',#1872,1.);
#523=VECTOR('',#1879,1.);
#524=VECTOR('',#1882,1.);
#525=VECTOR('',#1885,1.);
#526=VECTOR('',#1888,1.);
#527=VECTOR('',#1889,1.);
#528=VECTOR('',#1894,1.);
#529=VECTOR('',#1901,1.);
#530=VECTOR('',#1904,1.);
#531=VECTOR('',#1905,1.);
#532=VECTOR('',#1910,1.);
#533=VERTEX_POINT('',#1920);
#534=VERTEX_POINT('',#1921);
#535=VERTEX_POINT('',#1923);
#536=VERTEX_POINT('',#1925);
#537=VERTEX_POINT('',#1927);
#538=VERTEX_POINT('',#1930);
#539=VERTEX_POINT('',#1933);
#540=VERTEX_POINT('',#1937);
#541=VERTEX_POINT('',#1939);
#542=VERTEX_POINT('',#1943);
#543=VERTEX_POINT('',#1947);
#544=VERTEX_POINT('',#1951);
#545=VERTEX_POINT('',#1957);
#546=VERTEX_POINT('',#1961);
#547=VERTEX_POINT('',#1963);
#548=VERTEX_POINT('',#1967);
#549=VERTEX_POINT('',#1969);
#550=VERTEX_POINT('',#1971);
#551=VERTEX_POINT('',#1975);
#552=VERTEX_POINT('',#1978);
#553=VERTEX_POINT('',#1980);
#554=VERTEX_POINT('',#1982);
#555=VERTEX_POINT('',#1984);
#556=VERTEX_POINT('',#1987);
#557=VERTEX_POINT('',#1988);
#558=VERTEX_POINT('',#1990);
#559=VERTEX_POINT('',#1992);
#560=VERTEX_POINT('',#1995);
#561=VERTEX_POINT('',#1996);
#562=VERTEX_POINT('',#1998);
#563=VERTEX_POINT('',#2000);
#564=VERTEX_POINT('',#2004);
#565=VERTEX_POINT('',#2006);
#566=VERTEX_POINT('',#2008);
#567=VERTEX_POINT('',#2010);
#568=VERTEX_POINT('',#2012);
#569=VERTEX_POINT('',#2015);
#570=VERTEX_POINT('',#2016);
#571=VERTEX_POINT('',#2018);
#572=VERTEX_POINT('',#2020);
#573=VERTEX_POINT('',#2023);
#574=VERTEX_POINT('',#2024);
#575=VERTEX_POINT('',#2026);
#576=VERTEX_POINT('',#2028);
#577=VERTEX_POINT('',#2036);
#578=VERTEX_POINT('',#2038);
#579=VERTEX_POINT('',#2041);
#580=VERTEX_POINT('',#2043);
#581=VERTEX_POINT('',#2046);
#582=VERTEX_POINT('',#2048);
#583=VERTEX_POINT('',#2051);
#584=VERTEX_POINT('',#2053);
#585=VERTEX_POINT('',#2057);
#586=VERTEX_POINT('',#2058);
#587=VERTEX_POINT('',#2063);
#588=VERTEX_POINT('',#2064);
#589=VERTEX_POINT('',#2069);
#590=VERTEX_POINT('',#2070);
#591=VERTEX_POINT('',#2075);
#592=VERTEX_POINT('',#2076);
#593=VERTEX_POINT('',#2078);
#594=VERTEX_POINT('',#2081);
#595=VERTEX_POINT('',#2083);
#596=VERTEX_POINT('',#2086);
#597=VERTEX_POINT('',#2088);
#598=VERTEX_POINT('',#2092);
#599=VERTEX_POINT('',#2096);
#600=VERTEX_POINT('',#2097);
#601=VERTEX_POINT('',#2099);
#602=VERTEX_POINT('',#2102);
#603=VERTEX_POINT('',#2104);
#604=VERTEX_POINT('',#2107);
#605=VERTEX_POINT('',#2111);
#606=VERTEX_POINT('',#2112);
#607=VERTEX_POINT('',#2117);
#608=VERTEX_POINT('',#2118);
#609=VERTEX_POINT('',#2120);
#610=VERTEX_POINT('',#2123);
#611=VERTEX_POINT('',#2125);
#612=VERTEX_POINT('',#2127);
#613=VERTEX_POINT('',#2130);
#614=VERTEX_POINT('',#2134);
#615=VERTEX_POINT('',#2138);
#616=VERTEX_POINT('',#2139);
#617=VERTEX_POINT('',#2142);
#618=VERTEX_POINT('',#2144);
#619=VERTEX_POINT('',#2147);
#620=VERTEX_POINT('',#2149);
#621=VERTEX_POINT('',#2153);
#622=VERTEX_POINT('',#2155);
#623=VERTEX_POINT('',#2159);
#624=VERTEX_POINT('',#2161);
#625=VERTEX_POINT('',#2165);
#626=VERTEX_POINT('',#2167);
#627=VERTEX_POINT('',#2171);
#628=VERTEX_POINT('',#2172);
#629=VERTEX_POINT('',#2174);
#630=VERTEX_POINT('',#2177);
#631=VERTEX_POINT('',#2179);
#632=VERTEX_POINT('',#2181);
#633=VERTEX_POINT('',#2184);
#634=VERTEX_POINT('',#2188);
#635=VERTEX_POINT('',#2192);
#636=VERTEX_POINT('',#2193);
#637=VERTEX_POINT('',#2196);
#638=VERTEX_POINT('',#2198);
#639=VERTEX_POINT('',#2201);
#640=VERTEX_POINT('',#2203);
#641=VERTEX_POINT('',#2207);
#642=VERTEX_POINT('',#2209);
#643=VERTEX_POINT('',#2213);
#644=VERTEX_POINT('',#2214);
#645=VERTEX_POINT('',#2216);
#646=VERTEX_POINT('',#2219);
#647=VERTEX_POINT('',#2221);
#648=VERTEX_POINT('',#2223);
#649=VERTEX_POINT('',#2226);
#650=VERTEX_POINT('',#2230);
#651=VERTEX_POINT('',#2234);
#652=VERTEX_POINT('',#2235);
#653=VERTEX_POINT('',#2238);
#654=VERTEX_POINT('',#2240);
#655=VERTEX_POINT('',#2243);
#656=VERTEX_POINT('',#2245);
#657=EDGE_CURVE('',#533,#534,#227,.T.);
#658=EDGE_CURVE('',#534,#535,#228,.T.);
#659=EDGE_CURVE('',#535,#536,#229,.T.);
#660=EDGE_CURVE('',#536,#537,#230,.T.);
#661=EDGE_CURVE('',#537,#533,#231,.T.);
#662=EDGE_CURVE('',#538,#538,#51,.T.);
#663=EDGE_CURVE('',#539,#539,#52,.T.);
#664=EDGE_CURVE('',#539,#538,#232,.T.);
#665=EDGE_CURVE('',#533,#540,#18,.T.);
#666=EDGE_CURVE('',#540,#541,#233,.T.);
#667=EDGE_CURVE('',#534,#541,#19,.T.);
#668=EDGE_CURVE('',#542,#537,#20,.T.);
#669=EDGE_CURVE('',#542,#540,#234,.T.);
#670=EDGE_CURVE('',#541,#543,#235,.T.);
#671=EDGE_CURVE('',#543,#535,#21,.T.);
#672=EDGE_CURVE('',#544,#542,#236,.T.);
#673=EDGE_CURVE('',#544,#536,#22,.T.);
#674=EDGE_CURVE('',#543,#544,#237,.T.);
#675=EDGE_CURVE('',#539,#545,#238,.T.);
#676=EDGE_CURVE('',#545,#545,#53,.T.);
#677=EDGE_CURVE('',#540,#546,#239,.T.);
#678=EDGE_CURVE('',#547,#546,#240,.T.);
#679=EDGE_CURVE('',#547,#541,#241,.T.);
#680=EDGE_CURVE('',#548,#542,#242,.T.);
#681=EDGE_CURVE('',#548,#549,#243,.T.);
#682=EDGE_CURVE('',#549,#550,#244,.T.);
#683=EDGE_CURVE('',#546,#550,#245,.T.);
#684=EDGE_CURVE('',#551,#543,#246,.T.);
#685=EDGE_CURVE('',#550,#547,#247,.T.);
#686=EDGE_CURVE('',#549,#552,#248,.T.);
#687=EDGE_CURVE('',#552,#553,#249,.T.);
#688=EDGE_CURVE('',#553,#554,#250,.T.);
#689=EDGE_CURVE('',#554,#555,#251,.T.);
#690=EDGE_CURVE('',#555,#551,#252,.T.);
#691=EDGE_CURVE('',#556,#557,#253,.T.);
#692=EDGE_CURVE('',#558,#556,#254,.T.);
#693=EDGE_CURVE('',#558,#559,#255,.T.);
#694=EDGE_CURVE('',#557,#559,#256,.T.);
#695=EDGE_CURVE('',#560,#561,#257,.T.);
#696=EDGE_CURVE('',#562,#561,#258,.T.);
#697=EDGE_CURVE('',#563,#562,#259,.T.);
#698=EDGE_CURVE('',#560,#563,#260,.T.);
#699=EDGE_CURVE('',#564,#544,#261,.T.);
#700=EDGE_CURVE('',#564,#565,#262,.T.);
#701=EDGE_CURVE('',#565,#566,#263,.T.);
#702=EDGE_CURVE('',#566,#567,#264,.T.);
#703=EDGE_CURVE('',#567,#568,#265,.T.);
#704=EDGE_CURVE('',#568,#548,#266,.T.);
#705=EDGE_CURVE('',#569,#570,#267,.T.);
#706=EDGE_CURVE('',#571,#570,#268,.T.);
#707=EDGE_CURVE('',#572,#571,#269,.T.);
#708=EDGE_CURVE('',#569,#572,#270,.T.);
#709=EDGE_CURVE('',#573,#574,#271,.T.);
#710=EDGE_CURVE('',#575,#574,#272,.T.);
#711=EDGE_CURVE('',#576,#575,#273,.T.);
#712=EDGE_CURVE('',#573,#576,#274,.T.);
#713=EDGE_CURVE('',#551,#564,#275,.T.);
#714=EDGE_CURVE('',#555,#577,#276,.T.);
#715=EDGE_CURVE('',#578,#577,#277,.T.);
#716=EDGE_CURVE('',#554,#578,#278,.T.);
#717=EDGE_CURVE('',#553,#579,#279,.T.);
#718=EDGE_CURVE('',#580,#579,#280,.T.);
#719=EDGE_CURVE('',#552,#580,#281,.T.);
#720=EDGE_CURVE('',#568,#581,#282,.T.);
#721=EDGE_CURVE('',#582,#581,#283,.T.);
#722=EDGE_CURVE('',#567,#582,#284,.T.);
#723=EDGE_CURVE('',#566,#583,#285,.T.);
#724=EDGE_CURVE('',#584,#583,#286,.T.);
#725=EDGE_CURVE('',#565,#584,#287,.T.);
#726=EDGE_CURVE('',#585,#586,#288,.T.);
#727=EDGE_CURVE('',#586,#555,#289,.T.);
#728=EDGE_CURVE('',#554,#585,#290,.T.);
#729=EDGE_CURVE('',#587,#588,#291,.T.);
#730=EDGE_CURVE('',#588,#553,#292,.T.);
#731=EDGE_CURVE('',#552,#587,#293,.T.);
#732=EDGE_CURVE('',#589,#590,#294,.T.);
#733=EDGE_CURVE('',#556,#589,#295,.T.);
#734=EDGE_CURVE('',#590,#557,#296,.T.);
#735=EDGE_CURVE('',#591,#592,#297,.T.);
#736=EDGE_CURVE('',#592,#593,#54,.T.);
#737=EDGE_CURVE('',#558,#593,#298,.T.);
#738=EDGE_CURVE('',#589,#594,#55,.T.);
#739=EDGE_CURVE('',#595,#594,#299,.T.);
#740=EDGE_CURVE('',#595,#585,#56,.T.);
#741=EDGE_CURVE('',#596,#578,#300,.T.);
#742=EDGE_CURVE('',#596,#597,#301,.T.);
#743=EDGE_CURVE('',#591,#597,#57,.T.);
#744=EDGE_CURVE('',#593,#598,#302,.T.);
#745=EDGE_CURVE('',#598,#559,#303,.T.);
#746=EDGE_CURVE('',#599,#600,#58,.T.);
#747=EDGE_CURVE('',#600,#601,#304,.T.);
#748=EDGE_CURVE('',#601,#577,#305,.T.);
#749=EDGE_CURVE('',#602,#586,#59,.T.);
#750=EDGE_CURVE('',#603,#602,#306,.T.);
#751=EDGE_CURVE('',#590,#603,#60,.T.);
#752=EDGE_CURVE('',#604,#598,#61,.T.);
#753=EDGE_CURVE('',#599,#604,#307,.T.);
#754=EDGE_CURVE('',#605,#606,#308,.T.);
#755=EDGE_CURVE('',#606,#561,#309,.T.);
#756=EDGE_CURVE('',#560,#605,#310,.T.);
#757=EDGE_CURVE('',#607,#608,#62,.T.);
#758=EDGE_CURVE('',#608,#609,#311,.T.);
#759=EDGE_CURVE('',#609,#579,#312,.T.);
#760=EDGE_CURVE('',#610,#588,#63,.T.);
#761=EDGE_CURVE('',#611,#610,#313,.T.);
#762=EDGE_CURVE('',#612,#611,#64,.T.);
#763=EDGE_CURVE('',#612,#562,#314,.T.);
#764=EDGE_CURVE('',#613,#606,#65,.T.);
#765=EDGE_CURVE('',#607,#613,#315,.T.);
#766=EDGE_CURVE('',#614,#612,#316,.T.);
#767=EDGE_CURVE('',#563,#614,#317,.T.);
#768=EDGE_CURVE('',#615,#616,#318,.T.);
#769=EDGE_CURVE('',#616,#605,#66,.T.);
#770=EDGE_CURVE('',#614,#617,#67,.T.);
#771=EDGE_CURVE('',#618,#617,#319,.T.);
#772=EDGE_CURVE('',#618,#587,#68,.T.);
#773=EDGE_CURVE('',#619,#580,#320,.T.);
#774=EDGE_CURVE('',#619,#620,#321,.T.);
#775=EDGE_CURVE('',#615,#620,#69,.T.);
#776=EDGE_CURVE('',#565,#621,#322,.T.);
#777=EDGE_CURVE('',#621,#622,#323,.T.);
#778=EDGE_CURVE('',#622,#566,#324,.T.);
#779=EDGE_CURVE('',#567,#623,#325,.T.);
#780=EDGE_CURVE('',#623,#624,#326,.T.);
#781=EDGE_CURVE('',#624,#568,#327,.T.);
#782=EDGE_CURVE('',#569,#625,#328,.T.);
#783=EDGE_CURVE('',#625,#626,#329,.T.);
#784=EDGE_CURVE('',#626,#570,#330,.T.);
#785=EDGE_CURVE('',#627,#628,#70,.T.);
#786=EDGE_CURVE('',#628,#629,#331,.T.);
#787=EDGE_CURVE('',#629,#581,#332,.T.);
#788=EDGE_CURVE('',#630,#624,#71,.T.);
#789=EDGE_CURVE('',#631,#630,#333,.T.);
#790=EDGE_CURVE('',#632,#631,#72,.T.);
#791=EDGE_CURVE('',#632,#571,#334,.T.);
#792=EDGE_CURVE('',#626,#633,#73,.T.);
#793=EDGE_CURVE('',#627,#633,#335,.T.);
#794=EDGE_CURVE('',#634,#632,#336,.T.);
#795=EDGE_CURVE('',#572,#634,#337,.T.);
#796=EDGE_CURVE('',#635,#636,#338,.T.);
#797=EDGE_CURVE('',#625,#636,#74,.T.);
#798=EDGE_CURVE('',#634,#637,#75,.T.);
#799=EDGE_CURVE('',#638,#637,#339,.T.);
#800=EDGE_CURVE('',#638,#623,#76,.T.);
#801=EDGE_CURVE('',#639,#582,#340,.T.);
#802=EDGE_CURVE('',#639,#640,#341,.T.);
#803=EDGE_CURVE('',#635,#640,#77,.T.);
#804=EDGE_CURVE('',#573,#641,#342,.T.);
#805=EDGE_CURVE('',#641,#642,#343,.T.);
#806=EDGE_CURVE('',#642,#574,#344,.T.);
#807=EDGE_CURVE('',#643,#644,#78,.T.);
#808=EDGE_CURVE('',#644,#645,#345,.T.);
#809=EDGE_CURVE('',#645,#583,#346,.T.);
#810=EDGE_CURVE('',#646,#622,#79,.T.);
#811=EDGE_CURVE('',#647,#646,#347,.T.);
#812=EDGE_CURVE('',#648,#647,#80,.T.);
#813=EDGE_CURVE('',#648,#575,#348,.T.);
#814=EDGE_CURVE('',#642,#649,#81,.T.);
#815=EDGE_CURVE('',#643,#649,#349,.T.);
#816=EDGE_CURVE('',#650,#648,#350,.T.);
#817=EDGE_CURVE('',#576,#650,#351,.T.);
#818=EDGE_CURVE('',#651,#652,#352,.T.);
#819=EDGE_CURVE('',#641,#652,#82,.T.);
#820=EDGE_CURVE('',#650,#653,#83,.T.);
#821=EDGE_CURVE('',#654,#653,#353,.T.);
#822=EDGE_CURVE('',#654,#621,#84,.T.);
#823=EDGE_CURVE('',#655,#584,#354,.T.);
#824=EDGE_CURVE('',#655,#656,#355,.T.);
#825=EDGE_CURVE('',#651,#656,#85,.T.);
#826=EDGE_CURVE('',#601,#596,#356,.T.);
#827=EDGE_CURVE('',#609,#619,#357,.T.);
#828=EDGE_CURVE('',#629,#639,#358,.T.);
#829=EDGE_CURVE('',#645,#655,#359,.T.);
#830=EDGE_CURVE('',#595,#602,#360,.T.);
#831=EDGE_CURVE('',#618,#610,#361,.T.);
#832=EDGE_CURVE('',#594,#603,#362,.T.);
#833=EDGE_CURVE('',#591,#599,#363,.T.);
#834=EDGE_CURVE('',#592,#604,#364,.T.);
#835=EDGE_CURVE('',#597,#600,#365,.T.);
#836=EDGE_CURVE('',#616,#613,#366,.T.);
#837=EDGE_CURVE('',#620,#608,#367,.T.);
#838=EDGE_CURVE('',#615,#607,#368,.T.);
#839=EDGE_CURVE('',#617,#611,#369,.T.);
#840=EDGE_CURVE('',#654,#646,#370,.T.);
#841=EDGE_CURVE('',#638,#630,#371,.T.);
#842=EDGE_CURVE('',#636,#633,#372,.T.);
#843=EDGE_CURVE('',#640,#628,#373,.T.);
#844=EDGE_CURVE('',#635,#627,#374,.T.);
#845=EDGE_CURVE('',#637,#631,#375,.T.);
#846=EDGE_CURVE('',#652,#649,#376,.T.);
#847=EDGE_CURVE('',#656,#644,#377,.T.);
#848=EDGE_CURVE('',#651,#643,#378,.T.);
#849=EDGE_CURVE('',#653,#647,#379,.T.);
#850=ORIENTED_EDGE('',*,*,#657,.T.);
#851=ORIENTED_EDGE('',*,*,#658,.T.);
#852=ORIENTED_EDGE('',*,*,#659,.T.);
#853=ORIENTED_EDGE('',*,*,#660,.T.);
#854=ORIENTED_EDGE('',*,*,#661,.T.);
#855=ORIENTED_EDGE('',*,*,#662,.T.);
#856=ORIENTED_EDGE('',*,*,#663,.T.);
#857=ORIENTED_EDGE('',*,*,#664,.T.);
#858=ORIENTED_EDGE('',*,*,#662,.F.);
#859=ORIENTED_EDGE('',*,*,#664,.F.);
#860=ORIENTED_EDGE('',*,*,#665,.T.);
#861=ORIENTED_EDGE('',*,*,#666,.T.);
#862=ORIENTED_EDGE('',*,*,#667,.F.);
#863=ORIENTED_EDGE('',*,*,#657,.F.);
#864=ORIENTED_EDGE('',*,*,#668,.F.);
#865=ORIENTED_EDGE('',*,*,#669,.T.);
#866=ORIENTED_EDGE('',*,*,#665,.F.);
#867=ORIENTED_EDGE('',*,*,#661,.F.);
#868=ORIENTED_EDGE('',*,*,#670,.T.);
#869=ORIENTED_EDGE('',*,*,#671,.T.);
#870=ORIENTED_EDGE('',*,*,#658,.F.);
#871=ORIENTED_EDGE('',*,*,#667,.T.);
#872=ORIENTED_EDGE('',*,*,#672,.T.);
#873=ORIENTED_EDGE('',*,*,#668,.T.);
#874=ORIENTED_EDGE('',*,*,#660,.F.);
#875=ORIENTED_EDGE('',*,*,#673,.F.);
#876=ORIENTED_EDGE('',*,*,#674,.T.);
#877=ORIENTED_EDGE('',*,*,#673,.T.);
#878=ORIENTED_EDGE('',*,*,#659,.F.);
#879=ORIENTED_EDGE('',*,*,#671,.F.);
#880=ORIENTED_EDGE('',*,*,#663,.F.);
#881=ORIENTED_EDGE('',*,*,#675,.T.);
#882=ORIENTED_EDGE('',*,*,#676,.F.);
#883=ORIENTED_EDGE('',*,*,#675,.F.);
#884=ORIENTED_EDGE('',*,*,#677,.T.);
#885=ORIENTED_EDGE('',*,*,#678,.F.);
#886=ORIENTED_EDGE('',*,*,#679,.T.);
#887=ORIENTED_EDGE('',*,*,#666,.F.);
#888=ORIENTED_EDGE('',*,*,#677,.F.);
#889=ORIENTED_EDGE('',*,*,#669,.F.);
#890=ORIENTED_EDGE('',*,*,#680,.F.);
#891=ORIENTED_EDGE('',*,*,#681,.T.);
#892=ORIENTED_EDGE('',*,*,#682,.T.);
#893=ORIENTED_EDGE('',*,*,#683,.F.);
#894=ORIENTED_EDGE('',*,*,#684,.T.);
#895=ORIENTED_EDGE('',*,*,#670,.F.);
#896=ORIENTED_EDGE('',*,*,#679,.F.);
#897=ORIENTED_EDGE('',*,*,#685,.F.);
#898=ORIENTED_EDGE('',*,*,#682,.F.);
#899=ORIENTED_EDGE('',*,*,#686,.T.);
#900=ORIENTED_EDGE('',*,*,#687,.T.);
#901=ORIENTED_EDGE('',*,*,#688,.T.);
#902=ORIENTED_EDGE('',*,*,#689,.T.);
#903=ORIENTED_EDGE('',*,*,#690,.T.);
#904=ORIENTED_EDGE('',*,*,#691,.F.);
#905=ORIENTED_EDGE('',*,*,#692,.F.);
#906=ORIENTED_EDGE('',*,*,#693,.T.);
#907=ORIENTED_EDGE('',*,*,#694,.F.);
#908=ORIENTED_EDGE('',*,*,#695,.T.);
#909=ORIENTED_EDGE('',*,*,#696,.F.);
#910=ORIENTED_EDGE('',*,*,#697,.F.);
#911=ORIENTED_EDGE('',*,*,#698,.F.);
#912=ORIENTED_EDGE('',*,*,#699,.F.);
#913=ORIENTED_EDGE('',*,*,#700,.T.);
#914=ORIENTED_EDGE('',*,*,#701,.T.);
#915=ORIENTED_EDGE('',*,*,#702,.T.);
#916=ORIENTED_EDGE('',*,*,#703,.T.);
#917=ORIENTED_EDGE('',*,*,#704,.T.);
#918=ORIENTED_EDGE('',*,*,#680,.T.);
#919=ORIENTED_EDGE('',*,*,#672,.F.);
#920=ORIENTED_EDGE('',*,*,#705,.T.);
#921=ORIENTED_EDGE('',*,*,#706,.F.);
#922=ORIENTED_EDGE('',*,*,#707,.F.);
#923=ORIENTED_EDGE('',*,*,#708,.F.);
#924=ORIENTED_EDGE('',*,*,#709,.T.);
#925=ORIENTED_EDGE('',*,*,#710,.F.);
#926=ORIENTED_EDGE('',*,*,#711,.F.);
#927=ORIENTED_EDGE('',*,*,#712,.F.);
#928=ORIENTED_EDGE('',*,*,#684,.F.);
#929=ORIENTED_EDGE('',*,*,#713,.T.);
#930=ORIENTED_EDGE('',*,*,#699,.T.);
#931=ORIENTED_EDGE('',*,*,#674,.F.);
#932=ORIENTED_EDGE('',*,*,#676,.T.);
#933=ORIENTED_EDGE('',*,*,#685,.T.);
#934=ORIENTED_EDGE('',*,*,#678,.T.);
#935=ORIENTED_EDGE('',*,*,#683,.T.);
#936=ORIENTED_EDGE('',*,*,#690,.F.);
#937=ORIENTED_EDGE('',*,*,#714,.T.);
#938=ORIENTED_EDGE('',*,*,#715,.F.);
#939=ORIENTED_EDGE('',*,*,#716,.F.);
#940=ORIENTED_EDGE('',*,*,#688,.F.);
#941=ORIENTED_EDGE('',*,*,#717,.T.);
#942=ORIENTED_EDGE('',*,*,#718,.F.);
#943=ORIENTED_EDGE('',*,*,#719,.F.);
#944=ORIENTED_EDGE('',*,*,#686,.F.);
#945=ORIENTED_EDGE('',*,*,#681,.F.);
#946=ORIENTED_EDGE('',*,*,#704,.F.);
#947=ORIENTED_EDGE('',*,*,#720,.T.);
#948=ORIENTED_EDGE('',*,*,#721,.F.);
#949=ORIENTED_EDGE('',*,*,#722,.F.);
#950=ORIENTED_EDGE('',*,*,#702,.F.);
#951=ORIENTED_EDGE('',*,*,#723,.T.);
#952=ORIENTED_EDGE('',*,*,#724,.F.);
#953=ORIENTED_EDGE('',*,*,#725,.F.);
#954=ORIENTED_EDGE('',*,*,#700,.F.);
#955=ORIENTED_EDGE('',*,*,#713,.F.);
#956=ORIENTED_EDGE('',*,*,#726,.T.);
#957=ORIENTED_EDGE('',*,*,#727,.T.);
#958=ORIENTED_EDGE('',*,*,#689,.F.);
#959=ORIENTED_EDGE('',*,*,#728,.T.);
#960=ORIENTED_EDGE('',*,*,#729,.T.);
#961=ORIENTED_EDGE('',*,*,#730,.T.);
#962=ORIENTED_EDGE('',*,*,#687,.F.);
#963=ORIENTED_EDGE('',*,*,#731,.T.);
#964=ORIENTED_EDGE('',*,*,#732,.F.);
#965=ORIENTED_EDGE('',*,*,#733,.F.);
#966=ORIENTED_EDGE('',*,*,#691,.T.);
#967=ORIENTED_EDGE('',*,*,#734,.F.);
#968=ORIENTED_EDGE('',*,*,#735,.T.);
#969=ORIENTED_EDGE('',*,*,#736,.T.);
#970=ORIENTED_EDGE('',*,*,#737,.F.);
#971=ORIENTED_EDGE('',*,*,#692,.T.);
#972=ORIENTED_EDGE('',*,*,#733,.T.);
#973=ORIENTED_EDGE('',*,*,#738,.T.);
#974=ORIENTED_EDGE('',*,*,#739,.F.);
#975=ORIENTED_EDGE('',*,*,#740,.T.);
#976=ORIENTED_EDGE('',*,*,#728,.F.);
#977=ORIENTED_EDGE('',*,*,#716,.T.);
#978=ORIENTED_EDGE('',*,*,#741,.F.);
#979=ORIENTED_EDGE('',*,*,#742,.T.);
#980=ORIENTED_EDGE('',*,*,#743,.F.);
#981=ORIENTED_EDGE('',*,*,#744,.T.);
#982=ORIENTED_EDGE('',*,*,#745,.T.);
#983=ORIENTED_EDGE('',*,*,#693,.F.);
#984=ORIENTED_EDGE('',*,*,#737,.T.);
#985=ORIENTED_EDGE('',*,*,#746,.T.);
#986=ORIENTED_EDGE('',*,*,#747,.T.);
#987=ORIENTED_EDGE('',*,*,#748,.T.);
#988=ORIENTED_EDGE('',*,*,#714,.F.);
#989=ORIENTED_EDGE('',*,*,#727,.F.);
#990=ORIENTED_EDGE('',*,*,#749,.F.);
#991=ORIENTED_EDGE('',*,*,#750,.F.);
#992=ORIENTED_EDGE('',*,*,#751,.F.);
#993=ORIENTED_EDGE('',*,*,#734,.T.);
#994=ORIENTED_EDGE('',*,*,#694,.T.);
#995=ORIENTED_EDGE('',*,*,#745,.F.);
#996=ORIENTED_EDGE('',*,*,#752,.F.);
#997=ORIENTED_EDGE('',*,*,#753,.F.);
#998=ORIENTED_EDGE('',*,*,#754,.T.);
#999=ORIENTED_EDGE('',*,*,#755,.T.);
#1000=ORIENTED_EDGE('',*,*,#695,.F.);
#1001=ORIENTED_EDGE('',*,*,#756,.T.);
#1002=ORIENTED_EDGE('',*,*,#757,.T.);
#1003=ORIENTED_EDGE('',*,*,#758,.T.);
#1004=ORIENTED_EDGE('',*,*,#759,.T.);
#1005=ORIENTED_EDGE('',*,*,#717,.F.);
#1006=ORIENTED_EDGE('',*,*,#730,.F.);
#1007=ORIENTED_EDGE('',*,*,#760,.F.);
#1008=ORIENTED_EDGE('',*,*,#761,.F.);
#1009=ORIENTED_EDGE('',*,*,#762,.F.);
#1010=ORIENTED_EDGE('',*,*,#763,.T.);
#1011=ORIENTED_EDGE('',*,*,#696,.T.);
#1012=ORIENTED_EDGE('',*,*,#755,.F.);
#1013=ORIENTED_EDGE('',*,*,#764,.F.);
#1014=ORIENTED_EDGE('',*,*,#765,.F.);
#1015=ORIENTED_EDGE('',*,*,#766,.F.);
#1016=ORIENTED_EDGE('',*,*,#767,.F.);
#1017=ORIENTED_EDGE('',*,*,#697,.T.);
#1018=ORIENTED_EDGE('',*,*,#763,.F.);
#1019=ORIENTED_EDGE('',*,*,#768,.T.);
#1020=ORIENTED_EDGE('',*,*,#769,.T.);
#1021=ORIENTED_EDGE('',*,*,#756,.F.);
#1022=ORIENTED_EDGE('',*,*,#698,.T.);
#1023=ORIENTED_EDGE('',*,*,#767,.T.);
#1024=ORIENTED_EDGE('',*,*,#770,.T.);
#1025=ORIENTED_EDGE('',*,*,#771,.F.);
#1026=ORIENTED_EDGE('',*,*,#772,.T.);
#1027=ORIENTED_EDGE('',*,*,#731,.F.);
#1028=ORIENTED_EDGE('',*,*,#719,.T.);
#1029=ORIENTED_EDGE('',*,*,#773,.F.);
#1030=ORIENTED_EDGE('',*,*,#774,.T.);
#1031=ORIENTED_EDGE('',*,*,#775,.F.);
#1032=ORIENTED_EDGE('',*,*,#701,.F.);
#1033=ORIENTED_EDGE('',*,*,#776,.T.);
#1034=ORIENTED_EDGE('',*,*,#777,.T.);
#1035=ORIENTED_EDGE('',*,*,#778,.T.);
#1036=ORIENTED_EDGE('',*,*,#703,.F.);
#1037=ORIENTED_EDGE('',*,*,#779,.T.);
#1038=ORIENTED_EDGE('',*,*,#780,.T.);
#1039=ORIENTED_EDGE('',*,*,#781,.T.);
#1040=ORIENTED_EDGE('',*,*,#705,.F.);
#1041=ORIENTED_EDGE('',*,*,#782,.T.);
#1042=ORIENTED_EDGE('',*,*,#783,.T.);
#1043=ORIENTED_EDGE('',*,*,#784,.T.);
#1044=ORIENTED_EDGE('',*,*,#785,.T.);
#1045=ORIENTED_EDGE('',*,*,#786,.T.);
#1046=ORIENTED_EDGE('',*,*,#787,.T.);
#1047=ORIENTED_EDGE('',*,*,#720,.F.);
#1048=ORIENTED_EDGE('',*,*,#781,.F.);
#1049=ORIENTED_EDGE('',*,*,#788,.F.);
#1050=ORIENTED_EDGE('',*,*,#789,.F.);
#1051=ORIENTED_EDGE('',*,*,#790,.F.);
#1052=ORIENTED_EDGE('',*,*,#791,.T.);
#1053=ORIENTED_EDGE('',*,*,#706,.T.);
#1054=ORIENTED_EDGE('',*,*,#784,.F.);
#1055=ORIENTED_EDGE('',*,*,#792,.T.);
#1056=ORIENTED_EDGE('',*,*,#793,.F.);
#1057=ORIENTED_EDGE('',*,*,#707,.T.);
#1058=ORIENTED_EDGE('',*,*,#791,.F.);
#1059=ORIENTED_EDGE('',*,*,#794,.F.);
#1060=ORIENTED_EDGE('',*,*,#795,.F.);
#1061=ORIENTED_EDGE('',*,*,#796,.T.);
#1062=ORIENTED_EDGE('',*,*,#797,.F.);
#1063=ORIENTED_EDGE('',*,*,#782,.F.);
#1064=ORIENTED_EDGE('',*,*,#708,.T.);
#1065=ORIENTED_EDGE('',*,*,#795,.T.);
#1066=ORIENTED_EDGE('',*,*,#798,.T.);
#1067=ORIENTED_EDGE('',*,*,#799,.F.);
#1068=ORIENTED_EDGE('',*,*,#800,.T.);
#1069=ORIENTED_EDGE('',*,*,#779,.F.);
#1070=ORIENTED_EDGE('',*,*,#722,.T.);
#1071=ORIENTED_EDGE('',*,*,#801,.F.);
#1072=ORIENTED_EDGE('',*,*,#802,.T.);
#1073=ORIENTED_EDGE('',*,*,#803,.F.);
#1074=ORIENTED_EDGE('',*,*,#709,.F.);
#1075=ORIENTED_EDGE('',*,*,#804,.T.);
#1076=ORIENTED_EDGE('',*,*,#805,.T.);
#1077=ORIENTED_EDGE('',*,*,#806,.T.);
#1078=ORIENTED_EDGE('',*,*,#807,.T.);
#1079=ORIENTED_EDGE('',*,*,#808,.T.);
#1080=ORIENTED_EDGE('',*,*,#809,.T.);
#1081=ORIENTED_EDGE('',*,*,#723,.F.);
#1082=ORIENTED_EDGE('',*,*,#778,.F.);
#1083=ORIENTED_EDGE('',*,*,#810,.F.);
#1084=ORIENTED_EDGE('',*,*,#811,.F.);
#1085=ORIENTED_EDGE('',*,*,#812,.F.);
#1086=ORIENTED_EDGE('',*,*,#813,.T.);
#1087=ORIENTED_EDGE('',*,*,#710,.T.);
#1088=ORIENTED_EDGE('',*,*,#806,.F.);
#1089=ORIENTED_EDGE('',*,*,#814,.T.);
#1090=ORIENTED_EDGE('',*,*,#815,.F.);
#1091=ORIENTED_EDGE('',*,*,#711,.T.);
#1092=ORIENTED_EDGE('',*,*,#813,.F.);
#1093=ORIENTED_EDGE('',*,*,#816,.F.);
#1094=ORIENTED_EDGE('',*,*,#817,.F.);
#1095=ORIENTED_EDGE('',*,*,#818,.T.);
#1096=ORIENTED_EDGE('',*,*,#819,.F.);
#1097=ORIENTED_EDGE('',*,*,#804,.F.);
#1098=ORIENTED_EDGE('',*,*,#712,.T.);
#1099=ORIENTED_EDGE('',*,*,#817,.T.);
#1100=ORIENTED_EDGE('',*,*,#820,.T.);
#1101=ORIENTED_EDGE('',*,*,#821,.F.);
#1102=ORIENTED_EDGE('',*,*,#822,.T.);
#1103=ORIENTED_EDGE('',*,*,#776,.F.);
#1104=ORIENTED_EDGE('',*,*,#725,.T.);
#1105=ORIENTED_EDGE('',*,*,#823,.F.);
#1106=ORIENTED_EDGE('',*,*,#824,.T.);
#1107=ORIENTED_EDGE('',*,*,#825,.F.);
#1108=ORIENTED_EDGE('',*,*,#826,.T.);
#1109=ORIENTED_EDGE('',*,*,#741,.T.);
#1110=ORIENTED_EDGE('',*,*,#715,.T.);
#1111=ORIENTED_EDGE('',*,*,#748,.F.);
#1112=ORIENTED_EDGE('',*,*,#827,.T.);
#1113=ORIENTED_EDGE('',*,*,#773,.T.);
#1114=ORIENTED_EDGE('',*,*,#718,.T.);
#1115=ORIENTED_EDGE('',*,*,#759,.F.);
#1116=ORIENTED_EDGE('',*,*,#828,.T.);
#1117=ORIENTED_EDGE('',*,*,#801,.T.);
#1118=ORIENTED_EDGE('',*,*,#721,.T.);
#1119=ORIENTED_EDGE('',*,*,#787,.F.);
#1120=ORIENTED_EDGE('',*,*,#829,.T.);
#1121=ORIENTED_EDGE('',*,*,#823,.T.);
#1122=ORIENTED_EDGE('',*,*,#724,.T.);
#1123=ORIENTED_EDGE('',*,*,#809,.F.);
#1124=ORIENTED_EDGE('',*,*,#740,.F.);
#1125=ORIENTED_EDGE('',*,*,#830,.T.);
#1126=ORIENTED_EDGE('',*,*,#749,.T.);
#1127=ORIENTED_EDGE('',*,*,#726,.F.);
#1128=ORIENTED_EDGE('',*,*,#772,.F.);
#1129=ORIENTED_EDGE('',*,*,#831,.T.);
#1130=ORIENTED_EDGE('',*,*,#760,.T.);
#1131=ORIENTED_EDGE('',*,*,#729,.F.);
#1132=ORIENTED_EDGE('',*,*,#832,.F.);
#1133=ORIENTED_EDGE('',*,*,#738,.F.);
#1134=ORIENTED_EDGE('',*,*,#732,.T.);
#1135=ORIENTED_EDGE('',*,*,#751,.T.);
#1136=ORIENTED_EDGE('',*,*,#735,.F.);
#1137=ORIENTED_EDGE('',*,*,#833,.T.);
#1138=ORIENTED_EDGE('',*,*,#753,.T.);
#1139=ORIENTED_EDGE('',*,*,#834,.F.);
#1140=ORIENTED_EDGE('',*,*,#834,.T.);
#1141=ORIENTED_EDGE('',*,*,#752,.T.);
#1142=ORIENTED_EDGE('',*,*,#744,.F.);
#1143=ORIENTED_EDGE('',*,*,#736,.F.);
#1144=ORIENTED_EDGE('',*,*,#830,.F.);
#1145=ORIENTED_EDGE('',*,*,#739,.T.);
#1146=ORIENTED_EDGE('',*,*,#832,.T.);
#1147=ORIENTED_EDGE('',*,*,#750,.T.);
#1148=ORIENTED_EDGE('',*,*,#747,.F.);
#1149=ORIENTED_EDGE('',*,*,#835,.F.);
#1150=ORIENTED_EDGE('',*,*,#742,.F.);
#1151=ORIENTED_EDGE('',*,*,#826,.F.);
#1152=ORIENTED_EDGE('',*,*,#743,.T.);
#1153=ORIENTED_EDGE('',*,*,#835,.T.);
#1154=ORIENTED_EDGE('',*,*,#746,.F.);
#1155=ORIENTED_EDGE('',*,*,#833,.F.);
#1156=ORIENTED_EDGE('',*,*,#836,.T.);
#1157=ORIENTED_EDGE('',*,*,#764,.T.);
#1158=ORIENTED_EDGE('',*,*,#754,.F.);
#1159=ORIENTED_EDGE('',*,*,#769,.F.);
#1160=ORIENTED_EDGE('',*,*,#775,.T.);
#1161=ORIENTED_EDGE('',*,*,#837,.T.);
#1162=ORIENTED_EDGE('',*,*,#757,.F.);
#1163=ORIENTED_EDGE('',*,*,#838,.F.);
#1164=ORIENTED_EDGE('',*,*,#758,.F.);
#1165=ORIENTED_EDGE('',*,*,#837,.F.);
#1166=ORIENTED_EDGE('',*,*,#774,.F.);
#1167=ORIENTED_EDGE('',*,*,#827,.F.);
#1168=ORIENTED_EDGE('',*,*,#831,.F.);
#1169=ORIENTED_EDGE('',*,*,#771,.T.);
#1170=ORIENTED_EDGE('',*,*,#839,.T.);
#1171=ORIENTED_EDGE('',*,*,#761,.T.);
#1172=ORIENTED_EDGE('',*,*,#839,.F.);
#1173=ORIENTED_EDGE('',*,*,#770,.F.);
#1174=ORIENTED_EDGE('',*,*,#766,.T.);
#1175=ORIENTED_EDGE('',*,*,#762,.T.);
#1176=ORIENTED_EDGE('',*,*,#768,.F.);
#1177=ORIENTED_EDGE('',*,*,#838,.T.);
#1178=ORIENTED_EDGE('',*,*,#765,.T.);
#1179=ORIENTED_EDGE('',*,*,#836,.F.);
#1180=ORIENTED_EDGE('',*,*,#810,.T.);
#1181=ORIENTED_EDGE('',*,*,#777,.F.);
#1182=ORIENTED_EDGE('',*,*,#822,.F.);
#1183=ORIENTED_EDGE('',*,*,#840,.T.);
#1184=ORIENTED_EDGE('',*,*,#788,.T.);
#1185=ORIENTED_EDGE('',*,*,#780,.F.);
#1186=ORIENTED_EDGE('',*,*,#800,.F.);
#1187=ORIENTED_EDGE('',*,*,#841,.T.);
#1188=ORIENTED_EDGE('',*,*,#797,.T.);
#1189=ORIENTED_EDGE('',*,*,#842,.T.);
#1190=ORIENTED_EDGE('',*,*,#792,.F.);
#1191=ORIENTED_EDGE('',*,*,#783,.F.);
#1192=ORIENTED_EDGE('',*,*,#803,.T.);
#1193=ORIENTED_EDGE('',*,*,#843,.T.);
#1194=ORIENTED_EDGE('',*,*,#785,.F.);
#1195=ORIENTED_EDGE('',*,*,#844,.F.);
#1196=ORIENTED_EDGE('',*,*,#802,.F.);
#1197=ORIENTED_EDGE('',*,*,#828,.F.);
#1198=ORIENTED_EDGE('',*,*,#786,.F.);
#1199=ORIENTED_EDGE('',*,*,#843,.F.);
#1200=ORIENTED_EDGE('',*,*,#841,.F.);
#1201=ORIENTED_EDGE('',*,*,#799,.T.);
#1202=ORIENTED_EDGE('',*,*,#845,.T.);
#1203=ORIENTED_EDGE('',*,*,#789,.T.);
#1204=ORIENTED_EDGE('',*,*,#845,.F.);
#1205=ORIENTED_EDGE('',*,*,#798,.F.);
#1206=ORIENTED_EDGE('',*,*,#794,.T.);
#1207=ORIENTED_EDGE('',*,*,#790,.T.);
#1208=ORIENTED_EDGE('',*,*,#796,.F.);
#1209=ORIENTED_EDGE('',*,*,#844,.T.);
#1210=ORIENTED_EDGE('',*,*,#793,.T.);
#1211=ORIENTED_EDGE('',*,*,#842,.F.);
#1212=ORIENTED_EDGE('',*,*,#819,.T.);
#1213=ORIENTED_EDGE('',*,*,#846,.T.);
#1214=ORIENTED_EDGE('',*,*,#814,.F.);
#1215=ORIENTED_EDGE('',*,*,#805,.F.);
#1216=ORIENTED_EDGE('',*,*,#825,.T.);
#1217=ORIENTED_EDGE('',*,*,#847,.T.);
#1218=ORIENTED_EDGE('',*,*,#807,.F.);
#1219=ORIENTED_EDGE('',*,*,#848,.F.);
#1220=ORIENTED_EDGE('',*,*,#824,.F.);
#1221=ORIENTED_EDGE('',*,*,#829,.F.);
#1222=ORIENTED_EDGE('',*,*,#808,.F.);
#1223=ORIENTED_EDGE('',*,*,#847,.F.);
#1224=ORIENTED_EDGE('',*,*,#840,.F.);
#1225=ORIENTED_EDGE('',*,*,#821,.T.);
#1226=ORIENTED_EDGE('',*,*,#849,.T.);
#1227=ORIENTED_EDGE('',*,*,#811,.T.);
#1228=ORIENTED_EDGE('',*,*,#849,.F.);
#1229=ORIENTED_EDGE('',*,*,#820,.F.);
#1230=ORIENTED_EDGE('',*,*,#816,.T.);
#1231=ORIENTED_EDGE('',*,*,#812,.T.);
#1232=ORIENTED_EDGE('',*,*,#818,.F.);
#1233=ORIENTED_EDGE('',*,*,#848,.T.);
#1234=ORIENTED_EDGE('',*,*,#815,.T.);
#1235=ORIENTED_EDGE('',*,*,#846,.F.);
#1236=PLANE('',#1433);
#1237=PLANE('',#1449);
#1238=PLANE('',#1450);
#1239=PLANE('',#1451);
#1240=PLANE('',#1452);
#1241=PLANE('',#1453);
#1242=PLANE('',#1454);
#1243=PLANE('',#1455);
#1244=PLANE('',#1456);
#1245=PLANE('',#1457);
#1246=PLANE('',#1458);
#1247=PLANE('',#1459);
#1248=PLANE('',#1460);
#1249=PLANE('',#1465);
#1250=PLANE('',#1466);
#1251=PLANE('',#1471);
#1252=PLANE('',#1472);
#1253=PLANE('',#1477);
#1254=PLANE('',#1478);
#1255=PLANE('',#1483);
#1256=PLANE('',#1484);
#1257=PLANE('',#1485);
#1258=PLANE('',#1486);
#1259=PLANE('',#1491);
#1260=PLANE('',#1492);
#1261=PLANE('',#1497);
#1262=PLANE('',#1498);
#1263=PLANE('',#1503);
#1264=PLANE('',#1504);
#1265=PLANE('',#1509);
#1266=PLANE('',#1510);
#1267=PLANE('',#1511);
#1268=PLANE('',#1512);
#1269=PLANE('',#1516);
#1270=PLANE('',#1518);
#1271=PLANE('',#1519);
#1272=PLANE('',#1523);
#1273=PLANE('',#1524);
#1274=PLANE('',#1526);
#1275=PLANE('',#1531);
#1276=PLANE('',#1532);
#1277=PLANE('',#1534);
#1278=PLANE('',#1537);
#1279=PLANE('',#1538);
#1280=PLANE('',#1540);
#1281=STYLED_ITEM('',(#2335),#1350);
#1282=STYLED_ITEM('',(#2335),#1351);
#1283=STYLED_ITEM('',(#2335),#1352);
#1284=STYLED_ITEM('',(#2335),#1353);
#1285=STYLED_ITEM('',(#2335),#1354);
#1286=STYLED_ITEM('',(#2335),#1355);
#1287=STYLED_ITEM('',(#2335),#1356);
#1288=STYLED_ITEM('',(#2335),#1357);
#1289=STYLED_ITEM('',(#2335),#1358);
#1290=STYLED_ITEM('',(#2335),#1359);
#1291=STYLED_ITEM('',(#2335),#1360);
#1292=STYLED_ITEM('',(#2335),#1361);
#1293=STYLED_ITEM('',(#2335),#1362);
#1294=STYLED_ITEM('',(#2336),#1363);
#1295=STYLED_ITEM('',(#2335),#1364);
#1296=STYLED_ITEM('',(#2335),#1365);
#1297=STYLED_ITEM('',(#2337),#1366);
#1298=STYLED_ITEM('',(#2337),#1367);
#1299=STYLED_ITEM('',(#2337),#1368);
#1300=STYLED_ITEM('',(#2337),#1369);
#1301=STYLED_ITEM('',(#2337),#1370);
#1302=STYLED_ITEM('',(#2337),#1371);
#1303=STYLED_ITEM('',(#2337),#1372);
#1304=STYLED_ITEM('',(#2337),#1373);
#1305=STYLED_ITEM('',(#2337),#1374);
#1306=STYLED_ITEM('',(#2337),#1375);
#1307=STYLED_ITEM('',(#2337),#1376);
#1308=STYLED_ITEM('',(#2337),#1377);
#1309=STYLED_ITEM('',(#2337),#1378);
#1310=STYLED_ITEM('',(#2337),#1379);
#1311=STYLED_ITEM('',(#2337),#1380);
#1312=STYLED_ITEM('',(#2337),#1381);
#1313=STYLED_ITEM('',(#2337),#1382);
#1314=STYLED_ITEM('',(#2337),#1383);
#1315=STYLED_ITEM('',(#2337),#1384);
#1316=STYLED_ITEM('',(#2337),#1385);
#1317=STYLED_ITEM('',(#2337),#1386);
#1318=STYLED_ITEM('',(#2337),#1387);
#1319=STYLED_ITEM('',(#2337),#1388);
#1320=STYLED_ITEM('',(#2337),#1389);
#1321=STYLED_ITEM('',(#2337),#1390);
#1322=STYLED_ITEM('',(#2337),#1391);
#1323=STYLED_ITEM('',(#2337),#1392);
#1324=STYLED_ITEM('',(#2337),#1393);
#1325=STYLED_ITEM('',(#2337),#1394);
#1326=STYLED_ITEM('',(#2337),#1395);
#1327=STYLED_ITEM('',(#2337),#1396);
#1328=STYLED_ITEM('',(#2337),#1397);
#1329=STYLED_ITEM('',(#2337),#1398);
#1330=STYLED_ITEM('',(#2337),#1399);
#1331=STYLED_ITEM('',(#2337),#1400);
#1332=STYLED_ITEM('',(#2337),#1401);
#1333=STYLED_ITEM('',(#2337),#1402);
#1334=STYLED_ITEM('',(#2337),#1403);
#1335=STYLED_ITEM('',(#2337),#1404);
#1336=STYLED_ITEM('',(#2337),#1405);
#1337=STYLED_ITEM('',(#2337),#1406);
#1338=STYLED_ITEM('',(#2337),#1407);
#1339=STYLED_ITEM('',(#2337),#1408);
#1340=STYLED_ITEM('',(#2337),#1409);
#1341=STYLED_ITEM('',(#2337),#1410);
#1342=STYLED_ITEM('',(#2337),#1411);
#1343=STYLED_ITEM('',(#2337),#1412);
#1344=STYLED_ITEM('',(#2337),#1413);
#1345=STYLED_ITEM('',(#2337),#1414);
#1346=STYLED_ITEM('',(#2337),#1415);
#1347=STYLED_ITEM('',(#2337),#1416);
#1348=STYLED_ITEM('',(#2337),#1417);
#1349=STYLED_ITEM('',(#2334),#17);
#1350=ADVANCED_FACE('',(#86,#46),#1236,.T.);
#1351=ADVANCED_FACE('',(#87),#45,.F.);
#1352=ADVANCED_FACE('',(#88),#23,.T.);
#1353=ADVANCED_FACE('',(#89),#24,.T.);
#1354=ADVANCED_FACE('',(#90),#25,.T.);
#1355=ADVANCED_FACE('',(#91),#26,.T.);
#1356=ADVANCED_FACE('',(#92),#27,.T.);
#1357=ADVANCED_FACE('',(#93),#28,.F.);
#1358=ADVANCED_FACE('',(#94),#1237,.T.);
#1359=ADVANCED_FACE('',(#95),#1238,.F.);
#1360=ADVANCED_FACE('',(#96,#47,#48),#1239,.F.);
#1361=ADVANCED_FACE('',(#97,#49,#50),#1240,.F.);
#1362=ADVANCED_FACE('',(#98),#1241,.F.);
#1363=ADVANCED_FACE('',(#99),#1242,.T.);
#1364=ADVANCED_FACE('',(#100),#1243,.T.);
#1365=ADVANCED_FACE('',(#101),#1244,.F.);
#1366=ADVANCED_FACE('',(#102),#1245,.T.);
#1367=ADVANCED_FACE('',(#103),#1246,.T.);
#1368=ADVANCED_FACE('',(#104),#1247,.F.);
#1369=ADVANCED_FACE('',(#105),#1248,.F.);
#1370=ADVANCED_FACE('',(#106),#1249,.T.);
#1371=ADVANCED_FACE('',(#107),#1250,.F.);
#1372=ADVANCED_FACE('',(#108),#1251,.T.);
#1373=ADVANCED_FACE('',(#109),#1252,.F.);
#1374=ADVANCED_FACE('',(#110),#1253,.F.);
#1375=ADVANCED_FACE('',(#111),#1254,.F.);
#1376=ADVANCED_FACE('',(#112),#1255,.T.);
#1377=ADVANCED_FACE('',(#113),#1256,.T.);
#1378=ADVANCED_FACE('',(#114),#1257,.T.);
#1379=ADVANCED_FACE('',(#115),#1258,.F.);
#1380=ADVANCED_FACE('',(#116),#1259,.F.);
#1381=ADVANCED_FACE('',(#117),#1260,.F.);
#1382=ADVANCED_FACE('',(#118),#1261,.T.);
#1383=ADVANCED_FACE('',(#119),#1262,.F.);
#1384=ADVANCED_FACE('',(#120),#1263,.F.);
#1385=ADVANCED_FACE('',(#121),#1264,.F.);
#1386=ADVANCED_FACE('',(#122),#1265,.F.);
#1387=ADVANCED_FACE('',(#123),#1266,.F.);
#1388=ADVANCED_FACE('',(#124),#1267,.F.);
#1389=ADVANCED_FACE('',(#125),#1268,.F.);
#1390=ADVANCED_FACE('',(#126),#29,.F.);
#1391=ADVANCED_FACE('',(#127),#30,.F.);
#1392=ADVANCED_FACE('',(#128),#31,.F.);
#1393=ADVANCED_FACE('',(#129),#1269,.F.);
#1394=ADVANCED_FACE('',(#130),#32,.T.);
#1395=ADVANCED_FACE('',(#131),#1270,.T.);
#1396=ADVANCED_FACE('',(#132),#1271,.F.);
#1397=ADVANCED_FACE('',(#133),#33,.T.);
#1398=ADVANCED_FACE('',(#134),#34,.T.);
#1399=ADVANCED_FACE('',(#135),#35,.T.);
#1400=ADVANCED_FACE('',(#136),#1272,.F.);
#1401=ADVANCED_FACE('',(#137),#1273,.T.);
#1402=ADVANCED_FACE('',(#138),#36,.F.);
#1403=ADVANCED_FACE('',(#139),#1274,.F.);
#1404=ADVANCED_FACE('',(#140),#37,.F.);
#1405=ADVANCED_FACE('',(#141),#38,.F.);
#1406=ADVANCED_FACE('',(#142),#39,.T.);
#1407=ADVANCED_FACE('',(#143),#40,.T.);
#1408=ADVANCED_FACE('',(#144),#1275,.F.);
#1409=ADVANCED_FACE('',(#145),#1276,.T.);
#1410=ADVANCED_FACE('',(#146),#41,.F.);
#1411=ADVANCED_FACE('',(#147),#1277,.F.);
#1412=ADVANCED_FACE('',(#148),#42,.T.);
#1413=ADVANCED_FACE('',(#149),#43,.T.);
#1414=ADVANCED_FACE('',(#150),#1278,.F.);
#1415=ADVANCED_FACE('',(#151),#1279,.T.);
#1416=ADVANCED_FACE('',(#152),#44,.F.);
#1417=ADVANCED_FACE('',(#153),#1280,.F.);
#1418=CLOSED_SHELL('',(#1350,#1351,#1352,#1353,#1354,#1355,#1356,#1357,
#1358,#1359,#1360,#1361,#1362,#1363,#1364,#1365,#1366,#1367,#1368,#1369,
#1370,#1371,#1372,#1373,#1374,#1375,#1376,#1377,#1378,#1379,#1380,#1381,
#1382,#1383,#1384,#1385,#1386,#1387,#1388,#1389,#1390,#1391,#1392,#1393,
#1394,#1395,#1396,#1397,#1398,#1399,#1400,#1401,#1402,#1403,#1404,#1405,
#1406,#1407,#1408,#1409,#1410,#1411,#1412,#1413,#1414,#1415,#1416,#1417));
#1419=DERIVED_UNIT_ELEMENT(#1421,1.);
#1420=DERIVED_UNIT_ELEMENT(#2312,-3.);
#1421=(
MASS_UNIT()
NAMED_UNIT(*)
SI_UNIT(.KILO.,.GRAM.)
);
#1422=DERIVED_UNIT((#1419,#1420));
#1423=MEASURE_REPRESENTATION_ITEM('density measure',
POSITIVE_RATIO_MEASURE(7850.),#1422);
#1424=PROPERTY_DEFINITION_REPRESENTATION(#1429,#1426);
#1425=PROPERTY_DEFINITION_REPRESENTATION(#1430,#1427);
#1426=REPRESENTATION('material name',(#1428),#2309);
#1427=REPRESENTATION('density',(#1423),#2309);
#1428=DESCRIPTIVE_REPRESENTATION_ITEM('Steel','Steel');
#1429=PROPERTY_DEFINITION('material property','material name',#2324);
#1430=PROPERTY_DEFINITION('material property','density of part',#2324);
#1431=AXIS2_PLACEMENT_3D('',#1917,#1542,#1543);
#1432=AXIS2_PLACEMENT_3D('',#1918,#1544,#1545);
#1433=AXIS2_PLACEMENT_3D('',#1919,#1546,#1547);
#1434=AXIS2_PLACEMENT_3D('',#1931,#1553,#1554);
#1435=AXIS2_PLACEMENT_3D('',#1932,#1555,#1556);
#1436=AXIS2_PLACEMENT_3D('',#1934,#1557,#1558);
#1437=AXIS2_PLACEMENT_3D('',#1936,#1560,#1561);
#1438=AXIS2_PLACEMENT_3D('',#1938,#1562,#1563);
#1439=AXIS2_PLACEMENT_3D('',#1941,#1565,#1566);
#1440=AXIS2_PLACEMENT_3D('',#1942,#1567,#1568);
#1441=AXIS2_PLACEMENT_3D('',#1944,#1569,#1570);
#1442=AXIS2_PLACEMENT_3D('',#1946,#1572,#1573);
#1443=AXIS2_PLACEMENT_3D('',#1949,#1575,#1576);
#1444=AXIS2_PLACEMENT_3D('',#1950,#1577,#1578);
#1445=AXIS2_PLACEMENT_3D('',#1953,#1580,#1581);
#1446=AXIS2_PLACEMENT_3D('',#1954,#1582,#1583);
#1447=AXIS2_PLACEMENT_3D('',#1956,#1585,#1586);
#1448=AXIS2_PLACEMENT_3D('',#1959,#1588,#1589);
#1449=AXIS2_PLACEMENT_3D('',#1960,#1590,#1591);
#1450=AXIS2_PLACEMENT_3D('',#1966,#1595,#1596);
#1451=AXIS2_PLACEMENT_3D('',#1974,#1601,#1602);
#1452=AXIS2_PLACEMENT_3D('',#2003,#1618,#1619);
#1453=AXIS2_PLACEMENT_3D('',#2031,#1634,#1635);
#1454=AXIS2_PLACEMENT_3D('',#2033,#1637,#1638);
#1455=AXIS2_PLACEMENT_3D('',#2034,#1639,#1640);
#1456=AXIS2_PLACEMENT_3D('',#2035,#1641,#1642);
#1457=AXIS2_PLACEMENT_3D('',#2056,#1655,#1656);
#1458=AXIS2_PLACEMENT_3D('',#2062,#1660,#1661);
#1459=AXIS2_PLACEMENT_3D('',#2068,#1665,#1666);
#1460=AXIS2_PLACEMENT_3D('',#2074,#1670,#1671);
#1461=AXIS2_PLACEMENT_3D('',#2079,#1673,#1674);
#1462=AXIS2_PLACEMENT_3D('',#2082,#1676,#1677);
#1463=AXIS2_PLACEMENT_3D('',#2085,#1679,#1680);
#1464=AXIS2_PLACEMENT_3D('',#2090,#1683,#1684);
#1465=AXIS2_PLACEMENT_3D('',#2091,#1685,#1686);
#1466=AXIS2_PLACEMENT_3D('',#2095,#1689,#1690);
#1467=AXIS2_PLACEMENT_3D('',#2098,#1691,#1692);
#1468=AXIS2_PLACEMENT_3D('',#2103,#1695,#1696);
#1469=AXIS2_PLACEMENT_3D('',#2106,#1698,#1699);
#1470=AXIS2_PLACEMENT_3D('',#2108,#1700,#1701);
#1471=AXIS2_PLACEMENT_3D('',#2110,#1703,#1704);
#1472=AXIS2_PLACEMENT_3D('',#2116,#1708,#1709);
#1473=AXIS2_PLACEMENT_3D('',#2119,#1710,#1711);
#1474=AXIS2_PLACEMENT_3D('',#2124,#1714,#1715);
#1475=AXIS2_PLACEMENT_3D('',#2128,#1717,#1718);
#1476=AXIS2_PLACEMENT_3D('',#2131,#1720,#1721);
#1477=AXIS2_PLACEMENT_3D('',#2133,#1723,#1724);
#1478=AXIS2_PLACEMENT_3D('',#2137,#1727,#1728);
#1479=AXIS2_PLACEMENT_3D('',#2141,#1730,#1731);
#1480=AXIS2_PLACEMENT_3D('',#2143,#1732,#1733);
#1481=AXIS2_PLACEMENT_3D('',#2146,#1735,#1736);
#1482=AXIS2_PLACEMENT_3D('',#2151,#1739,#1740);
#1483=AXIS2_PLACEMENT_3D('',#2152,#1741,#1742);
#1484=AXIS2_PLACEMENT_3D('',#2158,#1746,#1747);
#1485=AXIS2_PLACEMENT_3D('',#2164,#1751,#1752);
#1486=AXIS2_PLACEMENT_3D('',#2170,#1756,#1757);
#1487=AXIS2_PLACEMENT_3D('',#2173,#1758,#1759);
#1488=AXIS2_PLACEMENT_3D('',#2178,#1762,#1763);
#1489=AXIS2_PLACEMENT_3D('',#2182,#1765,#1766);
#1490=AXIS2_PLACEMENT_3D('',#2185,#1768,#1769);
#1491=AXIS2_PLACEMENT_3D('',#2187,#1771,#1772);
#1492=AXIS2_PLACEMENT_3D('',#2191,#1775,#1776);
#1493=AXIS2_PLACEMENT_3D('',#2195,#1778,#1779);
#1494=AXIS2_PLACEMENT_3D('',#2197,#1780,#1781);
#1495=AXIS2_PLACEMENT_3D('',#2200,#1783,#1784);
#1496=AXIS2_PLACEMENT_3D('',#2205,#1787,#1788);
#1497=AXIS2_PLACEMENT_3D('',#2206,#1789,#1790);
#1498=AXIS2_PLACEMENT_3D('',#2212,#1794,#1795);
#1499=AXIS2_PLACEMENT_3D('',#2215,#1796,#1797);
#1500=AXIS2_PLACEMENT_3D('',#2220,#1800,#1801);
#1501=AXIS2_PLACEMENT_3D('',#2224,#1803,#1804);
#1502=AXIS2_PLACEMENT_3D('',#2227,#1806,#1807);
#1503=AXIS2_PLACEMENT_3D('',#2229,#1809,#1810);
#1504=AXIS2_PLACEMENT_3D('',#2233,#1813,#1814);
#1505=AXIS2_PLACEMENT_3D('',#2237,#1816,#1817);
#1506=AXIS2_PLACEMENT_3D('',#2239,#1818,#1819);
#1507=AXIS2_PLACEMENT_3D('',#2242,#1821,#1822);
#1508=AXIS2_PLACEMENT_3D('',#2247,#1825,#1826);
#1509=AXIS2_PLACEMENT_3D('',#2248,#1827,#1828);
#1510=AXIS2_PLACEMENT_3D('',#2250,#1830,#1831);
#1511=AXIS2_PLACEMENT_3D('',#2252,#1833,#1834);
#1512=AXIS2_PLACEMENT_3D('',#2254,#1836,#1837);
#1513=AXIS2_PLACEMENT_3D('',#2256,#1839,#1840);
#1514=AXIS2_PLACEMENT_3D('',#2258,#1842,#1843);
#1515=AXIS2_PLACEMENT_3D('',#2260,#1845,#1846);
#1516=AXIS2_PLACEMENT_3D('',#2262,#1848,#1849);
#1517=AXIS2_PLACEMENT_3D('',#2265,#1852,#1853);
#1518=AXIS2_PLACEMENT_3D('',#2266,#1854,#1855);
#1519=AXIS2_PLACEMENT_3D('',#2267,#1856,#1857);
#1520=AXIS2_PLACEMENT_3D('',#2269,#1859,#1860);
#1521=AXIS2_PLACEMENT_3D('',#2270,#1861,#1862);
#1522=AXIS2_PLACEMENT_3D('',#2272,#1864,#1865);
#1523=AXIS2_PLACEMENT_3D('',#2275,#1868,#1869);
#1524=AXIS2_PLACEMENT_3D('',#2276,#1870,#1871);
#1525=AXIS2_PLACEMENT_3D('',#2278,#1873,#1874);
#1526=AXIS2_PLACEMENT_3D('',#2279,#1875,#1876);
#1527=AXIS2_PLACEMENT_3D('',#2280,#1877,#1878);
#1528=AXIS2_PLACEMENT_3D('',#2282,#1880,#1881);
#1529=AXIS2_PLACEMENT_3D('',#2284,#1883,#1884);
#1530=AXIS2_PLACEMENT_3D('',#2286,#1886,#1887);
#1531=AXIS2_PLACEMENT_3D('',#2289,#1890,#1891);
#1532=AXIS2_PLACEMENT_3D('',#2290,#1892,#1893);
#1533=AXIS2_PLACEMENT_3D('',#2292,#1895,#1896);
#1534=AXIS2_PLACEMENT_3D('',#2293,#1897,#1898);
#1535=AXIS2_PLACEMENT_3D('',#2294,#1899,#1900);
#1536=AXIS2_PLACEMENT_3D('',#2296,#1902,#1903);
#1537=AXIS2_PLACEMENT_3D('',#2299,#1906,#1907);
#1538=AXIS2_PLACEMENT_3D('',#2300,#1908,#1909);
#1539=AXIS2_PLACEMENT_3D('',#2302,#1911,#1912);
#1540=AXIS2_PLACEMENT_3D('',#2303,#1913,#1914);
#1541=AXIS2_PLACEMENT_3D('',#2304,#1915,#1916);
#1542=DIRECTION('axis',(0.,0.,1.));
#1543=DIRECTION('refdir',(1.,0.,0.));
#1544=DIRECTION('axis',(0.,0.,1.));
#1545=DIRECTION('refdir',(1.,0.,0.));
#1546=DIRECTION('center_axis',(0.,0.,1.));
#1547=DIRECTION('ref_axis',(-1.,1.224646799147E-16,0.));
#1548=DIRECTION('',(0.707106781186548,0.707106781186548,0.));
#1549=DIRECTION('',(1.224646799147E-16,1.,0.));
#1550=DIRECTION('',(-1.,1.224646799147E-16,0.));
#1551=DIRECTION('',(-1.224646799147E-16,-1.,0.));
#1552=DIRECTION('',(1.,-1.224646799147E-16,0.));
#1553=DIRECTION('center_axis',(0.,0.,-1.));
#1554=DIRECTION('ref_axis',(-1.,1.224646799147E-16,0.));
#1555=DIRECTION('center_axis',(0.,0.,1.));
#1556=DIRECTION('ref_axis',(-1.,1.224646799147E-16,0.));
#1557=DIRECTION('center_axis',(0.,0.,-1.));
#1558=DIRECTION('ref_axis',(-1.,1.224646799147E-16,0.));
#1559=DIRECTION('',(0.70710678118623,2.49837374833535E-29,0.707106781186865));
#1560=DIRECTION('center_axis',(0.707106781186548,0.707106781186548,0.));
#1561=DIRECTION('ref_axis',(0.,0.,1.));
#1562=DIRECTION('center_axis',(0.923879532511277,0.382683432365115,0.));
#1563=DIRECTION('ref_axis',(-0.382683432365115,0.923879532511277,0.));
#1564=DIRECTION('',(0.707106781186548,0.707106781186548,0.));
#1565=DIRECTION('center_axis',(0.382683432365115,0.923879532511277,0.));
#1566=DIRECTION('ref_axis',(0.923879532511276,-0.382683432365114,0.));
#1567=DIRECTION('center_axis',(1.,-1.224646799147E-16,0.));
#1568=DIRECTION('ref_axis',(0.,0.,1.));
#1569=DIRECTION('center_axis',(-0.707106781186548,0.707106781186548,0.));
#1570=DIRECTION('ref_axis',(-0.707106781186548,-0.707106781186548,0.));
#1571=DIRECTION('',(1.,-1.224646799147E-16,0.));
#1572=DIRECTION('center_axis',(1.224646799147E-16,1.,0.));
#1573=DIRECTION('ref_axis',(1.,-1.224646799147E-16,0.));
#1574=DIRECTION('',(1.224646799147E-16,1.,0.));
#1575=DIRECTION('center_axis',(0.707106781186548,-0.707106781186548,0.));
#1576=DIRECTION('ref_axis',(-0.707106781186548,-0.707106781186548,0.));
#1577=DIRECTION('center_axis',(-1.224646799147E-16,-1.,0.));
#1578=DIRECTION('ref_axis',(-1.,1.224646799147E-16,0.));
#1579=DIRECTION('',(-1.224646799147E-16,-1.,0.));
#1580=DIRECTION('center_axis',(0.707106781186548,0.707106781186548,0.));
#1581=DIRECTION('ref_axis',(-0.707106781186548,0.707106781186548,0.));
#1582=DIRECTION('center_axis',(-1.,1.224646799147E-16,0.));
#1583=DIRECTION('ref_axis',(1.224646799147E-16,1.,0.));
#1584=DIRECTION('',(-1.,1.224646799147E-16,0.));
#1585=DIRECTION('center_axis',(0.,0.,-1.));
#1586=DIRECTION('ref_axis',(-1.,1.224646799147E-16,0.));
#1587=DIRECTION('',(0.,0.,-1.));
#1588=DIRECTION('center_axis',(0.,0.,1.));
#1589=DIRECTION('ref_axis',(-1.,1.224646799147E-16,0.));
#1590=DIRECTION('center_axis',(0.707106781186548,-0.707106781186548,0.));
#1591=DIRECTION('ref_axis',(-0.707106781186548,-0.707106781186548,0.));
#1592=DIRECTION('',(0.,0.,-1.));
#1593=DIRECTION('',(-0.707106781186548,-0.707106781186548,0.));
#1594=DIRECTION('',(0.,0.,1.));
#1595=DIRECTION('center_axis',(1.224646799147E-16,1.,0.));
#1596=DIRECTION('ref_axis',(1.,-1.224646799147E-16,0.));
#1597=DIRECTION('',(0.,0.,1.));
#1598=DIRECTION('',(1.,-1.224646799147E-16,0.));
#1599=DIRECTION('',(0.,0.,1.));
#1600=DIRECTION('',(1.,-1.224646799147E-16,0.));
#1601=DIRECTION('center_axis',(-1.,1.224646799147E-16,0.));
#1602=DIRECTION('ref_axis',(1.224646799147E-16,1.,0.));
#1603=DIRECTION('',(0.,0.,1.));
#1604=DIRECTION('',(1.224646799147E-16,1.,0.));
#1605=DIRECTION('',(1.224646799147E-16,1.,0.));
#1606=DIRECTION('',(1.224646799147E-16,1.,0.));
#1607=DIRECTION('',(1.224646799147E-16,1.,0.));
#1608=DIRECTION('',(1.224646799147E-16,1.,0.));
#1609=DIRECTION('',(1.224646799147E-16,1.,0.));
#1610=DIRECTION('',(1.224646799147E-16,1.,-1.556307025767E-32));
#1611=DIRECTION('',(0.,0.,-1.));
#1612=DIRECTION('',(1.224646799147E-16,1.,0.));
#1613=DIRECTION('',(0.,0.,1.));
#1614=DIRECTION('',(1.224646799147E-16,1.,0.));
#1615=DIRECTION('',(0.,0.,1.));
#1616=DIRECTION('',(1.224646799147E-16,1.,-3.890767564419E-33));
#1617=DIRECTION('',(0.,0.,-1.));
#1618=DIRECTION('center_axis',(1.,-1.224646799147E-16,0.));
#1619=DIRECTION('ref_axis',(-1.224646799147E-16,-1.,0.));
#1620=DIRECTION('',(0.,0.,1.));
#1621=DIRECTION('',(-1.224646799147E-16,-1.,0.));
#1622=DIRECTION('',(-1.224646799147E-16,-1.,0.));
#1623=DIRECTION('',(-1.224646799147E-16,-1.,0.));
#1624=DIRECTION('',(-1.224646799147E-16,-1.,0.));
#1625=DIRECTION('',(-1.224646799147E-16,-1.,0.));
#1626=DIRECTION('',(-1.224646799147E-16,-1.,0.));
#1627=DIRECTION('',(0.,0.,1.));
#1628=DIRECTION('',(-1.224646799147E-16,-1.,3.890767564419E-33));
#1629=DIRECTION('',(0.,0.,-1.));
#1630=DIRECTION('',(-1.224646799147E-16,-1.,0.));
#1631=DIRECTION('',(0.,0.,1.));
#1632=DIRECTION('',(-1.224646799147E-16,-1.,1.556307025767E-32));
#1633=DIRECTION('',(0.,0.,-1.));
#1634=DIRECTION('center_axis',(-1.224646799147E-16,-1.,0.));
#1635=DIRECTION('ref_axis',(-1.,1.224646799147E-16,0.));
#1636=DIRECTION('',(-1.,1.224646799147E-16,0.));
#1637=DIRECTION('center_axis',(0.,0.,1.));
#1638=DIRECTION('ref_axis',(-1.,1.224646799147E-16,0.));
#1639=DIRECTION('center_axis',(0.,0.,1.));
#1640=DIRECTION('ref_axis',(-0.707106781186548,-0.707106781186548,0.));
#1641=DIRECTION('center_axis',(0.,0.,1.));
#1642=DIRECTION('ref_axis',(-1.,1.224646799147E-16,0.));
#1643=DIRECTION('',(-1.,1.224646799147E-16,4.996063166392E-32));
#1644=DIRECTION('',(1.224646799147E-16,1.,0.));
#1645=DIRECTION('',(-1.,1.224646799147E-16,0.));
#1646=DIRECTION('',(-1.,1.224646799147E-16,4.996063166392E-32));
#1647=DIRECTION('',(1.224646799147E-16,1.,0.));
#1648=DIRECTION('',(-1.,1.224646799147E-16,0.));
#1649=DIRECTION('',(1.,-1.224646799147E-16,4.996063166392E-32));
#1650=DIRECTION('',(-1.224646799147E-16,-1.,0.));
#1651=DIRECTION('',(1.,-1.224646799147E-16,0.));
#1652=DIRECTION('',(1.,-1.224646799147E-16,4.996063166392E-32));
#1653=DIRECTION('',(-1.224646799147E-16,-1.,0.));
#1654=DIRECTION('',(1.,-1.224646799147E-16,0.));
#1655=DIRECTION('center_axis',(4.996063166392E-32,1.556307025767E-32,1.));
#1656=DIRECTION('ref_axis',(-1.,1.224646799147E-16,4.996063166392E-32));
#1657=DIRECTION('',(1.224646799147E-16,1.,0.));
#1658=DIRECTION('',(-1.,1.224646799147E-16,4.996063166392E-32));
#1659=DIRECTION('',(1.,-1.224646799147E-16,-4.996063166392E-32));
#1660=DIRECTION('center_axis',(4.996063166392E-32,3.890767564419E-33,1.));
#1661=DIRECTION('ref_axis',(-1.,1.224646799147E-16,4.996063166392E-32));
#1662=DIRECTION('',(1.224646799147E-16,1.,0.));
#1663=DIRECTION('',(-1.,1.224646799147E-16,4.996063166392E-32));
#1664=DIRECTION('',(1.,-1.224646799147E-16,-4.996063166392E-32));
#1665=DIRECTION('center_axis',(4.996063166392E-32,1.556307025767E-32,1.));
#1666=DIRECTION('ref_axis',(-1.,1.224646799147E-16,4.996063166392E-32));
#1667=DIRECTION('',(1.224646799147E-16,1.,0.));
#1668=DIRECTION('',(1.,-1.224646799147E-16,-4.996063166392E-32));
#1669=DIRECTION('',(-1.,1.224646799147E-16,4.996063166392E-32));
#1670=DIRECTION('center_axis',(1.224646799147E-16,1.,0.));
#1671=DIRECTION('ref_axis',(1.,-1.224646799147E-16,0.));
#1672=DIRECTION('',(0.,0.,1.));
#1673=DIRECTION('center_axis',(-1.224646799147E-16,-1.,0.));
#1674=DIRECTION('ref_axis',(0.,0.,-1.));
#1675=DIRECTION('',(1.,-1.224646799147E-16,0.));
#1676=DIRECTION('center_axis',(1.224646799147E-16,1.,0.));
#1677=DIRECTION('ref_axis',(1.,-1.224646799147E-16,0.));
#1678=DIRECTION('',(0.,0.,1.));
#1679=DIRECTION('center_axis',(1.224646799147E-16,1.,0.));
#1680=DIRECTION('ref_axis',(1.,-1.224646799147E-16,0.));
#1681=DIRECTION('',(0.,0.,1.));
#1682=DIRECTION('',(1.,-1.224646799147E-16,0.));
#1683=DIRECTION('center_axis',(1.224646799147E-16,1.,0.));
#1684=DIRECTION('ref_axis',(0.,0.,-1.));
#1685=DIRECTION('center_axis',(0.,0.,1.));
#1686=DIRECTION('ref_axis',(-1.,1.224646799147E-16,0.));
#1687=DIRECTION('',(1.224646799147E-16,1.,0.));
#1688=DIRECTION('',(-1.,1.224646799147E-16,0.));
#1689=DIRECTION('center_axis',(-1.224646799147E-16,-1.,0.));
#1690=DIRECTION('ref_axis',(-1.,1.224646799147E-16,0.));
#1691=DIRECTION('center_axis',(1.224646799147E-16,1.,0.));
#1692=DIRECTION('ref_axis',(0.,0.,-1.));
#1693=DIRECTION('',(-1.,1.224646799147E-16,0.));
#1694=DIRECTION('',(0.,0.,1.));
#1695=DIRECTION('center_axis',(1.224646799147E-16,1.,0.));
#1696=DIRECTION('ref_axis',(1.,-1.224646799147E-16,0.));
#1697=DIRECTION('',(0.,0.,-1.));
#1698=DIRECTION('center_axis',(1.224646799147E-16,1.,0.));
#1699=DIRECTION('ref_axis',(1.,-1.224646799147E-16,0.));
#1700=DIRECTION('center_axis',(-1.224646799147E-16,-1.,0.));
#1701=DIRECTION('ref_axis',(0.,0.,-1.));
#1702=DIRECTION('',(0.,0.,1.));
#1703=DIRECTION('center_axis',(0.,0.,1.));
#1704=DIRECTION('ref_axis',(-1.,1.224646799147E-16,0.));
#1705=DIRECTION('',(1.224646799147E-16,1.,0.));
#1706=DIRECTION('',(-1.,1.224646799147E-16,0.));
#1707=DIRECTION('',(1.,-1.224646799147E-16,0.));
#1708=DIRECTION('center_axis',(-1.224646799147E-16,-1.,0.));
#1709=DIRECTION('ref_axis',(-1.,1.224646799147E-16,0.));
#1710=DIRECTION('center_axis',(1.224646799147E-16,1.,0.));
#1711=DIRECTION('ref_axis',(0.,0.,-1.));
#1712=DIRECTION('',(-1.,1.224646799147E-16,0.));
#1713=DIRECTION('',(0.,0.,1.));
#1714=DIRECTION('center_axis',(1.224646799147E-16,1.,0.));
#1715=DIRECTION('ref_axis',(1.,-1.224646799147E-16,0.));
#1716=DIRECTION('',(0.,0.,-1.));
#1717=DIRECTION('center_axis',(1.224646799147E-16,1.,0.));
#1718=DIRECTION('ref_axis',(1.,-1.224646799147E-16,0.));
#1719=DIRECTION('',(-1.,1.224646799147E-16,4.996063166392E-32));
#1720=DIRECTION('center_axis',(-1.224646799147E-16,-1.,0.));
#1721=DIRECTION('ref_axis',(0.,0.,-1.));
#1722=DIRECTION('',(0.,0.,1.));
#1723=DIRECTION('center_axis',(4.996063166392E-32,3.890767564419E-33,1.));
#1724=DIRECTION('ref_axis',(-1.,1.224646799147E-16,4.996063166392E-32));
#1725=DIRECTION('',(1.224646799147E-16,1.,0.));
#1726=DIRECTION('',(1.,-1.224646799147E-16,-4.996063166392E-32));
#1727=DIRECTION('center_axis',(1.224646799147E-16,1.,0.));
#1728=DIRECTION('ref_axis',(1.,-1.224646799147E-16,0.));
#1729=DIRECTION('',(0.,0.,1.));
#1730=DIRECTION('center_axis',(-1.224646799147E-16,-1.,0.));
#1731=DIRECTION('ref_axis',(0.,0.,-1.));
#1732=DIRECTION('center_axis',(1.224646799147E-16,1.,0.));
#1733=DIRECTION('ref_axis',(1.,-1.224646799147E-16,0.));
#1734=DIRECTION('',(0.,0.,1.));
#1735=DIRECTION('center_axis',(1.224646799147E-16,1.,0.));
#1736=DIRECTION('ref_axis',(1.,-1.224646799147E-16,0.));
#1737=DIRECTION('',(0.,0.,1.));
#1738=DIRECTION('',(1.,-1.224646799147E-16,0.));
#1739=DIRECTION('center_axis',(1.224646799147E-16,1.,0.));
#1740=DIRECTION('ref_axis',(0.,0.,-1.));
#1741=DIRECTION('center_axis',(-4.996063166392E-32,1.556307025767E-32,1.));
#1742=DIRECTION('ref_axis',(-1.,1.224646799147E-16,-4.996063166392E-32));
#1743=DIRECTION('',(-1.,1.224646799147E-16,-4.996063166392E-32));
#1744=DIRECTION('',(-1.224646799147E-16,-1.,0.));
#1745=DIRECTION('',(1.,-1.224646799147E-16,4.996063166392E-32));
#1746=DIRECTION('center_axis',(-4.996063166392E-32,3.890767564419E-33,1.));
#1747=DIRECTION('ref_axis',(-1.,1.224646799147E-16,-4.996063166392E-32));
#1748=DIRECTION('',(-1.,1.224646799147E-16,-4.996063166392E-32));
#1749=DIRECTION('',(-1.224646799147E-16,-1.,0.));
#1750=DIRECTION('',(1.,-1.224646799147E-16,4.996063166392E-32));
#1751=DIRECTION('center_axis',(0.,0.,1.));
#1752=DIRECTION('ref_axis',(-1.,1.224646799147E-16,0.));
#1753=DIRECTION('',(-1.,1.224646799147E-16,0.));
#1754=DIRECTION('',(-1.224646799147E-16,-1.,0.));
#1755=DIRECTION('',(1.,-1.224646799147E-16,0.));
#1756=DIRECTION('center_axis',(1.224646799147E-16,1.,0.));
#1757=DIRECTION('ref_axis',(1.,-1.224646799147E-16,0.));
#1758=DIRECTION('center_axis',(-1.224646799147E-16,-1.,0.));
#1759=DIRECTION('ref_axis',(0.,0.,1.));
#1760=DIRECTION('',(1.,-1.224646799147E-16,0.));
#1761=DIRECTION('',(0.,0.,1.));
#1762=DIRECTION('center_axis',(-1.224646799147E-16,-1.,-6.005688260885E-65));
#1763=DIRECTION('ref_axis',(4.996063166392E-32,-6.11841276505819E-48,-1.));
#1764=DIRECTION('',(0.,0.,-1.));
#1765=DIRECTION('center_axis',(-1.224646799147E-16,-1.,0.));
#1766=DIRECTION('ref_axis',(-1.,1.224646799147E-16,0.));
#1767=DIRECTION('',(1.,-1.224646799147E-16,4.996063166392E-32));
#1768=DIRECTION('center_axis',(-1.224646799147E-16,-1.,0.));
#1769=DIRECTION('ref_axis',(0.,0.,1.));
#1770=DIRECTION('',(0.,0.,1.));
#1771=DIRECTION('center_axis',(-4.996063166392E-32,3.890767564419E-33,1.));
#1772=DIRECTION('ref_axis',(-1.,1.224646799147E-16,-4.996063166392E-32));
#1773=DIRECTION('',(-1.224646799147E-16,-1.,0.));
#1774=DIRECTION('',(-1.,1.224646799147E-16,-4.996063166392E-32));
#1775=DIRECTION('center_axis',(-1.224646799147E-16,-1.,0.));
#1776=DIRECTION('ref_axis',(-1.,1.224646799147E-16,0.));
#1777=DIRECTION('',(0.,0.,1.));
#1778=DIRECTION('center_axis',(-1.224646799147E-16,-1.,0.));
#1779=DIRECTION('ref_axis',(0.,0.,1.));
#1780=DIRECTION('center_axis',(-1.224646799147E-16,-1.,0.));
#1781=DIRECTION('ref_axis',(-1.,1.224646799147E-16,0.));
#1782=DIRECTION('',(0.,0.,1.));
#1783=DIRECTION('center_axis',(-1.224646799147E-16,-1.,-6.005688260885E-65));
#1784=DIRECTION('ref_axis',(4.996063166392E-32,-6.11841276505819E-48,-1.));
#1785=DIRECTION('',(0.,0.,1.));
#1786=DIRECTION('',(-1.,1.224646799147E-16,0.));
#1787=DIRECTION('center_axis',(-1.224646799147E-16,-1.,0.));
#1788=DIRECTION('ref_axis',(0.,0.,1.));
#1789=DIRECTION('center_axis',(0.,0.,1.));
#1790=DIRECTION('ref_axis',(-1.,1.224646799147E-16,0.));
#1791=DIRECTION('',(-1.,1.224646799147E-16,0.));
#1792=DIRECTION('',(-1.224646799147E-16,-1.,0.));
#1793=DIRECTION('',(1.,-1.224646799147E-16,0.));
#1794=DIRECTION('center_axis',(1.224646799147E-16,1.,0.));
#1795=DIRECTION('ref_axis',(1.,-1.224646799147E-16,0.));
#1796=DIRECTION('center_axis',(-1.224646799147E-16,-1.,0.));
#1797=DIRECTION('ref_axis',(0.,0.,1.));
#1798=DIRECTION('',(1.,-1.224646799147E-16,0.));
#1799=DIRECTION('',(0.,0.,1.));
#1800=DIRECTION('center_axis',(-1.224646799147E-16,-1.,-6.005688260885E-65));
#1801=DIRECTION('ref_axis',(4.996063166392E-32,-6.11841276505819E-48,-1.));
#1802=DIRECTION('',(0.,0.,-1.));
#1803=DIRECTION('center_axis',(-1.224646799147E-16,-1.,0.));
#1804=DIRECTION('ref_axis',(-1.,1.224646799147E-16,0.));
#1805=DIRECTION('',(1.,-1.224646799147E-16,4.996063166392E-32));
#1806=DIRECTION('center_axis',(-1.224646799147E-16,-1.,0.));
#1807=DIRECTION('ref_axis',(0.,0.,1.));
#1808=DIRECTION('',(0.,0.,1.));
#1809=DIRECTION('center_axis',(-4.996063166392E-32,1.556307025767E-32,1.));
#1810=DIRECTION('ref_axis',(-1.,1.224646799147E-16,-4.996063166392E-32));
#1811=DIRECTION('',(-1.224646799147E-16,-1.,0.));
#1812=DIRECTION('',(-1.,1.224646799147E-16,-4.996063166392E-32));
#1813=DIRECTION('center_axis',(-1.224646799147E-16,-1.,0.));
#1814=DIRECTION('ref_axis',(-1.,1.224646799147E-16,0.));
#1815=DIRECTION('',(0.,0.,1.));
#1816=DIRECTION('center_axis',(-1.224646799147E-16,-1.,0.));
#1817=DIRECTION('ref_axis',(0.,0.,1.));
#1818=DIRECTION('center_axis',(-1.224646799147E-16,-1.,0.));
#1819=DIRECTION('ref_axis',(-1.,1.224646799147E-16,0.));
#1820=DIRECTION('',(0.,0.,1.));
#1821=DIRECTION('center_axis',(-1.224646799147E-16,-1.,-6.005688260885E-65));
#1822=DIRECTION('ref_axis',(4.996063166392E-32,-6.11841276505819E-48,-1.));
#1823=DIRECTION('',(0.,0.,1.));
#1824=DIRECTION('',(-1.,1.224646799147E-16,0.));
#1825=DIRECTION('center_axis',(-1.224646799147E-16,-1.,0.));
#1826=DIRECTION('ref_axis',(0.,0.,1.));
#1827=DIRECTION('center_axis',(1.,-1.224646799147E-16,0.));
#1828=DIRECTION('ref_axis',(-1.224646799147E-16,-1.,0.));
#1829=DIRECTION('',(-1.224646799147E-16,-1.,0.));
#1830=DIRECTION('center_axis',(1.,-1.224646799147E-16,0.));
#1831=DIRECTION('ref_axis',(-1.224646799147E-16,-1.,0.));
#1832=DIRECTION('',(-1.224646799147E-16,-1.,0.));
#1833=DIRECTION('center_axis',(-1.,1.224646799147E-16,0.));
#1834=DIRECTION('ref_axis',(1.224646799147E-16,1.,0.));
#1835=DIRECTION('',(1.224646799147E-16,1.,0.));
#1836=DIRECTION('center_axis',(-1.,1.224646799147E-16,0.));
#1837=DIRECTION('ref_axis',(1.224646799147E-16,1.,0.));
#1838=DIRECTION('',(1.224646799147E-16,1.,0.));
#1839=DIRECTION('center_axis',(1.224646799147E-16,1.,0.));
#1840=DIRECTION('ref_axis',(1.,-1.224646799147E-16,0.));
#1841=DIRECTION('',(1.224646799147E-16,1.,0.));
#1842=DIRECTION('center_axis',(1.224646799147E-16,1.,0.));
#1843=DIRECTION('ref_axis',(1.,-1.224646799147E-16,0.));
#1844=DIRECTION('',(1.224646799147E-16,1.,0.));
#1845=DIRECTION('center_axis',(1.224646799147E-16,1.,0.));
#1846=DIRECTION('ref_axis',(1.,-1.224646799147E-16,0.));
#1847=DIRECTION('',(1.224646799147E-16,1.,0.));
#1848=DIRECTION('center_axis',(-1.,1.224646799147E-16,0.));
#1849=DIRECTION('ref_axis',(1.224646799147E-16,1.,0.));
#1850=DIRECTION('',(1.224646799147E-16,1.,0.));
#1851=DIRECTION('',(1.224646799147E-16,1.,0.));
#1852=DIRECTION('center_axis',(1.224646799147E-16,1.,0.));
#1853=DIRECTION('ref_axis',(1.,-1.224646799147E-16,0.));
#1854=DIRECTION('center_axis',(-1.,1.224646799147E-16,0.));
#1855=DIRECTION('ref_axis',(1.224646799147E-16,1.,0.));
#1856=DIRECTION('center_axis',(0.,0.,1.));
#1857=DIRECTION('ref_axis',(-1.,1.224646799147E-16,0.));
#1858=DIRECTION('',(1.224646799147E-16,1.,0.));
#1859=DIRECTION('center_axis',(1.224646799147E-16,1.,0.));
#1860=DIRECTION('ref_axis',(1.,-1.224646799147E-16,0.));
#1861=DIRECTION('center_axis',(1.224646799147E-16,1.,0.));
#1862=DIRECTION('ref_axis',(1.,-1.224646799147E-16,0.));
#1863=DIRECTION('',(1.224646799147E-16,1.,0.));
#1864=DIRECTION('center_axis',(1.224646799147E-16,1.,0.));
#1865=DIRECTION('ref_axis',(1.,-1.224646799147E-16,0.));
#1866=DIRECTION('',(1.224646799147E-16,1.,0.));
#1867=DIRECTION('',(1.224646799147E-16,1.,0.));
#1868=DIRECTION('center_axis',(0.,0.,1.));
#1869=DIRECTION('ref_axis',(-1.,1.224646799147E-16,0.));
#1870=DIRECTION('center_axis',(-1.,1.224646799147E-16,0.));
#1871=DIRECTION('ref_axis',(1.224646799147E-16,1.,0.));
#1872=DIRECTION('',(1.224646799147E-16,1.,0.));
#1873=DIRECTION('center_axis',(1.224646799147E-16,1.,0.));
#1874=DIRECTION('ref_axis',(1.,-1.224646799147E-16,0.));
#1875=DIRECTION('center_axis',(-1.,1.224646799147E-16,0.));
#1876=DIRECTION('ref_axis',(1.224646799147E-16,1.,0.));
#1877=DIRECTION('center_axis',(-1.224646799147E-16,-1.,0.));
#1878=DIRECTION('ref_axis',(4.996063166392E-32,-6.11841276505819E-48,-1.));
#1879=DIRECTION('',(-1.224646799147E-16,-1.,0.));
#1880=DIRECTION('center_axis',(-1.224646799147E-16,-1.,0.));
#1881=DIRECTION('ref_axis',(4.996063166392E-32,-6.11841276505819E-48,-1.));
#1882=DIRECTION('',(-1.224646799147E-16,-1.,0.));
#1883=DIRECTION('center_axis',(-1.224646799147E-16,-1.,0.));
#1884=DIRECTION('ref_axis',(0.,0.,1.));
#1885=DIRECTION('',(-1.224646799147E-16,-1.,0.));
#1886=DIRECTION('center_axis',(-1.224646799147E-16,-1.,0.));
#1887=DIRECTION('ref_axis',(-1.,1.224646799147E-16,0.));
#1888=DIRECTION('',(-1.224646799147E-16,-1.,0.));
#1889=DIRECTION('',(-1.224646799147E-16,-1.,0.));
#1890=DIRECTION('center_axis',(0.,0.,1.));
#1891=DIRECTION('ref_axis',(-1.,1.224646799147E-16,0.));
#1892=DIRECTION('center_axis',(1.,-1.224646799147E-16,0.));
#1893=DIRECTION('ref_axis',(-1.224646799147E-16,-1.,0.));
#1894=DIRECTION('',(-1.224646799147E-16,-1.,0.));
#1895=DIRECTION('center_axis',(-1.224646799147E-16,-1.,0.));
#1896=DIRECTION('ref_axis',(-1.,1.224646799147E-16,0.));
#1897=DIRECTION('center_axis',(1.,-1.224646799147E-16,0.));
#1898=DIRECTION('ref_axis',(-1.224646799147E-16,-1.,0.));
#1899=DIRECTION('center_axis',(-1.224646799147E-16,-1.,0.));
#1900=DIRECTION('ref_axis',(0.,0.,1.));
#1901=DIRECTION('',(-1.224646799147E-16,-1.,0.));
#1902=DIRECTION('center_axis',(-1.224646799147E-16,-1.,0.));
#1903=DIRECTION('ref_axis',(-1.,1.224646799147E-16,0.));
#1904=DIRECTION('',(-1.224646799147E-16,-1.,0.));
#1905=DIRECTION('',(-1.224646799147E-16,-1.,0.));
#1906=DIRECTION('center_axis',(0.,0.,1.));
#1907=DIRECTION('ref_axis',(-1.,1.224646799147E-16,0.));
#1908=DIRECTION('center_axis',(1.,-1.224646799147E-16,0.));
#1909=DIRECTION('ref_axis',(-1.224646799147E-16,-1.,0.));
#1910=DIRECTION('',(-1.224646799147E-16,-1.,0.));
#1911=DIRECTION('center_axis',(-1.224646799147E-16,-1.,0.));
#1912=DIRECTION('ref_axis',(-1.,1.224646799147E-16,0.));
#1913=DIRECTION('center_axis',(1.,-1.224646799147E-16,0.));
#1914=DIRECTION('ref_axis',(-1.224646799147E-16,-1.,0.));
#1915=DIRECTION('',(0.,0.,1.));
#1916=DIRECTION('',(1.,0.,0.));
#1917=CARTESIAN_POINT('',(0.,0.,0.));
#1918=CARTESIAN_POINT('',(0.,0.,0.));
#1919=CARTESIAN_POINT('Origin',(0.,0.,1.6));
#1920=CARTESIAN_POINT('',(1.433400076889,-2.425,1.6));
#1921=CARTESIAN_POINT('',(2.425,-1.433400076889,1.6));
#1922=CARTESIAN_POINT('',(1.411433085478,-2.446966991411,1.6));
#1923=CARTESIAN_POINT('',(2.425,2.425,1.6));
#1924=CARTESIAN_POINT('',(2.425,-1.464466094067,1.6));
#1925=CARTESIAN_POINT('',(-2.425,2.425,1.6));
#1926=CARTESIAN_POINT('',(2.5,2.425,1.6));
#1927=CARTESIAN_POINT('',(-2.425,-2.425,1.6));
#1928=CARTESIAN_POINT('',(-2.425,2.5,1.6));
#1929=CARTESIAN_POINT('',(-2.5,-2.425,1.6));
#1930=CARTESIAN_POINT('',(1.96666666666687,6.94869360959024E-29,1.60000000000013));
#1931=CARTESIAN_POINT('Origin',(0.,0.,1.6));
#1932=CARTESIAN_POINT('Origin',(0.,0.,1.3));
#1933=CARTESIAN_POINT('',(1.666666666667,5.88872339795841E-29,1.3));
#1934=CARTESIAN_POINT('Origin',(0.,0.,1.3));
#1935=CARTESIAN_POINT('',(1.666666666667,5.88872339795841E-29,1.3));
#1936=CARTESIAN_POINT('Origin',(1.411433085478,-2.446966991411,1.525));
#1937=CARTESIAN_POINT('',(1.464466094067,-2.5,1.525));
#1938=CARTESIAN_POINT('Origin',(1.433400076889,-2.425,1.525));
#1939=CARTESIAN_POINT('',(2.5,-1.464466094067,1.525));
#1940=CARTESIAN_POINT('',(1.464466094067,-2.5,1.525));
#1941=CARTESIAN_POINT('Origin',(2.425,-1.433400076889,1.525));
#1942=CARTESIAN_POINT('Origin',(-2.5,-2.425,1.525));
#1943=CARTESIAN_POINT('',(-2.5,-2.5,1.525));
#1944=CARTESIAN_POINT('Origin',(-2.425,-2.425,1.525));
#1945=CARTESIAN_POINT('',(-2.5,-2.5,1.525));
#1946=CARTESIAN_POINT('Origin',(2.425,-1.464466094067,1.525));
#1947=CARTESIAN_POINT('',(2.5,2.5,1.525));
#1948=CARTESIAN_POINT('',(2.5,-1.464466094067,1.525));
#1949=CARTESIAN_POINT('Origin',(2.425,2.425,1.525));
#1950=CARTESIAN_POINT('Origin',(-2.425,2.5,1.525));
#1951=CARTESIAN_POINT('',(-2.5,2.5,1.525));
#1952=CARTESIAN_POINT('',(-2.5,2.5,1.525));
#1953=CARTESIAN_POINT('Origin',(-2.425,2.425,1.525));
#1954=CARTESIAN_POINT('Origin',(2.5,2.425,1.525));
#1955=CARTESIAN_POINT('',(2.5,2.5,1.525));
#1956=CARTESIAN_POINT('Origin',(0.,0.,0.85));
#1957=CARTESIAN_POINT('',(1.666666666667,-4.08215599715807E-16,1.225));
#1958=CARTESIAN_POINT('',(1.666666666667,-4.08215599715807E-16,0.85));
#1959=CARTESIAN_POINT('Origin',(0.,0.,1.225));
#1960=CARTESIAN_POINT('Origin',(3.75,-0.214466094067,1.3));
#1961=CARTESIAN_POINT('',(1.464466094067,-2.5,1.3));
#1962=CARTESIAN_POINT('',(1.464466094067,-2.5,0.7));
#1963=CARTESIAN_POINT('',(2.5,-1.464466094067,1.3));
#1964=CARTESIAN_POINT('',(3.75,-0.214466094067,1.3));
#1965=CARTESIAN_POINT('',(2.5,-1.464466094067,0.7));
#1966=CARTESIAN_POINT('Origin',(-2.5,-2.5,0.1));
#1967=CARTESIAN_POINT('',(-2.5,-2.5,0.1));
#1968=CARTESIAN_POINT('',(-2.5,-2.5,0.1));
#1969=CARTESIAN_POINT('',(2.5,-2.5,0.1));
#1970=CARTESIAN_POINT('',(-2.5,-2.5,0.1));
#1971=CARTESIAN_POINT('',(2.5,-2.5,1.3));
#1972=CARTESIAN_POINT('',(2.5,-2.5,0.1));
#1973=CARTESIAN_POINT('',(0.625,-2.5,1.3));
#1974=CARTESIAN_POINT('Origin',(2.5,-2.5,0.1));
#1975=CARTESIAN_POINT('',(2.5,2.5,0.1));
#1976=CARTESIAN_POINT('',(2.5,2.5,0.1));
#1977=CARTESIAN_POINT('',(2.5,-3.125,1.3));
#1978=CARTESIAN_POINT('',(2.5,-2.1,0.1));
#1979=CARTESIAN_POINT('',(2.5,-2.5,0.1));
#1980=CARTESIAN_POINT('',(2.5,-1.2,0.1));
#1981=CARTESIAN_POINT('',(2.5,-2.5,0.1));
#1982=CARTESIAN_POINT('',(2.5,1.2,0.1));
#1983=CARTESIAN_POINT('',(2.5,-2.5,0.1));
#1984=CARTESIAN_POINT('',(2.5,2.1,0.1));
#1985=CARTESIAN_POINT('',(2.5,-2.5,0.1));
#1986=CARTESIAN_POINT('',(2.5,-2.5,0.1));
#1987=CARTESIAN_POINT('',(2.5,1.2,0.9));
#1988=CARTESIAN_POINT('',(2.5,2.1,0.9));
#1989=CARTESIAN_POINT('',(2.5,-0.425,0.9));
#1990=CARTESIAN_POINT('',(2.5,1.2,1.));
#1991=CARTESIAN_POINT('',(2.5,1.2,0.05));
#1992=CARTESIAN_POINT('',(2.5,2.1,1.));
#1993=CARTESIAN_POINT('',(2.5,-0.425,1.));
#1994=CARTESIAN_POINT('',(2.5,2.1,0.05));
#1995=CARTESIAN_POINT('',(2.5,-2.1,1.));
#1996=CARTESIAN_POINT('',(2.5,-1.2,1.));
#1997=CARTESIAN_POINT('',(2.5,-2.075,1.));
#1998=CARTESIAN_POINT('',(2.5,-1.2,0.9));
#1999=CARTESIAN_POINT('',(2.5,-1.2,0.05));
#2000=CARTESIAN_POINT('',(2.5,-2.1,0.9));
#2001=CARTESIAN_POINT('',(2.5,-2.075,0.9));
#2002=CARTESIAN_POINT('',(2.5,-2.1,0.05));
#2003=CARTESIAN_POINT('Origin',(-2.5,2.5,0.1));
#2004=CARTESIAN_POINT('',(-2.5,2.5,0.1));
#2005=CARTESIAN_POINT('',(-2.5,2.5,0.1));
#2006=CARTESIAN_POINT('',(-2.5,2.1,0.1));
#2007=CARTESIAN_POINT('',(-2.5,2.5,0.1));
#2008=CARTESIAN_POINT('',(-2.5,1.2,0.1));
#2009=CARTESIAN_POINT('',(-2.5,2.5,0.1));
#2010=CARTESIAN_POINT('',(-2.5,-1.2,0.1));
#2011=CARTESIAN_POINT('',(-2.5,2.5,0.1));
#2012=CARTESIAN_POINT('',(-2.5,-2.1,0.1));
#2013=CARTESIAN_POINT('',(-2.5,2.5,0.1));
#2014=CARTESIAN_POINT('',(-2.5,2.5,0.1));
#2015=CARTESIAN_POINT('',(-2.5,-1.2,1.));
#2016=CARTESIAN_POINT('',(-2.5,-2.1,1.));
#2017=CARTESIAN_POINT('',(-2.5,0.425,1.));
#2018=CARTESIAN_POINT('',(-2.5,-2.1,0.9));
#2019=CARTESIAN_POINT('',(-2.5,-2.1,0.05));
#2020=CARTESIAN_POINT('',(-2.5,-1.2,0.9));
#2021=CARTESIAN_POINT('',(-2.5,0.425,0.9));
#2022=CARTESIAN_POINT('',(-2.5,-1.2,0.05));
#2023=CARTESIAN_POINT('',(-2.5,2.1,1.));
#2024=CARTESIAN_POINT('',(-2.5,1.2,1.));
#2025=CARTESIAN_POINT('',(-2.5,2.075,1.));
#2026=CARTESIAN_POINT('',(-2.5,1.2,0.9));
#2027=CARTESIAN_POINT('',(-2.5,1.2,0.05));
#2028=CARTESIAN_POINT('',(-2.5,2.1,0.9));
#2029=CARTESIAN_POINT('',(-2.5,2.075,0.9));
#2030=CARTESIAN_POINT('',(-2.5,2.1,0.05));
#2031=CARTESIAN_POINT('Origin',(2.5,2.5,0.1));
#2032=CARTESIAN_POINT('',(2.5,2.5,0.1));
#2033=CARTESIAN_POINT('Origin',(1.538370149107E-16,-1.370800865949E-16,
1.225));
#2034=CARTESIAN_POINT('Origin',(3.75,-3.75,1.3));
#2035=CARTESIAN_POINT('Origin',(0.,0.,0.1));
#2036=CARTESIAN_POINT('',(1.8,2.1,0.1));
#2037=CARTESIAN_POINT('',(2.475,2.1,0.1));
#2038=CARTESIAN_POINT('',(1.8,1.2,0.1));
#2039=CARTESIAN_POINT('',(1.8,1.05,0.1));
#2040=CARTESIAN_POINT('',(0.9,1.2,0.1));
#2041=CARTESIAN_POINT('',(1.8,-1.2,0.1));
#2042=CARTESIAN_POINT('',(2.475,-1.2,0.1));
#2043=CARTESIAN_POINT('',(1.8,-2.1,0.1));
#2044=CARTESIAN_POINT('',(1.8,-0.6,0.1));
#2045=CARTESIAN_POINT('',(0.9,-2.1,0.1));
#2046=CARTESIAN_POINT('',(-1.8,-2.1,0.1));
#2047=CARTESIAN_POINT('',(-2.475,-2.1,0.1));
#2048=CARTESIAN_POINT('',(-1.8,-1.2,0.1));
#2049=CARTESIAN_POINT('',(-1.8,-1.05,0.1));
#2050=CARTESIAN_POINT('',(-0.9,-1.2,0.1));
#2051=CARTESIAN_POINT('',(-1.8,1.2,0.1));
#2052=CARTESIAN_POINT('',(-2.475,1.2,0.1));
#2053=CARTESIAN_POINT('',(-1.8,2.1,0.1));
#2054=CARTESIAN_POINT('',(-1.8,0.6,0.1));
#2055=CARTESIAN_POINT('',(-0.9,2.1,0.1));
#2056=CARTESIAN_POINT('Origin',(2.25,1.65,0.1));
#2057=CARTESIAN_POINT('',(2.55,1.2,0.1));
#2058=CARTESIAN_POINT('',(2.55,2.1,0.1));
#2059=CARTESIAN_POINT('',(2.55,1.1,0.1));
#2060=CARTESIAN_POINT('',(2.475,2.1,0.1));
#2061=CARTESIAN_POINT('',(2.025,1.2,0.1));
#2062=CARTESIAN_POINT('Origin',(2.25,-1.65,0.1));
#2063=CARTESIAN_POINT('',(2.55,-2.1,0.1));
#2064=CARTESIAN_POINT('',(2.55,-1.2,0.1));
#2065=CARTESIAN_POINT('',(2.55,-2.2,0.1));
#2066=CARTESIAN_POINT('',(2.475,-1.2,0.1));
#2067=CARTESIAN_POINT('',(2.025,-2.1,0.1));
#2068=CARTESIAN_POINT('Origin',(2.25,1.65,0.9));
#2069=CARTESIAN_POINT('',(2.55,1.2,0.9));
#2070=CARTESIAN_POINT('',(2.55,2.1,0.9));
#2071=CARTESIAN_POINT('',(2.55,1.1,0.9));
#2072=CARTESIAN_POINT('',(2.025,1.2,0.9));
#2073=CARTESIAN_POINT('',(2.475,2.1,0.9));
#2074=CARTESIAN_POINT('Origin',(1.8,1.2,0.));
#2075=CARTESIAN_POINT('',(2.7,1.2,0.05));
#2076=CARTESIAN_POINT('',(2.7,1.2,0.95));
#2077=CARTESIAN_POINT('',(2.7,1.2,0.));
#2078=CARTESIAN_POINT('',(2.65,1.2,1.));
#2079=CARTESIAN_POINT('Origin',(2.65,1.2,0.95));
#2080=CARTESIAN_POINT('',(1.8,1.2,1.));
#2081=CARTESIAN_POINT('',(2.6,1.2,0.85));
#2082=CARTESIAN_POINT('Origin',(2.55,1.2,0.85));
#2083=CARTESIAN_POINT('',(2.6,1.2,0.15));
#2084=CARTESIAN_POINT('',(2.6,1.2,0.05));
#2085=CARTESIAN_POINT('Origin',(2.55,1.2,0.15));
#2086=CARTESIAN_POINT('',(1.8,1.2,0.));
#2087=CARTESIAN_POINT('',(1.8,1.2,0.));
#2088=CARTESIAN_POINT('',(2.65,1.2,-6.938893903907E-18));
#2089=CARTESIAN_POINT('',(1.8,1.2,0.));
#2090=CARTESIAN_POINT('Origin',(2.65,1.2,0.05));
#2091=CARTESIAN_POINT('Origin',(2.25,1.65,1.));
#2092=CARTESIAN_POINT('',(2.65,2.1,1.));
#2093=CARTESIAN_POINT('',(2.65,1.2,1.));
#2094=CARTESIAN_POINT('',(2.7,2.1,1.));
#2095=CARTESIAN_POINT('Origin',(2.7,2.1,0.));
#2096=CARTESIAN_POINT('',(2.7,2.1,0.05));
#2097=CARTESIAN_POINT('',(2.65,2.1,-6.938893903907E-18));
#2098=CARTESIAN_POINT('Origin',(2.65,2.1,0.05));
#2099=CARTESIAN_POINT('',(1.8,2.1,0.));
#2100=CARTESIAN_POINT('',(2.7,2.1,0.));
#2101=CARTESIAN_POINT('',(1.8,2.1,0.));
#2102=CARTESIAN_POINT('',(2.6,2.1,0.15));
#2103=CARTESIAN_POINT('Origin',(2.55,2.1,0.15));
#2104=CARTESIAN_POINT('',(2.6,2.1,0.85));
#2105=CARTESIAN_POINT('',(2.6,2.1,0.05));
#2106=CARTESIAN_POINT('Origin',(2.55,2.1,0.85));
#2107=CARTESIAN_POINT('',(2.7,2.1,0.95));
#2108=CARTESIAN_POINT('Origin',(2.65,2.1,0.95));
#2109=CARTESIAN_POINT('',(2.7,2.1,0.));
#2110=CARTESIAN_POINT('Origin',(2.25,-1.65,1.));
#2111=CARTESIAN_POINT('',(2.65,-2.1,1.));
#2112=CARTESIAN_POINT('',(2.65,-1.2,1.));
#2113=CARTESIAN_POINT('',(2.65,-2.1,1.));
#2114=CARTESIAN_POINT('',(2.7,-1.2,1.));
#2115=CARTESIAN_POINT('',(1.8,-2.1,1.));
#2116=CARTESIAN_POINT('Origin',(2.7,-1.2,0.));
#2117=CARTESIAN_POINT('',(2.7,-1.2,0.05));
#2118=CARTESIAN_POINT('',(2.65,-1.2,-6.938893903907E-18));
#2119=CARTESIAN_POINT('Origin',(2.65,-1.2,0.05));
#2120=CARTESIAN_POINT('',(1.8,-1.2,0.));
#2121=CARTESIAN_POINT('',(2.7,-1.2,0.));
#2122=CARTESIAN_POINT('',(1.8,-1.2,0.));
#2123=CARTESIAN_POINT('',(2.6,-1.2,0.15));
#2124=CARTESIAN_POINT('Origin',(2.55,-1.2,0.15));
#2125=CARTESIAN_POINT('',(2.6,-1.2,0.85));
#2126=CARTESIAN_POINT('',(2.6,-1.2,0.05));
#2127=CARTESIAN_POINT('',(2.55,-1.2,0.9));
#2128=CARTESIAN_POINT('Origin',(2.55,-1.2,0.85));
#2129=CARTESIAN_POINT('',(2.475,-1.2,0.9));
#2130=CARTESIAN_POINT('',(2.7,-1.2,0.95));
#2131=CARTESIAN_POINT('Origin',(2.65,-1.2,0.95));
#2132=CARTESIAN_POINT('',(2.7,-1.2,0.));
#2133=CARTESIAN_POINT('Origin',(2.25,-1.65,0.9));
#2134=CARTESIAN_POINT('',(2.55,-2.1,0.9));
#2135=CARTESIAN_POINT('',(2.55,-2.2,0.9));
#2136=CARTESIAN_POINT('',(2.025,-2.1,0.9));
#2137=CARTESIAN_POINT('Origin',(1.8,-2.1,0.));
#2138=CARTESIAN_POINT('',(2.7,-2.1,0.05));
#2139=CARTESIAN_POINT('',(2.7,-2.1,0.95));
#2140=CARTESIAN_POINT('',(2.7,-2.1,0.));
#2141=CARTESIAN_POINT('Origin',(2.65,-2.1,0.95));
#2142=CARTESIAN_POINT('',(2.6,-2.1,0.85));
#2143=CARTESIAN_POINT('Origin',(2.55,-2.1,0.85));
#2144=CARTESIAN_POINT('',(2.6,-2.1,0.15));
#2145=CARTESIAN_POINT('',(2.6,-2.1,0.05));
#2146=CARTESIAN_POINT('Origin',(2.55,-2.1,0.15));
#2147=CARTESIAN_POINT('',(1.8,-2.1,0.));
#2148=CARTESIAN_POINT('',(1.8,-2.1,0.));
#2149=CARTESIAN_POINT('',(2.65,-2.1,-6.938893903907E-18));
#2150=CARTESIAN_POINT('',(1.8,-2.1,0.));
#2151=CARTESIAN_POINT('Origin',(2.65,-2.1,0.05));
#2152=CARTESIAN_POINT('Origin',(-2.25,1.65,0.1));
#2153=CARTESIAN_POINT('',(-2.55,2.1,0.1));
#2154=CARTESIAN_POINT('',(-2.025,2.1,0.1));
#2155=CARTESIAN_POINT('',(-2.55,1.2,0.1));
#2156=CARTESIAN_POINT('',(-2.55,2.2,0.1));
#2157=CARTESIAN_POINT('',(-2.475,1.2,0.1));
#2158=CARTESIAN_POINT('Origin',(-2.25,-1.65,0.1));
#2159=CARTESIAN_POINT('',(-2.55,-1.2,0.1));
#2160=CARTESIAN_POINT('',(-2.025,-1.2,0.1));
#2161=CARTESIAN_POINT('',(-2.55,-2.1,0.1));
#2162=CARTESIAN_POINT('',(-2.55,-1.1,0.1));
#2163=CARTESIAN_POINT('',(-2.475,-2.1,0.1));
#2164=CARTESIAN_POINT('Origin',(-2.25,-1.65,1.));
#2165=CARTESIAN_POINT('',(-2.65,-1.2,1.));
#2166=CARTESIAN_POINT('',(-1.8,-1.2,1.));
#2167=CARTESIAN_POINT('',(-2.65,-2.1,1.));
#2168=CARTESIAN_POINT('',(-2.65,-1.2,1.));
#2169=CARTESIAN_POINT('',(-2.7,-2.1,1.));
#2170=CARTESIAN_POINT('Origin',(-2.7,-2.1,0.));
#2171=CARTESIAN_POINT('',(-2.7,-2.1,0.05));
#2172=CARTESIAN_POINT('',(-2.65,-2.1,-6.938893903907E-18));
#2173=CARTESIAN_POINT('Origin',(-2.65,-2.1,0.05));
#2174=CARTESIAN_POINT('',(-1.8,-2.1,0.));
#2175=CARTESIAN_POINT('',(-2.7,-2.1,0.));
#2176=CARTESIAN_POINT('',(-1.8,-2.1,0.));
#2177=CARTESIAN_POINT('',(-2.6,-2.1,0.15));
#2178=CARTESIAN_POINT('Origin',(-2.55,-2.1,0.15));
#2179=CARTESIAN_POINT('',(-2.6,-2.1,0.85));
#2180=CARTESIAN_POINT('',(-2.6,-2.1,0.05));
#2181=CARTESIAN_POINT('',(-2.55,-2.1,0.9));
#2182=CARTESIAN_POINT('Origin',(-2.55,-2.1,0.85));
#2183=CARTESIAN_POINT('',(-2.475,-2.1,0.9));
#2184=CARTESIAN_POINT('',(-2.7,-2.1,0.95));
#2185=CARTESIAN_POINT('Origin',(-2.65,-2.1,0.95));
#2186=CARTESIAN_POINT('',(-2.7,-2.1,0.));
#2187=CARTESIAN_POINT('Origin',(-2.25,-1.65,0.9));
#2188=CARTESIAN_POINT('',(-2.55,-1.2,0.9));
#2189=CARTESIAN_POINT('',(-2.55,-1.1,0.9));
#2190=CARTESIAN_POINT('',(-2.025,-1.2,0.9));
#2191=CARTESIAN_POINT('Origin',(-1.8,-1.2,0.));
#2192=CARTESIAN_POINT('',(-2.7,-1.2,0.05));
#2193=CARTESIAN_POINT('',(-2.7,-1.2,0.95));
#2194=CARTESIAN_POINT('',(-2.7,-1.2,0.));
#2195=CARTESIAN_POINT('Origin',(-2.65,-1.2,0.95));
#2196=CARTESIAN_POINT('',(-2.6,-1.2,0.85));
#2197=CARTESIAN_POINT('Origin',(-2.55,-1.2,0.85));
#2198=CARTESIAN_POINT('',(-2.6,-1.2,0.15));
#2199=CARTESIAN_POINT('',(-2.6,-1.2,0.05));
#2200=CARTESIAN_POINT('Origin',(-2.55,-1.2,0.15));
#2201=CARTESIAN_POINT('',(-1.8,-1.2,0.));
#2202=CARTESIAN_POINT('',(-1.8,-1.2,0.));
#2203=CARTESIAN_POINT('',(-2.65,-1.2,-6.938893903907E-18));
#2204=CARTESIAN_POINT('',(-1.8,-1.2,0.));
#2205=CARTESIAN_POINT('Origin',(-2.65,-1.2,0.05));
#2206=CARTESIAN_POINT('Origin',(-2.25,1.65,1.));
#2207=CARTESIAN_POINT('',(-2.65,2.1,1.));
#2208=CARTESIAN_POINT('',(-1.8,2.1,1.));
#2209=CARTESIAN_POINT('',(-2.65,1.2,1.));
#2210=CARTESIAN_POINT('',(-2.65,2.1,1.));
#2211=CARTESIAN_POINT('',(-2.7,1.2,1.));
#2212=CARTESIAN_POINT('Origin',(-2.7,1.2,0.));
#2213=CARTESIAN_POINT('',(-2.7,1.2,0.05));
#2214=CARTESIAN_POINT('',(-2.65,1.2,-6.938893903907E-18));
#2215=CARTESIAN_POINT('Origin',(-2.65,1.2,0.05));
#2216=CARTESIAN_POINT('',(-1.8,1.2,0.));
#2217=CARTESIAN_POINT('',(-2.7,1.2,0.));
#2218=CARTESIAN_POINT('',(-1.8,1.2,0.));
#2219=CARTESIAN_POINT('',(-2.6,1.2,0.15));
#2220=CARTESIAN_POINT('Origin',(-2.55,1.2,0.15));
#2221=CARTESIAN_POINT('',(-2.6,1.2,0.85));
#2222=CARTESIAN_POINT('',(-2.6,1.2,0.05));
#2223=CARTESIAN_POINT('',(-2.55,1.2,0.9));
#2224=CARTESIAN_POINT('Origin',(-2.55,1.2,0.85));
#2225=CARTESIAN_POINT('',(-2.475,1.2,0.9));
#2226=CARTESIAN_POINT('',(-2.7,1.2,0.95));
#2227=CARTESIAN_POINT('Origin',(-2.65,1.2,0.95));
#2228=CARTESIAN_POINT('',(-2.7,1.2,0.));
#2229=CARTESIAN_POINT('Origin',(-2.25,1.65,0.9));
#2230=CARTESIAN_POINT('',(-2.55,2.1,0.9));
#2231=CARTESIAN_POINT('',(-2.55,2.2,0.9));
#2232=CARTESIAN_POINT('',(-2.025,2.1,0.9));
#2233=CARTESIAN_POINT('Origin',(-1.8,2.1,0.));
#2234=CARTESIAN_POINT('',(-2.7,2.1,0.05));
#2235=CARTESIAN_POINT('',(-2.7,2.1,0.95));
#2236=CARTESIAN_POINT('',(-2.7,2.1,0.));
#2237=CARTESIAN_POINT('Origin',(-2.65,2.1,0.95));
#2238=CARTESIAN_POINT('',(-2.6,2.1,0.85));
#2239=CARTESIAN_POINT('Origin',(-2.55,2.1,0.85));
#2240=CARTESIAN_POINT('',(-2.6,2.1,0.15));
#2241=CARTESIAN_POINT('',(-2.6,2.1,0.05));
#2242=CARTESIAN_POINT('Origin',(-2.55,2.1,0.15));
#2243=CARTESIAN_POINT('',(-1.8,2.1,0.));
#2244=CARTESIAN_POINT('',(-1.8,2.1,0.));
#2245=CARTESIAN_POINT('',(-2.65,2.1,-6.938893903907E-18));
#2246=CARTESIAN_POINT('',(-1.8,2.1,0.));
#2247=CARTESIAN_POINT('Origin',(-2.65,2.1,0.05));
#2248=CARTESIAN_POINT('Origin',(1.8,2.1,0.));
#2249=CARTESIAN_POINT('',(1.8,2.1,0.));
#2250=CARTESIAN_POINT('Origin',(1.8,-1.2,0.));
#2251=CARTESIAN_POINT('',(1.8,-1.2,0.));
#2252=CARTESIAN_POINT('Origin',(-1.8,-2.1,0.));
#2253=CARTESIAN_POINT('',(-1.8,-2.1,0.));
#2254=CARTESIAN_POINT('Origin',(-1.8,1.2,0.));
#2255=CARTESIAN_POINT('',(-1.8,1.2,0.));
#2256=CARTESIAN_POINT('Origin',(2.55,1.1,0.15));
#2257=CARTESIAN_POINT('',(2.6,1.1,0.15));
#2258=CARTESIAN_POINT('Origin',(2.55,-2.2,0.15));
#2259=CARTESIAN_POINT('',(2.6,-2.2,0.15));
#2260=CARTESIAN_POINT('Origin',(2.55,1.1,0.85));
#2261=CARTESIAN_POINT('',(2.6,1.1,0.85));
#2262=CARTESIAN_POINT('Origin',(2.7,1.2,0.));
#2263=CARTESIAN_POINT('',(2.7,1.2,0.05));
#2264=CARTESIAN_POINT('',(2.7,1.2,0.95));
#2265=CARTESIAN_POINT('Origin',(2.65,1.2,0.95));
#2266=CARTESIAN_POINT('Origin',(2.6,1.1,0.1));
#2267=CARTESIAN_POINT('Origin',(2.25,1.65,0.));
#2268=CARTESIAN_POINT('',(2.65,1.2,-6.938893903907E-18));
#2269=CARTESIAN_POINT('Origin',(2.65,1.2,0.05));
#2270=CARTESIAN_POINT('Origin',(2.65,-2.1,0.95));
#2271=CARTESIAN_POINT('',(2.7,-2.1,0.95));
#2272=CARTESIAN_POINT('Origin',(2.65,-2.1,0.05));
#2273=CARTESIAN_POINT('',(2.65,-2.1,-6.938893903907E-18));
#2274=CARTESIAN_POINT('',(2.7,-2.1,0.05));
#2275=CARTESIAN_POINT('Origin',(2.25,-1.65,0.));
#2276=CARTESIAN_POINT('Origin',(2.6,-2.2,0.1));
#2277=CARTESIAN_POINT('',(2.6,-2.2,0.85));
#2278=CARTESIAN_POINT('Origin',(2.55,-2.2,0.85));
#2279=CARTESIAN_POINT('Origin',(2.7,-2.1,0.));
#2280=CARTESIAN_POINT('Origin',(-2.55,2.2,0.15));
#2281=CARTESIAN_POINT('',(-2.6,2.2,0.15));
#2282=CARTESIAN_POINT('Origin',(-2.55,-1.1,0.15));
#2283=CARTESIAN_POINT('',(-2.6,-1.1,0.15));
#2284=CARTESIAN_POINT('Origin',(-2.65,-1.2,0.95));
#2285=CARTESIAN_POINT('',(-2.7,-1.2,0.95));
#2286=CARTESIAN_POINT('Origin',(-2.65,-1.2,0.05));
#2287=CARTESIAN_POINT('',(-2.65,-1.2,-6.938893903907E-18));
#2288=CARTESIAN_POINT('',(-2.7,-1.2,0.05));
#2289=CARTESIAN_POINT('Origin',(-2.25,-1.65,0.));
#2290=CARTESIAN_POINT('Origin',(-2.6,-1.1,0.1));
#2291=CARTESIAN_POINT('',(-2.6,-1.1,0.85));
#2292=CARTESIAN_POINT('Origin',(-2.55,-1.1,0.85));
#2293=CARTESIAN_POINT('Origin',(-2.7,-1.2,0.));
#2294=CARTESIAN_POINT('Origin',(-2.65,2.1,0.95));
#2295=CARTESIAN_POINT('',(-2.7,2.1,0.95));
#2296=CARTESIAN_POINT('Origin',(-2.65,2.1,0.05));
#2297=CARTESIAN_POINT('',(-2.65,2.1,-6.938893903907E-18));
#2298=CARTESIAN_POINT('',(-2.7,2.1,0.05));
#2299=CARTESIAN_POINT('Origin',(-2.25,1.65,0.));
#2300=CARTESIAN_POINT('Origin',(-2.6,2.2,0.1));
#2301=CARTESIAN_POINT('',(-2.6,2.2,0.85));
#2302=CARTESIAN_POINT('Origin',(-2.55,2.2,0.85));
#2303=CARTESIAN_POINT('Origin',(-2.7,2.1,0.));
#2304=CARTESIAN_POINT('',(0.,0.,0.));
#2305=UNCERTAINTY_MEASURE_WITH_UNIT(LENGTH_MEASURE(0.01),#2311,
'DISTANCE_ACCURACY_VALUE',
'Maximum model space distance between geometric entities at asserted c
onnectivities');
#2306=UNCERTAINTY_MEASURE_WITH_UNIT(LENGTH_MEASURE(0.01),#2311,
'DISTANCE_ACCURACY_VALUE',
'Maximum model space distance between geometric entities at asserted c
onnectivities');
#2307=UNCERTAINTY_MEASURE_WITH_UNIT(LENGTH_MEASURE(0.01),#2311,
'DISTANCE_ACCURACY_VALUE',
'Maximum model space distance between geometric entities at asserted c
onnectivities');
#2308=(
GEOMETRIC_REPRESENTATION_CONTEXT(3)
GLOBAL_UNCERTAINTY_ASSIGNED_CONTEXT((#2305))
GLOBAL_UNIT_ASSIGNED_CONTEXT((#2311,#2313,#2314))
REPRESENTATION_CONTEXT('','3D')
);
#2309=(
GEOMETRIC_REPRESENTATION_CONTEXT(3)
GLOBAL_UNCERTAINTY_ASSIGNED_CONTEXT((#2306))
GLOBAL_UNIT_ASSIGNED_CONTEXT((#2311,#2313,#2314))
REPRESENTATION_CONTEXT('','3D')
);
#2310=(
GEOMETRIC_REPRESENTATION_CONTEXT(3)
GLOBAL_UNCERTAINTY_ASSIGNED_CONTEXT((#2307))
GLOBAL_UNIT_ASSIGNED_CONTEXT((#2311,#2313,#2314))
REPRESENTATION_CONTEXT('','3D')
);
#2311=(
LENGTH_UNIT()
NAMED_UNIT(*)
SI_UNIT(.MILLI.,.METRE.)
);
#2312=(
LENGTH_UNIT()
NAMED_UNIT(*)
SI_UNIT($,.METRE.)
);
#2313=(
NAMED_UNIT(*)
PLANE_ANGLE_UNIT()
SI_UNIT($,.RADIAN.)
);
#2314=(
NAMED_UNIT(*)
SI_UNIT($,.STERADIAN.)
SOLID_ANGLE_UNIT()
);
#2315=SHAPE_DEFINITION_REPRESENTATION(#2317,#2320);
#2316=SHAPE_DEFINITION_REPRESENTATION(#2318,#2321);
#2317=PRODUCT_DEFINITION_SHAPE('',$,#2323);
#2318=PRODUCT_DEFINITION_SHAPE('',$,#2324);
#2319=PRODUCT_DEFINITION_SHAPE($,$,#14);
#2320=SHAPE_REPRESENTATION('',(#1431,#1541),#2308);
#2321=SHAPE_REPRESENTATION('',(#1432),#2309);
#2322=PRODUCT_DEFINITION_CONTEXT('part definition',#2330,'design');
#2323=PRODUCT_DEFINITION('2026-09-16-09-40-14-898',
'LED_WS2812B_PLCC4_5.0x5.0mm_P3.2mm',#2325,#2322);
#2324=PRODUCT_DEFINITION('2026-09-16-09-40-14-898_1',
'LED_WS2812B_PLCC4_50x50mm_P32mm',#2326,#2322);
#2325=PRODUCT_DEFINITION_FORMATION('',$,#2332);
#2326=PRODUCT_DEFINITION_FORMATION('',$,#2333);
#2327=PRODUCT_RELATED_PRODUCT_CATEGORY(
'LED_WS2812B_PLCC4_5.0x5.0mm_P3.2mm',
'LED_WS2812B_PLCC4_5.0x5.0mm_P3.2mm',(#2332));
#2328=PRODUCT_RELATED_PRODUCT_CATEGORY(
'LED_WS2812B_PLCC4_50x50mm_P32mm','LED_WS2812B_PLCC4_50x50mm_P32mm',(#2333));
#2329=APPLICATION_PROTOCOL_DEFINITION('international standard',
'automotive_design',2009,#2330);
#2330=APPLICATION_CONTEXT(
'Core Data for Automotive Mechanical Design Process');
#2331=PRODUCT_CONTEXT('part definition',#2330,'mechanical');
#2332=PRODUCT('2026-09-16-09-40-14-898',
'LED_WS2812B_PLCC4_5.0x5.0mm_P3.2mm',$,(#2331));
#2333=PRODUCT('2026-09-16-09-40-14-898_1',
'LED_WS2812B_PLCC4_50x50mm_P32mm',$,(#2331));
#2334=PRESENTATION_STYLE_ASSIGNMENT((#2338));
#2335=PRESENTATION_STYLE_ASSIGNMENT((#2339));
#2336=PRESENTATION_STYLE_ASSIGNMENT((#2340));
#2337=PRESENTATION_STYLE_ASSIGNMENT((#2341));
#2338=SURFACE_STYLE_USAGE(.BOTH.,#2342);
#2339=SURFACE_STYLE_USAGE(.BOTH.,#2343);
#2340=SURFACE_STYLE_USAGE(.BOTH.,#2344);
#2341=SURFACE_STYLE_USAGE(.BOTH.,#2345);
#2342=SURFACE_SIDE_STYLE('',(#2346));
#2343=SURFACE_SIDE_STYLE('',(#2347));
#2344=SURFACE_SIDE_STYLE('',(#2348));
#2345=SURFACE_SIDE_STYLE('',(#2349));
#2346=SURFACE_STYLE_FILL_AREA(#2350);
#2347=SURFACE_STYLE_FILL_AREA(#2351);
#2348=SURFACE_STYLE_FILL_AREA(#2352);
#2349=SURFACE_STYLE_FILL_AREA(#2353);
#2350=FILL_AREA_STYLE('Steel - Satin',(#2354));
#2351=FILL_AREA_STYLE('Opaque(228,227,207)',(#2355));
#2352=FILL_AREA_STYLE('Opaque(35,103,185)',(#2356));
#2353=FILL_AREA_STYLE('Opaque(210,209,199)',(#2357));
#2354=FILL_AREA_STYLE_COLOUR('Steel - Satin',#2358);
#2355=FILL_AREA_STYLE_COLOUR('Opaque(228,227,207)',#2359);
#2356=FILL_AREA_STYLE_COLOUR('Opaque(35,103,185)',#2360);
#2357=FILL_AREA_STYLE_COLOUR('Opaque(210,209,199)',#2361);
#2358=COLOUR_RGB('Steel - Satin',0.627450980392157,0.627450980392157,0.627450980392157);
#2359=COLOUR_RGB('Opaque(228,227,207)',0.894117647058824,0.890196078431372,
0.811764705882353);
#2360=COLOUR_RGB('Opaque(35,103,185)',0.137254901960784,0.403921568627451,
0.725490196078431);
#2361=COLOUR_RGB('Opaque(210,209,199)',0.823529411764706,0.819607843137255,
0.780392156862745);
ENDSEC;
END-ISO-10303-21;
