ISO-10303-21;
HEADER;
/* Generated by software containing ST-Developer
 * from STEP Tools, Inc. (www.steptools.com) 
 */

FILE_DESCRIPTION(
/* description */ (''),
/* implementation_level */ '2;1');

FILE_NAME(
/* name */ 'R_0805_2012Metric.step',
/* time_stamp */ '2026-09-16T09:35:35+05:45',
/* author */ (''),
/* organization */ (''),
/* preprocessor_version */ 'ST-DEVELOPER v20.2',
/* originating_system */ 'Autodesk Translation Framework v15.15.0.0',
/* authorisation */ '');

FILE_SCHEMA (('AUTOMOTIVE_DESIGN { 1 0 10303 214 3 1 1 }'));
ENDSEC;

DATA;
#10=MECHANICAL_DESIGN_GEOMETRIC_PRESENTATION_REPRESENTATION('',(#464,#465,
#466,#467,#468,#469,#470,#471,#472,#473,#474,#475,#476,#477,#478,#479,#480,
#481,#482,#483,#484,#485,#486,#487,#488,#489,#490),#863);
#11=ITEM_DEFINED_TRANSFORMATION($,$,#531,#574);
#12=(
REPRESENTATION_RELATIONSHIP($,$,#874,#873)
REPRESENTATION_RELATIONSHIP_WITH_TRANSFORMATION(#11)
SHAPE_REPRESENTATION_RELATIONSHIP()
);
#13=CONTEXT_DEPENDENT_SHAPE_REPRESENTATION(#12,#872);
#14=NEXT_ASSEMBLY_USAGE_OCCURRENCE('R_0805_2012Metric:1',
'R_0805_2012Metric:1','R_0805_2012Metric:1',#876,#877,
'R_0805_2012Metric:1');
#15=SHAPE_REPRESENTATION_RELATIONSHIP('SRR','None',#874,#16);
#16=ADVANCED_BREP_SHAPE_REPRESENTATION('',(#17),#862);
#17=MANIFOLD_SOLID_BREP('Body1',#517);
#18=CYLINDRICAL_SURFACE('',#538,0.045);
#19=CYLINDRICAL_SURFACE('',#540,0.045);
#20=CYLINDRICAL_SURFACE('',#546,0.045);
#21=CYLINDRICAL_SURFACE('',#549,0.045);
#22=CYLINDRICAL_SURFACE('',#565,0.045);
#23=CYLINDRICAL_SURFACE('',#567,0.045);
#24=CYLINDRICAL_SURFACE('',#569,0.045);
#25=CYLINDRICAL_SURFACE('',#571,0.045);
#26=CIRCLE('',#534,0.045);
#27=CIRCLE('',#535,0.045);
#28=CIRCLE('',#536,0.045);
#29=CIRCLE('',#537,0.045);
#30=CIRCLE('',#539,0.045);
#31=CIRCLE('',#541,0.045);
#32=CIRCLE('',#543,0.045);
#33=CIRCLE('',#544,0.045);
#34=CIRCLE('',#553,0.045);
#35=CIRCLE('',#554,0.045);
#36=CIRCLE('',#555,0.045);
#37=CIRCLE('',#556,0.045);
#38=CIRCLE('',#560,0.045);
#39=CIRCLE('',#561,0.045);
#40=CIRCLE('',#562,0.045);
#41=CIRCLE('',#563,0.045);
#42=FACE_OUTER_BOUND('',#68,.T.);
#43=FACE_OUTER_BOUND('',#69,.T.);
#44=FACE_OUTER_BOUND('',#70,.T.);
#45=FACE_OUTER_BOUND('',#71,.T.);
#46=FACE_OUTER_BOUND('',#72,.T.);
#47=FACE_OUTER_BOUND('',#73,.T.);
#48=FACE_OUTER_BOUND('',#74,.T.);
#49=FACE_OUTER_BOUND('',#75,.T.);
#50=FACE_OUTER_BOUND('',#76,.T.);
#51=FACE_OUTER_BOUND('',#77,.T.);
#52=FACE_OUTER_BOUND('',#78,.T.);
#53=FACE_OUTER_BOUND('',#79,.T.);
#54=FACE_OUTER_BOUND('',#80,.T.);
#55=FACE_OUTER_BOUND('',#81,.T.);
#56=FACE_OUTER_BOUND('',#82,.T.);
#57=FACE_OUTER_BOUND('',#83,.T.);
#58=FACE_OUTER_BOUND('',#84,.T.);
#59=FACE_OUTER_BOUND('',#85,.T.);
#60=FACE_OUTER_BOUND('',#86,.T.);
#61=FACE_OUTER_BOUND('',#87,.T.);
#62=FACE_OUTER_BOUND('',#88,.T.);
#63=FACE_OUTER_BOUND('',#89,.T.);
#64=FACE_OUTER_BOUND('',#90,.T.);
#65=FACE_OUTER_BOUND('',#91,.T.);
#66=FACE_OUTER_BOUND('',#92,.T.);
#67=FACE_OUTER_BOUND('',#93,.T.);
#68=EDGE_LOOP('',(#310,#311,#312,#313));
#69=EDGE_LOOP('',(#314,#315,#316,#317,#318,#319,#320,#321,#322,#323));
#70=EDGE_LOOP('',(#324,#325,#326,#327));
#71=EDGE_LOOP('',(#328,#329,#330,#331));
#72=EDGE_LOOP('',(#332,#333,#334,#335,#336,#337,#338,#339,#340,#341));
#73=EDGE_LOOP('',(#342,#343,#344,#345));
#74=EDGE_LOOP('',(#346,#347,#348,#349));
#75=EDGE_LOOP('',(#350,#351,#352,#353,#354,#355,#356,#357));
#76=EDGE_LOOP('',(#358,#359,#360,#361));
#77=EDGE_LOOP('',(#362,#363,#364,#365));
#78=EDGE_LOOP('',(#366,#367,#368,#369,#370,#371,#372,#373));
#79=EDGE_LOOP('',(#374,#375,#376,#377));
#80=EDGE_LOOP('',(#378,#379,#380,#381,#382,#383,#384,#385,#386,#387));
#81=EDGE_LOOP('',(#388,#389,#390,#391));
#82=EDGE_LOOP('',(#392,#393,#394,#395));
#83=EDGE_LOOP('',(#396,#397,#398,#399,#400,#401,#402,#403,#404,#405));
#84=EDGE_LOOP('',(#406,#407,#408,#409));
#85=EDGE_LOOP('',(#410,#411,#412,#413));
#86=EDGE_LOOP('',(#414,#415,#416,#417));
#87=EDGE_LOOP('',(#418,#419,#420,#421));
#88=EDGE_LOOP('',(#422,#423,#424,#425));
#89=EDGE_LOOP('',(#426,#427,#428,#429));
#90=EDGE_LOOP('',(#430,#431,#432,#433));
#91=EDGE_LOOP('',(#434,#435,#436,#437));
#92=EDGE_LOOP('',(#438,#439,#440,#441));
#93=EDGE_LOOP('',(#442,#443,#444,#445));
#94=LINE('',#722,#146);
#95=LINE('',#724,#147);
#96=LINE('',#726,#148);
#97=LINE('',#727,#149);
#98=LINE('',#731,#150);
#99=LINE('',#735,#151);
#100=LINE('',#737,#152);
#101=LINE('',#739,#153);
#102=LINE('',#743,#154);
#103=LINE('',#749,#155);
#104=LINE('',#752,#156);
#105=LINE('',#756,#157);
#106=LINE('',#758,#158);
#107=LINE('',#762,#159);
#108=LINE('',#764,#160);
#109=LINE('',#766,#161);
#110=LINE('',#769,#162);
#111=LINE('',#771,#163);
#112=LINE('',#774,#164);
#113=LINE('',#776,#165);
#114=LINE('',#778,#166);
#115=LINE('',#780,#167);
#116=LINE('',#781,#168);
#117=LINE('',#783,#169);
#118=LINE('',#785,#170);
#119=LINE('',#788,#171);
#120=LINE('',#790,#172);
#121=LINE('',#792,#173);
#122=LINE('',#794,#174);
#123=LINE('',#795,#175);
#124=LINE('',#797,#176);
#125=LINE('',#801,#177);
#126=LINE('',#805,#178);
#127=LINE('',#809,#179);
#128=LINE('',#814,#180);
#129=LINE('',#816,#181);
#130=LINE('',#817,#182);
#131=LINE('',#820,#183);
#132=LINE('',#821,#184);
#133=LINE('',#825,#185);
#134=LINE('',#830,#186);
#135=LINE('',#834,#187);
#136=LINE('',#838,#188);
#137=LINE('',#839,#189);
#138=LINE('',#841,#190);
#139=LINE('',#843,#191);
#140=LINE('',#845,#192);
#141=LINE('',#847,#193);
#142=LINE('',#849,#194);
#143=LINE('',#851,#195);
#144=LINE('',#853,#196);
#145=LINE('',#855,#197);
#146=VECTOR('',#581,1.);
#147=VECTOR('',#582,1.);
#148=VECTOR('',#583,1.);
#149=VECTOR('',#584,1.);
#150=VECTOR('',#587,1.);
#151=VECTOR('',#590,1.);
#152=VECTOR('',#591,1.);
#153=VECTOR('',#592,1.);
#154=VECTOR('',#595,1.);
#155=VECTOR('',#604,1.);
#156=VECTOR('',#607,1.);
#157=VECTOR('',#612,1.);
#158=VECTOR('',#613,1.);
#159=VECTOR('',#616,1.);
#160=VECTOR('',#617,1.);
#161=VECTOR('',#618,1.);
#162=VECTOR('',#623,1.);
#163=VECTOR('',#626,1.);
#164=VECTOR('',#629,1.);
#165=VECTOR('',#630,1.);
#166=VECTOR('',#631,1.);
#167=VECTOR('',#632,1.);
#168=VECTOR('',#633,1.);
#169=VECTOR('',#636,1.);
#170=VECTOR('',#639,1.);
#171=VECTOR('',#642,1.);
#172=VECTOR('',#643,1.);
#173=VECTOR('',#644,1.);
#174=VECTOR('',#645,1.);
#175=VECTOR('',#646,1.);
#176=VECTOR('',#649,1.);
#177=VECTOR('',#652,1.);
#178=VECTOR('',#655,1.);
#179=VECTOR('',#658,1.);
#180=VECTOR('',#665,1.);
#181=VECTOR('',#666,1.);
#182=VECTOR('',#667,1.);
#183=VECTOR('',#670,1.);
#184=VECTOR('',#671,1.);
#185=VECTOR('',#674,1.);
#186=VECTOR('',#679,1.);
#187=VECTOR('',#682,1.);
#188=VECTOR('',#687,1.);
#189=VECTOR('',#688,1.);
#190=VECTOR('',#691,1.);
#191=VECTOR('',#694,1.);
#192=VECTOR('',#697,1.);
#193=VECTOR('',#700,1.);
#194=VECTOR('',#703,1.);
#195=VECTOR('',#706,1.);
#196=VECTOR('',#709,1.);
#197=VECTOR('',#712,1.);
#198=VERTEX_POINT('',#720);
#199=VERTEX_POINT('',#721);
#200=VERTEX_POINT('',#723);
#201=VERTEX_POINT('',#725);
#202=VERTEX_POINT('',#729);
#203=VERTEX_POINT('',#730);
#204=VERTEX_POINT('',#732);
#205=VERTEX_POINT('',#734);
#206=VERTEX_POINT('',#736);
#207=VERTEX_POINT('',#738);
#208=VERTEX_POINT('',#740);
#209=VERTEX_POINT('',#742);
#210=VERTEX_POINT('',#747);
#211=VERTEX_POINT('',#751);
#212=VERTEX_POINT('',#755);
#213=VERTEX_POINT('',#757);
#214=VERTEX_POINT('',#759);
#215=VERTEX_POINT('',#761);
#216=VERTEX_POINT('',#763);
#217=VERTEX_POINT('',#765);
#218=VERTEX_POINT('',#773);
#219=VERTEX_POINT('',#775);
#220=VERTEX_POINT('',#777);
#221=VERTEX_POINT('',#779);
#222=VERTEX_POINT('',#787);
#223=VERTEX_POINT('',#789);
#224=VERTEX_POINT('',#791);
#225=VERTEX_POINT('',#793);
#226=VERTEX_POINT('',#799);
#227=VERTEX_POINT('',#800);
#228=VERTEX_POINT('',#802);
#229=VERTEX_POINT('',#804);
#230=VERTEX_POINT('',#806);
#231=VERTEX_POINT('',#808);
#232=VERTEX_POINT('',#813);
#233=VERTEX_POINT('',#815);
#234=VERTEX_POINT('',#819);
#235=VERTEX_POINT('',#823);
#236=VERTEX_POINT('',#824);
#237=VERTEX_POINT('',#827);
#238=VERTEX_POINT('',#829);
#239=VERTEX_POINT('',#831);
#240=VERTEX_POINT('',#833);
#241=VERTEX_POINT('',#837);
#242=EDGE_CURVE('',#198,#199,#94,.T.);
#243=EDGE_CURVE('',#199,#200,#95,.T.);
#244=EDGE_CURVE('',#201,#200,#96,.T.);
#245=EDGE_CURVE('',#198,#201,#97,.T.);
#246=EDGE_CURVE('',#202,#203,#98,.T.);
#247=EDGE_CURVE('',#204,#203,#26,.T.);
#248=EDGE_CURVE('',#205,#204,#99,.T.);
#249=EDGE_CURVE('',#205,#206,#100,.T.);
#250=EDGE_CURVE('',#206,#207,#101,.T.);
#251=EDGE_CURVE('',#207,#208,#27,.T.);
#252=EDGE_CURVE('',#209,#208,#102,.T.);
#253=EDGE_CURVE('',#199,#209,#28,.T.);
#254=EDGE_CURVE('',#198,#202,#29,.T.);
#255=EDGE_CURVE('',#201,#210,#30,.T.);
#256=EDGE_CURVE('',#202,#210,#103,.T.);
#257=EDGE_CURVE('',#209,#211,#104,.T.);
#258=EDGE_CURVE('',#200,#211,#31,.T.);
#259=EDGE_CURVE('',#210,#212,#105,.T.);
#260=EDGE_CURVE('',#211,#213,#106,.T.);
#261=EDGE_CURVE('',#214,#213,#32,.T.);
#262=EDGE_CURVE('',#215,#214,#107,.T.);
#263=EDGE_CURVE('',#216,#215,#108,.T.);
#264=EDGE_CURVE('',#216,#217,#109,.T.);
#265=EDGE_CURVE('',#217,#212,#33,.T.);
#266=EDGE_CURVE('',#203,#212,#110,.T.);
#267=EDGE_CURVE('',#204,#217,#111,.T.);
#268=EDGE_CURVE('',#204,#218,#112,.T.);
#269=EDGE_CURVE('',#218,#219,#113,.T.);
#270=EDGE_CURVE('',#219,#220,#114,.T.);
#271=EDGE_CURVE('',#221,#220,#115,.T.);
#272=EDGE_CURVE('',#207,#221,#116,.T.);
#273=EDGE_CURVE('',#208,#213,#117,.T.);
#274=EDGE_CURVE('',#207,#214,#118,.T.);
#275=EDGE_CURVE('',#214,#222,#119,.T.);
#276=EDGE_CURVE('',#222,#223,#120,.T.);
#277=EDGE_CURVE('',#224,#223,#121,.T.);
#278=EDGE_CURVE('',#225,#224,#122,.T.);
#279=EDGE_CURVE('',#217,#225,#123,.T.);
#280=EDGE_CURVE('',#218,#225,#124,.T.);
#281=EDGE_CURVE('',#226,#227,#125,.T.);
#282=EDGE_CURVE('',#228,#227,#34,.T.);
#283=EDGE_CURVE('',#228,#229,#126,.T.);
#284=EDGE_CURVE('',#229,#230,#35,.T.);
#285=EDGE_CURVE('',#231,#230,#127,.T.);
#286=EDGE_CURVE('',#221,#231,#36,.T.);
#287=EDGE_CURVE('',#218,#226,#37,.T.);
#288=EDGE_CURVE('',#221,#232,#128,.T.);
#289=EDGE_CURVE('',#233,#232,#129,.T.);
#290=EDGE_CURVE('',#207,#233,#130,.T.);
#291=EDGE_CURVE('',#233,#234,#131,.T.);
#292=EDGE_CURVE('',#214,#234,#132,.T.);
#293=EDGE_CURVE('',#235,#236,#133,.T.);
#294=EDGE_CURVE('',#225,#235,#38,.T.);
#295=EDGE_CURVE('',#222,#237,#39,.T.);
#296=EDGE_CURVE('',#237,#238,#134,.T.);
#297=EDGE_CURVE('',#239,#238,#40,.T.);
#298=EDGE_CURVE('',#240,#239,#135,.T.);
#299=EDGE_CURVE('',#240,#236,#41,.T.);
#300=EDGE_CURVE('',#234,#241,#136,.T.);
#301=EDGE_CURVE('',#222,#241,#137,.T.);
#302=EDGE_CURVE('',#226,#235,#138,.T.);
#303=EDGE_CURVE('',#227,#236,#139,.T.);
#304=EDGE_CURVE('',#228,#240,#140,.T.);
#305=EDGE_CURVE('',#229,#239,#141,.T.);
#306=EDGE_CURVE('',#230,#238,#142,.T.);
#307=EDGE_CURVE('',#231,#237,#143,.T.);
#308=EDGE_CURVE('',#221,#222,#144,.T.);
#309=EDGE_CURVE('',#232,#241,#145,.T.);
#310=ORIENTED_EDGE('',*,*,#242,.T.);
#311=ORIENTED_EDGE('',*,*,#243,.T.);
#312=ORIENTED_EDGE('',*,*,#244,.F.);
#313=ORIENTED_EDGE('',*,*,#245,.F.);
#314=ORIENTED_EDGE('',*,*,#246,.T.);
#315=ORIENTED_EDGE('',*,*,#247,.F.);
#316=ORIENTED_EDGE('',*,*,#248,.F.);
#317=ORIENTED_EDGE('',*,*,#249,.T.);
#318=ORIENTED_EDGE('',*,*,#250,.T.);
#319=ORIENTED_EDGE('',*,*,#251,.T.);
#320=ORIENTED_EDGE('',*,*,#252,.F.);
#321=ORIENTED_EDGE('',*,*,#253,.F.);
#322=ORIENTED_EDGE('',*,*,#242,.F.);
#323=ORIENTED_EDGE('',*,*,#254,.T.);
#324=ORIENTED_EDGE('',*,*,#245,.T.);
#325=ORIENTED_EDGE('',*,*,#255,.T.);
#326=ORIENTED_EDGE('',*,*,#256,.F.);
#327=ORIENTED_EDGE('',*,*,#254,.F.);
#328=ORIENTED_EDGE('',*,*,#253,.T.);
#329=ORIENTED_EDGE('',*,*,#257,.T.);
#330=ORIENTED_EDGE('',*,*,#258,.F.);
#331=ORIENTED_EDGE('',*,*,#243,.F.);
#332=ORIENTED_EDGE('',*,*,#259,.F.);
#333=ORIENTED_EDGE('',*,*,#255,.F.);
#334=ORIENTED_EDGE('',*,*,#244,.T.);
#335=ORIENTED_EDGE('',*,*,#258,.T.);
#336=ORIENTED_EDGE('',*,*,#260,.T.);
#337=ORIENTED_EDGE('',*,*,#261,.F.);
#338=ORIENTED_EDGE('',*,*,#262,.F.);
#339=ORIENTED_EDGE('',*,*,#263,.F.);
#340=ORIENTED_EDGE('',*,*,#264,.T.);
#341=ORIENTED_EDGE('',*,*,#265,.T.);
#342=ORIENTED_EDGE('',*,*,#259,.T.);
#343=ORIENTED_EDGE('',*,*,#266,.F.);
#344=ORIENTED_EDGE('',*,*,#246,.F.);
#345=ORIENTED_EDGE('',*,*,#256,.T.);
#346=ORIENTED_EDGE('',*,*,#247,.T.);
#347=ORIENTED_EDGE('',*,*,#266,.T.);
#348=ORIENTED_EDGE('',*,*,#265,.F.);
#349=ORIENTED_EDGE('',*,*,#267,.F.);
#350=ORIENTED_EDGE('',*,*,#248,.T.);
#351=ORIENTED_EDGE('',*,*,#268,.T.);
#352=ORIENTED_EDGE('',*,*,#269,.T.);
#353=ORIENTED_EDGE('',*,*,#270,.T.);
#354=ORIENTED_EDGE('',*,*,#271,.F.);
#355=ORIENTED_EDGE('',*,*,#272,.F.);
#356=ORIENTED_EDGE('',*,*,#250,.F.);
#357=ORIENTED_EDGE('',*,*,#249,.F.);
#358=ORIENTED_EDGE('',*,*,#260,.F.);
#359=ORIENTED_EDGE('',*,*,#257,.F.);
#360=ORIENTED_EDGE('',*,*,#252,.T.);
#361=ORIENTED_EDGE('',*,*,#273,.T.);
#362=ORIENTED_EDGE('',*,*,#274,.T.);
#363=ORIENTED_EDGE('',*,*,#261,.T.);
#364=ORIENTED_EDGE('',*,*,#273,.F.);
#365=ORIENTED_EDGE('',*,*,#251,.F.);
#366=ORIENTED_EDGE('',*,*,#264,.F.);
#367=ORIENTED_EDGE('',*,*,#263,.T.);
#368=ORIENTED_EDGE('',*,*,#262,.T.);
#369=ORIENTED_EDGE('',*,*,#275,.T.);
#370=ORIENTED_EDGE('',*,*,#276,.T.);
#371=ORIENTED_EDGE('',*,*,#277,.F.);
#372=ORIENTED_EDGE('',*,*,#278,.F.);
#373=ORIENTED_EDGE('',*,*,#279,.F.);
#374=ORIENTED_EDGE('',*,*,#267,.T.);
#375=ORIENTED_EDGE('',*,*,#279,.T.);
#376=ORIENTED_EDGE('',*,*,#280,.F.);
#377=ORIENTED_EDGE('',*,*,#268,.F.);
#378=ORIENTED_EDGE('',*,*,#281,.T.);
#379=ORIENTED_EDGE('',*,*,#282,.F.);
#380=ORIENTED_EDGE('',*,*,#283,.T.);
#381=ORIENTED_EDGE('',*,*,#284,.T.);
#382=ORIENTED_EDGE('',*,*,#285,.F.);
#383=ORIENTED_EDGE('',*,*,#286,.F.);
#384=ORIENTED_EDGE('',*,*,#271,.T.);
#385=ORIENTED_EDGE('',*,*,#270,.F.);
#386=ORIENTED_EDGE('',*,*,#269,.F.);
#387=ORIENTED_EDGE('',*,*,#287,.T.);
#388=ORIENTED_EDGE('',*,*,#272,.T.);
#389=ORIENTED_EDGE('',*,*,#288,.T.);
#390=ORIENTED_EDGE('',*,*,#289,.F.);
#391=ORIENTED_EDGE('',*,*,#290,.F.);
#392=ORIENTED_EDGE('',*,*,#290,.T.);
#393=ORIENTED_EDGE('',*,*,#291,.T.);
#394=ORIENTED_EDGE('',*,*,#292,.F.);
#395=ORIENTED_EDGE('',*,*,#274,.F.);
#396=ORIENTED_EDGE('',*,*,#293,.F.);
#397=ORIENTED_EDGE('',*,*,#294,.F.);
#398=ORIENTED_EDGE('',*,*,#278,.T.);
#399=ORIENTED_EDGE('',*,*,#277,.T.);
#400=ORIENTED_EDGE('',*,*,#276,.F.);
#401=ORIENTED_EDGE('',*,*,#295,.T.);
#402=ORIENTED_EDGE('',*,*,#296,.T.);
#403=ORIENTED_EDGE('',*,*,#297,.F.);
#404=ORIENTED_EDGE('',*,*,#298,.F.);
#405=ORIENTED_EDGE('',*,*,#299,.T.);
#406=ORIENTED_EDGE('',*,*,#275,.F.);
#407=ORIENTED_EDGE('',*,*,#292,.T.);
#408=ORIENTED_EDGE('',*,*,#300,.T.);
#409=ORIENTED_EDGE('',*,*,#301,.F.);
#410=ORIENTED_EDGE('',*,*,#280,.T.);
#411=ORIENTED_EDGE('',*,*,#294,.T.);
#412=ORIENTED_EDGE('',*,*,#302,.F.);
#413=ORIENTED_EDGE('',*,*,#287,.F.);
#414=ORIENTED_EDGE('',*,*,#293,.T.);
#415=ORIENTED_EDGE('',*,*,#303,.F.);
#416=ORIENTED_EDGE('',*,*,#281,.F.);
#417=ORIENTED_EDGE('',*,*,#302,.T.);
#418=ORIENTED_EDGE('',*,*,#282,.T.);
#419=ORIENTED_EDGE('',*,*,#303,.T.);
#420=ORIENTED_EDGE('',*,*,#299,.F.);
#421=ORIENTED_EDGE('',*,*,#304,.F.);
#422=ORIENTED_EDGE('',*,*,#283,.F.);
#423=ORIENTED_EDGE('',*,*,#304,.T.);
#424=ORIENTED_EDGE('',*,*,#298,.T.);
#425=ORIENTED_EDGE('',*,*,#305,.F.);
#426=ORIENTED_EDGE('',*,*,#305,.T.);
#427=ORIENTED_EDGE('',*,*,#297,.T.);
#428=ORIENTED_EDGE('',*,*,#306,.F.);
#429=ORIENTED_EDGE('',*,*,#284,.F.);
#430=ORIENTED_EDGE('',*,*,#296,.F.);
#431=ORIENTED_EDGE('',*,*,#307,.F.);
#432=ORIENTED_EDGE('',*,*,#285,.T.);
#433=ORIENTED_EDGE('',*,*,#306,.T.);
#434=ORIENTED_EDGE('',*,*,#286,.T.);
#435=ORIENTED_EDGE('',*,*,#307,.T.);
#436=ORIENTED_EDGE('',*,*,#295,.F.);
#437=ORIENTED_EDGE('',*,*,#308,.F.);
#438=ORIENTED_EDGE('',*,*,#288,.F.);
#439=ORIENTED_EDGE('',*,*,#308,.T.);
#440=ORIENTED_EDGE('',*,*,#301,.T.);
#441=ORIENTED_EDGE('',*,*,#309,.F.);
#442=ORIENTED_EDGE('',*,*,#291,.F.);
#443=ORIENTED_EDGE('',*,*,#289,.T.);
#444=ORIENTED_EDGE('',*,*,#309,.T.);
#445=ORIENTED_EDGE('',*,*,#300,.F.);
#446=PLANE('',#532);
#447=PLANE('',#533);
#448=PLANE('',#542);
#449=PLANE('',#545);
#450=PLANE('',#547);
#451=PLANE('',#548);
#452=PLANE('',#550);
#453=PLANE('',#551);
#454=PLANE('',#552);
#455=PLANE('',#557);
#456=PLANE('',#558);
#457=PLANE('',#559);
#458=PLANE('',#564);
#459=PLANE('',#566);
#460=PLANE('',#568);
#461=PLANE('',#570);
#462=PLANE('',#572);
#463=PLANE('',#573);
#464=STYLED_ITEM('',(#888),#491);
#465=STYLED_ITEM('',(#888),#492);
#466=STYLED_ITEM('',(#888),#493);
#467=STYLED_ITEM('',(#888),#494);
#468=STYLED_ITEM('',(#888),#495);
#469=STYLED_ITEM('',(#888),#496);
#470=STYLED_ITEM('',(#888),#497);
#471=STYLED_ITEM('',(#889),#498);
#472=STYLED_ITEM('',(#888),#499);
#473=STYLED_ITEM('',(#888),#500);
#474=STYLED_ITEM('',(#889),#501);
#475=STYLED_ITEM('',(#889),#502);
#476=STYLED_ITEM('',(#888),#503);
#477=STYLED_ITEM('',(#890),#504);
#478=STYLED_ITEM('',(#890),#505);
#479=STYLED_ITEM('',(#888),#506);
#480=STYLED_ITEM('',(#890),#507);
#481=STYLED_ITEM('',(#888),#508);
#482=STYLED_ITEM('',(#888),#509);
#483=STYLED_ITEM('',(#888),#510);
#484=STYLED_ITEM('',(#888),#511);
#485=STYLED_ITEM('',(#888),#512);
#486=STYLED_ITEM('',(#888),#513);
#487=STYLED_ITEM('',(#888),#514);
#488=STYLED_ITEM('',(#890),#515);
#489=STYLED_ITEM('',(#890),#516);
#490=STYLED_ITEM('',(#887),#17);
#491=ADVANCED_FACE('',(#42),#446,.F.);
#492=ADVANCED_FACE('',(#43),#447,.F.);
#493=ADVANCED_FACE('',(#44),#18,.T.);
#494=ADVANCED_FACE('',(#45),#19,.T.);
#495=ADVANCED_FACE('',(#46),#448,.T.);
#496=ADVANCED_FACE('',(#47),#449,.F.);
#497=ADVANCED_FACE('',(#48),#20,.T.);
#498=ADVANCED_FACE('',(#49),#450,.F.);
#499=ADVANCED_FACE('',(#50),#451,.T.);
#500=ADVANCED_FACE('',(#51),#21,.T.);
#501=ADVANCED_FACE('',(#52),#452,.T.);
#502=ADVANCED_FACE('',(#53),#453,.F.);
#503=ADVANCED_FACE('',(#54),#454,.F.);
#504=ADVANCED_FACE('',(#55),#455,.F.);
#505=ADVANCED_FACE('',(#56),#456,.F.);
#506=ADVANCED_FACE('',(#57),#457,.T.);
#507=ADVANCED_FACE('',(#58),#458,.T.);
#508=ADVANCED_FACE('',(#59),#22,.T.);
#509=ADVANCED_FACE('',(#60),#459,.F.);
#510=ADVANCED_FACE('',(#61),#23,.T.);
#511=ADVANCED_FACE('',(#62),#460,.T.);
#512=ADVANCED_FACE('',(#63),#24,.T.);
#513=ADVANCED_FACE('',(#64),#461,.T.);
#514=ADVANCED_FACE('',(#65),#25,.T.);
#515=ADVANCED_FACE('',(#66),#462,.T.);
#516=ADVANCED_FACE('',(#67),#463,.T.);
#517=CLOSED_SHELL('',(#491,#492,#493,#494,#495,#496,#497,#498,#499,#500,
#501,#502,#503,#504,#505,#506,#507,#508,#509,#510,#511,#512,#513,#514,#515,
#516));
#518=DERIVED_UNIT_ELEMENT(#520,1.);
#519=DERIVED_UNIT_ELEMENT(#865,-3.);
#520=(
MASS_UNIT()
NAMED_UNIT(*)
SI_UNIT(.KILO.,.GRAM.)
);
#521=DERIVED_UNIT((#518,#519));
#522=MEASURE_REPRESENTATION_ITEM('density measure',
POSITIVE_RATIO_MEASURE(7850.),#521);
#523=PROPERTY_DEFINITION_REPRESENTATION(#528,#525);
#524=PROPERTY_DEFINITION_REPRESENTATION(#529,#526);
#525=REPRESENTATION('material name',(#527),#862);
#526=REPRESENTATION('density',(#522),#862);
#527=DESCRIPTIVE_REPRESENTATION_ITEM('Steel','Steel');
#528=PROPERTY_DEFINITION('material property','material name',#877);
#529=PROPERTY_DEFINITION('material property','density of part',#877);
#530=AXIS2_PLACEMENT_3D('',#717,#575,#576);
#531=AXIS2_PLACEMENT_3D('',#718,#577,#578);
#532=AXIS2_PLACEMENT_3D('',#719,#579,#580);
#533=AXIS2_PLACEMENT_3D('',#728,#585,#586);
#534=AXIS2_PLACEMENT_3D('',#733,#588,#589);
#535=AXIS2_PLACEMENT_3D('',#741,#593,#594);
#536=AXIS2_PLACEMENT_3D('',#744,#596,#597);
#537=AXIS2_PLACEMENT_3D('',#745,#598,#599);
#538=AXIS2_PLACEMENT_3D('',#746,#600,#601);
#539=AXIS2_PLACEMENT_3D('',#748,#602,#603);
#540=AXIS2_PLACEMENT_3D('',#750,#605,#606);
#541=AXIS2_PLACEMENT_3D('',#753,#608,#609);
#542=AXIS2_PLACEMENT_3D('',#754,#610,#611);
#543=AXIS2_PLACEMENT_3D('',#760,#614,#615);
#544=AXIS2_PLACEMENT_3D('',#767,#619,#620);
#545=AXIS2_PLACEMENT_3D('',#768,#621,#622);
#546=AXIS2_PLACEMENT_3D('',#770,#624,#625);
#547=AXIS2_PLACEMENT_3D('',#772,#627,#628);
#548=AXIS2_PLACEMENT_3D('',#782,#634,#635);
#549=AXIS2_PLACEMENT_3D('',#784,#637,#638);
#550=AXIS2_PLACEMENT_3D('',#786,#640,#641);
#551=AXIS2_PLACEMENT_3D('',#796,#647,#648);
#552=AXIS2_PLACEMENT_3D('',#798,#650,#651);
#553=AXIS2_PLACEMENT_3D('',#803,#653,#654);
#554=AXIS2_PLACEMENT_3D('',#807,#656,#657);
#555=AXIS2_PLACEMENT_3D('',#810,#659,#660);
#556=AXIS2_PLACEMENT_3D('',#811,#661,#662);
#557=AXIS2_PLACEMENT_3D('',#812,#663,#664);
#558=AXIS2_PLACEMENT_3D('',#818,#668,#669);
#559=AXIS2_PLACEMENT_3D('',#822,#672,#673);
#560=AXIS2_PLACEMENT_3D('',#826,#675,#676);
#561=AXIS2_PLACEMENT_3D('',#828,#677,#678);
#562=AXIS2_PLACEMENT_3D('',#832,#680,#681);
#563=AXIS2_PLACEMENT_3D('',#835,#683,#684);
#564=AXIS2_PLACEMENT_3D('',#836,#685,#686);
#565=AXIS2_PLACEMENT_3D('',#840,#689,#690);
#566=AXIS2_PLACEMENT_3D('',#842,#692,#693);
#567=AXIS2_PLACEMENT_3D('',#844,#695,#696);
#568=AXIS2_PLACEMENT_3D('',#846,#698,#699);
#569=AXIS2_PLACEMENT_3D('',#848,#701,#702);
#570=AXIS2_PLACEMENT_3D('',#850,#704,#705);
#571=AXIS2_PLACEMENT_3D('',#852,#707,#708);
#572=AXIS2_PLACEMENT_3D('',#854,#710,#711);
#573=AXIS2_PLACEMENT_3D('',#856,#713,#714);
#574=AXIS2_PLACEMENT_3D('',#857,#715,#716);
#575=DIRECTION('axis',(0.,0.,1.));
#576=DIRECTION('refdir',(1.,0.,0.));
#577=DIRECTION('axis',(0.,0.,1.));
#578=DIRECTION('refdir',(1.,0.,0.));
#579=DIRECTION('center_axis',(1.,0.,0.));
#580=DIRECTION('ref_axis',(0.,0.,1.));
#581=DIRECTION('',(0.,0.,1.));
#582=DIRECTION('',(0.,1.,0.));
#583=DIRECTION('',(0.,0.,1.));
#584=DIRECTION('',(0.,1.,0.));
#585=DIRECTION('center_axis',(0.,1.,0.));
#586=DIRECTION('ref_axis',(0.,0.,1.));
#587=DIRECTION('',(1.,0.,0.));
#588=DIRECTION('center_axis',(0.,1.,0.));
#589=DIRECTION('ref_axis',(0.,0.,1.));
#590=DIRECTION('',(1.,0.,0.));
#591=DIRECTION('',(0.,0.,1.));
#592=DIRECTION('',(1.,0.,0.));
#593=DIRECTION('center_axis',(0.,-1.,0.));
#594=DIRECTION('ref_axis',(0.,0.,1.));
#595=DIRECTION('',(1.,0.,0.));
#596=DIRECTION('center_axis',(0.,1.,0.));
#597=DIRECTION('ref_axis',(0.,0.,1.));
#598=DIRECTION('center_axis',(0.,-1.,0.));
#599=DIRECTION('ref_axis',(0.,0.,1.));
#600=DIRECTION('center_axis',(0.,1.,0.));
#601=DIRECTION('ref_axis',(-1.,0.,0.));
#602=DIRECTION('center_axis',(0.,-1.,0.));
#603=DIRECTION('ref_axis',(0.,0.,1.));
#604=DIRECTION('',(0.,1.,0.));
#605=DIRECTION('center_axis',(0.,1.,0.));
#606=DIRECTION('ref_axis',(-1.,0.,0.));
#607=DIRECTION('',(0.,1.,0.));
#608=DIRECTION('center_axis',(0.,1.,0.));
#609=DIRECTION('ref_axis',(0.,0.,1.));
#610=DIRECTION('center_axis',(0.,1.,0.));
#611=DIRECTION('ref_axis',(0.,0.,1.));
#612=DIRECTION('',(1.,0.,0.));
#613=DIRECTION('',(1.,0.,0.));
#614=DIRECTION('center_axis',(0.,-1.,0.));
#615=DIRECTION('ref_axis',(0.,0.,1.));
#616=DIRECTION('',(1.,0.,0.));
#617=DIRECTION('',(0.,0.,1.));
#618=DIRECTION('',(1.,0.,0.));
#619=DIRECTION('center_axis',(0.,1.,0.));
#620=DIRECTION('ref_axis',(0.,0.,1.));
#621=DIRECTION('center_axis',(0.,0.,1.));
#622=DIRECTION('ref_axis',(1.,0.,0.));
#623=DIRECTION('',(0.,1.,0.));
#624=DIRECTION('center_axis',(0.,1.,0.));
#625=DIRECTION('ref_axis',(1.,0.,0.));
#626=DIRECTION('',(0.,1.,0.));
#627=DIRECTION('center_axis',(0.,1.,0.));
#628=DIRECTION('ref_axis',(0.,0.,1.));
#629=DIRECTION('',(1.,0.,0.));
#630=DIRECTION('',(1.,0.,0.));
#631=DIRECTION('',(0.,0.,1.));
#632=DIRECTION('',(1.,0.,0.));
#633=DIRECTION('',(1.,0.,0.));
#634=DIRECTION('center_axis',(0.,0.,1.));
#635=DIRECTION('ref_axis',(1.,0.,0.));
#636=DIRECTION('',(0.,1.,0.));
#637=DIRECTION('center_axis',(0.,1.,0.));
#638=DIRECTION('ref_axis',(1.,0.,0.));
#639=DIRECTION('',(0.,1.,0.));
#640=DIRECTION('center_axis',(0.,1.,0.));
#641=DIRECTION('ref_axis',(0.,0.,1.));
#642=DIRECTION('',(1.,0.,0.));
#643=DIRECTION('',(1.,0.,0.));
#644=DIRECTION('',(0.,0.,1.));
#645=DIRECTION('',(1.,0.,0.));
#646=DIRECTION('',(1.,0.,0.));
#647=DIRECTION('center_axis',(0.,0.,1.));
#648=DIRECTION('ref_axis',(1.,0.,0.));
#649=DIRECTION('',(0.,1.,0.));
#650=DIRECTION('center_axis',(0.,1.,0.));
#651=DIRECTION('ref_axis',(0.,0.,1.));
#652=DIRECTION('',(1.,0.,0.));
#653=DIRECTION('center_axis',(0.,1.,0.));
#654=DIRECTION('ref_axis',(0.,0.,1.));
#655=DIRECTION('',(0.,0.,1.));
#656=DIRECTION('center_axis',(0.,-1.,0.));
#657=DIRECTION('ref_axis',(0.,0.,1.));
#658=DIRECTION('',(1.,0.,0.));
#659=DIRECTION('center_axis',(0.,1.,0.));
#660=DIRECTION('ref_axis',(0.,0.,1.));
#661=DIRECTION('center_axis',(0.,-1.,0.));
#662=DIRECTION('ref_axis',(0.,0.,1.));
#663=DIRECTION('center_axis',(0.,1.,0.));
#664=DIRECTION('ref_axis',(0.,0.,1.));
#665=DIRECTION('',(0.,0.,1.));
#666=DIRECTION('',(1.,0.,0.));
#667=DIRECTION('',(0.,0.,1.));
#668=DIRECTION('center_axis',(1.,0.,0.));
#669=DIRECTION('ref_axis',(0.,0.,1.));
#670=DIRECTION('',(0.,1.,0.));
#671=DIRECTION('',(0.,0.,1.));
#672=DIRECTION('center_axis',(0.,1.,0.));
#673=DIRECTION('ref_axis',(0.,0.,1.));
#674=DIRECTION('',(1.,0.,0.));
#675=DIRECTION('center_axis',(0.,-1.,0.));
#676=DIRECTION('ref_axis',(0.,0.,1.));
#677=DIRECTION('center_axis',(0.,1.,0.));
#678=DIRECTION('ref_axis',(0.,0.,1.));
#679=DIRECTION('',(1.,0.,0.));
#680=DIRECTION('center_axis',(0.,-1.,0.));
#681=DIRECTION('ref_axis',(0.,0.,1.));
#682=DIRECTION('',(0.,0.,1.));
#683=DIRECTION('center_axis',(0.,1.,0.));
#684=DIRECTION('ref_axis',(0.,0.,1.));
#685=DIRECTION('center_axis',(0.,1.,0.));
#686=DIRECTION('ref_axis',(0.,0.,1.));
#687=DIRECTION('',(1.,0.,0.));
#688=DIRECTION('',(0.,0.,1.));
#689=DIRECTION('center_axis',(0.,1.,0.));
#690=DIRECTION('ref_axis',(-1.,0.,0.));
#691=DIRECTION('',(0.,1.,0.));
#692=DIRECTION('center_axis',(0.,0.,1.));
#693=DIRECTION('ref_axis',(1.,0.,0.));
#694=DIRECTION('',(0.,1.,0.));
#695=DIRECTION('center_axis',(0.,1.,0.));
#696=DIRECTION('ref_axis',(1.,0.,0.));
#697=DIRECTION('',(0.,1.,0.));
#698=DIRECTION('center_axis',(1.,0.,0.));
#699=DIRECTION('ref_axis',(0.,0.,1.));
#700=DIRECTION('',(0.,1.,0.));
#701=DIRECTION('center_axis',(0.,1.,0.));
#702=DIRECTION('ref_axis',(1.,0.,0.));
#703=DIRECTION('',(0.,1.,0.));
#704=DIRECTION('center_axis',(0.,0.,1.));
#705=DIRECTION('ref_axis',(1.,0.,0.));
#706=DIRECTION('',(0.,1.,0.));
#707=DIRECTION('center_axis',(0.,1.,0.));
#708=DIRECTION('ref_axis',(-1.,0.,0.));
#709=DIRECTION('',(0.,1.,0.));
#710=DIRECTION('center_axis',(1.,0.,0.));
#711=DIRECTION('ref_axis',(0.,0.,1.));
#712=DIRECTION('',(0.,1.,0.));
#713=DIRECTION('center_axis',(0.,0.,1.));
#714=DIRECTION('ref_axis',(1.,0.,0.));
#715=DIRECTION('',(0.,0.,1.));
#716=DIRECTION('',(1.,0.,0.));
#717=CARTESIAN_POINT('',(0.,0.,0.));
#718=CARTESIAN_POINT('',(0.,0.,0.));
#719=CARTESIAN_POINT('Origin',(-1.,-0.6,0.));
#720=CARTESIAN_POINT('',(-1.,-0.6,0.045));
#721=CARTESIAN_POINT('',(-1.,-0.6,0.405));
#722=CARTESIAN_POINT('',(-1.,-0.6,0.));
#723=CARTESIAN_POINT('',(-1.,0.6,0.405));
#724=CARTESIAN_POINT('',(-1.,-0.6,0.405));
#725=CARTESIAN_POINT('',(-1.,0.6,0.045));
#726=CARTESIAN_POINT('',(-1.,0.6,0.));
#727=CARTESIAN_POINT('',(-1.,-0.6,0.045));
#728=CARTESIAN_POINT('Origin',(-1.,-0.6,0.));
#729=CARTESIAN_POINT('',(-0.955,-0.6,-2.775557561563E-17));
#730=CARTESIAN_POINT('',(-0.745,-0.6,-2.775557561563E-17));
#731=CARTESIAN_POINT('',(-1.,-0.6,0.));
#732=CARTESIAN_POINT('',(-0.7,-0.6,0.045));
#733=CARTESIAN_POINT('Origin',(-0.745,-0.6,0.045));
#734=CARTESIAN_POINT('',(-0.955,-0.6,0.045));
#735=CARTESIAN_POINT('',(-0.955,-0.6,0.045));
#736=CARTESIAN_POINT('',(-0.955,-0.6,0.405));
#737=CARTESIAN_POINT('',(-0.955,-0.6,0.045));
#738=CARTESIAN_POINT('',(-0.7,-0.6,0.405));
#739=CARTESIAN_POINT('',(-0.955,-0.6,0.405));
#740=CARTESIAN_POINT('',(-0.745,-0.6,0.45));
#741=CARTESIAN_POINT('Origin',(-0.745,-0.6,0.405));
#742=CARTESIAN_POINT('',(-0.955,-0.6,0.45));
#743=CARTESIAN_POINT('',(-1.,-0.6,0.45));
#744=CARTESIAN_POINT('Origin',(-0.955,-0.6,0.405));
#745=CARTESIAN_POINT('Origin',(-0.955,-0.6,0.045));
#746=CARTESIAN_POINT('Origin',(-0.955,-0.6,0.045));
#747=CARTESIAN_POINT('',(-0.955,0.6,-2.775557561563E-17));
#748=CARTESIAN_POINT('Origin',(-0.955,0.6,0.045));
#749=CARTESIAN_POINT('',(-0.955,-0.6,-2.775557561563E-17));
#750=CARTESIAN_POINT('Origin',(-0.955,-0.6,0.405));
#751=CARTESIAN_POINT('',(-0.955,0.6,0.45));
#752=CARTESIAN_POINT('',(-0.955,-0.6,0.45));
#753=CARTESIAN_POINT('Origin',(-0.955,0.6,0.405));
#754=CARTESIAN_POINT('Origin',(-1.,0.6,0.));
#755=CARTESIAN_POINT('',(-0.745,0.6,-2.775557561563E-17));
#756=CARTESIAN_POINT('',(-1.,0.6,0.));
#757=CARTESIAN_POINT('',(-0.745,0.6,0.45));
#758=CARTESIAN_POINT('',(-1.,0.6,0.45));
#759=CARTESIAN_POINT('',(-0.7,0.6,0.405));
#760=CARTESIAN_POINT('Origin',(-0.745,0.6,0.405));
#761=CARTESIAN_POINT('',(-0.955,0.6,0.405));
#762=CARTESIAN_POINT('',(-0.955,0.6,0.405));
#763=CARTESIAN_POINT('',(-0.955,0.6,0.045));
#764=CARTESIAN_POINT('',(-0.955,0.6,0.045));
#765=CARTESIAN_POINT('',(-0.7,0.6,0.045));
#766=CARTESIAN_POINT('',(-0.955,0.6,0.045));
#767=CARTESIAN_POINT('Origin',(-0.745,0.6,0.045));
#768=CARTESIAN_POINT('Origin',(-1.,-0.6,0.));
#769=CARTESIAN_POINT('',(-0.745,-0.6,-2.775557561563E-17));
#770=CARTESIAN_POINT('Origin',(-0.745,-0.6,0.045));
#771=CARTESIAN_POINT('',(-0.7,-0.6,0.045));
#772=CARTESIAN_POINT('Origin',(-0.955,-0.6,0.045));
#773=CARTESIAN_POINT('',(0.7,-0.6,0.045));
#774=CARTESIAN_POINT('',(-0.955,-0.6,0.045));
#775=CARTESIAN_POINT('',(0.955,-0.6,0.045));
#776=CARTESIAN_POINT('',(-0.955,-0.6,0.045));
#777=CARTESIAN_POINT('',(0.955,-0.6,0.405));
#778=CARTESIAN_POINT('',(0.955,-0.6,0.045));
#779=CARTESIAN_POINT('',(0.7,-0.6,0.405));
#780=CARTESIAN_POINT('',(-0.955,-0.6,0.405));
#781=CARTESIAN_POINT('',(-0.7,-0.6,0.405));
#782=CARTESIAN_POINT('Origin',(-1.,-0.6,0.45));
#783=CARTESIAN_POINT('',(-0.745,-0.6,0.45));
#784=CARTESIAN_POINT('Origin',(-0.745,-0.6,0.405));
#785=CARTESIAN_POINT('',(-0.7,-0.6,0.405));
#786=CARTESIAN_POINT('Origin',(-0.955,0.6,0.045));
#787=CARTESIAN_POINT('',(0.7,0.6,0.405));
#788=CARTESIAN_POINT('',(-0.7,0.6,0.405));
#789=CARTESIAN_POINT('',(0.955,0.6,0.405));
#790=CARTESIAN_POINT('',(-0.955,0.6,0.405));
#791=CARTESIAN_POINT('',(0.955,0.6,0.045));
#792=CARTESIAN_POINT('',(0.955,0.6,0.045));
#793=CARTESIAN_POINT('',(0.7,0.6,0.045));
#794=CARTESIAN_POINT('',(-0.955,0.6,0.045));
#795=CARTESIAN_POINT('',(-0.955,0.6,0.045));
#796=CARTESIAN_POINT('Origin',(-0.955,-0.6,0.045));
#797=CARTESIAN_POINT('',(0.7,-0.6,0.045));
#798=CARTESIAN_POINT('Origin',(0.7,-0.6,0.));
#799=CARTESIAN_POINT('',(0.745,-0.6,-2.775557561563E-17));
#800=CARTESIAN_POINT('',(0.955,-0.6,-2.775557561563E-17));
#801=CARTESIAN_POINT('',(0.7,-0.6,0.));
#802=CARTESIAN_POINT('',(1.,-0.6,0.045));
#803=CARTESIAN_POINT('Origin',(0.955,-0.6,0.045));
#804=CARTESIAN_POINT('',(1.,-0.6,0.405));
#805=CARTESIAN_POINT('',(1.,-0.6,0.));
#806=CARTESIAN_POINT('',(0.955,-0.6,0.45));
#807=CARTESIAN_POINT('Origin',(0.955,-0.6,0.405));
#808=CARTESIAN_POINT('',(0.745,-0.6,0.45));
#809=CARTESIAN_POINT('',(0.7,-0.6,0.45));
#810=CARTESIAN_POINT('Origin',(0.745,-0.6,0.405));
#811=CARTESIAN_POINT('Origin',(0.745,-0.6,0.045));
#812=CARTESIAN_POINT('Origin',(-0.7,-0.6,0.405));
#813=CARTESIAN_POINT('',(0.7,-0.6,0.45));
#814=CARTESIAN_POINT('',(0.7,-0.6,0.405));
#815=CARTESIAN_POINT('',(-0.7,-0.6,0.45));
#816=CARTESIAN_POINT('',(-0.7,-0.6,0.45));
#817=CARTESIAN_POINT('',(-0.7,-0.6,0.405));
#818=CARTESIAN_POINT('Origin',(-0.7,-0.6,0.405));
#819=CARTESIAN_POINT('',(-0.7,0.6,0.45));
#820=CARTESIAN_POINT('',(-0.7,-0.6,0.45));
#821=CARTESIAN_POINT('',(-0.7,0.6,0.405));
#822=CARTESIAN_POINT('Origin',(0.7,0.6,0.));
#823=CARTESIAN_POINT('',(0.745,0.6,-2.775557561563E-17));
#824=CARTESIAN_POINT('',(0.955,0.6,-2.775557561563E-17));
#825=CARTESIAN_POINT('',(0.7,0.6,0.));
#826=CARTESIAN_POINT('Origin',(0.745,0.6,0.045));
#827=CARTESIAN_POINT('',(0.745,0.6,0.45));
#828=CARTESIAN_POINT('Origin',(0.745,0.6,0.405));
#829=CARTESIAN_POINT('',(0.955,0.6,0.45));
#830=CARTESIAN_POINT('',(0.7,0.6,0.45));
#831=CARTESIAN_POINT('',(1.,0.6,0.405));
#832=CARTESIAN_POINT('Origin',(0.955,0.6,0.405));
#833=CARTESIAN_POINT('',(1.,0.6,0.045));
#834=CARTESIAN_POINT('',(1.,0.6,0.));
#835=CARTESIAN_POINT('Origin',(0.955,0.6,0.045));
#836=CARTESIAN_POINT('Origin',(-0.7,0.6,0.405));
#837=CARTESIAN_POINT('',(0.7,0.6,0.45));
#838=CARTESIAN_POINT('',(-0.7,0.6,0.45));
#839=CARTESIAN_POINT('',(0.7,0.6,0.405));
#840=CARTESIAN_POINT('Origin',(0.745,-0.6,0.045));
#841=CARTESIAN_POINT('',(0.745,-0.6,-2.775557561563E-17));
#842=CARTESIAN_POINT('Origin',(0.7,-0.6,0.));
#843=CARTESIAN_POINT('',(0.955,-0.6,-2.775557561563E-17));
#844=CARTESIAN_POINT('Origin',(0.955,-0.6,0.045));
#845=CARTESIAN_POINT('',(1.,-0.6,0.045));
#846=CARTESIAN_POINT('Origin',(1.,-0.6,0.));
#847=CARTESIAN_POINT('',(1.,-0.6,0.405));
#848=CARTESIAN_POINT('Origin',(0.955,-0.6,0.405));
#849=CARTESIAN_POINT('',(0.955,-0.6,0.45));
#850=CARTESIAN_POINT('Origin',(0.7,-0.6,0.45));
#851=CARTESIAN_POINT('',(0.745,-0.6,0.45));
#852=CARTESIAN_POINT('Origin',(0.745,-0.6,0.405));
#853=CARTESIAN_POINT('',(0.7,-0.6,0.405));
#854=CARTESIAN_POINT('Origin',(0.7,-0.6,0.405));
#855=CARTESIAN_POINT('',(0.7,-0.6,0.45));
#856=CARTESIAN_POINT('Origin',(-0.7,-0.6,0.45));
#857=CARTESIAN_POINT('',(0.,0.,0.));
#858=UNCERTAINTY_MEASURE_WITH_UNIT(LENGTH_MEASURE(0.01),#864,
'DISTANCE_ACCURACY_VALUE',
'Maximum model space distance between geometric entities at asserted c
onnectivities');
#859=UNCERTAINTY_MEASURE_WITH_UNIT(LENGTH_MEASURE(0.01),#864,
'DISTANCE_ACCURACY_VALUE',
'Maximum model space distance between geometric entities at asserted c
onnectivities');
#860=UNCERTAINTY_MEASURE_WITH_UNIT(LENGTH_MEASURE(0.01),#864,
'DISTANCE_ACCURACY_VALUE',
'Maximum model space distance between geometric entities at asserted c
onnectivities');
#861=(
GEOMETRIC_REPRESENTATION_CONTEXT(3)
GLOBAL_UNCERTAINTY_ASSIGNED_CONTEXT((#858))
GLOBAL_UNIT_ASSIGNED_CONTEXT((#864,#866,#867))
REPRESENTATION_CONTEXT('','3D')
);
#862=(
GEOMETRIC_REPRESENTATION_CONTEXT(3)
GLOBAL_UNCERTAINTY_ASSIGNED_CONTEXT((#859))
GLOBAL_UNIT_ASSIGNED_CONTEXT((#864,#866,#867))
REPRESENTATION_CONTEXT('','3D')
);
#863=(
GEOMETRIC_REPRESENTATION_CONTEXT(3)
GLOBAL_UNCERTAINTY_ASSIGNED_CONTEXT((#860))
GLOBAL_UNIT_ASSIGNED_CONTEXT((#864,#866,#867))
REPRESENTATION_CONTEXT('','3D')
);
#864=(
LENGTH_UNIT()
NAMED_UNIT(*)
SI_UNIT(.MILLI.,.METRE.)
);
#865=(
LENGTH_UNIT()
NAMED_UNIT(*)
SI_UNIT($,.METRE.)
);
#866=(
NAMED_UNIT(*)
PLANE_ANGLE_UNIT()
SI_UNIT($,.RADIAN.)
);
#867=(
NAMED_UNIT(*)
SI_UNIT($,.STERADIAN.)
SOLID_ANGLE_UNIT()
);
#868=SHAPE_DEFINITION_REPRESENTATION(#870,#873);
#869=SHAPE_DEFINITION_REPRESENTATION(#871,#874);
#870=PRODUCT_DEFINITION_SHAPE('',$,#876);
#871=PRODUCT_DEFINITION_SHAPE('',$,#877);
#872=PRODUCT_DEFINITION_SHAPE($,$,#14);
#873=SHAPE_REPRESENTATION('',(#530,#574),#861);
#874=SHAPE_REPRESENTATION('',(#531),#862);
#875=PRODUCT_DEFINITION_CONTEXT('part definition',#883,'design');
#876=PRODUCT_DEFINITION('2026-09-16-09-35-35-348',
'R_0805_2012Metric (1)',#878,#875);
#877=PRODUCT_DEFINITION('2026-09-16-09-35-35-348_1','R_0805_2012Metric',
#879,#875);
#878=PRODUCT_DEFINITION_FORMATION('',$,#885);
#879=PRODUCT_DEFINITION_FORMATION('',$,#886);
#880=PRODUCT_RELATED_PRODUCT_CATEGORY('R_0805_2012Metric (1)',
'R_0805_2012Metric (1)',(#885));
#881=PRODUCT_RELATED_PRODUCT_CATEGORY('R_0805_2012Metric',
'R_0805_2012Metric',(#886));
#882=APPLICATION_PROTOCOL_DEFINITION('international standard',
'automotive_design',2009,#883);
#883=APPLICATION_CONTEXT(
'Core Data for Automotive Mechanical Design Process');
#884=PRODUCT_CONTEXT('part definition',#883,'mechanical');
#885=PRODUCT('2026-09-16-09-35-35-348','R_0805_2012Metric (1)',$,(#884));
#886=PRODUCT('2026-09-16-09-35-35-348_1','R_0805_2012Metric',$,(#884));
#887=PRESENTATION_STYLE_ASSIGNMENT((#891));
#888=PRESENTATION_STYLE_ASSIGNMENT((#892));
#889=PRESENTATION_STYLE_ASSIGNMENT((#893));
#890=PRESENTATION_STYLE_ASSIGNMENT((#894));
#891=SURFACE_STYLE_USAGE(.BOTH.,#895);
#892=SURFACE_STYLE_USAGE(.BOTH.,#896);
#893=SURFACE_STYLE_USAGE(.BOTH.,#897);
#894=SURFACE_STYLE_USAGE(.BOTH.,#898);
#895=SURFACE_SIDE_STYLE('',(#899));
#896=SURFACE_SIDE_STYLE('',(#900));
#897=SURFACE_SIDE_STYLE('',(#901));
#898=SURFACE_SIDE_STYLE('',(#902));
#899=SURFACE_STYLE_FILL_AREA(#903);
#900=SURFACE_STYLE_FILL_AREA(#904);
#901=SURFACE_STYLE_FILL_AREA(#905);
#902=SURFACE_STYLE_FILL_AREA(#906);
#903=FILL_AREA_STYLE('Steel - Satin',(#907));
#904=FILL_AREA_STYLE('Opaque(210,209,199)',(#908));
#905=FILL_AREA_STYLE('Opaque(228,227,207)',(#909));
#906=FILL_AREA_STYLE('Opaque(21,22,24)',(#910));
#907=FILL_AREA_STYLE_COLOUR('Steel - Satin',#911);
#908=FILL_AREA_STYLE_COLOUR('Opaque(210,209,199)',#912);
#909=FILL_AREA_STYLE_COLOUR('Opaque(228,227,207)',#913);
#910=FILL_AREA_STYLE_COLOUR('Opaque(21,22,24)',#914);
#911=COLOUR_RGB('Steel - Satin',0.627450980392157,0.627450980392157,0.627450980392157);
#912=COLOUR_RGB('Opaque(210,209,199)',0.823529411764706,0.819607843137255,
0.780392156862745);
#913=COLOUR_RGB('Opaque(228,227,207)',0.894117647058824,0.890196078431372,
0.811764705882353);
#914=COLOUR_RGB('Opaque(21,22,24)',0.0823529411764706,0.0862745098039216,
0.0941176470588235);
ENDSEC;
END-ISO-10303-21;
