%TF.GenerationSoftware,KiCad,Pcbnew,10.0.5*%
%TF.CreationDate,2026-09-15T22:53:06+05:45*%
%TF.ProjectId,sanchar,73616e63-6861-4722-9e6b-696361645f70,rev?*%
%TF.SameCoordinates,Original*%
%TF.FileFunction,Soldermask,Bot*%
%TF.FilePolarity,Negative*%
%FSLAX46Y46*%
G04 Gerber Fmt 4.6, Leading zero omitted, Abs format (unit mm)*
G04 Created by KiCad (PCBNEW 10.0.5) date 2026-09-15 22:53:06*
%MOMM*%
%LPD*%
G01*
G04 APERTURE LIST*
G04 Aperture macros list*
%AMRoundRect*
0 Rectangle with rounded corners*
0 $1 Rounding radius*
0 $2 $3 $4 $5 $6 $7 $8 $9 X,Y pos of 4 corners*
0 Add a 4 corners polygon primitive as box body*
4,1,4,$2,$3,$4,$5,$6,$7,$8,$9,$2,$3,0*
0 Add four circle primitives for the rounded corners*
1,1,$1+$1,$2,$3*
1,1,$1+$1,$4,$5*
1,1,$1+$1,$6,$7*
1,1,$1+$1,$8,$9*
0 Add four rect primitives between the rounded corners*
20,1,$1+$1,$2,$3,$4,$5,0*
20,1,$1+$1,$4,$5,$6,$7,0*
20,1,$1+$1,$6,$7,$8,$9,0*
20,1,$1+$1,$8,$9,$2,$3,0*%
G04 Aperture macros list end*
%ADD10C,3.200000*%
%ADD11O,2.200000X3.500000*%
%ADD12R,1.500000X2.500000*%
%ADD13O,1.500000X2.500000*%
%ADD14C,1.800000*%
%ADD15C,4.400000*%
%ADD16RoundRect,0.170000X0.680000X0.680000X-0.680000X0.680000X-0.680000X-0.680000X0.680000X-0.680000X0*%
%ADD17C,1.700000*%
%ADD18R,2.800000X2.800000*%
%ADD19RoundRect,0.250000X0.625000X-0.350000X0.625000X0.350000X-0.625000X0.350000X-0.625000X-0.350000X0*%
%ADD20O,1.750000X1.200000*%
%ADD21RoundRect,0.250000X-0.350000X-0.625000X0.350000X-0.625000X0.350000X0.625000X-0.350000X0.625000X0*%
%ADD22O,1.200000X1.750000*%
%ADD23RoundRect,0.250000X-0.450000X0.800000X-0.450000X-0.800000X0.450000X-0.800000X0.450000X0.800000X0*%
%ADD24C,1.100000*%
%ADD25R,1.730000X2.030000*%
%ADD26O,1.730000X2.030000*%
%ADD27RoundRect,0.050800X0.762000X0.762000X-0.762000X0.762000X-0.762000X-0.762000X0.762000X-0.762000X0*%
%ADD28O,1.625600X1.625600*%
G04 APERTURE END LIST*
D10*
%TO.C,H2*%
X101710000Y-103330000D03*
%TD*%
%TO.C,H3*%
X194230000Y-67510000D03*
%TD*%
D11*
%TO.C,SW2*%
X185670000Y-97220000D03*
X193870000Y-97220000D03*
D12*
X187770000Y-97220000D03*
D13*
X189770000Y-97220000D03*
X191770000Y-97220000D03*
%TD*%
D10*
%TO.C,H4*%
X161530000Y-78950000D03*
%TD*%
%TO.C,H1*%
X100890000Y-56620000D03*
%TD*%
D14*
%TO.C,RV1*%
X154220000Y-66490000D03*
X154220000Y-63990000D03*
X154220000Y-61490000D03*
D15*
X161220000Y-59590000D03*
X161220000Y-68390000D03*
%TD*%
D16*
%TO.C,U2*%
X109210000Y-98120000D03*
D17*
X106670000Y-98120000D03*
X104130000Y-98120000D03*
X101590000Y-98120000D03*
%TD*%
D18*
%TO.C,TP1*%
X194720000Y-72820000D03*
X194720000Y-87020000D03*
X171820000Y-72820000D03*
X171820000Y-87320000D03*
X171820000Y-76320000D03*
X171820000Y-83920000D03*
%TD*%
D19*
%TO.C,BT1*%
X181280000Y-61910000D03*
D20*
X181280000Y-59910000D03*
%TD*%
D21*
%TO.C,LS1*%
X187660000Y-62530000D03*
D22*
X189660000Y-62530000D03*
%TD*%
D23*
%TO.C,SW4-reset*%
X174850000Y-92010000D03*
X174850000Y-101110000D03*
X179350000Y-92010000D03*
X179350000Y-101110000D03*
%TD*%
D24*
%TO.C,J1*%
X139450000Y-94690000D03*
D25*
X144530000Y-96850000D03*
D26*
X141990000Y-96850000D03*
X139450000Y-96850000D03*
X136910000Y-96850000D03*
%TD*%
D27*
%TO.C,M1*%
X153260000Y-91390000D03*
D28*
X153260000Y-93930000D03*
X153260000Y-96470000D03*
X160880000Y-96470000D03*
X160880000Y-93930000D03*
X160880000Y-91390000D03*
%TD*%
D23*
%TO.C,SW3-boot*%
X167300000Y-92010000D03*
X167300000Y-101110000D03*
X171800000Y-92010000D03*
X171800000Y-101110000D03*
%TD*%
M02*
