%TF.GenerationSoftware,KiCad,Pcbnew,10.0.5*%
%TF.CreationDate,2026-09-15T22:53:05+05:45*%
%TF.ProjectId,sanchar,73616e63-6861-4722-9e6b-696361645f70,rev?*%
%TF.SameCoordinates,Original*%
%TF.FileFunction,Paste,Top*%
%TF.FilePolarity,Positive*%
%FSLAX46Y46*%
G04 Gerber Fmt 4.6, Leading zero omitted, Abs format (unit mm)*
G04 Created by KiCad (PCBNEW 10.0.5) date 2026-09-15 22:53:05*
%MOMM*%
%LPD*%
G01*
G04 APERTURE LIST*
G04 Aperture macros list*
%AMRoundRect*
0 Rectangle with rounded corners*
0 $1 Rounding radius*
0 $2 $3 $4 $5 $6 $7 $8 $9 X,Y pos of 4 corners*
0 Add a 4 corners polygon primitive as box body*
4,1,4,$2,$3,$4,$5,$6,$7,$8,$9,$2,$3,0*
0 Add four circle primitives for the rounded corners*
1,1,$1+$1,$2,$3*
1,1,$1+$1,$4,$5*
1,1,$1+$1,$6,$7*
1,1,$1+$1,$8,$9*
0 Add four rect primitives between the rounded corners*
20,1,$1+$1,$2,$3,$4,$5,0*
20,1,$1+$1,$4,$5,$6,$7,0*
20,1,$1+$1,$6,$7,$8,$9,0*
20,1,$1+$1,$8,$9,$2,$3,0*%
G04 Aperture macros list end*
%ADD10RoundRect,0.250000X-0.250000X-0.475000X0.250000X-0.475000X0.250000X0.475000X-0.250000X0.475000X0*%
%ADD11RoundRect,0.250000X-0.262500X-0.450000X0.262500X-0.450000X0.262500X0.450000X-0.262500X0.450000X0*%
%ADD12RoundRect,0.375000X-0.625000X-0.375000X0.625000X-0.375000X0.625000X0.375000X-0.625000X0.375000X0*%
%ADD13RoundRect,0.500000X-0.500000X-1.400000X0.500000X-1.400000X0.500000X1.400000X-0.500000X1.400000X0*%
%ADD14RoundRect,0.250000X-0.800000X-0.450000X0.800000X-0.450000X0.800000X0.450000X-0.800000X0.450000X0*%
%ADD15RoundRect,0.090000X-0.660000X-0.360000X0.660000X-0.360000X0.660000X0.360000X-0.660000X0.360000X0*%
%ADD16R,1.500000X0.900000*%
%ADD17R,0.900000X1.500000*%
%ADD18R,0.900000X0.900000*%
%ADD19RoundRect,0.125000X-0.125000X-0.125000X0.125000X-0.125000X0.125000X0.125000X-0.125000X0.125000X0*%
%ADD20RoundRect,0.062500X-0.350000X-0.062500X0.350000X-0.062500X0.350000X0.062500X-0.350000X0.062500X0*%
%ADD21RoundRect,0.062500X-0.062500X-0.350000X0.062500X-0.350000X0.062500X0.350000X-0.062500X0.350000X0*%
G04 APERTURE END LIST*
D10*
%TO.C,C1*%
X148580000Y-58360000D03*
X150480000Y-58360000D03*
%TD*%
%TO.C,C4*%
X142620000Y-70660000D03*
X144520000Y-70660000D03*
%TD*%
%TO.C,C6*%
X142470000Y-66690000D03*
X144370000Y-66690000D03*
%TD*%
D11*
%TO.C,R2*%
X142080000Y-58450000D03*
X143905000Y-58450000D03*
%TD*%
D10*
%TO.C,C3*%
X142620000Y-74540000D03*
X144520000Y-74540000D03*
%TD*%
D12*
%TO.C,U3*%
X131130000Y-61370000D03*
X131130000Y-63670000D03*
D13*
X137430000Y-63670000D03*
D12*
X131130000Y-65970000D03*
%TD*%
D10*
%TO.C,C5*%
X148670000Y-63570000D03*
X150570000Y-63570000D03*
%TD*%
D14*
%TO.C,SW1*%
X171440000Y-94390000D03*
X180540000Y-94390000D03*
X171440000Y-98890000D03*
X180540000Y-98890000D03*
%TD*%
D15*
%TO.C,D1*%
X119360000Y-61770000D03*
X119360000Y-65070000D03*
X124260000Y-65070000D03*
X124260000Y-61770000D03*
%TD*%
D10*
%TO.C,C7*%
X142360000Y-62350000D03*
X144260000Y-62350000D03*
%TD*%
D11*
%TO.C,R1*%
X126265000Y-99980000D03*
X128090000Y-99980000D03*
%TD*%
D16*
%TO.C,U1*%
X118810000Y-74710000D03*
X118810000Y-75980000D03*
X118810000Y-77250000D03*
X118810000Y-78520000D03*
X118810000Y-79790000D03*
X118810000Y-81060000D03*
X118810000Y-82330000D03*
X118810000Y-83600000D03*
X118810000Y-84870000D03*
X118810000Y-86140000D03*
X118810000Y-87410000D03*
X118810000Y-88680000D03*
X118810000Y-89950000D03*
X118810000Y-91220000D03*
D17*
X120575000Y-92470000D03*
X121845000Y-92470000D03*
X123115000Y-92470000D03*
X124385000Y-92470000D03*
X125655000Y-92470000D03*
X126925000Y-92470000D03*
X128195000Y-92470000D03*
X129465000Y-92470000D03*
X130735000Y-92470000D03*
X132005000Y-92470000D03*
X133275000Y-92470000D03*
X134545000Y-92470000D03*
D16*
X136310000Y-91220000D03*
X136310000Y-89950000D03*
X136310000Y-88680000D03*
X136310000Y-87410000D03*
X136310000Y-86140000D03*
X136310000Y-84870000D03*
X136310000Y-83600000D03*
X136310000Y-82330000D03*
X136310000Y-81060000D03*
X136310000Y-79790000D03*
X136310000Y-78520000D03*
X136310000Y-77250000D03*
X136310000Y-75980000D03*
X136310000Y-74710000D03*
D18*
X124660000Y-81030000D03*
X126060000Y-81030000D03*
X127460000Y-81030000D03*
X124660000Y-82430000D03*
X126060000Y-82430000D03*
X127460000Y-82430000D03*
X124660000Y-83830000D03*
X126060000Y-83830000D03*
X127460000Y-83830000D03*
%TD*%
D19*
%TO.C,U4*%
X120772500Y-99840000D03*
X120772500Y-100460000D03*
X121392500Y-99840000D03*
X121392500Y-100460000D03*
D20*
X119645000Y-99400000D03*
X119645000Y-99900000D03*
X119645000Y-100400000D03*
X119645000Y-100900000D03*
D21*
X120332500Y-101587500D03*
X120832500Y-101587500D03*
X121332500Y-101587500D03*
X121832500Y-101587500D03*
D20*
X122520000Y-100900000D03*
X122520000Y-100400000D03*
X122520000Y-99900000D03*
X122520000Y-99400000D03*
D21*
X121832500Y-98712500D03*
X121332500Y-98712500D03*
X120832500Y-98712500D03*
X120332500Y-98712500D03*
%TD*%
D10*
%TO.C,C2*%
X148960000Y-67830000D03*
X150860000Y-67830000D03*
%TD*%
M02*
