%TF.GenerationSoftware,KiCad,Pcbnew,10.0.5*%
%TF.CreationDate,2026-09-15T22:53:05+05:45*%
%TF.ProjectId,sanchar,73616e63-6861-4722-9e6b-696361645f70,rev?*%
%TF.SameCoordinates,Original*%
%TF.FileFunction,Copper,L2,Bot*%
%TF.FilePolarity,Positive*%
%FSLAX46Y46*%
G04 Gerber Fmt 4.6, Leading zero omitted, Abs format (unit mm)*
G04 Created by KiCad (PCBNEW 10.0.5) date 2026-09-15 22:53:05*
%MOMM*%
%LPD*%
G01*
G04 APERTURE LIST*
G04 Aperture macros list*
%AMRoundRect*
0 Rectangle with rounded corners*
0 $1 Rounding radius*
0 $2 $3 $4 $5 $6 $7 $8 $9 X,Y pos of 4 corners*
0 Add a 4 corners polygon primitive as box body*
4,1,4,$2,$3,$4,$5,$6,$7,$8,$9,$2,$3,0*
0 Add four circle primitives for the rounded corners*
1,1,$1+$1,$2,$3*
1,1,$1+$1,$4,$5*
1,1,$1+$1,$6,$7*
1,1,$1+$1,$8,$9*
0 Add four rect primitives between the rounded corners*
20,1,$1+$1,$2,$3,$4,$5,0*
20,1,$1+$1,$4,$5,$6,$7,0*
20,1,$1+$1,$6,$7,$8,$9,0*
20,1,$1+$1,$8,$9,$2,$3,0*%
G04 Aperture macros list end*
%TA.AperFunction,ComponentPad*%
%ADD10O,2.200000X3.500000*%
%TD*%
%TA.AperFunction,ComponentPad*%
%ADD11R,1.500000X2.500000*%
%TD*%
%TA.AperFunction,ComponentPad*%
%ADD12O,1.500000X2.500000*%
%TD*%
%TA.AperFunction,ComponentPad*%
%ADD13C,0.400000*%
%TD*%
%TA.AperFunction,ComponentPad*%
%ADD14C,1.800000*%
%TD*%
%TA.AperFunction,ComponentPad*%
%ADD15C,4.400000*%
%TD*%
%TA.AperFunction,ComponentPad*%
%ADD16RoundRect,0.170000X0.680000X0.680000X-0.680000X0.680000X-0.680000X-0.680000X0.680000X-0.680000X0*%
%TD*%
%TA.AperFunction,ComponentPad*%
%ADD17C,1.700000*%
%TD*%
%TA.AperFunction,ComponentPad*%
%ADD18R,2.800000X2.800000*%
%TD*%
%TA.AperFunction,ComponentPad*%
%ADD19RoundRect,0.250000X0.625000X-0.350000X0.625000X0.350000X-0.625000X0.350000X-0.625000X-0.350000X0*%
%TD*%
%TA.AperFunction,ComponentPad*%
%ADD20O,1.750000X1.200000*%
%TD*%
%TA.AperFunction,ComponentPad*%
%ADD21RoundRect,0.250000X-0.350000X-0.625000X0.350000X-0.625000X0.350000X0.625000X-0.350000X0.625000X0*%
%TD*%
%TA.AperFunction,ComponentPad*%
%ADD22O,1.200000X1.750000*%
%TD*%
%TA.AperFunction,SMDPad,CuDef*%
%ADD23RoundRect,0.250000X-0.450000X0.800000X-0.450000X-0.800000X0.450000X-0.800000X0.450000X0.800000X0*%
%TD*%
%TA.AperFunction,ComponentPad*%
%ADD24R,1.730000X2.030000*%
%TD*%
%TA.AperFunction,ComponentPad*%
%ADD25O,1.730000X2.030000*%
%TD*%
%TA.AperFunction,ComponentPad*%
%ADD26R,1.524000X1.524000*%
%TD*%
%TA.AperFunction,ComponentPad*%
%ADD27O,1.524000X1.524000*%
%TD*%
%TA.AperFunction,ViaPad*%
%ADD28C,0.600000*%
%TD*%
%TA.AperFunction,Conductor*%
%ADD29C,0.200000*%
%TD*%
G04 APERTURE END LIST*
D10*
%TO.P,SW2,*%
%TO.N,*%
X185670000Y-97220000D03*
X193870000Y-97220000D03*
D11*
%TO.P,SW2,1,A_1*%
%TO.N,Slide_s_1*%
X187770000Y-97220000D03*
D12*
%TO.P,SW2,2,B_2*%
%TO.N,Slide_s_2*%
X189770000Y-97220000D03*
%TO.P,SW2,3,C_3*%
%TO.N,unconnected-(SW2-C-Pad3)*%
X191770000Y-97220000D03*
%TD*%
D13*
%TO.P,U1,41_10*%
%TO.N,GND*%
X125360000Y-81030000D03*
%TO.P,U1,41_11*%
X126760000Y-81030000D03*
%TO.P,U1,41_12*%
X124660000Y-81730000D03*
%TO.P,U1,41_13*%
X126060000Y-81730000D03*
%TO.P,U1,41_14*%
X127460000Y-81730000D03*
%TO.P,U1,41_15*%
X125360000Y-82430000D03*
%TO.P,U1,41_16*%
X126760000Y-82430000D03*
%TO.P,U1,41_17*%
X124660000Y-83130000D03*
%TO.P,U1,41_18*%
X126060000Y-83130000D03*
%TO.P,U1,41_19*%
X127460000Y-83130000D03*
%TO.P,U1,41_20*%
X125360000Y-83830000D03*
%TO.P,U1,41_21*%
X126760000Y-83830000D03*
%TD*%
D14*
%TO.P,RV1,1,1_1*%
%TO.N,3V3*%
X154220000Y-66490000D03*
%TO.P,RV1,2,2_2*%
%TO.N,ESP_IO3*%
X154220000Y-63990000D03*
%TO.P,RV1,3,3_3*%
%TO.N,GND*%
X154220000Y-61490000D03*
D15*
%TO.P,RV1,MP,MountPin_MP*%
%TO.N,unconnected-(RV1-MountPin-PadMP)*%
X161220000Y-59590000D03*
%TO.N,unconnected-(RV1-MountPin-PadMP)_1*%
X161220000Y-68390000D03*
%TD*%
D16*
%TO.P,U2,1,GND_1*%
%TO.N,GND*%
X109210000Y-98120000D03*
D17*
%TO.P,U2,2,VCC_2*%
%TO.N,3V3*%
X106670000Y-98120000D03*
%TO.P,U2,3,SCL_3*%
%TO.N,ESP_IO8*%
X104130000Y-98120000D03*
%TO.P,U2,4,SDA_4*%
%TO.N,ESP_IO9*%
X101590000Y-98120000D03*
%TD*%
D18*
%TO.P,TP1,1,5V+_1*%
%TO.N,unconnected-(TP1-5V+-Pad1)*%
X194720000Y-72820000D03*
%TO.P,TP1,2,-_2*%
%TO.N,unconnected-(TP1---Pad2)*%
X194720000Y-87020000D03*
%TO.P,TP1,3,B+_3*%
%TO.N,Net-(BT1-+)*%
X171820000Y-72820000D03*
%TO.P,TP1,4,B-_4*%
%TO.N,Net-(BT1--)*%
X171820000Y-87320000D03*
%TO.P,TP1,5,OUT+_5*%
%TO.N,Slide_s_1*%
X171820000Y-76320000D03*
%TO.P,TP1,6,OUT-_6*%
%TO.N,GND*%
X171820000Y-83920000D03*
%TD*%
D19*
%TO.P,BT1,1,+_1*%
%TO.N,Net-(BT1-+)*%
X181280000Y-61910000D03*
D20*
%TO.P,BT1,2,-_2*%
%TO.N,Net-(BT1--)*%
X181280000Y-59910000D03*
%TD*%
D21*
%TO.P,LS1,1,1_1*%
%TO.N,SPEAK+*%
X187660000Y-62530000D03*
D22*
%TO.P,LS1,2,2_2*%
%TO.N,SPEAK-*%
X189660000Y-62530000D03*
%TD*%
D23*
%TO.P,SW4-reset,1,1_1*%
%TO.N,ESP_EN*%
X174850000Y-92010000D03*
X174850000Y-101110000D03*
%TO.P,SW4-reset,2,2_2*%
%TO.N,GND*%
X179350000Y-92010000D03*
X179350000Y-101110000D03*
%TD*%
D24*
%TO.P,J1,1,Pin_1_1*%
%TO.N,3V3*%
X144530000Y-96850000D03*
D25*
%TO.P,J1,2,Pin_2_2*%
%TO.N,GND*%
X141990000Y-96850000D03*
%TO.P,J1,3,Pin_3_3*%
%TO.N,ESP_TX*%
X139450000Y-96850000D03*
%TO.P,J1,4,Pin_4_4*%
%TO.N,ESP_RX*%
X136910000Y-96850000D03*
%TD*%
D26*
%TO.P,M1,1,GND_1*%
%TO.N,GND*%
X153260000Y-91390000D03*
D27*
%TO.P,M1,2,VDD_2*%
%TO.N,3V3*%
X153260000Y-93930000D03*
%TO.P,M1,3,SD_3*%
%TO.N,ESP_IO4*%
X153260000Y-96470000D03*
%TO.P,M1,4,SCK_4*%
%TO.N,ESP_IO5*%
X160880000Y-96470000D03*
%TO.P,M1,5,WS_5*%
%TO.N,ESP_IO6*%
X160880000Y-93930000D03*
%TO.P,M1,6,L/R_6*%
%TO.N,GND*%
X160880000Y-91390000D03*
%TD*%
D23*
%TO.P,SW3-boot,1,1_1*%
%TO.N,ESP_IO0*%
X167300000Y-92010000D03*
X167300000Y-101110000D03*
%TO.P,SW3-boot,2,2_2*%
%TO.N,GND*%
X171800000Y-92010000D03*
X171800000Y-101110000D03*
%TD*%
D28*
%TO.N,Slide_s_2*%
X138700000Y-70420000D03*
X126440000Y-103860000D03*
X146420000Y-65010000D03*
X124000000Y-97680000D03*
X146360000Y-59890000D03*
X146490000Y-63560000D03*
X122740000Y-101700000D03*
X140760000Y-64920000D03*
X140700000Y-68380000D03*
%TO.N,GND*%
X146180000Y-91700000D03*
X139600000Y-74640000D03*
X119110000Y-97320000D03*
X169580000Y-100700000D03*
X133970000Y-74640000D03*
X121190000Y-78970000D03*
X112740000Y-78350000D03*
X124620000Y-79640000D03*
%TO.N,3V3*%
X147410000Y-68580000D03*
X116630000Y-76140000D03*
X112590000Y-80250000D03*
X143300000Y-68820000D03*
X116680000Y-61770000D03*
%TO.N,ESP_IO10*%
X124710000Y-96290000D03*
X128440000Y-103250000D03*
%TO.N,Net-(U4-~{SD_MODE})*%
X120780000Y-104040000D03*
X127450000Y-102900000D03*
X117470000Y-101370000D03*
X129800000Y-99920000D03*
%TO.N,ESP_IO4*%
X114240000Y-78540000D03*
X116660000Y-78590000D03*
%TO.N,ESP_IO5*%
X116560000Y-79910000D03*
X114210000Y-79970000D03*
%TO.N,ESP_IO6*%
X116600000Y-81240000D03*
X114400000Y-81300000D03*
%TO.N,ESP_IO7*%
X116690000Y-82500000D03*
X115720000Y-93210000D03*
%TO.N,ESP_IO15*%
X118510000Y-95480000D03*
X121690000Y-83720000D03*
%TO.N,ESP_IO16*%
X116530000Y-84840000D03*
X119800000Y-96560000D03*
%TO.N,ESP_IO8*%
X112660000Y-98210000D03*
X117150000Y-87600000D03*
%TO.N,ESP_IO3*%
X148360000Y-74540000D03*
X123150000Y-90580000D03*
%TO.N,ESP_IO9*%
X123060000Y-94570000D03*
X112590000Y-100380000D03*
%TO.N,SPEAK+*%
X124540000Y-101640000D03*
X122890000Y-96920000D03*
%TO.N,SPEAK-*%
X122370000Y-104120000D03*
X123340000Y-100300000D03*
%TO.N,ESP_EN*%
X116660000Y-77300000D03*
X140290000Y-62560000D03*
X114390000Y-77270000D03*
%TO.N,ESP_RX*%
X138800000Y-78630000D03*
X133500000Y-78630000D03*
%TO.N,ESP_TX*%
X132970000Y-79890000D03*
X138370000Y-80210000D03*
%TO.N,ESP_IO0*%
X134130000Y-90390000D03*
%TD*%
%TO.N,Slide_s_2*%
D29*
X123940000Y-97740000D02*
X124000000Y-97680000D01*
X146360000Y-59890000D02*
X146490000Y-60020000D01*
X123940000Y-99440000D02*
X123940000Y-97740000D01*
X126350000Y-103950000D02*
X123940000Y-103950000D01*
X123940000Y-103950000D02*
X123940000Y-99440000D01*
X123351471Y-99440000D02*
X123940000Y-99440000D01*
X122740000Y-100051471D02*
X123351471Y-99440000D01*
X146490000Y-60020000D02*
X146490000Y-63560000D01*
X122740000Y-101700000D02*
X122740000Y-100051471D01*
X140760000Y-64920000D02*
X146330000Y-64920000D01*
X126440000Y-103860000D02*
X126350000Y-103950000D01*
X138700000Y-70380000D02*
X138700000Y-70420000D01*
X146330000Y-64920000D02*
X146420000Y-65010000D01*
X140700000Y-68380000D02*
X138700000Y-70380000D01*
%TO.N,GND*%
X119110000Y-97320000D02*
X119110000Y-92220000D01*
X179350000Y-92010000D02*
X179350000Y-101110000D01*
X146490000Y-91390000D02*
X153260000Y-91390000D01*
X119110000Y-92220000D02*
X122460000Y-88870000D01*
X171800000Y-101110000D02*
X169990000Y-101110000D01*
X169990000Y-101110000D02*
X169580000Y-100700000D01*
X112740000Y-78350000D02*
X113580000Y-79190000D01*
X123950000Y-78970000D02*
X124620000Y-79640000D01*
X122460000Y-88870000D02*
X122460000Y-78970000D01*
X139600000Y-74640000D02*
X133970000Y-74640000D01*
X121190000Y-78970000D02*
X122460000Y-78970000D01*
X173150000Y-102460000D02*
X171800000Y-101110000D01*
X122460000Y-78970000D02*
X123950000Y-78970000D01*
X178000000Y-102460000D02*
X173150000Y-102460000D01*
X179350000Y-101110000D02*
X178000000Y-102460000D01*
X120970000Y-79190000D02*
X121190000Y-78970000D01*
X146180000Y-91700000D02*
X146490000Y-91390000D01*
X113580000Y-79190000D02*
X120970000Y-79190000D01*
X171800000Y-101110000D02*
X171800000Y-92010000D01*
%TO.N,3V3*%
X114101471Y-76140000D02*
X116630000Y-76140000D01*
X116680000Y-61770000D02*
X116680000Y-76090000D01*
X112140000Y-79800000D02*
X112140000Y-78101471D01*
X116680000Y-76090000D02*
X116630000Y-76140000D01*
X143300000Y-68820000D02*
X143540000Y-68580000D01*
X112590000Y-80250000D02*
X112140000Y-79800000D01*
X143540000Y-68580000D02*
X147410000Y-68580000D01*
X112140000Y-78101471D02*
X114101471Y-76140000D01*
%TO.N,ESP_IO10*%
X128440000Y-100020000D02*
X124710000Y-96290000D01*
X128440000Y-103250000D02*
X128440000Y-100020000D01*
%TO.N,Net-(U4-~{SD_MODE})*%
X129800000Y-102738529D02*
X129800000Y-99920000D01*
X118970000Y-104040000D02*
X120780000Y-104040000D01*
X117470000Y-101370000D02*
X117470000Y-102740000D01*
X117470000Y-102740000D02*
X118870000Y-104140000D01*
X128688529Y-103850000D02*
X129800000Y-102738529D01*
X118870000Y-104140000D02*
X118970000Y-104040000D01*
X127450000Y-103108529D02*
X128191471Y-103850000D01*
X127450000Y-102900000D02*
X127450000Y-103108529D01*
X128191471Y-103850000D02*
X128688529Y-103850000D01*
%TO.N,ESP_IO4*%
X114240000Y-78540000D02*
X116610000Y-78540000D01*
X116610000Y-78540000D02*
X116660000Y-78590000D01*
%TO.N,ESP_IO5*%
X116500000Y-79970000D02*
X116560000Y-79910000D01*
X114210000Y-79970000D02*
X116500000Y-79970000D01*
%TO.N,ESP_IO6*%
X116540000Y-81300000D02*
X116600000Y-81240000D01*
X114400000Y-81300000D02*
X116540000Y-81300000D01*
%TO.N,ESP_IO7*%
X115720000Y-93210000D02*
X115720000Y-83470000D01*
X115720000Y-83470000D02*
X116690000Y-82500000D01*
%TO.N,ESP_IO15*%
X118510000Y-95480000D02*
X118510000Y-86900000D01*
X118510000Y-86900000D02*
X121690000Y-83720000D01*
%TO.N,ESP_IO16*%
X119358529Y-97920000D02*
X118861471Y-97920000D01*
X118861471Y-97920000D02*
X116530000Y-95588529D01*
X116530000Y-95588529D02*
X116530000Y-84840000D01*
X119800000Y-97478529D02*
X119358529Y-97920000D01*
X119800000Y-96560000D02*
X119800000Y-97478529D01*
%TO.N,ESP_IO8*%
X112660000Y-98210000D02*
X112660000Y-85681471D01*
X116441471Y-81900000D02*
X116938529Y-81900000D01*
X116938529Y-81900000D02*
X117290000Y-82251471D01*
X117290000Y-87460000D02*
X117150000Y-87600000D01*
X112660000Y-85681471D02*
X116441471Y-81900000D01*
X117290000Y-82251471D02*
X117290000Y-87460000D01*
%TO.N,ESP_IO3*%
X132320000Y-90580000D02*
X123150000Y-90580000D01*
X148360000Y-74540000D02*
X132320000Y-90580000D01*
%TO.N,ESP_IO9*%
X117464215Y-100380000D02*
X123060000Y-94784215D01*
X112590000Y-100380000D02*
X117464215Y-100380000D01*
X123060000Y-94784215D02*
X123060000Y-94570000D01*
%TO.N,SPEAK+*%
X124600000Y-97431471D02*
X124600000Y-101580000D01*
X124088529Y-96920000D02*
X124600000Y-97431471D01*
X124600000Y-101580000D02*
X124540000Y-101640000D01*
X122890000Y-96920000D02*
X124088529Y-96920000D01*
%TO.N,SPEAK-*%
X123340000Y-103150000D02*
X123340000Y-100300000D01*
X122370000Y-104120000D02*
X123340000Y-103150000D01*
%TO.N,ESP_EN*%
X171860000Y-89020000D02*
X168698529Y-89020000D01*
X114390000Y-77270000D02*
X116630000Y-77270000D01*
X174850000Y-92010000D02*
X174850000Y-101110000D01*
X140160000Y-62690000D02*
X140290000Y-62560000D01*
X140160000Y-65168529D02*
X140160000Y-62690000D01*
X145198529Y-65520000D02*
X140511471Y-65520000D01*
X116630000Y-77270000D02*
X116660000Y-77300000D01*
X174850000Y-92010000D02*
X171860000Y-89020000D01*
X168698529Y-89020000D02*
X145198529Y-65520000D01*
X140511471Y-65520000D02*
X140160000Y-65168529D01*
%TO.N,ESP_RX*%
X138800000Y-78630000D02*
X133500000Y-78630000D01*
%TO.N,ESP_TX*%
X133290000Y-80210000D02*
X132970000Y-79890000D01*
X138370000Y-80210000D02*
X133290000Y-80210000D01*
%TO.N,ESP_IO0*%
X134130000Y-90390000D02*
X134192000Y-90328000D01*
X134192000Y-90328000D02*
X165618000Y-90328000D01*
X165618000Y-90328000D02*
X167300000Y-92010000D01*
X167300000Y-101110000D02*
X167300000Y-92010000D01*
%TD*%
%TA.AperFunction,Conductor*%
%TO.N,GND*%
G36*
X191682702Y-54270617D02*
G01*
X192066773Y-54287386D01*
X192077505Y-54288326D01*
X192455963Y-54338150D01*
X192466601Y-54340025D01*
X192839279Y-54422647D01*
X192849720Y-54425445D01*
X193213765Y-54540227D01*
X193223911Y-54543920D01*
X193576578Y-54690000D01*
X193586369Y-54694566D01*
X193791138Y-54801162D01*
X193924942Y-54870816D01*
X193934310Y-54876224D01*
X194256244Y-55081318D01*
X194265105Y-55087523D01*
X194567930Y-55319889D01*
X194576217Y-55326843D01*
X194857635Y-55584715D01*
X194865284Y-55592364D01*
X195123156Y-55873782D01*
X195130110Y-55882069D01*
X195362476Y-56184894D01*
X195368681Y-56193755D01*
X195573775Y-56515689D01*
X195579183Y-56525057D01*
X195755430Y-56863623D01*
X195760002Y-56873427D01*
X195906075Y-57226078D01*
X195909775Y-57236244D01*
X196024553Y-57600276D01*
X196027353Y-57610724D01*
X196109972Y-57983390D01*
X196111850Y-57994044D01*
X196161671Y-58372472D01*
X196162614Y-58383248D01*
X196179382Y-58767297D01*
X196179500Y-58772706D01*
X196179500Y-66757528D01*
X196159815Y-66824567D01*
X196107011Y-66870322D01*
X196037853Y-66880266D01*
X195974297Y-66851241D01*
X195940939Y-66804981D01*
X195893227Y-66689794D01*
X195893222Y-66689785D01*
X195771936Y-66479711D01*
X195624265Y-66287262D01*
X195624260Y-66287256D01*
X195452743Y-66115739D01*
X195452736Y-66115733D01*
X195260293Y-65968067D01*
X195260292Y-65968066D01*
X195260289Y-65968064D01*
X195050212Y-65846776D01*
X195050205Y-65846773D01*
X194826104Y-65753947D01*
X194708944Y-65722554D01*
X194591789Y-65691162D01*
X194591788Y-65691161D01*
X194591785Y-65691161D01*
X194351289Y-65659500D01*
X194351288Y-65659500D01*
X194108712Y-65659500D01*
X194108711Y-65659500D01*
X193868214Y-65691161D01*
X193633895Y-65753947D01*
X193409794Y-65846773D01*
X193409785Y-65846777D01*
X193199706Y-65968067D01*
X193007263Y-66115733D01*
X193007256Y-66115739D01*
X192835739Y-66287256D01*
X192835733Y-66287263D01*
X192688067Y-66479706D01*
X192566777Y-66689785D01*
X192566773Y-66689794D01*
X192473947Y-66913895D01*
X192411161Y-67148214D01*
X192379500Y-67388711D01*
X192379500Y-67631288D01*
X192411161Y-67871785D01*
X192473947Y-68106104D01*
X192558284Y-68309711D01*
X192566776Y-68330212D01*
X192688064Y-68540289D01*
X192688066Y-68540292D01*
X192688067Y-68540293D01*
X192835733Y-68732736D01*
X192835739Y-68732743D01*
X193007256Y-68904260D01*
X193007262Y-68904265D01*
X193199711Y-69051936D01*
X193409788Y-69173224D01*
X193633900Y-69266054D01*
X193868211Y-69328838D01*
X194026965Y-69349738D01*
X194108711Y-69360500D01*
X194108712Y-69360500D01*
X194351289Y-69360500D01*
X194399388Y-69354167D01*
X194591789Y-69328838D01*
X194826100Y-69266054D01*
X195050212Y-69173224D01*
X195260289Y-69051936D01*
X195452738Y-68904265D01*
X195624265Y-68732738D01*
X195771936Y-68540289D01*
X195893224Y-68330212D01*
X195940939Y-68215018D01*
X195984780Y-68160615D01*
X196051074Y-68138550D01*
X196118773Y-68155829D01*
X196166384Y-68206966D01*
X196179500Y-68262471D01*
X196179500Y-70795500D01*
X196159815Y-70862539D01*
X196107011Y-70908294D01*
X196055500Y-70919500D01*
X193272129Y-70919500D01*
X193272123Y-70919501D01*
X193212516Y-70925908D01*
X193077671Y-70976202D01*
X193077664Y-70976206D01*
X192962455Y-71062452D01*
X192962452Y-71062455D01*
X192876206Y-71177664D01*
X192876202Y-71177671D01*
X192825908Y-71312517D01*
X192819501Y-71372116D01*
X192819501Y-71372123D01*
X192819500Y-71372135D01*
X192819500Y-74267870D01*
X192819501Y-74267876D01*
X192825908Y-74327483D01*
X192876202Y-74462328D01*
X192876206Y-74462335D01*
X192962452Y-74577544D01*
X192962455Y-74577547D01*
X193077664Y-74663793D01*
X193077671Y-74663797D01*
X193212517Y-74714091D01*
X193212516Y-74714091D01*
X193219444Y-74714835D01*
X193272127Y-74720500D01*
X196055500Y-74720499D01*
X196122539Y-74740184D01*
X196168294Y-74792987D01*
X196179500Y-74844499D01*
X196179500Y-84995500D01*
X196159815Y-85062539D01*
X196107011Y-85108294D01*
X196055500Y-85119500D01*
X193272129Y-85119500D01*
X193272123Y-85119501D01*
X193212516Y-85125908D01*
X193077671Y-85176202D01*
X193077664Y-85176206D01*
X192962455Y-85262452D01*
X192962452Y-85262455D01*
X192876206Y-85377664D01*
X192876203Y-85377670D01*
X192825908Y-85512517D01*
X192819501Y-85572116D01*
X192819500Y-85572135D01*
X192819500Y-88467870D01*
X192819501Y-88467876D01*
X192825908Y-88527483D01*
X192876202Y-88662328D01*
X192876206Y-88662335D01*
X192962452Y-88777544D01*
X192962455Y-88777547D01*
X193077664Y-88863793D01*
X193077671Y-88863797D01*
X193212517Y-88914091D01*
X193212516Y-88914091D01*
X193219444Y-88914835D01*
X193272127Y-88920500D01*
X196055500Y-88920499D01*
X196122539Y-88940184D01*
X196168294Y-88992987D01*
X196179500Y-89044499D01*
X196179500Y-100207293D01*
X196179382Y-100212702D01*
X196162614Y-100596751D01*
X196161671Y-100607527D01*
X196111850Y-100985955D01*
X196109972Y-100996609D01*
X196027353Y-101369275D01*
X196024553Y-101379723D01*
X195909775Y-101743755D01*
X195906075Y-101753921D01*
X195760002Y-102106572D01*
X195755430Y-102116376D01*
X195579183Y-102454942D01*
X195573775Y-102464310D01*
X195368681Y-102786244D01*
X195362476Y-102795105D01*
X195130110Y-103097930D01*
X195123156Y-103106217D01*
X194865284Y-103387635D01*
X194857635Y-103395284D01*
X194576217Y-103653156D01*
X194567930Y-103660110D01*
X194265105Y-103892476D01*
X194256244Y-103898681D01*
X193934310Y-104103775D01*
X193924942Y-104109183D01*
X193586376Y-104285430D01*
X193576572Y-104290002D01*
X193223921Y-104436075D01*
X193213755Y-104439775D01*
X192849723Y-104554553D01*
X192839275Y-104557353D01*
X192466609Y-104639972D01*
X192455955Y-104641850D01*
X192077527Y-104691671D01*
X192066751Y-104692614D01*
X191682703Y-104709382D01*
X191677294Y-104709500D01*
X127018269Y-104709500D01*
X126951230Y-104689815D01*
X126905475Y-104637011D01*
X126895531Y-104567853D01*
X126924556Y-104504297D01*
X126945626Y-104485707D01*
X126945581Y-104485653D01*
X126947119Y-104484390D01*
X126949379Y-104482397D01*
X126950289Y-104481789D01*
X127061789Y-104370289D01*
X127149394Y-104239179D01*
X127159669Y-104214374D01*
X127173168Y-104181784D01*
X127209737Y-104093497D01*
X127226861Y-104007409D01*
X127259244Y-103945502D01*
X127319959Y-103910927D01*
X127389729Y-103914666D01*
X127436158Y-103943922D01*
X127706610Y-104214374D01*
X127706620Y-104214385D01*
X127710950Y-104218715D01*
X127710951Y-104218716D01*
X127822755Y-104330520D01*
X127822757Y-104330521D01*
X127822761Y-104330524D01*
X127894490Y-104371936D01*
X127959687Y-104409577D01*
X128060035Y-104436465D01*
X128112413Y-104450500D01*
X128112414Y-104450500D01*
X128601860Y-104450500D01*
X128601876Y-104450501D01*
X128609472Y-104450501D01*
X128767583Y-104450501D01*
X128767586Y-104450501D01*
X128920314Y-104409577D01*
X128997045Y-104365276D01*
X129057245Y-104330520D01*
X129169049Y-104218716D01*
X129169049Y-104218714D01*
X129179253Y-104208511D01*
X129179257Y-104208506D01*
X130158506Y-103229257D01*
X130158511Y-103229253D01*
X130168714Y-103219049D01*
X130168716Y-103219049D01*
X130280520Y-103107245D01*
X130359577Y-102970313D01*
X130389534Y-102858510D01*
X130400500Y-102817587D01*
X130400500Y-102659472D01*
X130400500Y-100499765D01*
X130420185Y-100432726D01*
X130421398Y-100430874D01*
X130509390Y-100299185D01*
X130509390Y-100299184D01*
X130509394Y-100299179D01*
X130569737Y-100153497D01*
X130600500Y-99998842D01*
X130600500Y-99841158D01*
X130600500Y-99841155D01*
X130600499Y-99841153D01*
X130596229Y-99819686D01*
X130569737Y-99686503D01*
X130555149Y-99651284D01*
X130509397Y-99540827D01*
X130509390Y-99540814D01*
X130421789Y-99409711D01*
X130421786Y-99409707D01*
X130310292Y-99298213D01*
X130310288Y-99298210D01*
X130179185Y-99210609D01*
X130179172Y-99210602D01*
X130033501Y-99150264D01*
X130033489Y-99150261D01*
X129878845Y-99119500D01*
X129878842Y-99119500D01*
X129721158Y-99119500D01*
X129721155Y-99119500D01*
X129566510Y-99150261D01*
X129566498Y-99150264D01*
X129420827Y-99210602D01*
X129420814Y-99210609D01*
X129289711Y-99298210D01*
X129289707Y-99298213D01*
X129178213Y-99409707D01*
X129178210Y-99409711D01*
X129090609Y-99540814D01*
X129090604Y-99540823D01*
X129079451Y-99567749D01*
X129035608Y-99622151D01*
X128969313Y-99644214D01*
X128901614Y-99626933D01*
X128877210Y-99607974D01*
X125861769Y-96592533D01*
X135544500Y-96592533D01*
X135544500Y-97107467D01*
X135557497Y-97189525D01*
X135578124Y-97319756D01*
X135578124Y-97319759D01*
X135644540Y-97524167D01*
X135644541Y-97524170D01*
X135732684Y-97697159D01*
X135742120Y-97715678D01*
X135868455Y-97889563D01*
X136020437Y-98041545D01*
X136194322Y-98167880D01*
X136288251Y-98215739D01*
X136385829Y-98265458D01*
X136385832Y-98265459D01*
X136576494Y-98327408D01*
X136590245Y-98331876D01*
X136802533Y-98365500D01*
X136802534Y-98365500D01*
X137017466Y-98365500D01*
X137017467Y-98365500D01*
X137229755Y-98331876D01*
X137229758Y-98331875D01*
X137229759Y-98331875D01*
X137434167Y-98265459D01*
X137434170Y-98265458D01*
X137474743Y-98244785D01*
X137625678Y-98167880D01*
X137799563Y-98041545D01*
X137951545Y-97889563D01*
X138077880Y-97715678D01*
X138077879Y-97715678D01*
X138079682Y-97713198D01*
X138135012Y-97670532D01*
X138204625Y-97664553D01*
X138266420Y-97697159D01*
X138280318Y-97713198D01*
X138373474Y-97841416D01*
X138408455Y-97889563D01*
X138560437Y-98041545D01*
X138734322Y-98167880D01*
X138828251Y-98215739D01*
X138925829Y-98265458D01*
X138925832Y-98265459D01*
X139116494Y-98327408D01*
X139130245Y-98331876D01*
X139342533Y-98365500D01*
X139342534Y-98365500D01*
X139557466Y-98365500D01*
X139557467Y-98365500D01*
X139769755Y-98331876D01*
X139769758Y-98331875D01*
X139769759Y-98331875D01*
X139974167Y-98265459D01*
X139974170Y-98265458D01*
X140014743Y-98244785D01*
X140165678Y-98167880D01*
X140339563Y-98041545D01*
X140491545Y-97889563D01*
X140617880Y-97715678D01*
X140617881Y-97715675D01*
X140619990Y-97712773D01*
X140675320Y-97670107D01*
X140744933Y-97664128D01*
X140806728Y-97696734D01*
X140820626Y-97712772D01*
X140948838Y-97889239D01*
X140948838Y-97889240D01*
X141100759Y-98041161D01*
X141274583Y-98167452D01*
X141466024Y-98264996D01*
X141670359Y-98331388D01*
X141739999Y-98342418D01*
X141740000Y-98342418D01*
X141740000Y-97294560D01*
X141793147Y-97325245D01*
X141922857Y-97360000D01*
X142057143Y-97360000D01*
X142186853Y-97325245D01*
X142240000Y-97294560D01*
X142240000Y-98342418D01*
X142309638Y-98331388D01*
X142309641Y-98331388D01*
X142513975Y-98264996D01*
X142705416Y-98167452D01*
X142879236Y-98041164D01*
X142973896Y-97946504D01*
X143035219Y-97913019D01*
X143104911Y-97918003D01*
X143160845Y-97959874D01*
X143177760Y-97990852D01*
X143221202Y-98107328D01*
X143221206Y-98107335D01*
X143307452Y-98222544D01*
X143307455Y-98222547D01*
X143422664Y-98308793D01*
X143422671Y-98308797D01*
X143557517Y-98359091D01*
X143557516Y-98359091D01*
X143564444Y-98359835D01*
X143617127Y-98365500D01*
X145442872Y-98365499D01*
X145502483Y-98359091D01*
X145637331Y-98308796D01*
X145752546Y-98222546D01*
X145838796Y-98107331D01*
X145889091Y-97972483D01*
X145895500Y-97912873D01*
X145895499Y-95787128D01*
X145889091Y-95727517D01*
X145884183Y-95714359D01*
X145838797Y-95592671D01*
X145838793Y-95592664D01*
X145752547Y-95477455D01*
X145752544Y-95477452D01*
X145637335Y-95391206D01*
X145637328Y-95391202D01*
X145502482Y-95340908D01*
X145502483Y-95340908D01*
X145442883Y-95334501D01*
X145442881Y-95334500D01*
X145442873Y-95334500D01*
X145442864Y-95334500D01*
X143617129Y-95334500D01*
X143617123Y-95334501D01*
X143557516Y-95340908D01*
X143422671Y-95391202D01*
X143422664Y-95391206D01*
X143307455Y-95477452D01*
X143307452Y-95477455D01*
X143221206Y-95592664D01*
X143221202Y-95592671D01*
X143177760Y-95709147D01*
X143135889Y-95765081D01*
X143070425Y-95789498D01*
X143002152Y-95774646D01*
X142973897Y-95753495D01*
X142879240Y-95658838D01*
X142705416Y-95532547D01*
X142513975Y-95435003D01*
X142309635Y-95368610D01*
X142309636Y-95368610D01*
X142240000Y-95357581D01*
X142240000Y-96405439D01*
X142186853Y-96374755D01*
X142057143Y-96340000D01*
X141922857Y-96340000D01*
X141793147Y-96374755D01*
X141740000Y-96405439D01*
X141740000Y-95357581D01*
X141670364Y-95368610D01*
X141466024Y-95435003D01*
X141274583Y-95532547D01*
X141100759Y-95658838D01*
X140948838Y-95810759D01*
X140948838Y-95810760D01*
X140820626Y-95987227D01*
X140765296Y-96029892D01*
X140695682Y-96035871D01*
X140633887Y-96003265D01*
X140619990Y-95987226D01*
X140520732Y-95850609D01*
X140491545Y-95810437D01*
X140339563Y-95658455D01*
X140165678Y-95532120D01*
X140154063Y-95526202D01*
X140035725Y-95465905D01*
X139984929Y-95417930D01*
X139968134Y-95350109D01*
X139990672Y-95283974D01*
X140004333Y-95267744D01*
X140071789Y-95200289D01*
X140159394Y-95069179D01*
X140219737Y-94923497D01*
X140250500Y-94768842D01*
X140250500Y-94611158D01*
X140250500Y-94611155D01*
X140250499Y-94611153D01*
X140226630Y-94491158D01*
X140219737Y-94456503D01*
X140202394Y-94414632D01*
X140159397Y-94310827D01*
X140159390Y-94310814D01*
X140071789Y-94179711D01*
X140071786Y-94179707D01*
X139960292Y-94068213D01*
X139960288Y-94068210D01*
X139829185Y-93980609D01*
X139829172Y-93980602D01*
X139731939Y-93940328D01*
X139683497Y-93920263D01*
X139683489Y-93920261D01*
X139528845Y-93889500D01*
X139528842Y-93889500D01*
X139371158Y-93889500D01*
X139371155Y-93889500D01*
X139216510Y-93920261D01*
X139216498Y-93920264D01*
X139070827Y-93980602D01*
X139070814Y-93980609D01*
X138939711Y-94068210D01*
X138939707Y-94068213D01*
X138828213Y-94179707D01*
X138828210Y-94179711D01*
X138740609Y-94310814D01*
X138740602Y-94310827D01*
X138680264Y-94456498D01*
X138680261Y-94456510D01*
X138649500Y-94611153D01*
X138649500Y-94768846D01*
X138680261Y-94923489D01*
X138680264Y-94923501D01*
X138740602Y-95069172D01*
X138740609Y-95069185D01*
X138828210Y-95200288D01*
X138828213Y-95200292D01*
X138895660Y-95267739D01*
X138929145Y-95329062D01*
X138924161Y-95398754D01*
X138882289Y-95454687D01*
X138864275Y-95465904D01*
X138734323Y-95532118D01*
X138612678Y-95620499D01*
X138560437Y-95658455D01*
X138560435Y-95658457D01*
X138560434Y-95658457D01*
X138408457Y-95810434D01*
X138408457Y-95810435D01*
X138408455Y-95810437D01*
X138339494Y-95905354D01*
X138280318Y-95986802D01*
X138224988Y-96029467D01*
X138155374Y-96035446D01*
X138093579Y-96002840D01*
X138079682Y-95986802D01*
X138044378Y-95938211D01*
X137951545Y-95810437D01*
X137799563Y-95658455D01*
X137625678Y-95532120D01*
X137602409Y-95520264D01*
X137434170Y-95434541D01*
X137434167Y-95434540D01*
X137229757Y-95368124D01*
X137088229Y-95345708D01*
X137017467Y-95334500D01*
X136802533Y-95334500D01*
X136731770Y-95345708D01*
X136590243Y-95368124D01*
X136590240Y-95368124D01*
X136385832Y-95434540D01*
X136385829Y-95434541D01*
X136194321Y-95532120D01*
X136110981Y-95592671D01*
X136020437Y-95658455D01*
X136020435Y-95658457D01*
X136020434Y-95658457D01*
X135868457Y-95810434D01*
X135868457Y-95810435D01*
X135868455Y-95810437D01*
X135830617Y-95862517D01*
X135742120Y-95984321D01*
X135644541Y-96175829D01*
X135644540Y-96175832D01*
X135578124Y-96380240D01*
X135578124Y-96380243D01*
X135555708Y-96521770D01*
X135544500Y-96592533D01*
X125861769Y-96592533D01*
X125544573Y-96275337D01*
X125511088Y-96214014D01*
X125510637Y-96211847D01*
X125507329Y-96195215D01*
X125479737Y-96056503D01*
X125471015Y-96035446D01*
X125419397Y-95910827D01*
X125419390Y-95910814D01*
X125331789Y-95779711D01*
X125331786Y-95779707D01*
X125220292Y-95668213D01*
X125220288Y-95668210D01*
X125089185Y-95580609D01*
X125089172Y-95580602D01*
X124943501Y-95520264D01*
X124943489Y-95520261D01*
X124788845Y-95489500D01*
X124788842Y-95489500D01*
X124631158Y-95489500D01*
X124631155Y-95489500D01*
X124476510Y-95520261D01*
X124476498Y-95520264D01*
X124330827Y-95580602D01*
X124330814Y-95580609D01*
X124199711Y-95668210D01*
X124199707Y-95668213D01*
X124088213Y-95779707D01*
X124088210Y-95779711D01*
X124000609Y-95910814D01*
X124000602Y-95910827D01*
X123940264Y-96056498D01*
X123940261Y-96056510D01*
X123908311Y-96217132D01*
X123906187Y-96216709D01*
X123883685Y-96272440D01*
X123826651Y-96312800D01*
X123786442Y-96319500D01*
X123469766Y-96319500D01*
X123402727Y-96299815D01*
X123400875Y-96298602D01*
X123269185Y-96210609D01*
X123269172Y-96210602D01*
X123123501Y-96150264D01*
X123123489Y-96150261D01*
X122968845Y-96119500D01*
X122968842Y-96119500D01*
X122873311Y-96119500D01*
X122806272Y-96099815D01*
X122760517Y-96047011D01*
X122750573Y-95977853D01*
X122779598Y-95914297D01*
X122785630Y-95907819D01*
X123080998Y-95612451D01*
X123378851Y-95314597D01*
X123419079Y-95287719D01*
X123439179Y-95279394D01*
X123570289Y-95191789D01*
X123681789Y-95080289D01*
X123769394Y-94949179D01*
X123829737Y-94803497D01*
X123860500Y-94648842D01*
X123860500Y-94491158D01*
X123860500Y-94491155D01*
X123860499Y-94491153D01*
X123829738Y-94336510D01*
X123829737Y-94336503D01*
X123819096Y-94310814D01*
X123769397Y-94190827D01*
X123769390Y-94190814D01*
X123681789Y-94059711D01*
X123681786Y-94059707D01*
X123570292Y-93948213D01*
X123570288Y-93948210D01*
X123439185Y-93860609D01*
X123439172Y-93860602D01*
X123293501Y-93800264D01*
X123293489Y-93800261D01*
X123138845Y-93769500D01*
X123138842Y-93769500D01*
X122981158Y-93769500D01*
X122981155Y-93769500D01*
X122826510Y-93800261D01*
X122826498Y-93800264D01*
X122680827Y-93860602D01*
X122680814Y-93860609D01*
X122549711Y-93948210D01*
X122549707Y-93948213D01*
X122438213Y-94059707D01*
X122438210Y-94059711D01*
X122350609Y-94190814D01*
X122350602Y-94190827D01*
X122290264Y-94336498D01*
X122290261Y-94336510D01*
X122259500Y-94491153D01*
X122259500Y-94648843D01*
X122260943Y-94656097D01*
X122254716Y-94725689D01*
X122227007Y-94767971D01*
X120729881Y-96265097D01*
X120668558Y-96298582D01*
X120598866Y-96293598D01*
X120542933Y-96251726D01*
X120527639Y-96224868D01*
X120509397Y-96180826D01*
X120509390Y-96180814D01*
X120421789Y-96049711D01*
X120421786Y-96049707D01*
X120310292Y-95938213D01*
X120310288Y-95938210D01*
X120179185Y-95850609D01*
X120179172Y-95850602D01*
X120033501Y-95790264D01*
X120033489Y-95790261D01*
X119878845Y-95759500D01*
X119878842Y-95759500D01*
X119721158Y-95759500D01*
X119721155Y-95759500D01*
X119566510Y-95790261D01*
X119566498Y-95790264D01*
X119451675Y-95837825D01*
X119382205Y-95845294D01*
X119319726Y-95814018D01*
X119284075Y-95753929D01*
X119282606Y-95699072D01*
X119287028Y-95676845D01*
X119299836Y-95612454D01*
X119310500Y-95558844D01*
X119310500Y-95401155D01*
X119310499Y-95401153D01*
X119300165Y-95349201D01*
X119279737Y-95246503D01*
X119258275Y-95194689D01*
X119219397Y-95100827D01*
X119219390Y-95100814D01*
X119131398Y-94969125D01*
X119110520Y-94902447D01*
X119110500Y-94900234D01*
X119110500Y-90501153D01*
X122349500Y-90501153D01*
X122349500Y-90658846D01*
X122380261Y-90813489D01*
X122380264Y-90813501D01*
X122440602Y-90959172D01*
X122440609Y-90959185D01*
X122528210Y-91090288D01*
X122528213Y-91090292D01*
X122639707Y-91201786D01*
X122639711Y-91201789D01*
X122770814Y-91289390D01*
X122770827Y-91289397D01*
X122916498Y-91349735D01*
X122916503Y-91349737D01*
X123071153Y-91380499D01*
X123071156Y-91380500D01*
X123071158Y-91380500D01*
X123228844Y-91380500D01*
X123228845Y-91380499D01*
X123383497Y-91349737D01*
X123529179Y-91289394D01*
X123529185Y-91289390D01*
X123660875Y-91201398D01*
X123727553Y-91180520D01*
X123729766Y-91180500D01*
X132233331Y-91180500D01*
X132233347Y-91180501D01*
X132240943Y-91180501D01*
X132399054Y-91180501D01*
X132399057Y-91180501D01*
X132551785Y-91139577D01*
X132601904Y-91110639D01*
X132688716Y-91060520D01*
X132800520Y-90948716D01*
X132800520Y-90948714D01*
X132810728Y-90938507D01*
X132810729Y-90938504D01*
X133160349Y-90588885D01*
X133221671Y-90555401D01*
X133291363Y-90560385D01*
X133347296Y-90602257D01*
X133362590Y-90629115D01*
X133420602Y-90769172D01*
X133420609Y-90769185D01*
X133508210Y-90900288D01*
X133508213Y-90900292D01*
X133619707Y-91011786D01*
X133619711Y-91011789D01*
X133750814Y-91099390D01*
X133750827Y-91099397D01*
X133848853Y-91140000D01*
X133896503Y-91159737D01*
X134051153Y-91190499D01*
X134051156Y-91190500D01*
X134051158Y-91190500D01*
X134208844Y-91190500D01*
X134208845Y-91190499D01*
X134363497Y-91159737D01*
X134509179Y-91099394D01*
X134640289Y-91011789D01*
X134687258Y-90964820D01*
X134748581Y-90931334D01*
X134774940Y-90928500D01*
X151874000Y-90928500D01*
X151941039Y-90948185D01*
X151986794Y-91000989D01*
X151998000Y-91052500D01*
X151998000Y-91140000D01*
X152876409Y-91140000D01*
X152833958Y-91213527D01*
X152802800Y-91329808D01*
X152802800Y-91450192D01*
X152833958Y-91566473D01*
X152876409Y-91640000D01*
X151998000Y-91640000D01*
X151998000Y-92199844D01*
X152004401Y-92259372D01*
X152004403Y-92259379D01*
X152054645Y-92394086D01*
X152054649Y-92394093D01*
X152140809Y-92509187D01*
X152140812Y-92509190D01*
X152255906Y-92595350D01*
X152255913Y-92595354D01*
X152390620Y-92645596D01*
X152390627Y-92645598D01*
X152450155Y-92651999D01*
X152450172Y-92652000D01*
X152489490Y-92652000D01*
X152556529Y-92671685D01*
X152602284Y-92724489D01*
X152612228Y-92793647D01*
X152583203Y-92857203D01*
X152562375Y-92876318D01*
X152437539Y-92967016D01*
X152437533Y-92967021D01*
X152297021Y-93107533D01*
X152180213Y-93268305D01*
X152089994Y-93445367D01*
X152089993Y-93445370D01*
X152028587Y-93634362D01*
X151997500Y-93830639D01*
X151997500Y-94029360D01*
X152028587Y-94225637D01*
X152089993Y-94414629D01*
X152089994Y-94414632D01*
X152128987Y-94491158D01*
X152180213Y-94591694D01*
X152297019Y-94752464D01*
X152437536Y-94892981D01*
X152598306Y-95009787D01*
X152714855Y-95069172D01*
X152754780Y-95089515D01*
X152805576Y-95137490D01*
X152822371Y-95205311D01*
X152799833Y-95271446D01*
X152754780Y-95310485D01*
X152598305Y-95390213D01*
X152437533Y-95507021D01*
X152297021Y-95647533D01*
X152180213Y-95808305D01*
X152089994Y-95985367D01*
X152089993Y-95985370D01*
X152028587Y-96174362D01*
X151997500Y-96370639D01*
X151997500Y-96569360D01*
X152028587Y-96765637D01*
X152089993Y-96954629D01*
X152089994Y-96954632D01*
X152158916Y-97089896D01*
X152180213Y-97131694D01*
X152297019Y-97292464D01*
X152437536Y-97432981D01*
X152598306Y-97549787D01*
X152685149Y-97594035D01*
X152775367Y-97640005D01*
X152775370Y-97640006D01*
X152868013Y-97670107D01*
X152964364Y-97701413D01*
X153160639Y-97732500D01*
X153160640Y-97732500D01*
X153359360Y-97732500D01*
X153359361Y-97732500D01*
X153555636Y-97701413D01*
X153744632Y-97640005D01*
X153921694Y-97549787D01*
X154082464Y-97432981D01*
X154222981Y-97292464D01*
X154339787Y-97131694D01*
X154430005Y-96954632D01*
X154491413Y-96765636D01*
X154522500Y-96569361D01*
X154522500Y-96370639D01*
X154491413Y-96174364D01*
X154430005Y-95985368D01*
X154430005Y-95985367D01*
X154382608Y-95892346D01*
X154339787Y-95808306D01*
X154222981Y-95647536D01*
X154082464Y-95507019D01*
X153921694Y-95390213D01*
X153765218Y-95310484D01*
X153714423Y-95262510D01*
X153697628Y-95194689D01*
X153720165Y-95128554D01*
X153765218Y-95089515D01*
X153921694Y-95009787D01*
X154082464Y-94892981D01*
X154222981Y-94752464D01*
X154339787Y-94591694D01*
X154430005Y-94414632D01*
X154491413Y-94225636D01*
X154522500Y-94029361D01*
X154522500Y-93830639D01*
X154491413Y-93634364D01*
X154430005Y-93445368D01*
X154430005Y-93445367D01*
X154384035Y-93355149D01*
X154339787Y-93268306D01*
X154222981Y-93107536D01*
X154082464Y-92967019D01*
X153957625Y-92876318D01*
X153914959Y-92820988D01*
X153908980Y-92751375D01*
X153941586Y-92689580D01*
X154002424Y-92655223D01*
X154030510Y-92652000D01*
X154069828Y-92652000D01*
X154069844Y-92651999D01*
X154129372Y-92645598D01*
X154129379Y-92645596D01*
X154264086Y-92595354D01*
X154264093Y-92595350D01*
X154379187Y-92509190D01*
X154379190Y-92509187D01*
X154465350Y-92394093D01*
X154465354Y-92394086D01*
X154515596Y-92259379D01*
X154515598Y-92259372D01*
X154521999Y-92199844D01*
X154522000Y-92199827D01*
X154522000Y-91640000D01*
X153643591Y-91640000D01*
X153686042Y-91566473D01*
X153717200Y-91450192D01*
X153717200Y-91329808D01*
X153686042Y-91213527D01*
X153643591Y-91140000D01*
X154522000Y-91140000D01*
X154522000Y-91052500D01*
X154541685Y-90985461D01*
X154594489Y-90939706D01*
X154646000Y-90928500D01*
X159532334Y-90928500D01*
X159599373Y-90948185D01*
X159645128Y-91000989D01*
X159655072Y-91070147D01*
X159650267Y-91090811D01*
X159649074Y-91094480D01*
X159641865Y-91139999D01*
X159641865Y-91140000D01*
X160496409Y-91140000D01*
X160453958Y-91213527D01*
X160422800Y-91329808D01*
X160422800Y-91450192D01*
X160453958Y-91566473D01*
X160496409Y-91640000D01*
X159641865Y-91640000D01*
X159649074Y-91685517D01*
X159710456Y-91874435D01*
X159800641Y-92051432D01*
X159917403Y-92212139D01*
X159917403Y-92212140D01*
X160057859Y-92352596D01*
X160218567Y-92469358D01*
X160375331Y-92549234D01*
X160426127Y-92597209D01*
X160442922Y-92665030D01*
X160420384Y-92731165D01*
X160375331Y-92770204D01*
X160218305Y-92850213D01*
X160057533Y-92967021D01*
X159917021Y-93107533D01*
X159800213Y-93268305D01*
X159709994Y-93445367D01*
X159709993Y-93445370D01*
X159648587Y-93634362D01*
X159617500Y-93830639D01*
X159617500Y-94029360D01*
X159648587Y-94225637D01*
X159709993Y-94414629D01*
X159709994Y-94414632D01*
X159748987Y-94491158D01*
X159800213Y-94591694D01*
X159917019Y-94752464D01*
X160057536Y-94892981D01*
X160218306Y-95009787D01*
X160334855Y-95069172D01*
X160374780Y-95089515D01*
X160425576Y-95137490D01*
X160442371Y-95205311D01*
X160419833Y-95271446D01*
X160374780Y-95310485D01*
X160218305Y-95390213D01*
X160057533Y-95507021D01*
X159917021Y-95647533D01*
X159800213Y-95808305D01*
X159709994Y-95985367D01*
X159709993Y-95985370D01*
X159648587Y-96174362D01*
X159617500Y-96370639D01*
X159617500Y-96569360D01*
X159648587Y-96765637D01*
X159709993Y-96954629D01*
X159709994Y-96954632D01*
X159778916Y-97089896D01*
X159800213Y-97131694D01*
X159917019Y-97292464D01*
X160057536Y-97432981D01*
X160218306Y-97549787D01*
X160305149Y-97594035D01*
X160395367Y-97640005D01*
X160395370Y-97640006D01*
X160488013Y-97670107D01*
X160584364Y-97701413D01*
X160780639Y-97732500D01*
X160780640Y-97732500D01*
X160979360Y-97732500D01*
X160979361Y-97732500D01*
X161175636Y-97701413D01*
X161364632Y-97640005D01*
X161541694Y-97549787D01*
X161702464Y-97432981D01*
X161842981Y-97292464D01*
X161959787Y-97131694D01*
X162050005Y-96954632D01*
X162111413Y-96765636D01*
X162142500Y-96569361D01*
X162142500Y-96370639D01*
X162111413Y-96174364D01*
X162050005Y-95985368D01*
X162050005Y-95985367D01*
X162002608Y-95892346D01*
X161959787Y-95808306D01*
X161842981Y-95647536D01*
X161702464Y-95507019D01*
X161541694Y-95390213D01*
X161385218Y-95310484D01*
X161334423Y-95262510D01*
X161317628Y-95194689D01*
X161340165Y-95128554D01*
X161385218Y-95089515D01*
X161541694Y-95009787D01*
X161702464Y-94892981D01*
X161842981Y-94752464D01*
X161959787Y-94591694D01*
X162050005Y-94414632D01*
X162111413Y-94225636D01*
X162142500Y-94029361D01*
X162142500Y-93830639D01*
X162111413Y-93634364D01*
X162050005Y-93445368D01*
X162050005Y-93445367D01*
X162004035Y-93355149D01*
X161959787Y-93268306D01*
X161842981Y-93107536D01*
X161702464Y-92967019D01*
X161541694Y-92850213D01*
X161384667Y-92770203D01*
X161333872Y-92722229D01*
X161317077Y-92654408D01*
X161339614Y-92588273D01*
X161384668Y-92549234D01*
X161541432Y-92469358D01*
X161702139Y-92352596D01*
X161702140Y-92352596D01*
X161842596Y-92212140D01*
X161842596Y-92212139D01*
X161959358Y-92051432D01*
X162049543Y-91874435D01*
X162110925Y-91685517D01*
X162118134Y-91640000D01*
X161263591Y-91640000D01*
X161306042Y-91566473D01*
X161337200Y-91450192D01*
X161337200Y-91329808D01*
X161306042Y-91213527D01*
X161263591Y-91140000D01*
X162118135Y-91140000D01*
X162118134Y-91139999D01*
X162110925Y-91094480D01*
X162109733Y-91090811D01*
X162107742Y-91020970D01*
X162143826Y-90961139D01*
X162206528Y-90930315D01*
X162227666Y-90928500D01*
X165317903Y-90928500D01*
X165384942Y-90948185D01*
X165405584Y-90964819D01*
X166063181Y-91622416D01*
X166096666Y-91683739D01*
X166099500Y-91710097D01*
X166099500Y-92860001D01*
X166099501Y-92860018D01*
X166110000Y-92962796D01*
X166110001Y-92962799D01*
X166157962Y-93107533D01*
X166165186Y-93129334D01*
X166257288Y-93278656D01*
X166381344Y-93402712D01*
X166530666Y-93494814D01*
X166614505Y-93522595D01*
X166671948Y-93562366D01*
X166698772Y-93626882D01*
X166699500Y-93640300D01*
X166699500Y-99479699D01*
X166679815Y-99546738D01*
X166627011Y-99592493D01*
X166614507Y-99597403D01*
X166582608Y-99607974D01*
X166530668Y-99625185D01*
X166530663Y-99625187D01*
X166381342Y-99717289D01*
X166257289Y-99841342D01*
X166165187Y-99990663D01*
X166165185Y-99990668D01*
X166162476Y-99998844D01*
X166110001Y-100157203D01*
X166110001Y-100157204D01*
X166110000Y-100157204D01*
X166099500Y-100259983D01*
X166099500Y-101960001D01*
X166099501Y-101960018D01*
X166110000Y-102062796D01*
X166110001Y-102062799D01*
X166138993Y-102150289D01*
X166165186Y-102229334D01*
X166257288Y-102378656D01*
X166381344Y-102502712D01*
X166530666Y-102594814D01*
X166697203Y-102649999D01*
X166799991Y-102660500D01*
X167800008Y-102660499D01*
X167800016Y-102660498D01*
X167800019Y-102660498D01*
X167870188Y-102653330D01*
X167902797Y-102649999D01*
X168069334Y-102594814D01*
X168218656Y-102502712D01*
X168342712Y-102378656D01*
X168434814Y-102229334D01*
X168489999Y-102062797D01*
X168500500Y-101960009D01*
X168500500Y-101959986D01*
X170600001Y-101959986D01*
X170610494Y-102062697D01*
X170665641Y-102229119D01*
X170665643Y-102229124D01*
X170757684Y-102378345D01*
X170881654Y-102502315D01*
X171030875Y-102594356D01*
X171030880Y-102594358D01*
X171197302Y-102649505D01*
X171197309Y-102649506D01*
X171300019Y-102659999D01*
X171549999Y-102659999D01*
X172050000Y-102659999D01*
X172299972Y-102659999D01*
X172299986Y-102659998D01*
X172402697Y-102649505D01*
X172569119Y-102594358D01*
X172569124Y-102594356D01*
X172718345Y-102502315D01*
X172842315Y-102378345D01*
X172934356Y-102229124D01*
X172934358Y-102229119D01*
X172989505Y-102062697D01*
X172989506Y-102062690D01*
X172999999Y-101959986D01*
X173000000Y-101959973D01*
X173000000Y-101360000D01*
X172050000Y-101360000D01*
X172050000Y-102659999D01*
X171549999Y-102659999D01*
X171550000Y-102659998D01*
X171550000Y-101360000D01*
X170600001Y-101360000D01*
X170600001Y-101959986D01*
X168500500Y-101959986D01*
X168500499Y-101089397D01*
X168500499Y-100260013D01*
X170600000Y-100260013D01*
X170600000Y-100860000D01*
X171550000Y-100860000D01*
X172050000Y-100860000D01*
X172999999Y-100860000D01*
X172999999Y-100260028D01*
X172999998Y-100260013D01*
X172989505Y-100157302D01*
X172934358Y-99990880D01*
X172934356Y-99990875D01*
X172842315Y-99841654D01*
X172718345Y-99717684D01*
X172569124Y-99625643D01*
X172569119Y-99625641D01*
X172402697Y-99570494D01*
X172402690Y-99570493D01*
X172299986Y-99560000D01*
X172050000Y-99560000D01*
X172050000Y-100860000D01*
X171550000Y-100860000D01*
X171550000Y-99560000D01*
X171300029Y-99560000D01*
X171300012Y-99560001D01*
X171197302Y-99570494D01*
X171030880Y-99625641D01*
X171030875Y-99625643D01*
X170881654Y-99717684D01*
X170757684Y-99841654D01*
X170665643Y-99990875D01*
X170665641Y-99990880D01*
X170610494Y-100157302D01*
X170610493Y-100157309D01*
X170600000Y-100260013D01*
X168500499Y-100260013D01*
X168500499Y-100259998D01*
X168500498Y-100259981D01*
X168489999Y-100157203D01*
X168489998Y-100157200D01*
X168481160Y-100130528D01*
X168434814Y-99990666D01*
X168342712Y-99841344D01*
X168218656Y-99717288D01*
X168111646Y-99651284D01*
X168069336Y-99625187D01*
X168069331Y-99625185D01*
X168024293Y-99610261D01*
X167985495Y-99597404D01*
X167928051Y-99557632D01*
X167901228Y-99493116D01*
X167900500Y-99479699D01*
X167900500Y-93640300D01*
X167920185Y-93573261D01*
X167972989Y-93527506D01*
X167985482Y-93522599D01*
X168069334Y-93494814D01*
X168218656Y-93402712D01*
X168342712Y-93278656D01*
X168434814Y-93129334D01*
X168489999Y-92962797D01*
X168500500Y-92860009D01*
X168500500Y-92859986D01*
X170600001Y-92859986D01*
X170610494Y-92962697D01*
X170665641Y-93129119D01*
X170665643Y-93129124D01*
X170757684Y-93278345D01*
X170881654Y-93402315D01*
X171030875Y-93494356D01*
X171030880Y-93494358D01*
X171197302Y-93549505D01*
X171197309Y-93549506D01*
X171300019Y-93559999D01*
X171549999Y-93559999D01*
X172050000Y-93559999D01*
X172299972Y-93559999D01*
X172299986Y-93559998D01*
X172402697Y-93549505D01*
X172569119Y-93494358D01*
X172569124Y-93494356D01*
X172718345Y-93402315D01*
X172842315Y-93278345D01*
X172934356Y-93129124D01*
X172934358Y-93129119D01*
X172989505Y-92962697D01*
X172989506Y-92962690D01*
X172999999Y-92859986D01*
X173000000Y-92859973D01*
X173000000Y-92260000D01*
X172050000Y-92260000D01*
X172050000Y-93559999D01*
X171549999Y-93559999D01*
X171550000Y-93559998D01*
X171550000Y-92260000D01*
X170600001Y-92260000D01*
X170600001Y-92859986D01*
X168500500Y-92859986D01*
X168500499Y-91874435D01*
X168500499Y-91160013D01*
X170600000Y-91160013D01*
X170600000Y-91760000D01*
X171550000Y-91760000D01*
X171550000Y-90460000D01*
X171300029Y-90460000D01*
X171300012Y-90460001D01*
X171197302Y-90470494D01*
X171030880Y-90525641D01*
X171030875Y-90525643D01*
X170881654Y-90617684D01*
X170757684Y-90741654D01*
X170665643Y-90890875D01*
X170665641Y-90890880D01*
X170610494Y-91057302D01*
X170610493Y-91057309D01*
X170600000Y-91160013D01*
X168500499Y-91160013D01*
X168500499Y-91159998D01*
X168500498Y-91159981D01*
X168489999Y-91057203D01*
X168489998Y-91057200D01*
X168479046Y-91024149D01*
X168434814Y-90890666D01*
X168342712Y-90741344D01*
X168218656Y-90617288D01*
X168069334Y-90525186D01*
X167902797Y-90470001D01*
X167902795Y-90470000D01*
X167800010Y-90459500D01*
X166799998Y-90459500D01*
X166799980Y-90459501D01*
X166697203Y-90470000D01*
X166690690Y-90471395D01*
X166621015Y-90466177D01*
X166577057Y-90437822D01*
X166105590Y-89966355D01*
X166105588Y-89966352D01*
X165986717Y-89847481D01*
X165986716Y-89847480D01*
X165899904Y-89797360D01*
X165899904Y-89797359D01*
X165899900Y-89797358D01*
X165849785Y-89768423D01*
X165697057Y-89727499D01*
X165538943Y-89727499D01*
X165531347Y-89727499D01*
X165531331Y-89727500D01*
X134616976Y-89727500D01*
X134549937Y-89707815D01*
X134548086Y-89706602D01*
X134509180Y-89680606D01*
X134509177Y-89680604D01*
X134369115Y-89622590D01*
X134314711Y-89578750D01*
X134292646Y-89512456D01*
X134309925Y-89444756D01*
X134328882Y-89420352D01*
X148374664Y-75374571D01*
X148435985Y-75341088D01*
X148438152Y-75340637D01*
X148438841Y-75340500D01*
X148438842Y-75340500D01*
X148593497Y-75309737D01*
X148739179Y-75249394D01*
X148870289Y-75161789D01*
X148981789Y-75050289D01*
X149069394Y-74919179D01*
X149129737Y-74773497D01*
X149160500Y-74618842D01*
X149160500Y-74461158D01*
X149160500Y-74461155D01*
X149160499Y-74461153D01*
X149129738Y-74306510D01*
X149129738Y-74306508D01*
X149129737Y-74306503D01*
X149113735Y-74267870D01*
X149069397Y-74160827D01*
X149069390Y-74160814D01*
X148981789Y-74029711D01*
X148981786Y-74029707D01*
X148870292Y-73918213D01*
X148870288Y-73918210D01*
X148739185Y-73830609D01*
X148739172Y-73830602D01*
X148593501Y-73770264D01*
X148593489Y-73770261D01*
X148438845Y-73739500D01*
X148438842Y-73739500D01*
X148281158Y-73739500D01*
X148281155Y-73739500D01*
X148126510Y-73770261D01*
X148126498Y-73770264D01*
X147980827Y-73830602D01*
X147980814Y-73830609D01*
X147849711Y-73918210D01*
X147849707Y-73918213D01*
X147738213Y-74029707D01*
X147738210Y-74029711D01*
X147650609Y-74160814D01*
X147650602Y-74160827D01*
X147590264Y-74306498D01*
X147590261Y-74306508D01*
X147559362Y-74461848D01*
X147526977Y-74523759D01*
X147525426Y-74525337D01*
X132107584Y-89943181D01*
X132046261Y-89976666D01*
X132019903Y-89979500D01*
X123729766Y-89979500D01*
X123662727Y-89959815D01*
X123660875Y-89958602D01*
X123529185Y-89870609D01*
X123529172Y-89870602D01*
X123383501Y-89810264D01*
X123383489Y-89810261D01*
X123228845Y-89779500D01*
X123228842Y-89779500D01*
X123071158Y-89779500D01*
X123071155Y-89779500D01*
X122916510Y-89810261D01*
X122916498Y-89810264D01*
X122770827Y-89870602D01*
X122770814Y-89870609D01*
X122639711Y-89958210D01*
X122639707Y-89958213D01*
X122528213Y-90069707D01*
X122528210Y-90069711D01*
X122440609Y-90200814D01*
X122440602Y-90200827D01*
X122380264Y-90346498D01*
X122380261Y-90346510D01*
X122349500Y-90501153D01*
X119110500Y-90501153D01*
X119110500Y-87200097D01*
X119130185Y-87133058D01*
X119146819Y-87112416D01*
X120387119Y-85872116D01*
X121704662Y-84554572D01*
X121765983Y-84521089D01*
X121768150Y-84520638D01*
X121826085Y-84509113D01*
X121923497Y-84489737D01*
X122024354Y-84447961D01*
X125024880Y-84447961D01*
X125024880Y-84447962D01*
X125028429Y-84450334D01*
X125155813Y-84503097D01*
X125155823Y-84503100D01*
X125291053Y-84530000D01*
X125428946Y-84530000D01*
X125564176Y-84503100D01*
X125564186Y-84503097D01*
X125691570Y-84450334D01*
X125691572Y-84450332D01*
X125695119Y-84447961D01*
X126424880Y-84447961D01*
X126424880Y-84447962D01*
X126428429Y-84450334D01*
X126555813Y-84503097D01*
X126555823Y-84503100D01*
X126691053Y-84530000D01*
X126828946Y-84530000D01*
X126964176Y-84503100D01*
X126964186Y-84503097D01*
X127091570Y-84450334D01*
X127091572Y-84450332D01*
X127095119Y-84447961D01*
X126760001Y-84112842D01*
X126760000Y-84112842D01*
X126424880Y-84447961D01*
X125695119Y-84447961D01*
X125360001Y-84112842D01*
X125360000Y-84112842D01*
X125024880Y-84447961D01*
X122024354Y-84447961D01*
X122069179Y-84429394D01*
X122200289Y-84341789D01*
X122200292Y-84341786D01*
X122228012Y-84314067D01*
X122311786Y-84230292D01*
X122311789Y-84230289D01*
X122399394Y-84099179D01*
X122459737Y-83953497D01*
X122490500Y-83798842D01*
X122490500Y-83747961D01*
X124324880Y-83747961D01*
X124324880Y-83747962D01*
X124328429Y-83750334D01*
X124455813Y-83803097D01*
X124455825Y-83803100D01*
X124567299Y-83825274D01*
X124629210Y-83857658D01*
X124663784Y-83918374D01*
X124664725Y-83922699D01*
X124686899Y-84034176D01*
X124686901Y-84034182D01*
X124739668Y-84161573D01*
X124739668Y-84161574D01*
X124742037Y-84165119D01*
X125077157Y-83830000D01*
X125057266Y-83810109D01*
X125260000Y-83810109D01*
X125260000Y-83849891D01*
X125275224Y-83886645D01*
X125303355Y-83914776D01*
X125340109Y-83930000D01*
X125379891Y-83930000D01*
X125416645Y-83914776D01*
X125444776Y-83886645D01*
X125460000Y-83849891D01*
X125460000Y-83829999D01*
X125642842Y-83829999D01*
X125642842Y-83830000D01*
X125977961Y-84165119D01*
X125996824Y-84163263D01*
X126010526Y-84151818D01*
X126079853Y-84143125D01*
X126121597Y-84163107D01*
X126142037Y-84165119D01*
X126477157Y-83830000D01*
X126457266Y-83810109D01*
X126660000Y-83810109D01*
X126660000Y-83849891D01*
X126675224Y-83886645D01*
X126703355Y-83914776D01*
X126740109Y-83930000D01*
X126779891Y-83930000D01*
X126816645Y-83914776D01*
X126844776Y-83886645D01*
X126860000Y-83849891D01*
X126860000Y-83829999D01*
X127042842Y-83829999D01*
X127042842Y-83830000D01*
X127377961Y-84165119D01*
X127380332Y-84161572D01*
X127380334Y-84161570D01*
X127433097Y-84034186D01*
X127433097Y-84034184D01*
X127455273Y-83922700D01*
X127487658Y-83860789D01*
X127548374Y-83826215D01*
X127552700Y-83825273D01*
X127664184Y-83803097D01*
X127664186Y-83803097D01*
X127791570Y-83750334D01*
X127791572Y-83750332D01*
X127795119Y-83747961D01*
X127460001Y-83412842D01*
X127459999Y-83412842D01*
X127297365Y-83575477D01*
X127042842Y-83829999D01*
X126860000Y-83829999D01*
X126860000Y-83810109D01*
X126844776Y-83773355D01*
X126816645Y-83745224D01*
X126779891Y-83730000D01*
X126740109Y-83730000D01*
X126703355Y-83745224D01*
X126675224Y-83773355D01*
X126660000Y-83810109D01*
X126457266Y-83810109D01*
X126222634Y-83575477D01*
X126222632Y-83575474D01*
X126060001Y-83412842D01*
X126059999Y-83412842D01*
X125897365Y-83575477D01*
X125642842Y-83829999D01*
X125460000Y-83829999D01*
X125460000Y-83810109D01*
X125444776Y-83773355D01*
X125416645Y-83745224D01*
X125379891Y-83730000D01*
X125340109Y-83730000D01*
X125303355Y-83745224D01*
X125275224Y-83773355D01*
X125260000Y-83810109D01*
X125057266Y-83810109D01*
X124659999Y-83412842D01*
X124659998Y-83412842D01*
X124324880Y-83747961D01*
X122490500Y-83747961D01*
X122490500Y-83641158D01*
X122490500Y-83641155D01*
X122490499Y-83641153D01*
X122477435Y-83575477D01*
X122459737Y-83486503D01*
X122449410Y-83461572D01*
X122399397Y-83340827D01*
X122399390Y-83340814D01*
X122311789Y-83209711D01*
X122311786Y-83209707D01*
X122301025Y-83198946D01*
X123959999Y-83198946D01*
X123986899Y-83334176D01*
X123986901Y-83334181D01*
X124039668Y-83461573D01*
X124039668Y-83461574D01*
X124042037Y-83465119D01*
X124377157Y-83130000D01*
X124357266Y-83110109D01*
X124560000Y-83110109D01*
X124560000Y-83149891D01*
X124575224Y-83186645D01*
X124603355Y-83214776D01*
X124640109Y-83230000D01*
X124679891Y-83230000D01*
X124716645Y-83214776D01*
X124744776Y-83186645D01*
X124760000Y-83149891D01*
X124760000Y-83129999D01*
X124942842Y-83129999D01*
X125147025Y-83334181D01*
X125147025Y-83334182D01*
X125360000Y-83547157D01*
X125777157Y-83130000D01*
X125757266Y-83110109D01*
X125960000Y-83110109D01*
X125960000Y-83149891D01*
X125975224Y-83186645D01*
X126003355Y-83214776D01*
X126040109Y-83230000D01*
X126079891Y-83230000D01*
X126116645Y-83214776D01*
X126144776Y-83186645D01*
X126160000Y-83149891D01*
X126160000Y-83129999D01*
X126342842Y-83129999D01*
X126547025Y-83334181D01*
X126547025Y-83334182D01*
X126760000Y-83547157D01*
X127177157Y-83130000D01*
X127157266Y-83110109D01*
X127360000Y-83110109D01*
X127360000Y-83149891D01*
X127375224Y-83186645D01*
X127403355Y-83214776D01*
X127440109Y-83230000D01*
X127479891Y-83230000D01*
X127516645Y-83214776D01*
X127544776Y-83186645D01*
X127560000Y-83149891D01*
X127560000Y-83130000D01*
X127742842Y-83130000D01*
X128077961Y-83465119D01*
X128080332Y-83461572D01*
X128080334Y-83461570D01*
X128133099Y-83334182D01*
X128133100Y-83334176D01*
X128160000Y-83198946D01*
X128160000Y-83061053D01*
X128133100Y-82925823D01*
X128133097Y-82925813D01*
X128080334Y-82798429D01*
X128077961Y-82794880D01*
X127742842Y-83130000D01*
X127560000Y-83130000D01*
X127560000Y-83110109D01*
X127544776Y-83073355D01*
X127516645Y-83045224D01*
X127479891Y-83030000D01*
X127440109Y-83030000D01*
X127403355Y-83045224D01*
X127375224Y-83073355D01*
X127360000Y-83110109D01*
X127157266Y-83110109D01*
X126922634Y-82875477D01*
X126922632Y-82875474D01*
X126760001Y-82712842D01*
X126759999Y-82712842D01*
X126597365Y-82875477D01*
X126342842Y-83129999D01*
X126160000Y-83129999D01*
X126160000Y-83110109D01*
X126144776Y-83073355D01*
X126116645Y-83045224D01*
X126079891Y-83030000D01*
X126040109Y-83030000D01*
X126003355Y-83045224D01*
X125975224Y-83073355D01*
X125960000Y-83110109D01*
X125757266Y-83110109D01*
X125522634Y-82875477D01*
X125522632Y-82875474D01*
X125360001Y-82712842D01*
X125359999Y-82712842D01*
X125197365Y-82875477D01*
X124942842Y-83129999D01*
X124760000Y-83129999D01*
X124760000Y-83110109D01*
X124744776Y-83073355D01*
X124716645Y-83045224D01*
X124679891Y-83030000D01*
X124640109Y-83030000D01*
X124603355Y-83045224D01*
X124575224Y-83073355D01*
X124560000Y-83110109D01*
X124357266Y-83110109D01*
X124042037Y-82794880D01*
X124042036Y-82794880D01*
X124039667Y-82798427D01*
X124039666Y-82798428D01*
X123986902Y-82925813D01*
X123986899Y-82925823D01*
X123960000Y-83061053D01*
X123960000Y-83198946D01*
X123959999Y-83198946D01*
X122301025Y-83198946D01*
X122200292Y-83098213D01*
X122200288Y-83098210D01*
X122069185Y-83010609D01*
X122069172Y-83010602D01*
X121923501Y-82950264D01*
X121923489Y-82950261D01*
X121768845Y-82919500D01*
X121768842Y-82919500D01*
X121611158Y-82919500D01*
X121611155Y-82919500D01*
X121456510Y-82950261D01*
X121456498Y-82950264D01*
X121310827Y-83010602D01*
X121310814Y-83010609D01*
X121179711Y-83098210D01*
X121179707Y-83098213D01*
X121068213Y-83209707D01*
X121068210Y-83209711D01*
X120980609Y-83340814D01*
X120980602Y-83340827D01*
X120920264Y-83486498D01*
X120920261Y-83486508D01*
X120889361Y-83641850D01*
X120856976Y-83703761D01*
X120855425Y-83705339D01*
X118102181Y-86458583D01*
X118040858Y-86492068D01*
X117971166Y-86487084D01*
X117915233Y-86445212D01*
X117890816Y-86379748D01*
X117890500Y-86370902D01*
X117890500Y-82347961D01*
X124324880Y-82347961D01*
X124326738Y-82366839D01*
X124338167Y-82380517D01*
X124346866Y-82449843D01*
X124326897Y-82491568D01*
X124324880Y-82512037D01*
X124659998Y-82847157D01*
X124659999Y-82847157D01*
X124920883Y-82586274D01*
X125077157Y-82430000D01*
X125057266Y-82410109D01*
X125260000Y-82410109D01*
X125260000Y-82449891D01*
X125275224Y-82486645D01*
X125303355Y-82514776D01*
X125340109Y-82530000D01*
X125379891Y-82530000D01*
X125416645Y-82514776D01*
X125444776Y-82486645D01*
X125460000Y-82449891D01*
X125460000Y-82429999D01*
X125642842Y-82429999D01*
X125642842Y-82430000D01*
X125799102Y-82586260D01*
X125799117Y-82586274D01*
X126060000Y-82847157D01*
X126477157Y-82430000D01*
X126457266Y-82410109D01*
X126660000Y-82410109D01*
X126660000Y-82449891D01*
X126675224Y-82486645D01*
X126703355Y-82514776D01*
X126740109Y-82530000D01*
X126779891Y-82530000D01*
X126816645Y-82514776D01*
X126844776Y-82486645D01*
X126860000Y-82449891D01*
X126860000Y-82429999D01*
X127042842Y-82429999D01*
X127042842Y-82430000D01*
X127199102Y-82586260D01*
X127199117Y-82586274D01*
X127460000Y-82847157D01*
X127460001Y-82847157D01*
X127795119Y-82512037D01*
X127793261Y-82493162D01*
X127781825Y-82479477D01*
X127773122Y-82410151D01*
X127793111Y-82368378D01*
X127795119Y-82347961D01*
X127460001Y-82012842D01*
X127459999Y-82012842D01*
X127300428Y-82172414D01*
X127042842Y-82429999D01*
X126860000Y-82429999D01*
X126860000Y-82410109D01*
X126844776Y-82373355D01*
X126816645Y-82345224D01*
X126779891Y-82330000D01*
X126740109Y-82330000D01*
X126703355Y-82345224D01*
X126675224Y-82373355D01*
X126660000Y-82410109D01*
X126457266Y-82410109D01*
X126219571Y-82172414D01*
X126219569Y-82172411D01*
X126060001Y-82012842D01*
X126059999Y-82012842D01*
X125900428Y-82172414D01*
X125642842Y-82429999D01*
X125460000Y-82429999D01*
X125460000Y-82410109D01*
X125444776Y-82373355D01*
X125416645Y-82345224D01*
X125379891Y-82330000D01*
X125340109Y-82330000D01*
X125303355Y-82345224D01*
X125275224Y-82373355D01*
X125260000Y-82410109D01*
X125057266Y-82410109D01*
X124659999Y-82012842D01*
X124659998Y-82012842D01*
X124324880Y-82347961D01*
X117890500Y-82347961D01*
X117890500Y-82172414D01*
X117849578Y-82019690D01*
X117849577Y-82019687D01*
X117849577Y-82019686D01*
X117822616Y-81972989D01*
X117809632Y-81950499D01*
X117770522Y-81882758D01*
X117770521Y-81882757D01*
X117770520Y-81882755D01*
X117686711Y-81798946D01*
X123959999Y-81798946D01*
X123986899Y-81934176D01*
X123986901Y-81934182D01*
X124039668Y-82061573D01*
X124039668Y-82061574D01*
X124042037Y-82065119D01*
X124377157Y-81730000D01*
X124357266Y-81710109D01*
X124560000Y-81710109D01*
X124560000Y-81749891D01*
X124575224Y-81786645D01*
X124603355Y-81814776D01*
X124640109Y-81830000D01*
X124679891Y-81830000D01*
X124716645Y-81814776D01*
X124744776Y-81786645D01*
X124760000Y-81749891D01*
X124760000Y-81729999D01*
X124942842Y-81729999D01*
X124942842Y-81730000D01*
X125095583Y-81882741D01*
X125095598Y-81882755D01*
X125360000Y-82147157D01*
X125777157Y-81730000D01*
X125757266Y-81710109D01*
X125960000Y-81710109D01*
X125960000Y-81749891D01*
X125975224Y-81786645D01*
X126003355Y-81814776D01*
X126040109Y-81830000D01*
X126079891Y-81830000D01*
X126116645Y-81814776D01*
X126144776Y-81786645D01*
X126160000Y-81749891D01*
X126160000Y-81729999D01*
X126342842Y-81729999D01*
X126342842Y-81730000D01*
X126495583Y-81882741D01*
X126495598Y-81882755D01*
X126760000Y-82147157D01*
X127177157Y-81730000D01*
X127157266Y-81710109D01*
X127360000Y-81710109D01*
X127360000Y-81749891D01*
X127375224Y-81786645D01*
X127403355Y-81814776D01*
X127440109Y-81830000D01*
X127479891Y-81830000D01*
X127516645Y-81814776D01*
X127544776Y-81786645D01*
X127560000Y-81749891D01*
X127560000Y-81730000D01*
X127742842Y-81730000D01*
X128077961Y-82065119D01*
X128080332Y-82061572D01*
X128080334Y-82061570D01*
X128133097Y-81934186D01*
X128133100Y-81934176D01*
X128160000Y-81798946D01*
X128160000Y-81661053D01*
X128133100Y-81525823D01*
X128133097Y-81525813D01*
X128080334Y-81398429D01*
X128077961Y-81394880D01*
X127742842Y-81730000D01*
X127560000Y-81730000D01*
X127560000Y-81710109D01*
X127544776Y-81673355D01*
X127516645Y-81645224D01*
X127479891Y-81630000D01*
X127440109Y-81630000D01*
X127403355Y-81645224D01*
X127375224Y-81673355D01*
X127360000Y-81710109D01*
X127157266Y-81710109D01*
X126920654Y-81473497D01*
X126920652Y-81473494D01*
X126760001Y-81312842D01*
X126759999Y-81312842D01*
X126599345Y-81473497D01*
X126342842Y-81729999D01*
X126160000Y-81729999D01*
X126160000Y-81710109D01*
X126144776Y-81673355D01*
X126116645Y-81645224D01*
X126079891Y-81630000D01*
X126040109Y-81630000D01*
X126003355Y-81645224D01*
X125975224Y-81673355D01*
X125960000Y-81710109D01*
X125757266Y-81710109D01*
X125520654Y-81473497D01*
X125520652Y-81473494D01*
X125360001Y-81312842D01*
X125359999Y-81312842D01*
X125199345Y-81473497D01*
X124942842Y-81729999D01*
X124760000Y-81729999D01*
X124760000Y-81710109D01*
X124744776Y-81673355D01*
X124716645Y-81645224D01*
X124679891Y-81630000D01*
X124640109Y-81630000D01*
X124603355Y-81645224D01*
X124575224Y-81673355D01*
X124560000Y-81710109D01*
X124357266Y-81710109D01*
X124042037Y-81394880D01*
X124042036Y-81394880D01*
X124039667Y-81398427D01*
X124039666Y-81398428D01*
X123986902Y-81525813D01*
X123986899Y-81525823D01*
X123960000Y-81661053D01*
X123960000Y-81798946D01*
X123959999Y-81798946D01*
X117686711Y-81798946D01*
X117658716Y-81770951D01*
X117658715Y-81770950D01*
X117654385Y-81766620D01*
X117654374Y-81766610D01*
X117426119Y-81538355D01*
X117426117Y-81538352D01*
X117415197Y-81527432D01*
X117411273Y-81520247D01*
X117410626Y-81519457D01*
X117410624Y-81519454D01*
X117410782Y-81519348D01*
X117381712Y-81466109D01*
X117381261Y-81415562D01*
X117400500Y-81318842D01*
X117400500Y-81161158D01*
X117400500Y-81161155D01*
X117400499Y-81161153D01*
X117390729Y-81112036D01*
X124324880Y-81112036D01*
X124324880Y-81112037D01*
X124659998Y-81447157D01*
X124659999Y-81447157D01*
X124920883Y-81186274D01*
X125077157Y-81029999D01*
X125077157Y-81029998D01*
X125057268Y-81010109D01*
X125260000Y-81010109D01*
X125260000Y-81049891D01*
X125275224Y-81086645D01*
X125303355Y-81114776D01*
X125340109Y-81130000D01*
X125379891Y-81130000D01*
X125416645Y-81114776D01*
X125444776Y-81086645D01*
X125460000Y-81049891D01*
X125460000Y-81029998D01*
X125642842Y-81029998D01*
X125642842Y-81029999D01*
X126060000Y-81447157D01*
X126320883Y-81186274D01*
X126477157Y-81029999D01*
X126477157Y-81029998D01*
X126457268Y-81010109D01*
X126660000Y-81010109D01*
X126660000Y-81049891D01*
X126675224Y-81086645D01*
X126703355Y-81114776D01*
X126740109Y-81130000D01*
X126779891Y-81130000D01*
X126816645Y-81114776D01*
X126844776Y-81086645D01*
X126860000Y-81049891D01*
X126860000Y-81029998D01*
X127042842Y-81029998D01*
X127042842Y-81029999D01*
X127460000Y-81447157D01*
X127460001Y-81447157D01*
X127795119Y-81112037D01*
X127791574Y-81109668D01*
X127664182Y-81056901D01*
X127664176Y-81056899D01*
X127552699Y-81034725D01*
X127490788Y-81002340D01*
X127456214Y-80941624D01*
X127455274Y-80937299D01*
X127433100Y-80825825D01*
X127433097Y-80825813D01*
X127380334Y-80698429D01*
X127377962Y-80694880D01*
X127377961Y-80694880D01*
X127042842Y-81029998D01*
X126860000Y-81029998D01*
X126860000Y-81010109D01*
X126844776Y-80973355D01*
X126816645Y-80945224D01*
X126779891Y-80930000D01*
X126740109Y-80930000D01*
X126703355Y-80945224D01*
X126675224Y-80973355D01*
X126660000Y-81010109D01*
X126457268Y-81010109D01*
X126142037Y-80694880D01*
X126123148Y-80696741D01*
X126109486Y-80708160D01*
X126040161Y-80716869D01*
X125998407Y-80696892D01*
X125977961Y-80694880D01*
X125642842Y-81029998D01*
X125460000Y-81029998D01*
X125460000Y-81010109D01*
X125444776Y-80973355D01*
X125416645Y-80945224D01*
X125379891Y-80930000D01*
X125340109Y-80930000D01*
X125303355Y-80945224D01*
X125275224Y-80973355D01*
X125260000Y-81010109D01*
X125057268Y-81010109D01*
X124742037Y-80694880D01*
X124742036Y-80694880D01*
X124739667Y-80698427D01*
X124739666Y-80698428D01*
X124686902Y-80825813D01*
X124686899Y-80825823D01*
X124664725Y-80937300D01*
X124632340Y-80999211D01*
X124571624Y-81033785D01*
X124567300Y-81034725D01*
X124455823Y-81056899D01*
X124455813Y-81056902D01*
X124328428Y-81109666D01*
X124328427Y-81109667D01*
X124324880Y-81112036D01*
X117390729Y-81112036D01*
X117390258Y-81109667D01*
X117369737Y-81006503D01*
X117358650Y-80979737D01*
X117309397Y-80860827D01*
X117309390Y-80860814D01*
X117221789Y-80729711D01*
X117221786Y-80729707D01*
X117134760Y-80642681D01*
X117132700Y-80638910D01*
X117129074Y-80636601D01*
X117116097Y-80608503D01*
X117101275Y-80581358D01*
X117101581Y-80577071D01*
X117099779Y-80573169D01*
X117104051Y-80542527D01*
X117106259Y-80511666D01*
X117109003Y-80507017D01*
X117109429Y-80503969D01*
X117118868Y-80490310D01*
X117128384Y-80474197D01*
X117131450Y-80470627D01*
X117181789Y-80420289D01*
X117187303Y-80412036D01*
X125024880Y-80412036D01*
X125024880Y-80412037D01*
X125360000Y-80747157D01*
X125360001Y-80747157D01*
X125695119Y-80412037D01*
X125695118Y-80412036D01*
X126424880Y-80412036D01*
X126424880Y-80412037D01*
X126760000Y-80747157D01*
X126760001Y-80747157D01*
X127095119Y-80412037D01*
X127091574Y-80409668D01*
X126964182Y-80356901D01*
X126964176Y-80356899D01*
X126828946Y-80330000D01*
X126691054Y-80330000D01*
X126555823Y-80356899D01*
X126555813Y-80356902D01*
X126428428Y-80409666D01*
X126428427Y-80409667D01*
X126424880Y-80412036D01*
X125695118Y-80412036D01*
X125691574Y-80409668D01*
X125564182Y-80356901D01*
X125564176Y-80356899D01*
X125428946Y-80330000D01*
X125291054Y-80330000D01*
X125155823Y-80356899D01*
X125155813Y-80356902D01*
X125028428Y-80409666D01*
X125028427Y-80409667D01*
X125024880Y-80412036D01*
X117187303Y-80412036D01*
X117269394Y-80289179D01*
X117329737Y-80143497D01*
X117360500Y-79988842D01*
X117360500Y-79831158D01*
X117360434Y-79830827D01*
X117360121Y-79829251D01*
X117360121Y-79829248D01*
X117356522Y-79811153D01*
X132169500Y-79811153D01*
X132169500Y-79968846D01*
X132200261Y-80123489D01*
X132200264Y-80123501D01*
X132260602Y-80269172D01*
X132260609Y-80269185D01*
X132348210Y-80400288D01*
X132348213Y-80400292D01*
X132459707Y-80511786D01*
X132459711Y-80511789D01*
X132590814Y-80599390D01*
X132590827Y-80599397D01*
X132736498Y-80659735D01*
X132736503Y-80659737D01*
X132891158Y-80690500D01*
X132891163Y-80690500D01*
X132897218Y-80691097D01*
X132897038Y-80692915D01*
X132950024Y-80707113D01*
X132966922Y-80716869D01*
X133058216Y-80769577D01*
X133152066Y-80794724D01*
X133152065Y-80794724D01*
X133164507Y-80798057D01*
X133210942Y-80810500D01*
X133210943Y-80810500D01*
X137790234Y-80810500D01*
X137857273Y-80830185D01*
X137859125Y-80831398D01*
X137990814Y-80919390D01*
X137990827Y-80919397D01*
X138121095Y-80973355D01*
X138136503Y-80979737D01*
X138271039Y-81006498D01*
X138291153Y-81010499D01*
X138291156Y-81010500D01*
X138291158Y-81010500D01*
X138448844Y-81010500D01*
X138448845Y-81010499D01*
X138603497Y-80979737D01*
X138723574Y-80930000D01*
X138749172Y-80919397D01*
X138749172Y-80919396D01*
X138749179Y-80919394D01*
X138880289Y-80831789D01*
X138991789Y-80720289D01*
X139079394Y-80589179D01*
X139139737Y-80443497D01*
X139170500Y-80288842D01*
X139170500Y-80131158D01*
X139170500Y-80131155D01*
X139170499Y-80131153D01*
X139151188Y-80034070D01*
X139139737Y-79976503D01*
X139136564Y-79968842D01*
X139079397Y-79830827D01*
X139079390Y-79830814D01*
X138991789Y-79699711D01*
X138991786Y-79699707D01*
X138912544Y-79620465D01*
X138879059Y-79559142D01*
X138884043Y-79489450D01*
X138925915Y-79433517D01*
X138976031Y-79411167D01*
X139033497Y-79399737D01*
X139179179Y-79339394D01*
X139310289Y-79251789D01*
X139421789Y-79140289D01*
X139509394Y-79009179D01*
X139569737Y-78863497D01*
X139600500Y-78708842D01*
X139600500Y-78551158D01*
X139600500Y-78551155D01*
X139600499Y-78551153D01*
X139569738Y-78396510D01*
X139569737Y-78396503D01*
X139569735Y-78396498D01*
X139509397Y-78250827D01*
X139509390Y-78250814D01*
X139421789Y-78119711D01*
X139421786Y-78119707D01*
X139310292Y-78008213D01*
X139310288Y-78008210D01*
X139179185Y-77920609D01*
X139179172Y-77920602D01*
X139033501Y-77860264D01*
X139033489Y-77860261D01*
X138878845Y-77829500D01*
X138878842Y-77829500D01*
X138721158Y-77829500D01*
X138721155Y-77829500D01*
X138566510Y-77860261D01*
X138566498Y-77860264D01*
X138420827Y-77920602D01*
X138420814Y-77920609D01*
X138289125Y-78008602D01*
X138222447Y-78029480D01*
X138220234Y-78029500D01*
X134079766Y-78029500D01*
X134012727Y-78009815D01*
X134010875Y-78008602D01*
X133879185Y-77920609D01*
X133879172Y-77920602D01*
X133733501Y-77860264D01*
X133733489Y-77860261D01*
X133578845Y-77829500D01*
X133578842Y-77829500D01*
X133421158Y-77829500D01*
X133421155Y-77829500D01*
X133266510Y-77860261D01*
X133266498Y-77860264D01*
X133120827Y-77920602D01*
X133120814Y-77920609D01*
X132989711Y-78008210D01*
X132989707Y-78008213D01*
X132878213Y-78119707D01*
X132878210Y-78119711D01*
X132790609Y-78250814D01*
X132790602Y-78250827D01*
X132730264Y-78396498D01*
X132730261Y-78396510D01*
X132699500Y-78551153D01*
X132699500Y-78708846D01*
X132730261Y-78863489D01*
X132730264Y-78863501D01*
X132774504Y-78970306D01*
X132781973Y-79039775D01*
X132750698Y-79102254D01*
X132707396Y-79132319D01*
X132590823Y-79180604D01*
X132590814Y-79180609D01*
X132459711Y-79268210D01*
X132459707Y-79268213D01*
X132348213Y-79379707D01*
X132348210Y-79379711D01*
X132260609Y-79510814D01*
X132260602Y-79510827D01*
X132200264Y-79656498D01*
X132200261Y-79656510D01*
X132169500Y-79811153D01*
X117356522Y-79811153D01*
X117329738Y-79676508D01*
X117329737Y-79676507D01*
X117329737Y-79676503D01*
X117309734Y-79628210D01*
X117269397Y-79530827D01*
X117269390Y-79530814D01*
X117181790Y-79399712D01*
X117181789Y-79399711D01*
X117169759Y-79387681D01*
X117136275Y-79326362D01*
X117141257Y-79256670D01*
X117169759Y-79212318D01*
X117170285Y-79211791D01*
X117170289Y-79211789D01*
X117281789Y-79100289D01*
X117369394Y-78969179D01*
X117429737Y-78823497D01*
X117460500Y-78668842D01*
X117460500Y-78511158D01*
X117460500Y-78511155D01*
X117460499Y-78511153D01*
X117437695Y-78396510D01*
X117429737Y-78356503D01*
X117412085Y-78313886D01*
X117369397Y-78210827D01*
X117369390Y-78210814D01*
X117281789Y-78079711D01*
X117281786Y-78079707D01*
X117234760Y-78032681D01*
X117201275Y-77971358D01*
X117206259Y-77901666D01*
X117234760Y-77857319D01*
X117281786Y-77810292D01*
X117281788Y-77810290D01*
X117281789Y-77810289D01*
X117369394Y-77679179D01*
X117429737Y-77533497D01*
X117460500Y-77378842D01*
X117460500Y-77221158D01*
X117460500Y-77221155D01*
X117460499Y-77221153D01*
X117455087Y-77193946D01*
X117429737Y-77066503D01*
X117429735Y-77066498D01*
X117369397Y-76920827D01*
X117369390Y-76920814D01*
X117281789Y-76789711D01*
X117281786Y-76789707D01*
X117279919Y-76787840D01*
X117279253Y-76786620D01*
X117277924Y-76785001D01*
X117278231Y-76784748D01*
X117246434Y-76726517D01*
X117251418Y-76656825D01*
X117264498Y-76631268D01*
X117339394Y-76519179D01*
X117399737Y-76373497D01*
X117430500Y-76218842D01*
X117430500Y-76061158D01*
X117430500Y-76061155D01*
X117430499Y-76061153D01*
X117399738Y-75906510D01*
X117399737Y-75906503D01*
X117339394Y-75760821D01*
X117301396Y-75703953D01*
X117280520Y-75637276D01*
X117280500Y-75635064D01*
X117280500Y-70341153D01*
X137899500Y-70341153D01*
X137899500Y-70498846D01*
X137930261Y-70653489D01*
X137930264Y-70653501D01*
X137990602Y-70799172D01*
X137990609Y-70799185D01*
X138078210Y-70930288D01*
X138078213Y-70930292D01*
X138189707Y-71041786D01*
X138189711Y-71041789D01*
X138320814Y-71129390D01*
X138320827Y-71129397D01*
X138466498Y-71189735D01*
X138466503Y-71189737D01*
X138621153Y-71220499D01*
X138621156Y-71220500D01*
X138621158Y-71220500D01*
X138778844Y-71220500D01*
X138778845Y-71220499D01*
X138933497Y-71189737D01*
X139079179Y-71129394D01*
X139210289Y-71041789D01*
X139321789Y-70930289D01*
X139409394Y-70799179D01*
X139469737Y-70653497D01*
X139500500Y-70498842D01*
X139500500Y-70480097D01*
X139520185Y-70413058D01*
X139536819Y-70392416D01*
X140019528Y-69909707D01*
X140714662Y-69214572D01*
X140775983Y-69181089D01*
X140778150Y-69180638D01*
X140836085Y-69169113D01*
X140933497Y-69149737D01*
X141079179Y-69089394D01*
X141210289Y-69001789D01*
X141321789Y-68890289D01*
X141409394Y-68759179D01*
X141416859Y-68741158D01*
X141469735Y-68613501D01*
X141469737Y-68613497D01*
X141500500Y-68458842D01*
X141500500Y-68301158D01*
X141500500Y-68301155D01*
X141500499Y-68301153D01*
X141488005Y-68238343D01*
X141469737Y-68146503D01*
X141466443Y-68138550D01*
X141409397Y-68000827D01*
X141409390Y-68000814D01*
X141321789Y-67869711D01*
X141321786Y-67869707D01*
X141210292Y-67758213D01*
X141210288Y-67758210D01*
X141079185Y-67670609D01*
X141079172Y-67670602D01*
X140933501Y-67610264D01*
X140933489Y-67610261D01*
X140778845Y-67579500D01*
X140778842Y-67579500D01*
X140621158Y-67579500D01*
X140621155Y-67579500D01*
X140466510Y-67610261D01*
X140466498Y-67610264D01*
X140320827Y-67670602D01*
X140320814Y-67670609D01*
X140189711Y-67758210D01*
X140189707Y-67758213D01*
X140078213Y-67869707D01*
X140078210Y-67869711D01*
X139990609Y-68000814D01*
X139990602Y-68000827D01*
X139930264Y-68146498D01*
X139930261Y-68146508D01*
X139899361Y-68301850D01*
X139866976Y-68363761D01*
X139865425Y-68365339D01*
X138635405Y-69595358D01*
X138574082Y-69628843D01*
X138571916Y-69629294D01*
X138466508Y-69650261D01*
X138466498Y-69650264D01*
X138320827Y-69710602D01*
X138320814Y-69710609D01*
X138189711Y-69798210D01*
X138189707Y-69798213D01*
X138078213Y-69909707D01*
X138078210Y-69909711D01*
X137990609Y-70040814D01*
X137990602Y-70040827D01*
X137930264Y-70186498D01*
X137930261Y-70186510D01*
X137899500Y-70341153D01*
X117280500Y-70341153D01*
X117280500Y-62481153D01*
X139489500Y-62481153D01*
X139489500Y-62638846D01*
X139520261Y-62793489D01*
X139520264Y-62793501D01*
X139550061Y-62865437D01*
X139559500Y-62912889D01*
X139559500Y-65081859D01*
X139559499Y-65081877D01*
X139559499Y-65247583D01*
X139559498Y-65247583D01*
X139600423Y-65400314D01*
X139629358Y-65450429D01*
X139629359Y-65450433D01*
X139629360Y-65450433D01*
X139679479Y-65537243D01*
X139679481Y-65537246D01*
X139798349Y-65656114D01*
X139798355Y-65656119D01*
X140026610Y-65884374D01*
X140026620Y-65884385D01*
X140030950Y-65888715D01*
X140030951Y-65888716D01*
X140142755Y-66000520D01*
X140181234Y-66022735D01*
X140229566Y-66050639D01*
X140229568Y-66050641D01*
X140267622Y-66072611D01*
X140279686Y-66079577D01*
X140432414Y-66120500D01*
X140590528Y-66120500D01*
X144898432Y-66120500D01*
X144965471Y-66140185D01*
X144986113Y-66156819D01*
X146597113Y-67767819D01*
X146630598Y-67829142D01*
X146625614Y-67898834D01*
X146583742Y-67954767D01*
X146518278Y-67979184D01*
X146509432Y-67979500D01*
X143460942Y-67979500D01*
X143327427Y-68015275D01*
X143295334Y-68019500D01*
X143221155Y-68019500D01*
X143066510Y-68050261D01*
X143066498Y-68050264D01*
X142920827Y-68110602D01*
X142920814Y-68110609D01*
X142789711Y-68198210D01*
X142789707Y-68198213D01*
X142678213Y-68309707D01*
X142678210Y-68309711D01*
X142590609Y-68440814D01*
X142590602Y-68440827D01*
X142530264Y-68586498D01*
X142530261Y-68586510D01*
X142499500Y-68741153D01*
X142499500Y-68898846D01*
X142530261Y-69053489D01*
X142530264Y-69053501D01*
X142590602Y-69199172D01*
X142590609Y-69199185D01*
X142678210Y-69330288D01*
X142678213Y-69330292D01*
X142789707Y-69441786D01*
X142789711Y-69441789D01*
X142920814Y-69529390D01*
X142920827Y-69529397D01*
X143066498Y-69589735D01*
X143066503Y-69589737D01*
X143221153Y-69620499D01*
X143221156Y-69620500D01*
X143221158Y-69620500D01*
X143378844Y-69620500D01*
X143378845Y-69620499D01*
X143533497Y-69589737D01*
X143679179Y-69529394D01*
X143810289Y-69441789D01*
X143921789Y-69330289D01*
X143964711Y-69266052D01*
X143985053Y-69235609D01*
X144038665Y-69190804D01*
X144088155Y-69180500D01*
X146830234Y-69180500D01*
X146897273Y-69200185D01*
X146899125Y-69201398D01*
X147030814Y-69289390D01*
X147030827Y-69289397D01*
X147129558Y-69330292D01*
X147176503Y-69349737D01*
X147331153Y-69380499D01*
X147331156Y-69380500D01*
X147331158Y-69380500D01*
X147488844Y-69380500D01*
X147488845Y-69380499D01*
X147643497Y-69349737D01*
X147789179Y-69289394D01*
X147789184Y-69289390D01*
X147789187Y-69289389D01*
X147824113Y-69266052D01*
X147902091Y-69213948D01*
X147968766Y-69193070D01*
X148036147Y-69211554D01*
X148058662Y-69229369D01*
X168329813Y-89500520D01*
X168329815Y-89500521D01*
X168329819Y-89500524D01*
X168465313Y-89578750D01*
X168466745Y-89579577D01*
X168619472Y-89620501D01*
X168619474Y-89620501D01*
X168785183Y-89620501D01*
X168785199Y-89620500D01*
X171559903Y-89620500D01*
X171626942Y-89640185D01*
X171647584Y-89656819D01*
X172239084Y-90248319D01*
X172272569Y-90309642D01*
X172267585Y-90379334D01*
X172225713Y-90435267D01*
X172160249Y-90459684D01*
X172151403Y-90460000D01*
X172050000Y-90460000D01*
X172050000Y-91760000D01*
X172999999Y-91760000D01*
X172999999Y-91308596D01*
X173019684Y-91241557D01*
X173072488Y-91195802D01*
X173141646Y-91185858D01*
X173205202Y-91214883D01*
X173211668Y-91220904D01*
X173613182Y-91622418D01*
X173646666Y-91683739D01*
X173649500Y-91710097D01*
X173649500Y-92860001D01*
X173649501Y-92860018D01*
X173660000Y-92962796D01*
X173660001Y-92962799D01*
X173707962Y-93107533D01*
X173715186Y-93129334D01*
X173807288Y-93278656D01*
X173931344Y-93402712D01*
X174080666Y-93494814D01*
X174164505Y-93522595D01*
X174221948Y-93562366D01*
X174248772Y-93626882D01*
X174249500Y-93640300D01*
X174249500Y-99479699D01*
X174229815Y-99546738D01*
X174177011Y-99592493D01*
X174164507Y-99597403D01*
X174132608Y-99607974D01*
X174080668Y-99625185D01*
X174080663Y-99625187D01*
X173931342Y-99717289D01*
X173807289Y-99841342D01*
X173715187Y-99990663D01*
X173715185Y-99990668D01*
X173712476Y-99998844D01*
X173660001Y-100157203D01*
X173660001Y-100157204D01*
X173660000Y-100157204D01*
X173649500Y-100259983D01*
X173649500Y-101960001D01*
X173649501Y-101960018D01*
X173660000Y-102062796D01*
X173660001Y-102062799D01*
X173688993Y-102150289D01*
X173715186Y-102229334D01*
X173807288Y-102378656D01*
X173931344Y-102502712D01*
X174080666Y-102594814D01*
X174247203Y-102649999D01*
X174349991Y-102660500D01*
X175350008Y-102660499D01*
X175350016Y-102660498D01*
X175350019Y-102660498D01*
X175420188Y-102653330D01*
X175452797Y-102649999D01*
X175619334Y-102594814D01*
X175768656Y-102502712D01*
X175892712Y-102378656D01*
X175984814Y-102229334D01*
X176039999Y-102062797D01*
X176050500Y-101960009D01*
X176050500Y-101959986D01*
X178150001Y-101959986D01*
X178160494Y-102062697D01*
X178215641Y-102229119D01*
X178215643Y-102229124D01*
X178307684Y-102378345D01*
X178431654Y-102502315D01*
X178580875Y-102594356D01*
X178580880Y-102594358D01*
X178747302Y-102649505D01*
X178747309Y-102649506D01*
X178850019Y-102659999D01*
X179099999Y-102659999D01*
X179600000Y-102659999D01*
X179849972Y-102659999D01*
X179849986Y-102659998D01*
X179952697Y-102649505D01*
X180119119Y-102594358D01*
X180119124Y-102594356D01*
X180268345Y-102502315D01*
X180392315Y-102378345D01*
X180484356Y-102229124D01*
X180484358Y-102229119D01*
X180539505Y-102062697D01*
X180539506Y-102062690D01*
X180549999Y-101959986D01*
X180550000Y-101959973D01*
X180550000Y-101360000D01*
X179600000Y-101360000D01*
X179600000Y-102659999D01*
X179099999Y-102659999D01*
X179100000Y-102659998D01*
X179100000Y-101360000D01*
X178150001Y-101360000D01*
X178150001Y-101959986D01*
X176050500Y-101959986D01*
X176050499Y-101089397D01*
X176050499Y-100260013D01*
X178150000Y-100260013D01*
X178150000Y-100860000D01*
X179100000Y-100860000D01*
X179600000Y-100860000D01*
X180549999Y-100860000D01*
X180549999Y-100260028D01*
X180549998Y-100260013D01*
X180539505Y-100157302D01*
X180484358Y-99990880D01*
X180484356Y-99990875D01*
X180392315Y-99841654D01*
X180268345Y-99717684D01*
X180119124Y-99625643D01*
X180119119Y-99625641D01*
X179952697Y-99570494D01*
X179952690Y-99570493D01*
X179849986Y-99560000D01*
X179600000Y-99560000D01*
X179600000Y-100860000D01*
X179100000Y-100860000D01*
X179100000Y-99560000D01*
X178850029Y-99560000D01*
X178850012Y-99560001D01*
X178747302Y-99570494D01*
X178580880Y-99625641D01*
X178580875Y-99625643D01*
X178431654Y-99717684D01*
X178307684Y-99841654D01*
X178215643Y-99990875D01*
X178215641Y-99990880D01*
X178160494Y-100157302D01*
X178160493Y-100157309D01*
X178150000Y-100260013D01*
X176050499Y-100260013D01*
X176050499Y-100259998D01*
X176050498Y-100259981D01*
X176039999Y-100157203D01*
X176039998Y-100157200D01*
X176031160Y-100130528D01*
X175984814Y-99990666D01*
X175892712Y-99841344D01*
X175768656Y-99717288D01*
X175661646Y-99651284D01*
X175619336Y-99625187D01*
X175619331Y-99625185D01*
X175574293Y-99610261D01*
X175535495Y-99597404D01*
X175478051Y-99557632D01*
X175451228Y-99493116D01*
X175450500Y-99479699D01*
X175450500Y-96444038D01*
X184069500Y-96444038D01*
X184069500Y-97995961D01*
X184108910Y-98244785D01*
X184186760Y-98484383D01*
X184240157Y-98589179D01*
X184283286Y-98673825D01*
X184301132Y-98708848D01*
X184449201Y-98912649D01*
X184449205Y-98912654D01*
X184627345Y-99090794D01*
X184627350Y-99090798D01*
X184709199Y-99150264D01*
X184831155Y-99238870D01*
X184974184Y-99311747D01*
X185055616Y-99353239D01*
X185055618Y-99353239D01*
X185055621Y-99353241D01*
X185295215Y-99431090D01*
X185544038Y-99470500D01*
X185544039Y-99470500D01*
X185795961Y-99470500D01*
X185795962Y-99470500D01*
X186044785Y-99431090D01*
X186284379Y-99353241D01*
X186508845Y-99238870D01*
X186712656Y-99090793D01*
X186804511Y-98998937D01*
X186865831Y-98965454D01*
X186905445Y-98963330D01*
X186912514Y-98964089D01*
X186912517Y-98964091D01*
X186972127Y-98970500D01*
X188567872Y-98970499D01*
X188627483Y-98964091D01*
X188762331Y-98913796D01*
X188877546Y-98827546D01*
X188906236Y-98789220D01*
X188962166Y-98747353D01*
X189031857Y-98742368D01*
X189078386Y-98763217D01*
X189114590Y-98789521D01*
X189114592Y-98789522D01*
X189114595Y-98789524D01*
X189172555Y-98819056D01*
X189289970Y-98878882D01*
X189289972Y-98878882D01*
X189289975Y-98878884D01*
X189390317Y-98911487D01*
X189477173Y-98939709D01*
X189671578Y-98970500D01*
X189671583Y-98970500D01*
X189868422Y-98970500D01*
X190062826Y-98939709D01*
X190250025Y-98878884D01*
X190425405Y-98789524D01*
X190584646Y-98673828D01*
X190682319Y-98576155D01*
X190743642Y-98542670D01*
X190813334Y-98547654D01*
X190857681Y-98576155D01*
X190955354Y-98673828D01*
X191114595Y-98789524D01*
X191172555Y-98819056D01*
X191289970Y-98878882D01*
X191289972Y-98878882D01*
X191289975Y-98878884D01*
X191390317Y-98911487D01*
X191477173Y-98939709D01*
X191671578Y-98970500D01*
X191671583Y-98970500D01*
X191868422Y-98970500D01*
X192062826Y-98939709D01*
X192250025Y-98878884D01*
X192425405Y-98789524D01*
X192425409Y-98789520D01*
X192429087Y-98787647D01*
X192497756Y-98774751D01*
X192562497Y-98801027D01*
X192585699Y-98825245D01*
X192649207Y-98912656D01*
X192649209Y-98912658D01*
X192827345Y-99090794D01*
X192827350Y-99090798D01*
X192909199Y-99150264D01*
X193031155Y-99238870D01*
X193174184Y-99311747D01*
X193255616Y-99353239D01*
X193255618Y-99353239D01*
X193255621Y-99353241D01*
X193495215Y-99431090D01*
X193744038Y-99470500D01*
X193744039Y-99470500D01*
X193995961Y-99470500D01*
X193995962Y-99470500D01*
X194244785Y-99431090D01*
X194484379Y-99353241D01*
X194708845Y-99238870D01*
X194912656Y-99090793D01*
X195090793Y-98912656D01*
X195238870Y-98708845D01*
X195353241Y-98484379D01*
X195431090Y-98244785D01*
X195470500Y-97995962D01*
X195470500Y-96444038D01*
X195431090Y-96195215D01*
X195353241Y-95955621D01*
X195353239Y-95955618D01*
X195353239Y-95955616D01*
X195299731Y-95850602D01*
X195238870Y-95731155D01*
X195215560Y-95699072D01*
X195090798Y-95527350D01*
X195090794Y-95527345D01*
X194912654Y-95349205D01*
X194912649Y-95349201D01*
X194708848Y-95201132D01*
X194708847Y-95201131D01*
X194708845Y-95201130D01*
X194630896Y-95161413D01*
X194484383Y-95086760D01*
X194244785Y-95008910D01*
X193995962Y-94969500D01*
X193744038Y-94969500D01*
X193619626Y-94989205D01*
X193495214Y-95008910D01*
X193255616Y-95086760D01*
X193031151Y-95201132D01*
X192827350Y-95349201D01*
X192827345Y-95349205D01*
X192649209Y-95527341D01*
X192649202Y-95527350D01*
X192585699Y-95614753D01*
X192530369Y-95657419D01*
X192460756Y-95663397D01*
X192429087Y-95652352D01*
X192250029Y-95561117D01*
X192062826Y-95500290D01*
X191868422Y-95469500D01*
X191868417Y-95469500D01*
X191671583Y-95469500D01*
X191671578Y-95469500D01*
X191477173Y-95500290D01*
X191289970Y-95561117D01*
X191114594Y-95650476D01*
X191026668Y-95714359D01*
X190955354Y-95766172D01*
X190955352Y-95766174D01*
X190955351Y-95766174D01*
X190857681Y-95863845D01*
X190796358Y-95897330D01*
X190726666Y-95892346D01*
X190682319Y-95863845D01*
X190584648Y-95766174D01*
X190584646Y-95766172D01*
X190425405Y-95650476D01*
X190419629Y-95647533D01*
X190250029Y-95561117D01*
X190062826Y-95500290D01*
X189868422Y-95469500D01*
X189868417Y-95469500D01*
X189671583Y-95469500D01*
X189671578Y-95469500D01*
X189477173Y-95500290D01*
X189289970Y-95561117D01*
X189114595Y-95650475D01*
X189078385Y-95676784D01*
X189012578Y-95700263D01*
X188944524Y-95684437D01*
X188906235Y-95650778D01*
X188877546Y-95612454D01*
X188877544Y-95612452D01*
X188877543Y-95612451D01*
X188762335Y-95526206D01*
X188762328Y-95526202D01*
X188627482Y-95475908D01*
X188627483Y-95475908D01*
X188567883Y-95469501D01*
X188567881Y-95469500D01*
X188567873Y-95469500D01*
X188567864Y-95469500D01*
X186972129Y-95469500D01*
X186972123Y-95469501D01*
X186905443Y-95476669D01*
X186836683Y-95464262D01*
X186804509Y-95441060D01*
X186712654Y-95349205D01*
X186712649Y-95349201D01*
X186508848Y-95201132D01*
X186508847Y-95201131D01*
X186508845Y-95201130D01*
X186430896Y-95161413D01*
X186284383Y-95086760D01*
X186044785Y-95008910D01*
X185795962Y-94969500D01*
X185544038Y-94969500D01*
X185419626Y-94989205D01*
X185295214Y-95008910D01*
X185055616Y-95086760D01*
X184831151Y-95201132D01*
X184627350Y-95349201D01*
X184627345Y-95349205D01*
X184449205Y-95527345D01*
X184449201Y-95527350D01*
X184301132Y-95731151D01*
X184186760Y-95955616D01*
X184108910Y-96195214D01*
X184069500Y-96444038D01*
X175450500Y-96444038D01*
X175450500Y-93640300D01*
X175470185Y-93573261D01*
X175522989Y-93527506D01*
X175535482Y-93522599D01*
X175619334Y-93494814D01*
X175768656Y-93402712D01*
X175892712Y-93278656D01*
X175984814Y-93129334D01*
X176039999Y-92962797D01*
X176050500Y-92860009D01*
X176050500Y-92859986D01*
X178150001Y-92859986D01*
X178160494Y-92962697D01*
X178215641Y-93129119D01*
X178215643Y-93129124D01*
X178307684Y-93278345D01*
X178431654Y-93402315D01*
X178580875Y-93494356D01*
X178580880Y-93494358D01*
X178747302Y-93549505D01*
X178747309Y-93549506D01*
X178850019Y-93559999D01*
X179099999Y-93559999D01*
X179600000Y-93559999D01*
X179849972Y-93559999D01*
X179849986Y-93559998D01*
X179952697Y-93549505D01*
X180119119Y-93494358D01*
X180119124Y-93494356D01*
X180268345Y-93402315D01*
X180392315Y-93278345D01*
X180484356Y-93129124D01*
X180484358Y-93129119D01*
X180539505Y-92962697D01*
X180539506Y-92962690D01*
X180549999Y-92859986D01*
X180550000Y-92859973D01*
X180550000Y-92260000D01*
X179600000Y-92260000D01*
X179600000Y-93559999D01*
X179099999Y-93559999D01*
X179100000Y-93559998D01*
X179100000Y-92260000D01*
X178150001Y-92260000D01*
X178150001Y-92859986D01*
X176050500Y-92859986D01*
X176050499Y-91874435D01*
X176050499Y-91160013D01*
X178150000Y-91160013D01*
X178150000Y-91760000D01*
X179100000Y-91760000D01*
X179600000Y-91760000D01*
X180549999Y-91760000D01*
X180549999Y-91160028D01*
X180549998Y-91160013D01*
X180539505Y-91057302D01*
X180484358Y-90890880D01*
X180484356Y-90890875D01*
X180392315Y-90741654D01*
X180268345Y-90617684D01*
X180119124Y-90525643D01*
X180119119Y-90525641D01*
X179952697Y-90470494D01*
X179952690Y-90470493D01*
X179849986Y-90460000D01*
X179600000Y-90460000D01*
X179600000Y-91760000D01*
X179100000Y-91760000D01*
X179100000Y-90460000D01*
X178850029Y-90460000D01*
X178850012Y-90460001D01*
X178747302Y-90470494D01*
X178580880Y-90525641D01*
X178580875Y-90525643D01*
X178431654Y-90617684D01*
X178307684Y-90741654D01*
X178215643Y-90890875D01*
X178215641Y-90890880D01*
X178160494Y-91057302D01*
X178160493Y-91057309D01*
X178150000Y-91160013D01*
X176050499Y-91160013D01*
X176050499Y-91159998D01*
X176050498Y-91159981D01*
X176039999Y-91057203D01*
X176039998Y-91057200D01*
X176029046Y-91024149D01*
X175984814Y-90890666D01*
X175892712Y-90741344D01*
X175768656Y-90617288D01*
X175619334Y-90525186D01*
X175452797Y-90470001D01*
X175452795Y-90470000D01*
X175350010Y-90459500D01*
X174349998Y-90459500D01*
X174349980Y-90459501D01*
X174247203Y-90470000D01*
X174240690Y-90471395D01*
X174171015Y-90466177D01*
X174127057Y-90437822D01*
X173121415Y-89432180D01*
X173087930Y-89370857D01*
X173092914Y-89301165D01*
X173134786Y-89245232D01*
X173200250Y-89220815D01*
X173209096Y-89220499D01*
X173267871Y-89220499D01*
X173267872Y-89220499D01*
X173327483Y-89214091D01*
X173462331Y-89163796D01*
X173577546Y-89077546D01*
X173663796Y-88962331D01*
X173714091Y-88827483D01*
X173720500Y-88767873D01*
X173720499Y-85872128D01*
X173714091Y-85812517D01*
X173698426Y-85770517D01*
X173660697Y-85669359D01*
X173662266Y-85668773D01*
X173649616Y-85610630D01*
X173661314Y-85570793D01*
X173660253Y-85570398D01*
X173713597Y-85427376D01*
X173713598Y-85427372D01*
X173719999Y-85367844D01*
X173720000Y-85367827D01*
X173720000Y-84170000D01*
X172549889Y-84170000D01*
X172560410Y-84144601D01*
X172590000Y-83995838D01*
X172590000Y-83844162D01*
X172560410Y-83695399D01*
X172549889Y-83670000D01*
X173720000Y-83670000D01*
X173720000Y-82472172D01*
X173719999Y-82472155D01*
X173713598Y-82412627D01*
X173713596Y-82412620D01*
X173663354Y-82277913D01*
X173663350Y-82277906D01*
X173577190Y-82162812D01*
X173577187Y-82162809D01*
X173462093Y-82076649D01*
X173462086Y-82076645D01*
X173327379Y-82026403D01*
X173327372Y-82026401D01*
X173267844Y-82020000D01*
X172070000Y-82020000D01*
X172070000Y-83190110D01*
X172044601Y-83179590D01*
X171895838Y-83150000D01*
X171744162Y-83150000D01*
X171595399Y-83179590D01*
X171570000Y-83190110D01*
X171570000Y-82020000D01*
X170372155Y-82020000D01*
X170312627Y-82026401D01*
X170312620Y-82026403D01*
X170177913Y-82076645D01*
X170177906Y-82076649D01*
X170062812Y-82162809D01*
X170062809Y-82162812D01*
X169976649Y-82277906D01*
X169976645Y-82277913D01*
X169926403Y-82412620D01*
X169926401Y-82412627D01*
X169920000Y-82472155D01*
X169920000Y-83670000D01*
X171090111Y-83670000D01*
X171079590Y-83695399D01*
X171050000Y-83844162D01*
X171050000Y-83995838D01*
X171079590Y-84144601D01*
X171090111Y-84170000D01*
X169920000Y-84170000D01*
X169920000Y-85367844D01*
X169926401Y-85427372D01*
X169926403Y-85427379D01*
X169979746Y-85570399D01*
X169977930Y-85571076D01*
X169990383Y-85628316D01*
X169978428Y-85669033D01*
X169979303Y-85669359D01*
X169925908Y-85812517D01*
X169919501Y-85872116D01*
X169919500Y-85872127D01*
X169919500Y-87133058D01*
X169919501Y-88295500D01*
X169899816Y-88362539D01*
X169847013Y-88408294D01*
X169795501Y-88419500D01*
X168998627Y-88419500D01*
X168931588Y-88399815D01*
X168910946Y-88383181D01*
X161539946Y-81012181D01*
X161506461Y-80950858D01*
X161511445Y-80881166D01*
X161553317Y-80825233D01*
X161618781Y-80800816D01*
X161627627Y-80800500D01*
X161651289Y-80800500D01*
X161699388Y-80794167D01*
X161891789Y-80768838D01*
X162126100Y-80706054D01*
X162350212Y-80613224D01*
X162560289Y-80491936D01*
X162752738Y-80344265D01*
X162924265Y-80172738D01*
X163071936Y-79980289D01*
X163193224Y-79770212D01*
X163286054Y-79546100D01*
X163348838Y-79311789D01*
X163380500Y-79071288D01*
X163380500Y-78828712D01*
X163379813Y-78823497D01*
X163372584Y-78768586D01*
X163348838Y-78588211D01*
X163286054Y-78353900D01*
X163193224Y-78129788D01*
X163071936Y-77919711D01*
X162987976Y-77810292D01*
X162924266Y-77727263D01*
X162924260Y-77727256D01*
X162752743Y-77555739D01*
X162752736Y-77555733D01*
X162560293Y-77408067D01*
X162560292Y-77408066D01*
X162560289Y-77408064D01*
X162350212Y-77286776D01*
X162350205Y-77286773D01*
X162126104Y-77193947D01*
X161891785Y-77131161D01*
X161651289Y-77099500D01*
X161651288Y-77099500D01*
X161408712Y-77099500D01*
X161408711Y-77099500D01*
X161168214Y-77131161D01*
X160933895Y-77193947D01*
X160709794Y-77286773D01*
X160709785Y-77286777D01*
X160499706Y-77408067D01*
X160307263Y-77555733D01*
X160307256Y-77555739D01*
X160135739Y-77727256D01*
X160135733Y-77727263D01*
X159988067Y-77919706D01*
X159866777Y-78129785D01*
X159866773Y-78129794D01*
X159773947Y-78353895D01*
X159711161Y-78588214D01*
X159679500Y-78828711D01*
X159679500Y-78852374D01*
X159659815Y-78919413D01*
X159607011Y-78965168D01*
X159537853Y-78975112D01*
X159474297Y-78946087D01*
X159467819Y-78940055D01*
X151899899Y-71372135D01*
X169919500Y-71372135D01*
X169919500Y-74267870D01*
X169919501Y-74267876D01*
X169925908Y-74327483D01*
X169976202Y-74462328D01*
X169976203Y-74462330D01*
X170001176Y-74495690D01*
X170025592Y-74561155D01*
X170010740Y-74629428D01*
X170001176Y-74644310D01*
X169976203Y-74677669D01*
X169976202Y-74677671D01*
X169925908Y-74812517D01*
X169922470Y-74844499D01*
X169919501Y-74872123D01*
X169919500Y-74872135D01*
X169919500Y-77767870D01*
X169919501Y-77767876D01*
X169925908Y-77827483D01*
X169976202Y-77962328D01*
X169976206Y-77962335D01*
X170062452Y-78077544D01*
X170062455Y-78077547D01*
X170177664Y-78163793D01*
X170177671Y-78163797D01*
X170312517Y-78214091D01*
X170312516Y-78214091D01*
X170319444Y-78214835D01*
X170372127Y-78220500D01*
X173267872Y-78220499D01*
X173327483Y-78214091D01*
X173462331Y-78163796D01*
X173577546Y-78077546D01*
X173663796Y-77962331D01*
X173714091Y-77827483D01*
X173720500Y-77767873D01*
X173720499Y-74872128D01*
X173714091Y-74812517D01*
X173699539Y-74773501D01*
X173663797Y-74677670D01*
X173653411Y-74663797D01*
X173638823Y-74644310D01*
X173614406Y-74578849D01*
X173629257Y-74510575D01*
X173638823Y-74495690D01*
X173663796Y-74462331D01*
X173664236Y-74461153D01*
X173714091Y-74327482D01*
X173716346Y-74306508D01*
X173720500Y-74267873D01*
X173720499Y-71372128D01*
X173714091Y-71312517D01*
X173668297Y-71189738D01*
X173663797Y-71177671D01*
X173663793Y-71177664D01*
X173577547Y-71062455D01*
X173577544Y-71062452D01*
X173462335Y-70976206D01*
X173462328Y-70976202D01*
X173327482Y-70925908D01*
X173327483Y-70925908D01*
X173267883Y-70919501D01*
X173267881Y-70919500D01*
X173267873Y-70919500D01*
X173267864Y-70919500D01*
X170372129Y-70919500D01*
X170372123Y-70919501D01*
X170312516Y-70925908D01*
X170177671Y-70976202D01*
X170177664Y-70976206D01*
X170062455Y-71062452D01*
X170062452Y-71062455D01*
X169976206Y-71177664D01*
X169976202Y-71177671D01*
X169925908Y-71312517D01*
X169919501Y-71372116D01*
X169919501Y-71372123D01*
X169919500Y-71372135D01*
X151899899Y-71372135D01*
X148766100Y-68238336D01*
X158519500Y-68238336D01*
X158519500Y-68541663D01*
X158553457Y-68843048D01*
X158553460Y-68843062D01*
X158620953Y-69138771D01*
X158620957Y-69138783D01*
X158721133Y-69425068D01*
X158852733Y-69698338D01*
X158902653Y-69777785D01*
X159014108Y-69955164D01*
X159203221Y-70192304D01*
X159417696Y-70406779D01*
X159654836Y-70595892D01*
X159911659Y-70757265D01*
X160184935Y-70888868D01*
X160399951Y-70964105D01*
X160471216Y-70989042D01*
X160471228Y-70989046D01*
X160766937Y-71056540D01*
X160766946Y-71056541D01*
X160766951Y-71056542D01*
X160967874Y-71079180D01*
X161068337Y-71090499D01*
X161068340Y-71090500D01*
X161068343Y-71090500D01*
X161371660Y-71090500D01*
X161371661Y-71090499D01*
X161525694Y-71073144D01*
X161673048Y-71056542D01*
X161673051Y-71056541D01*
X161673063Y-71056540D01*
X161968772Y-70989046D01*
X162255065Y-70888868D01*
X162528341Y-70757265D01*
X162785164Y-70595892D01*
X163022304Y-70406779D01*
X163236779Y-70192304D01*
X163425892Y-69955164D01*
X163587265Y-69698341D01*
X163718868Y-69425065D01*
X163819046Y-69138772D01*
X163886540Y-68843063D01*
X163895992Y-68759179D01*
X163912405Y-68613501D01*
X163920500Y-68541657D01*
X163920500Y-68238343D01*
X163899309Y-68050263D01*
X163886542Y-67936951D01*
X163886541Y-67936946D01*
X163886540Y-67936937D01*
X163819046Y-67641228D01*
X163797446Y-67579500D01*
X163735464Y-67402365D01*
X163718868Y-67354935D01*
X163587265Y-67081659D01*
X163425892Y-66824836D01*
X163236779Y-66587696D01*
X163022304Y-66373221D01*
X162785164Y-66184108D01*
X162528341Y-66022735D01*
X162528338Y-66022733D01*
X162255068Y-65891133D01*
X161968783Y-65790957D01*
X161968771Y-65790953D01*
X161740556Y-65738864D01*
X161673063Y-65723460D01*
X161673060Y-65723459D01*
X161673048Y-65723457D01*
X161371663Y-65689500D01*
X161371657Y-65689500D01*
X161068343Y-65689500D01*
X161068336Y-65689500D01*
X160766951Y-65723457D01*
X160766937Y-65723460D01*
X160471228Y-65790953D01*
X160471216Y-65790957D01*
X160184931Y-65891133D01*
X159911661Y-66022733D01*
X159654837Y-66184107D01*
X159417696Y-66373220D01*
X159203220Y-66587696D01*
X159014107Y-66824837D01*
X158852733Y-67081661D01*
X158721133Y-67354931D01*
X158620957Y-67641216D01*
X158620953Y-67641228D01*
X158553460Y-67936937D01*
X158553457Y-67936951D01*
X158519500Y-68238336D01*
X148766100Y-68238336D01*
X146528945Y-66001181D01*
X146495460Y-65939858D01*
X146500444Y-65870166D01*
X146542316Y-65814233D01*
X146592432Y-65791883D01*
X146653497Y-65779737D01*
X146799179Y-65719394D01*
X146930289Y-65631789D01*
X147041789Y-65520289D01*
X147129394Y-65389179D01*
X147189737Y-65243497D01*
X147220500Y-65088842D01*
X147220500Y-64931158D01*
X147220500Y-64931155D01*
X147220499Y-64931153D01*
X147189738Y-64776510D01*
X147189737Y-64776503D01*
X147167999Y-64724022D01*
X147129397Y-64630827D01*
X147129390Y-64630814D01*
X147041789Y-64499711D01*
X147041786Y-64499707D01*
X146941426Y-64399347D01*
X146907941Y-64338024D01*
X146912925Y-64268332D01*
X146954797Y-64212399D01*
X146960177Y-64208590D01*
X147000289Y-64181789D01*
X147111789Y-64070289D01*
X147199394Y-63939179D01*
X147223999Y-63879778D01*
X152819500Y-63879778D01*
X152819500Y-64100222D01*
X152827426Y-64150263D01*
X152853985Y-64317952D01*
X152922103Y-64527603D01*
X152922104Y-64527606D01*
X153022187Y-64724025D01*
X153151752Y-64902358D01*
X153151756Y-64902363D01*
X153307636Y-65058243D01*
X153307641Y-65058247D01*
X153419727Y-65139682D01*
X153462393Y-65195011D01*
X153468372Y-65264625D01*
X153435767Y-65326420D01*
X153419727Y-65340318D01*
X153307641Y-65421752D01*
X153307636Y-65421756D01*
X153151756Y-65577636D01*
X153151752Y-65577641D01*
X153022187Y-65755974D01*
X152922104Y-65952393D01*
X152922103Y-65952396D01*
X152853985Y-66162047D01*
X152819500Y-66379778D01*
X152819500Y-66600221D01*
X152853985Y-66817952D01*
X152922103Y-67027603D01*
X152922104Y-67027606D01*
X153022187Y-67224025D01*
X153151752Y-67402358D01*
X153151756Y-67402363D01*
X153307636Y-67558243D01*
X153307641Y-67558247D01*
X153421856Y-67641228D01*
X153485978Y-67687815D01*
X153614375Y-67753237D01*
X153682393Y-67787895D01*
X153682396Y-67787896D01*
X153787221Y-67821955D01*
X153892049Y-67856015D01*
X154109778Y-67890500D01*
X154109779Y-67890500D01*
X154330221Y-67890500D01*
X154330222Y-67890500D01*
X154547951Y-67856015D01*
X154757606Y-67787895D01*
X154954022Y-67687815D01*
X155132365Y-67558242D01*
X155288242Y-67402365D01*
X155417815Y-67224022D01*
X155517895Y-67027606D01*
X155586015Y-66817951D01*
X155620500Y-66600222D01*
X155620500Y-66379778D01*
X155586015Y-66162049D01*
X155533532Y-66000520D01*
X155517896Y-65952396D01*
X155517895Y-65952393D01*
X155464078Y-65846773D01*
X155417815Y-65755978D01*
X155327585Y-65631786D01*
X155288247Y-65577641D01*
X155288243Y-65577636D01*
X155132365Y-65421758D01*
X155132357Y-65421752D01*
X155020270Y-65340317D01*
X154977606Y-65284989D01*
X154971627Y-65215376D01*
X155004232Y-65153580D01*
X155020265Y-65139686D01*
X155132365Y-65058242D01*
X155288242Y-64902365D01*
X155417815Y-64724022D01*
X155517895Y-64527606D01*
X155586015Y-64317951D01*
X155620500Y-64100222D01*
X155620500Y-63879778D01*
X155586015Y-63662049D01*
X155527239Y-63481153D01*
X155517896Y-63452396D01*
X155517895Y-63452393D01*
X155453753Y-63326510D01*
X155417815Y-63255978D01*
X155363211Y-63180821D01*
X155288247Y-63077641D01*
X155288243Y-63077636D01*
X155132359Y-62921752D01*
X155019846Y-62840008D01*
X154977180Y-62784679D01*
X154971201Y-62715065D01*
X155003806Y-62653270D01*
X155017486Y-62641416D01*
X155017514Y-62641066D01*
X154349409Y-61972962D01*
X154412993Y-61955925D01*
X154527007Y-61890099D01*
X154620099Y-61797007D01*
X154685925Y-61682993D01*
X154702962Y-61619410D01*
X155371066Y-62287514D01*
X155371066Y-62287513D01*
X155417386Y-62223760D01*
X155517432Y-62027410D01*
X155585526Y-61817835D01*
X155620000Y-61600181D01*
X155620000Y-61379818D01*
X155585526Y-61162164D01*
X155517432Y-60952589D01*
X155417388Y-60756243D01*
X155371066Y-60692485D01*
X155371065Y-60692485D01*
X154702962Y-61360589D01*
X154685925Y-61297007D01*
X154620099Y-61182993D01*
X154527007Y-61089901D01*
X154412993Y-61024075D01*
X154349407Y-61007037D01*
X155017513Y-60338932D01*
X154953756Y-60292611D01*
X154757410Y-60192567D01*
X154547835Y-60124473D01*
X154330181Y-60090000D01*
X154109819Y-60090000D01*
X153892164Y-60124473D01*
X153682589Y-60192567D01*
X153486233Y-60292616D01*
X153422485Y-60338931D01*
X153422485Y-60338932D01*
X154090590Y-61007037D01*
X154027007Y-61024075D01*
X153912993Y-61089901D01*
X153819901Y-61182993D01*
X153754075Y-61297007D01*
X153737037Y-61360590D01*
X153068932Y-60692485D01*
X153068931Y-60692485D01*
X153022616Y-60756233D01*
X152922567Y-60952589D01*
X152854473Y-61162164D01*
X152820000Y-61379818D01*
X152820000Y-61600181D01*
X152854473Y-61817835D01*
X152922567Y-62027410D01*
X153022611Y-62223756D01*
X153068932Y-62287513D01*
X153737037Y-61619408D01*
X153754075Y-61682993D01*
X153819901Y-61797007D01*
X153912993Y-61890099D01*
X154027007Y-61955925D01*
X154090590Y-61972962D01*
X153422485Y-62641065D01*
X153422602Y-62642548D01*
X153462818Y-62694701D01*
X153468797Y-62764315D01*
X153436192Y-62826110D01*
X153420153Y-62840008D01*
X153307636Y-62921756D01*
X153151756Y-63077636D01*
X153151752Y-63077641D01*
X153022187Y-63255974D01*
X152922104Y-63452393D01*
X152922103Y-63452396D01*
X152853985Y-63662047D01*
X152833165Y-63793501D01*
X152819500Y-63879778D01*
X147223999Y-63879778D01*
X147245672Y-63827454D01*
X147259735Y-63793501D01*
X147259737Y-63793497D01*
X147290500Y-63638842D01*
X147290500Y-63481158D01*
X147290500Y-63481155D01*
X147290499Y-63481153D01*
X147259738Y-63326510D01*
X147259737Y-63326503D01*
X147218707Y-63227447D01*
X147199397Y-63180827D01*
X147199390Y-63180814D01*
X147111398Y-63049125D01*
X147090520Y-62982447D01*
X147090500Y-62980234D01*
X147090500Y-60242889D01*
X147099939Y-60195437D01*
X147115309Y-60158328D01*
X147129737Y-60123497D01*
X147160500Y-59968842D01*
X147160500Y-59811158D01*
X147160500Y-59811155D01*
X147160499Y-59811153D01*
X147129738Y-59656510D01*
X147129737Y-59656503D01*
X147127996Y-59652299D01*
X147069397Y-59510827D01*
X147069392Y-59510818D01*
X147064674Y-59503757D01*
X147064673Y-59503755D01*
X147020961Y-59438336D01*
X158519500Y-59438336D01*
X158519500Y-59741663D01*
X158553457Y-60043048D01*
X158553460Y-60043062D01*
X158620953Y-60338771D01*
X158620957Y-60338783D01*
X158721133Y-60625068D01*
X158852733Y-60898338D01*
X158852735Y-60898341D01*
X159014108Y-61155164D01*
X159203221Y-61392304D01*
X159417696Y-61606779D01*
X159654836Y-61795892D01*
X159911659Y-61957265D01*
X160184935Y-62088868D01*
X160357312Y-62149185D01*
X160471216Y-62189042D01*
X160471228Y-62189046D01*
X160766937Y-62256540D01*
X160766946Y-62256541D01*
X160766951Y-62256542D01*
X160967874Y-62279180D01*
X161068337Y-62290499D01*
X161068340Y-62290500D01*
X161068343Y-62290500D01*
X161371660Y-62290500D01*
X161371661Y-62290499D01*
X161525694Y-62273144D01*
X161673048Y-62256542D01*
X161673051Y-62256541D01*
X161673063Y-62256540D01*
X161968772Y-62189046D01*
X162255065Y-62088868D01*
X162528341Y-61957265D01*
X162785164Y-61795892D01*
X163022304Y-61606779D01*
X163236779Y-61392304D01*
X163425892Y-61155164D01*
X163587265Y-60898341D01*
X163718868Y-60625065D01*
X163819046Y-60338772D01*
X163886540Y-60043063D01*
X163897962Y-59941685D01*
X163911292Y-59823389D01*
X179904500Y-59823389D01*
X179904500Y-59996610D01*
X179924595Y-60123489D01*
X179931598Y-60167701D01*
X179985127Y-60332445D01*
X180063768Y-60486788D01*
X180165586Y-60626928D01*
X180165588Y-60626930D01*
X180273127Y-60734469D01*
X180306612Y-60795792D01*
X180301628Y-60865484D01*
X180259756Y-60921417D01*
X180250544Y-60927688D01*
X180186344Y-60967287D01*
X180062289Y-61091342D01*
X179970187Y-61240663D01*
X179970186Y-61240666D01*
X179915001Y-61407203D01*
X179915001Y-61407204D01*
X179915000Y-61407204D01*
X179904500Y-61509983D01*
X179904500Y-62310001D01*
X179904501Y-62310019D01*
X179915000Y-62412796D01*
X179915001Y-62412799D01*
X179970185Y-62579331D01*
X179970186Y-62579334D01*
X180062288Y-62728656D01*
X180186344Y-62852712D01*
X180335666Y-62944814D01*
X180502203Y-62999999D01*
X180604991Y-63010500D01*
X181955008Y-63010499D01*
X182057797Y-62999999D01*
X182224334Y-62944814D01*
X182373656Y-62852712D01*
X182497712Y-62728656D01*
X182589814Y-62579334D01*
X182644999Y-62412797D01*
X182655500Y-62310009D01*
X182655499Y-61854983D01*
X186559500Y-61854983D01*
X186559500Y-63205001D01*
X186559501Y-63205018D01*
X186570000Y-63307796D01*
X186570001Y-63307799D01*
X186625185Y-63474331D01*
X186625187Y-63474336D01*
X186648870Y-63512732D01*
X186717288Y-63623656D01*
X186841344Y-63747712D01*
X186990666Y-63839814D01*
X187157203Y-63894999D01*
X187259991Y-63905500D01*
X188060008Y-63905499D01*
X188060016Y-63905498D01*
X188060019Y-63905498D01*
X188116302Y-63899748D01*
X188162797Y-63894999D01*
X188329334Y-63839814D01*
X188478656Y-63747712D01*
X188602712Y-63623656D01*
X188642310Y-63559456D01*
X188694258Y-63512732D01*
X188763220Y-63501509D01*
X188827303Y-63529352D01*
X188835530Y-63536872D01*
X188943072Y-63644414D01*
X189083212Y-63746232D01*
X189237555Y-63824873D01*
X189402299Y-63878402D01*
X189573389Y-63905500D01*
X189573390Y-63905500D01*
X189746610Y-63905500D01*
X189746611Y-63905500D01*
X189917701Y-63878402D01*
X190082445Y-63824873D01*
X190236788Y-63746232D01*
X190376928Y-63644414D01*
X190499414Y-63521928D01*
X190601232Y-63381788D01*
X190679873Y-63227445D01*
X190733402Y-63062701D01*
X190760500Y-62891611D01*
X190760500Y-62168389D01*
X190733402Y-61997299D01*
X190679873Y-61832555D01*
X190601232Y-61678212D01*
X190499414Y-61538072D01*
X190376928Y-61415586D01*
X190236788Y-61313768D01*
X190082445Y-61235127D01*
X189917701Y-61181598D01*
X189917699Y-61181597D01*
X189917698Y-61181597D01*
X189786271Y-61160781D01*
X189746611Y-61154500D01*
X189573389Y-61154500D01*
X189533728Y-61160781D01*
X189402302Y-61181597D01*
X189237552Y-61235128D01*
X189083211Y-61313768D01*
X188943073Y-61415585D01*
X188835530Y-61523128D01*
X188774207Y-61556612D01*
X188704515Y-61551628D01*
X188648582Y-61509756D01*
X188642310Y-61500543D01*
X188635806Y-61489999D01*
X188602712Y-61436344D01*
X188478656Y-61312288D01*
X188353559Y-61235128D01*
X188329336Y-61220187D01*
X188329331Y-61220185D01*
X188327862Y-61219698D01*
X188162797Y-61165001D01*
X188162795Y-61165000D01*
X188060010Y-61154500D01*
X187259998Y-61154500D01*
X187259980Y-61154501D01*
X187157203Y-61165000D01*
X187157200Y-61165001D01*
X186990668Y-61220185D01*
X186990663Y-61220187D01*
X186841342Y-61312289D01*
X186717289Y-61436342D01*
X186625187Y-61585663D01*
X186625186Y-61585666D01*
X186570001Y-61752203D01*
X186570001Y-61752204D01*
X186570000Y-61752204D01*
X186559500Y-61854983D01*
X182655499Y-61854983D01*
X182655499Y-61509992D01*
X182644999Y-61407203D01*
X182589814Y-61240666D01*
X182497712Y-61091344D01*
X182373656Y-60967288D01*
X182373652Y-60967285D01*
X182309456Y-60927688D01*
X182262731Y-60875740D01*
X182251510Y-60806777D01*
X182279353Y-60742695D01*
X182286850Y-60734491D01*
X182394414Y-60626928D01*
X182496232Y-60486788D01*
X182574873Y-60332445D01*
X182628402Y-60167701D01*
X182655500Y-59996611D01*
X182655500Y-59823389D01*
X182628402Y-59652299D01*
X182574873Y-59487555D01*
X182496232Y-59333212D01*
X182394414Y-59193072D01*
X182271928Y-59070586D01*
X182131788Y-58968768D01*
X181977445Y-58890127D01*
X181812701Y-58836598D01*
X181812699Y-58836597D01*
X181812698Y-58836597D01*
X181681271Y-58815781D01*
X181641611Y-58809500D01*
X180918389Y-58809500D01*
X180878728Y-58815781D01*
X180747302Y-58836597D01*
X180582552Y-58890128D01*
X180428211Y-58968768D01*
X180348256Y-59026859D01*
X180288072Y-59070586D01*
X180288070Y-59070588D01*
X180288069Y-59070588D01*
X180165588Y-59193069D01*
X180165588Y-59193070D01*
X180165586Y-59193072D01*
X180121859Y-59253256D01*
X180063768Y-59333211D01*
X179985128Y-59487552D01*
X179931597Y-59652302D01*
X179904500Y-59823389D01*
X163911292Y-59823389D01*
X163913405Y-59804633D01*
X163913405Y-59804632D01*
X163920499Y-59741663D01*
X163920500Y-59741659D01*
X163920500Y-59438340D01*
X163920499Y-59438336D01*
X163886542Y-59136951D01*
X163886541Y-59136946D01*
X163886540Y-59136937D01*
X163819046Y-58841228D01*
X163718868Y-58554935D01*
X163587265Y-58281659D01*
X163425892Y-58024836D01*
X163236779Y-57787696D01*
X163022304Y-57573221D01*
X162785164Y-57384108D01*
X162607785Y-57272653D01*
X162528338Y-57222733D01*
X162255068Y-57091133D01*
X161968783Y-56990957D01*
X161968771Y-56990953D01*
X161740556Y-56938864D01*
X161673063Y-56923460D01*
X161673060Y-56923459D01*
X161673048Y-56923457D01*
X161371663Y-56889500D01*
X161371657Y-56889500D01*
X161068343Y-56889500D01*
X161068336Y-56889500D01*
X160766951Y-56923457D01*
X160766937Y-56923460D01*
X160471228Y-56990953D01*
X160471216Y-56990957D01*
X160184931Y-57091133D01*
X159911661Y-57222733D01*
X159654837Y-57384107D01*
X159417696Y-57573220D01*
X159203220Y-57787696D01*
X159014107Y-58024837D01*
X158852733Y-58281661D01*
X158721133Y-58554931D01*
X158620957Y-58841216D01*
X158620953Y-58841228D01*
X158553460Y-59136937D01*
X158553457Y-59136951D01*
X158519500Y-59438336D01*
X147020961Y-59438336D01*
X146981789Y-59379711D01*
X146981786Y-59379707D01*
X146870292Y-59268213D01*
X146870288Y-59268210D01*
X146739185Y-59180609D01*
X146739172Y-59180602D01*
X146593501Y-59120264D01*
X146593489Y-59120261D01*
X146438845Y-59089500D01*
X146438842Y-59089500D01*
X146281158Y-59089500D01*
X146281155Y-59089500D01*
X146126510Y-59120261D01*
X146126498Y-59120264D01*
X145980827Y-59180602D01*
X145980814Y-59180609D01*
X145849711Y-59268210D01*
X145849707Y-59268213D01*
X145738213Y-59379707D01*
X145738210Y-59379711D01*
X145650609Y-59510814D01*
X145650602Y-59510827D01*
X145590264Y-59656498D01*
X145590261Y-59656510D01*
X145559500Y-59811153D01*
X145559500Y-59968846D01*
X145590261Y-60123489D01*
X145590264Y-60123501D01*
X145650602Y-60269172D01*
X145650609Y-60269185D01*
X145738210Y-60400288D01*
X145738213Y-60400292D01*
X145853181Y-60515260D01*
X145886666Y-60576583D01*
X145889500Y-60602941D01*
X145889500Y-62980234D01*
X145869815Y-63047273D01*
X145868602Y-63049125D01*
X145780609Y-63180814D01*
X145780602Y-63180827D01*
X145720264Y-63326498D01*
X145720261Y-63326510D01*
X145689500Y-63481153D01*
X145689500Y-63638846D01*
X145720261Y-63793489D01*
X145720264Y-63793501D01*
X145780602Y-63939172D01*
X145780609Y-63939185D01*
X145868210Y-64070288D01*
X145868213Y-64070292D01*
X145905740Y-64107819D01*
X145939225Y-64169142D01*
X145934241Y-64238834D01*
X145892369Y-64294767D01*
X145826905Y-64319184D01*
X145818059Y-64319500D01*
X141339766Y-64319500D01*
X141272727Y-64299815D01*
X141270875Y-64298602D01*
X141139185Y-64210609D01*
X141139172Y-64210602D01*
X140993501Y-64150264D01*
X140993491Y-64150261D01*
X140860308Y-64123769D01*
X140798397Y-64091384D01*
X140763823Y-64030668D01*
X140760500Y-64002152D01*
X140760500Y-63272941D01*
X140780185Y-63205902D01*
X140796819Y-63185260D01*
X140911786Y-63070292D01*
X140911789Y-63070289D01*
X140999394Y-62939179D01*
X141059737Y-62793497D01*
X141090500Y-62638842D01*
X141090500Y-62481158D01*
X141090500Y-62481155D01*
X141090499Y-62481153D01*
X141076902Y-62412796D01*
X141059737Y-62326503D01*
X141044824Y-62290499D01*
X140999397Y-62180827D01*
X140999390Y-62180814D01*
X140911789Y-62049711D01*
X140911786Y-62049707D01*
X140800292Y-61938213D01*
X140800288Y-61938210D01*
X140669185Y-61850609D01*
X140669172Y-61850602D01*
X140523501Y-61790264D01*
X140523489Y-61790261D01*
X140368845Y-61759500D01*
X140368842Y-61759500D01*
X140211158Y-61759500D01*
X140211155Y-61759500D01*
X140056510Y-61790261D01*
X140056498Y-61790264D01*
X139910827Y-61850602D01*
X139910814Y-61850609D01*
X139779711Y-61938210D01*
X139779707Y-61938213D01*
X139668213Y-62049707D01*
X139668210Y-62049711D01*
X139580609Y-62180814D01*
X139580602Y-62180827D01*
X139520264Y-62326498D01*
X139520261Y-62326510D01*
X139489500Y-62481153D01*
X117280500Y-62481153D01*
X117280500Y-62349765D01*
X117300185Y-62282726D01*
X117301398Y-62280874D01*
X117339561Y-62223760D01*
X117389394Y-62149179D01*
X117449737Y-62003497D01*
X117480500Y-61848842D01*
X117480500Y-61691158D01*
X117480500Y-61691155D01*
X117480499Y-61691153D01*
X117462403Y-61600181D01*
X117449737Y-61536503D01*
X117444197Y-61523128D01*
X117389397Y-61390827D01*
X117389390Y-61390814D01*
X117301789Y-61259711D01*
X117301786Y-61259707D01*
X117190292Y-61148213D01*
X117190288Y-61148210D01*
X117059185Y-61060609D01*
X117059172Y-61060602D01*
X116913501Y-61000264D01*
X116913489Y-61000261D01*
X116758845Y-60969500D01*
X116758842Y-60969500D01*
X116601158Y-60969500D01*
X116601155Y-60969500D01*
X116446510Y-61000261D01*
X116446498Y-61000264D01*
X116300827Y-61060602D01*
X116300814Y-61060609D01*
X116169711Y-61148210D01*
X116169707Y-61148213D01*
X116058213Y-61259707D01*
X116058210Y-61259711D01*
X115970609Y-61390814D01*
X115970602Y-61390827D01*
X115910264Y-61536498D01*
X115910261Y-61536510D01*
X115879500Y-61691153D01*
X115879500Y-61848846D01*
X115910261Y-62003489D01*
X115910264Y-62003501D01*
X115970602Y-62149172D01*
X115970609Y-62149185D01*
X116058602Y-62280874D01*
X116079480Y-62347551D01*
X116079500Y-62349765D01*
X116079500Y-75415500D01*
X116059815Y-75482539D01*
X116007011Y-75528294D01*
X115955500Y-75539500D01*
X114188140Y-75539500D01*
X114188124Y-75539499D01*
X114180528Y-75539499D01*
X114022414Y-75539499D01*
X113915058Y-75568265D01*
X113869681Y-75580424D01*
X113869680Y-75580425D01*
X113819567Y-75609359D01*
X113819566Y-75609360D01*
X113776160Y-75634420D01*
X113732756Y-75659479D01*
X113732753Y-75659481D01*
X111659481Y-77732753D01*
X111659480Y-77732755D01*
X111614716Y-77810289D01*
X111580423Y-77869686D01*
X111539499Y-78022414D01*
X111539499Y-78022416D01*
X111539499Y-78190517D01*
X111539500Y-78190530D01*
X111539500Y-79713330D01*
X111539499Y-79713348D01*
X111539499Y-79879054D01*
X111539498Y-79879054D01*
X111566626Y-79980293D01*
X111580423Y-80031785D01*
X111581734Y-80034056D01*
X111581738Y-80034070D01*
X111581742Y-80034069D01*
X111659477Y-80168712D01*
X111659481Y-80168717D01*
X111755426Y-80264662D01*
X111788911Y-80325985D01*
X111789362Y-80328151D01*
X111820261Y-80483491D01*
X111820264Y-80483501D01*
X111880602Y-80629172D01*
X111880609Y-80629185D01*
X111968210Y-80760288D01*
X111968213Y-80760292D01*
X112079707Y-80871786D01*
X112079711Y-80871789D01*
X112210814Y-80959390D01*
X112210827Y-80959397D01*
X112338261Y-81012181D01*
X112356503Y-81019737D01*
X112508096Y-81049891D01*
X112511153Y-81050499D01*
X112511156Y-81050500D01*
X112511158Y-81050500D01*
X112668844Y-81050500D01*
X112668845Y-81050499D01*
X112823497Y-81019737D01*
X112969179Y-80959394D01*
X113100289Y-80871789D01*
X113211789Y-80760289D01*
X113299394Y-80629179D01*
X113359214Y-80484758D01*
X113403052Y-80430359D01*
X113469346Y-80408294D01*
X113537045Y-80425573D01*
X113576875Y-80463324D01*
X113588210Y-80480288D01*
X113588213Y-80480292D01*
X113699710Y-80591789D01*
X113742307Y-80620251D01*
X113787112Y-80673863D01*
X113795819Y-80743188D01*
X113776518Y-80792244D01*
X113690609Y-80920814D01*
X113690602Y-80920827D01*
X113630264Y-81066498D01*
X113630261Y-81066510D01*
X113599500Y-81221153D01*
X113599500Y-81378846D01*
X113630261Y-81533489D01*
X113630264Y-81533501D01*
X113690602Y-81679172D01*
X113690609Y-81679185D01*
X113778210Y-81810288D01*
X113778213Y-81810292D01*
X113889707Y-81921786D01*
X113889711Y-81921789D01*
X114020814Y-82009390D01*
X114020827Y-82009397D01*
X114155354Y-82065119D01*
X114166503Y-82069737D01*
X114321153Y-82100499D01*
X114321156Y-82100500D01*
X114321158Y-82100500D01*
X114478844Y-82100500D01*
X114478845Y-82100499D01*
X114633497Y-82069737D01*
X114779179Y-82009394D01*
X114833663Y-81972989D01*
X114910875Y-81921398D01*
X114977553Y-81900520D01*
X114979766Y-81900500D01*
X115292373Y-81900500D01*
X115359412Y-81920185D01*
X115405167Y-81972989D01*
X115415111Y-82042147D01*
X115386086Y-82105703D01*
X115380054Y-82112181D01*
X112179481Y-85312753D01*
X112179475Y-85312761D01*
X112142002Y-85377668D01*
X112142002Y-85377669D01*
X112100423Y-85449686D01*
X112059499Y-85602414D01*
X112059499Y-85602416D01*
X112059499Y-85770517D01*
X112059500Y-85770530D01*
X112059500Y-97630234D01*
X112039815Y-97697273D01*
X112038602Y-97699125D01*
X111950609Y-97830814D01*
X111950602Y-97830827D01*
X111890264Y-97976498D01*
X111890261Y-97976510D01*
X111859500Y-98131153D01*
X111859500Y-98288846D01*
X111890261Y-98443489D01*
X111890264Y-98443501D01*
X111950602Y-98589172D01*
X111950609Y-98589185D01*
X112038210Y-98720288D01*
X112038213Y-98720292D01*
X112149707Y-98831786D01*
X112149711Y-98831789D01*
X112280814Y-98919390D01*
X112280827Y-98919397D01*
X112405856Y-98971185D01*
X112426503Y-98979737D01*
X112527326Y-98999792D01*
X112581153Y-99010499D01*
X112581156Y-99010500D01*
X112581158Y-99010500D01*
X112738844Y-99010500D01*
X112738845Y-99010499D01*
X112893497Y-98979737D01*
X113033704Y-98921662D01*
X113039172Y-98919397D01*
X113039172Y-98919396D01*
X113039179Y-98919394D01*
X113170289Y-98831789D01*
X113281789Y-98720289D01*
X113369394Y-98589179D01*
X113429737Y-98443497D01*
X113460500Y-98288842D01*
X113460500Y-98131158D01*
X113460500Y-98131155D01*
X113460499Y-98131153D01*
X113446182Y-98059179D01*
X113429737Y-97976503D01*
X113428072Y-97972483D01*
X113369397Y-97830827D01*
X113369390Y-97830814D01*
X113281398Y-97699125D01*
X113260520Y-97632447D01*
X113260500Y-97630234D01*
X113260500Y-85981568D01*
X113280185Y-85914529D01*
X113296819Y-85893887D01*
X114907819Y-84282887D01*
X114969142Y-84249402D01*
X115038834Y-84254386D01*
X115094767Y-84296258D01*
X115119184Y-84361722D01*
X115119500Y-84370568D01*
X115119500Y-92630234D01*
X115099815Y-92697273D01*
X115098602Y-92699125D01*
X115010609Y-92830814D01*
X115010602Y-92830827D01*
X114950264Y-92976498D01*
X114950261Y-92976510D01*
X114919500Y-93131153D01*
X114919500Y-93288846D01*
X114950261Y-93443489D01*
X114950264Y-93443501D01*
X115010602Y-93589172D01*
X115010609Y-93589185D01*
X115098210Y-93720288D01*
X115098213Y-93720292D01*
X115209707Y-93831786D01*
X115209711Y-93831789D01*
X115340814Y-93919390D01*
X115340827Y-93919397D01*
X115486498Y-93979735D01*
X115486503Y-93979737D01*
X115641153Y-94010499D01*
X115641156Y-94010500D01*
X115804934Y-94010500D01*
X115804934Y-94013249D01*
X115861943Y-94024035D01*
X115912675Y-94072077D01*
X115929500Y-94134444D01*
X115929500Y-95501859D01*
X115929499Y-95501877D01*
X115929499Y-95667583D01*
X115929498Y-95667583D01*
X115970424Y-95820318D01*
X115970425Y-95820319D01*
X115994788Y-95862516D01*
X115994789Y-95862517D01*
X116049477Y-95957241D01*
X116049481Y-95957246D01*
X116168349Y-96076114D01*
X116168355Y-96076119D01*
X118376610Y-98284374D01*
X118376631Y-98284397D01*
X118455925Y-98363691D01*
X118489410Y-98425014D01*
X118484426Y-98494706D01*
X118455925Y-98539053D01*
X117251799Y-99743181D01*
X117190476Y-99776666D01*
X117164118Y-99779500D01*
X113169766Y-99779500D01*
X113102727Y-99759815D01*
X113100875Y-99758602D01*
X112969185Y-99670609D01*
X112969172Y-99670602D01*
X112823501Y-99610264D01*
X112823489Y-99610261D01*
X112668845Y-99579500D01*
X112668842Y-99579500D01*
X112511158Y-99579500D01*
X112511155Y-99579500D01*
X112356510Y-99610261D01*
X112356498Y-99610264D01*
X112210827Y-99670602D01*
X112210814Y-99670609D01*
X112079711Y-99758210D01*
X112079707Y-99758213D01*
X111968213Y-99869707D01*
X111968210Y-99869711D01*
X111880609Y-100000814D01*
X111880602Y-100000827D01*
X111820264Y-100146498D01*
X111820261Y-100146510D01*
X111789500Y-100301153D01*
X111789500Y-100458846D01*
X111820261Y-100613489D01*
X111820264Y-100613501D01*
X111880602Y-100759172D01*
X111880609Y-100759185D01*
X111968210Y-100890288D01*
X111968213Y-100890292D01*
X112079707Y-101001786D01*
X112079711Y-101001789D01*
X112210814Y-101089390D01*
X112210827Y-101089397D01*
X112289894Y-101122147D01*
X112356503Y-101149737D01*
X112511153Y-101180499D01*
X112511156Y-101180500D01*
X112511158Y-101180500D01*
X112668844Y-101180500D01*
X112668845Y-101180499D01*
X112823497Y-101149737D01*
X112969179Y-101089394D01*
X113023663Y-101052989D01*
X113100875Y-101001398D01*
X113167553Y-100980520D01*
X113169766Y-100980500D01*
X116580391Y-100980500D01*
X116647430Y-101000185D01*
X116693185Y-101052989D01*
X116703129Y-101122147D01*
X116701274Y-101130492D01*
X116701451Y-101130528D01*
X116669500Y-101291153D01*
X116669500Y-101448846D01*
X116700261Y-101603489D01*
X116700264Y-101603501D01*
X116760602Y-101749172D01*
X116760609Y-101749185D01*
X116848602Y-101880874D01*
X116869480Y-101947551D01*
X116869500Y-101949765D01*
X116869500Y-102653330D01*
X116869499Y-102653348D01*
X116869499Y-102819054D01*
X116869498Y-102819054D01*
X116870062Y-102821158D01*
X116910423Y-102971785D01*
X116936241Y-103016503D01*
X116989477Y-103108712D01*
X116989481Y-103108717D01*
X117108349Y-103227585D01*
X117108355Y-103227590D01*
X118378584Y-104497819D01*
X118412069Y-104559142D01*
X118407085Y-104628834D01*
X118365213Y-104684767D01*
X118299749Y-104709184D01*
X118290903Y-104709500D01*
X103235425Y-104709500D01*
X103168386Y-104689815D01*
X103122631Y-104637011D01*
X103112687Y-104567853D01*
X103137049Y-104510014D01*
X103198046Y-104430520D01*
X103251936Y-104360289D01*
X103373224Y-104150212D01*
X103466054Y-103926100D01*
X103528838Y-103691789D01*
X103560500Y-103451288D01*
X103560500Y-103208712D01*
X103528838Y-102968211D01*
X103466054Y-102733900D01*
X103373224Y-102509788D01*
X103251936Y-102299711D01*
X103137280Y-102150288D01*
X103104266Y-102107263D01*
X103104260Y-102107256D01*
X102932743Y-101935739D01*
X102932736Y-101935733D01*
X102740293Y-101788067D01*
X102740292Y-101788066D01*
X102740289Y-101788064D01*
X102530212Y-101666776D01*
X102530205Y-101666773D01*
X102306104Y-101573947D01*
X102071785Y-101511161D01*
X101831289Y-101479500D01*
X101831288Y-101479500D01*
X101588712Y-101479500D01*
X101588711Y-101479500D01*
X101348214Y-101511161D01*
X101113895Y-101573947D01*
X100889794Y-101666773D01*
X100889785Y-101666777D01*
X100679706Y-101788067D01*
X100487263Y-101935733D01*
X100487256Y-101935739D01*
X100315739Y-102107256D01*
X100315733Y-102107263D01*
X100168067Y-102299706D01*
X100046777Y-102509785D01*
X100046773Y-102509794D01*
X99953947Y-102733895D01*
X99891161Y-102968214D01*
X99859500Y-103208711D01*
X99859500Y-103451288D01*
X99891161Y-103691785D01*
X99953947Y-103926104D01*
X100046773Y-104150205D01*
X100046777Y-104150215D01*
X100068695Y-104188177D01*
X100085168Y-104256077D01*
X100062315Y-104322104D01*
X100007394Y-104365295D01*
X99937841Y-104371936D01*
X99913855Y-104364738D01*
X99733427Y-104290002D01*
X99723623Y-104285430D01*
X99385057Y-104109183D01*
X99375689Y-104103775D01*
X99053755Y-103898681D01*
X99044894Y-103892476D01*
X98742069Y-103660110D01*
X98733782Y-103653156D01*
X98452364Y-103395284D01*
X98444715Y-103387635D01*
X98186843Y-103106217D01*
X98179889Y-103097930D01*
X97947523Y-102795105D01*
X97941318Y-102786244D01*
X97861210Y-102660500D01*
X97736223Y-102464309D01*
X97730816Y-102454942D01*
X97696857Y-102389707D01*
X97554566Y-102116369D01*
X97549997Y-102106572D01*
X97538653Y-102079185D01*
X97403920Y-101753911D01*
X97400224Y-101743755D01*
X97392370Y-101718846D01*
X97285445Y-101379720D01*
X97282646Y-101369275D01*
X97271904Y-101320821D01*
X97200025Y-100996601D01*
X97198149Y-100985955D01*
X97148326Y-100607505D01*
X97147386Y-100596773D01*
X97130618Y-100212702D01*
X97130500Y-100207293D01*
X97130500Y-98013713D01*
X100239500Y-98013713D01*
X100239500Y-98226287D01*
X100272754Y-98436243D01*
X100318214Y-98576155D01*
X100338444Y-98638414D01*
X100434951Y-98827820D01*
X100559890Y-98999786D01*
X100710213Y-99150109D01*
X100882179Y-99275048D01*
X100882181Y-99275049D01*
X100882184Y-99275051D01*
X101071588Y-99371557D01*
X101273757Y-99437246D01*
X101483713Y-99470500D01*
X101483714Y-99470500D01*
X101696286Y-99470500D01*
X101696287Y-99470500D01*
X101906243Y-99437246D01*
X102108412Y-99371557D01*
X102297816Y-99275051D01*
X102347615Y-99238870D01*
X102469786Y-99150109D01*
X102469788Y-99150106D01*
X102469792Y-99150104D01*
X102620104Y-98999792D01*
X102620106Y-98999788D01*
X102620109Y-98999786D01*
X102745048Y-98827820D01*
X102745047Y-98827820D01*
X102745051Y-98827816D01*
X102749514Y-98819054D01*
X102797488Y-98768259D01*
X102865308Y-98751463D01*
X102931444Y-98773999D01*
X102970486Y-98819056D01*
X102974951Y-98827820D01*
X103099890Y-98999786D01*
X103250213Y-99150109D01*
X103422179Y-99275048D01*
X103422181Y-99275049D01*
X103422184Y-99275051D01*
X103611588Y-99371557D01*
X103813757Y-99437246D01*
X104023713Y-99470500D01*
X104023714Y-99470500D01*
X104236286Y-99470500D01*
X104236287Y-99470500D01*
X104446243Y-99437246D01*
X104648412Y-99371557D01*
X104837816Y-99275051D01*
X104887615Y-99238870D01*
X105009786Y-99150109D01*
X105009788Y-99150106D01*
X105009792Y-99150104D01*
X105160104Y-98999792D01*
X105160106Y-98999788D01*
X105160109Y-98999786D01*
X105285048Y-98827820D01*
X105285047Y-98827820D01*
X105285051Y-98827816D01*
X105289514Y-98819054D01*
X105337488Y-98768259D01*
X105405308Y-98751463D01*
X105471444Y-98773999D01*
X105510486Y-98819056D01*
X105514951Y-98827820D01*
X105639890Y-98999786D01*
X105790213Y-99150109D01*
X105962179Y-99275048D01*
X105962181Y-99275049D01*
X105962184Y-99275051D01*
X106151588Y-99371557D01*
X106353757Y-99437246D01*
X106563713Y-99470500D01*
X106563714Y-99470500D01*
X106776286Y-99470500D01*
X106776287Y-99470500D01*
X106986243Y-99437246D01*
X107188412Y-99371557D01*
X107377816Y-99275051D01*
X107549792Y-99150104D01*
X107700104Y-98999792D01*
X107700109Y-98999784D01*
X107700208Y-98999686D01*
X107761532Y-98966201D01*
X107831223Y-98971185D01*
X107887157Y-99013056D01*
X107906275Y-99050475D01*
X107914538Y-99076993D01*
X107914540Y-99076998D01*
X107998710Y-99216233D01*
X107998713Y-99216237D01*
X108113762Y-99331286D01*
X108113766Y-99331289D01*
X108253001Y-99415459D01*
X108253007Y-99415461D01*
X108408337Y-99463864D01*
X108408344Y-99463865D01*
X108475848Y-99469999D01*
X108959999Y-99469999D01*
X108960000Y-99469998D01*
X108960000Y-98553012D01*
X109017007Y-98585925D01*
X109144174Y-98620000D01*
X109275826Y-98620000D01*
X109402993Y-98585925D01*
X109460000Y-98553012D01*
X109460000Y-99469999D01*
X109944161Y-99469999D01*
X110011651Y-99463867D01*
X110011658Y-99463865D01*
X110166989Y-99415462D01*
X110166998Y-99415459D01*
X110306233Y-99331289D01*
X110306237Y-99331286D01*
X110421286Y-99216237D01*
X110421289Y-99216233D01*
X110505459Y-99076998D01*
X110505461Y-99076992D01*
X110553864Y-98921662D01*
X110553865Y-98921655D01*
X110560000Y-98854151D01*
X110560000Y-98370000D01*
X109643012Y-98370000D01*
X109675925Y-98312993D01*
X109710000Y-98185826D01*
X109710000Y-98054174D01*
X109675925Y-97927007D01*
X109643012Y-97870000D01*
X110559999Y-97870000D01*
X110559999Y-97385837D01*
X110553867Y-97318348D01*
X110553865Y-97318341D01*
X110505462Y-97163010D01*
X110505459Y-97163001D01*
X110421289Y-97023766D01*
X110421286Y-97023762D01*
X110306237Y-96908713D01*
X110306233Y-96908710D01*
X110166998Y-96824540D01*
X110166992Y-96824538D01*
X110011662Y-96776135D01*
X110011655Y-96776134D01*
X109944151Y-96770000D01*
X109460000Y-96770000D01*
X109460000Y-97686988D01*
X109402993Y-97654075D01*
X109275826Y-97620000D01*
X109144174Y-97620000D01*
X109017007Y-97654075D01*
X108960000Y-97686988D01*
X108960000Y-96770000D01*
X108475837Y-96770000D01*
X108408348Y-96776132D01*
X108408341Y-96776134D01*
X108253010Y-96824537D01*
X108253001Y-96824540D01*
X108113766Y-96908710D01*
X108113762Y-96908713D01*
X107998713Y-97023762D01*
X107998710Y-97023766D01*
X107914540Y-97163001D01*
X107914539Y-97163004D01*
X107906275Y-97189525D01*
X107867535Y-97247672D01*
X107803509Y-97275644D01*
X107734524Y-97264561D01*
X107700209Y-97240313D01*
X107549786Y-97089890D01*
X107377820Y-96964951D01*
X107188414Y-96868444D01*
X107188413Y-96868443D01*
X107188412Y-96868443D01*
X106986243Y-96802754D01*
X106986241Y-96802753D01*
X106986240Y-96802753D01*
X106818172Y-96776134D01*
X106776287Y-96769500D01*
X106563713Y-96769500D01*
X106521828Y-96776134D01*
X106353760Y-96802753D01*
X106151585Y-96868444D01*
X105962179Y-96964951D01*
X105790213Y-97089890D01*
X105639890Y-97240213D01*
X105514949Y-97412182D01*
X105510484Y-97420946D01*
X105462509Y-97471742D01*
X105394688Y-97488536D01*
X105328553Y-97465998D01*
X105289516Y-97420946D01*
X105285050Y-97412182D01*
X105160109Y-97240213D01*
X105009786Y-97089890D01*
X104837820Y-96964951D01*
X104648414Y-96868444D01*
X104648413Y-96868443D01*
X104648412Y-96868443D01*
X104446243Y-96802754D01*
X104446241Y-96802753D01*
X104446240Y-96802753D01*
X104278172Y-96776134D01*
X104236287Y-96769500D01*
X104023713Y-96769500D01*
X103981828Y-96776134D01*
X103813760Y-96802753D01*
X103611585Y-96868444D01*
X103422179Y-96964951D01*
X103250213Y-97089890D01*
X103099890Y-97240213D01*
X102974949Y-97412182D01*
X102970484Y-97420946D01*
X102922509Y-97471742D01*
X102854688Y-97488536D01*
X102788553Y-97465998D01*
X102749516Y-97420946D01*
X102745050Y-97412182D01*
X102620109Y-97240213D01*
X102469786Y-97089890D01*
X102297820Y-96964951D01*
X102108414Y-96868444D01*
X102108413Y-96868443D01*
X102108412Y-96868443D01*
X101906243Y-96802754D01*
X101906241Y-96802753D01*
X101906240Y-96802753D01*
X101738172Y-96776134D01*
X101696287Y-96769500D01*
X101483713Y-96769500D01*
X101441828Y-96776134D01*
X101273760Y-96802753D01*
X101071585Y-96868444D01*
X100882179Y-96964951D01*
X100710213Y-97089890D01*
X100559890Y-97240213D01*
X100434951Y-97412179D01*
X100338444Y-97601585D01*
X100272753Y-97803760D01*
X100239500Y-98013713D01*
X97130500Y-98013713D01*
X97130500Y-58772706D01*
X97130618Y-58767297D01*
X97133377Y-58704108D01*
X97147387Y-58383224D01*
X97148325Y-58372496D01*
X97198151Y-57994032D01*
X97200024Y-57983402D01*
X97282648Y-57610714D01*
X97285446Y-57600276D01*
X97400230Y-57236227D01*
X97403917Y-57226095D01*
X97550003Y-56873412D01*
X97554561Y-56863638D01*
X97730822Y-56525045D01*
X97736217Y-56515700D01*
X97747040Y-56498711D01*
X99039500Y-56498711D01*
X99039500Y-56741288D01*
X99071161Y-56981785D01*
X99133947Y-57216104D01*
X99203537Y-57384108D01*
X99226776Y-57440212D01*
X99348064Y-57650289D01*
X99348066Y-57650292D01*
X99348067Y-57650293D01*
X99495733Y-57842736D01*
X99495739Y-57842743D01*
X99667256Y-58014260D01*
X99667263Y-58014266D01*
X99764720Y-58089047D01*
X99859711Y-58161936D01*
X100069788Y-58283224D01*
X100293900Y-58376054D01*
X100528211Y-58438838D01*
X100708586Y-58462584D01*
X100768711Y-58470500D01*
X100768712Y-58470500D01*
X101011289Y-58470500D01*
X101059388Y-58464167D01*
X101251789Y-58438838D01*
X101486100Y-58376054D01*
X101710212Y-58283224D01*
X101920289Y-58161936D01*
X102112738Y-58014265D01*
X102284265Y-57842738D01*
X102431936Y-57650289D01*
X102553224Y-57440212D01*
X102646054Y-57216100D01*
X102708838Y-56981789D01*
X102740500Y-56741288D01*
X102740500Y-56498712D01*
X102708838Y-56258211D01*
X102646054Y-56023900D01*
X102553224Y-55799788D01*
X102431936Y-55589711D01*
X102284265Y-55397262D01*
X102284260Y-55397256D01*
X102112743Y-55225739D01*
X102112736Y-55225733D01*
X101920293Y-55078067D01*
X101920292Y-55078066D01*
X101920289Y-55078064D01*
X101710212Y-54956776D01*
X101710205Y-54956773D01*
X101486104Y-54863947D01*
X101251785Y-54801161D01*
X101011289Y-54769500D01*
X101011288Y-54769500D01*
X100768712Y-54769500D01*
X100768711Y-54769500D01*
X100528214Y-54801161D01*
X100293895Y-54863947D01*
X100069794Y-54956773D01*
X100069785Y-54956777D01*
X99859706Y-55078067D01*
X99667263Y-55225733D01*
X99667256Y-55225739D01*
X99495739Y-55397256D01*
X99495733Y-55397263D01*
X99348067Y-55589706D01*
X99226777Y-55799785D01*
X99226773Y-55799794D01*
X99133947Y-56023895D01*
X99071161Y-56258214D01*
X99039500Y-56498711D01*
X97747040Y-56498711D01*
X97941325Y-56193744D01*
X97947515Y-56184905D01*
X98179896Y-55882060D01*
X98186834Y-55873791D01*
X98444726Y-55592352D01*
X98452352Y-55584726D01*
X98733791Y-55326834D01*
X98742060Y-55319896D01*
X99044905Y-55087515D01*
X99053744Y-55081325D01*
X99375700Y-54876217D01*
X99385045Y-54870822D01*
X99723638Y-54694561D01*
X99733412Y-54690003D01*
X100086095Y-54543917D01*
X100096227Y-54540230D01*
X100460285Y-54425443D01*
X100470714Y-54422648D01*
X100843402Y-54340024D01*
X100854032Y-54338151D01*
X101232496Y-54288325D01*
X101243224Y-54287387D01*
X101627297Y-54270617D01*
X101632706Y-54270500D01*
X101695892Y-54270500D01*
X191614108Y-54270500D01*
X191677294Y-54270500D01*
X191682702Y-54270617D01*
G37*
%TD.AperFunction*%
%TA.AperFunction,Conductor*%
G36*
X118990272Y-96225980D02*
G01*
X119025924Y-96286069D01*
X119027393Y-96340926D01*
X118999500Y-96481153D01*
X118999500Y-96638846D01*
X119030261Y-96793489D01*
X119030264Y-96793501D01*
X119090602Y-96939172D01*
X119090609Y-96939185D01*
X119117519Y-96979458D01*
X119138397Y-97046136D01*
X119119913Y-97113516D01*
X119067934Y-97160206D01*
X118998964Y-97171382D01*
X118934900Y-97143497D01*
X118926736Y-97136030D01*
X118270875Y-96480169D01*
X118237390Y-96418846D01*
X118242374Y-96349154D01*
X118284246Y-96293221D01*
X118349710Y-96268804D01*
X118382748Y-96270871D01*
X118431155Y-96280500D01*
X118431158Y-96280500D01*
X118588844Y-96280500D01*
X118588845Y-96280499D01*
X118743497Y-96249737D01*
X118858325Y-96202173D01*
X118927792Y-96194705D01*
X118990272Y-96225980D01*
G37*
%TD.AperFunction*%
%TA.AperFunction,Conductor*%
G36*
X113610370Y-77582847D02*
G01*
X113666304Y-77624718D01*
X113677307Y-77644037D01*
X113677736Y-77643809D01*
X113680609Y-77649185D01*
X113751655Y-77755512D01*
X113772533Y-77822190D01*
X113754049Y-77889570D01*
X113733354Y-77913239D01*
X113734018Y-77913903D01*
X113618213Y-78029707D01*
X113618210Y-78029711D01*
X113530609Y-78160814D01*
X113530602Y-78160827D01*
X113470264Y-78306498D01*
X113470261Y-78306510D01*
X113439500Y-78461153D01*
X113439500Y-78618846D01*
X113470261Y-78773489D01*
X113470264Y-78773501D01*
X113530602Y-78919172D01*
X113530609Y-78919185D01*
X113618210Y-79050288D01*
X113618213Y-79050292D01*
X113722605Y-79154684D01*
X113756090Y-79216007D01*
X113751106Y-79285699D01*
X113709234Y-79341632D01*
X113703826Y-79345460D01*
X113699714Y-79348208D01*
X113699707Y-79348213D01*
X113588213Y-79459707D01*
X113588210Y-79459711D01*
X113500609Y-79590814D01*
X113500604Y-79590823D01*
X113440787Y-79735237D01*
X113396946Y-79789640D01*
X113330652Y-79811705D01*
X113262953Y-79794426D01*
X113223123Y-79756674D01*
X113211787Y-79739708D01*
X113100292Y-79628213D01*
X113100288Y-79628210D01*
X112969185Y-79540609D01*
X112969172Y-79540602D01*
X112817870Y-79477932D01*
X112818879Y-79475494D01*
X112770008Y-79443416D01*
X112741598Y-79379583D01*
X112740500Y-79363121D01*
X112740500Y-78401567D01*
X112760185Y-78334528D01*
X112776815Y-78313890D01*
X113479358Y-77611346D01*
X113540679Y-77577863D01*
X113610370Y-77582847D01*
G37*
%TD.AperFunction*%
%TD*%
%TA.AperFunction,NonConductor*%
G36*
X116608834Y-83532915D02*
G01*
X116664767Y-83574787D01*
X116689184Y-83640251D01*
X116689500Y-83649097D01*
X116689500Y-83915500D01*
X116681718Y-83942000D01*
X116677244Y-83969251D01*
X116672014Y-83975048D01*
X116669815Y-83982539D01*
X116648945Y-84000622D01*
X116630445Y-84021132D01*
X116622910Y-84023181D01*
X116617011Y-84028294D01*
X116565500Y-84039500D01*
X116445066Y-84039500D01*
X116445066Y-84036791D01*
X116387864Y-84025865D01*
X116337216Y-83977734D01*
X116320500Y-83915555D01*
X116320500Y-83770097D01*
X116328281Y-83743596D01*
X116332756Y-83716346D01*
X116338775Y-83707858D01*
X116340185Y-83703058D01*
X116345359Y-83698573D01*
X116356819Y-83682416D01*
X116477819Y-83561416D01*
X116539142Y-83527931D01*
X116608834Y-83532915D01*
G37*
%TD.AperFunction*%
%TA.AperFunction,NonConductor*%
G36*
X117828834Y-88155759D02*
G01*
X117884767Y-88197631D01*
X117909184Y-88263095D01*
X117909500Y-88271941D01*
X117909500Y-94900234D01*
X117889815Y-94967273D01*
X117888602Y-94969125D01*
X117800609Y-95100814D01*
X117800602Y-95100827D01*
X117740264Y-95246498D01*
X117740261Y-95246510D01*
X117709500Y-95401153D01*
X117709500Y-95401158D01*
X117709500Y-95558842D01*
X117709952Y-95561116D01*
X117719129Y-95607253D01*
X117712900Y-95676845D01*
X117670037Y-95732022D01*
X117604147Y-95755265D01*
X117536150Y-95739196D01*
X117509830Y-95719124D01*
X117166819Y-95376113D01*
X117133334Y-95314790D01*
X117130500Y-95288432D01*
X117130500Y-88521825D01*
X117150185Y-88454786D01*
X117202989Y-88409031D01*
X117230307Y-88400208D01*
X117383497Y-88369737D01*
X117529179Y-88309394D01*
X117660289Y-88221789D01*
X117660292Y-88221786D01*
X117697819Y-88184260D01*
X117759142Y-88150775D01*
X117828834Y-88155759D01*
G37*
%TD.AperFunction*%
%TA.AperFunction,NonConductor*%
G36*
X125405703Y-97835384D02*
G01*
X125412181Y-97841416D01*
X127803181Y-100232416D01*
X127836666Y-100293739D01*
X127839500Y-100320097D01*
X127839500Y-102010391D01*
X127819815Y-102077430D01*
X127767011Y-102123185D01*
X127697853Y-102133129D01*
X127689507Y-102131274D01*
X127689472Y-102131451D01*
X127528845Y-102099500D01*
X127528842Y-102099500D01*
X127371158Y-102099500D01*
X127371155Y-102099500D01*
X127216510Y-102130261D01*
X127216498Y-102130264D01*
X127070827Y-102190602D01*
X127070814Y-102190609D01*
X126939711Y-102278210D01*
X126939707Y-102278213D01*
X126828213Y-102389707D01*
X126828210Y-102389711D01*
X126740609Y-102520814D01*
X126740602Y-102520827D01*
X126680264Y-102666498D01*
X126680261Y-102666510D01*
X126649500Y-102821153D01*
X126649500Y-102935555D01*
X126629815Y-103002594D01*
X126577011Y-103048349D01*
X126524934Y-103057062D01*
X126524934Y-103059500D01*
X126361155Y-103059500D01*
X126206510Y-103090261D01*
X126206498Y-103090264D01*
X126060827Y-103150602D01*
X126060814Y-103150609D01*
X125929712Y-103238209D01*
X125897661Y-103270261D01*
X125854739Y-103313182D01*
X125793419Y-103346666D01*
X125767060Y-103349500D01*
X124664500Y-103349500D01*
X124597461Y-103329815D01*
X124551706Y-103277011D01*
X124540500Y-103225500D01*
X124540500Y-102557847D01*
X124560185Y-102490808D01*
X124612989Y-102445053D01*
X124640309Y-102436230D01*
X124656291Y-102433050D01*
X124773497Y-102409737D01*
X124919179Y-102349394D01*
X125050289Y-102261789D01*
X125161789Y-102150289D01*
X125249394Y-102019179D01*
X125309737Y-101873497D01*
X125340500Y-101718842D01*
X125340500Y-101561158D01*
X125340500Y-101561155D01*
X125340499Y-101561153D01*
X125321671Y-101466498D01*
X125309737Y-101406503D01*
X125309735Y-101406498D01*
X125249397Y-101260827D01*
X125249390Y-101260814D01*
X125221398Y-101218921D01*
X125200520Y-101152243D01*
X125200500Y-101150030D01*
X125200500Y-97929097D01*
X125220185Y-97862058D01*
X125272989Y-97816303D01*
X125342147Y-97806359D01*
X125405703Y-97835384D01*
G37*
%TD.AperFunction*%
%TA.AperFunction,NonConductor*%
G36*
X122008834Y-96787129D02*
G01*
X122064767Y-96829001D01*
X122089184Y-96894465D01*
X122089500Y-96903311D01*
X122089500Y-96998846D01*
X122120261Y-97153489D01*
X122120264Y-97153501D01*
X122180602Y-97299172D01*
X122180609Y-97299185D01*
X122268210Y-97430288D01*
X122268213Y-97430292D01*
X122379707Y-97541786D01*
X122379711Y-97541789D01*
X122510814Y-97629390D01*
X122510827Y-97629397D01*
X122629186Y-97678422D01*
X122656503Y-97689737D01*
X122808147Y-97719901D01*
X122811153Y-97720499D01*
X122811156Y-97720500D01*
X122811158Y-97720500D01*
X122968844Y-97720500D01*
X123037284Y-97706885D01*
X123061766Y-97702016D01*
X123131358Y-97708243D01*
X123186535Y-97751105D01*
X123207575Y-97799441D01*
X123230261Y-97913491D01*
X123230264Y-97913501D01*
X123290603Y-98059174D01*
X123290604Y-98059175D01*
X123290606Y-98059179D01*
X123318602Y-98101077D01*
X123339480Y-98167754D01*
X123339500Y-98169968D01*
X123339500Y-98726375D01*
X123319815Y-98793414D01*
X123267011Y-98839169D01*
X123247597Y-98846148D01*
X123196979Y-98859712D01*
X123119685Y-98880423D01*
X123119680Y-98880426D01*
X122982761Y-98959475D01*
X122982753Y-98959481D01*
X122259480Y-99682754D01*
X122257319Y-99686498D01*
X122239543Y-99717288D01*
X122180423Y-99819686D01*
X122139499Y-99972414D01*
X122139499Y-99972416D01*
X122139499Y-100140517D01*
X122139500Y-100140530D01*
X122139500Y-101120234D01*
X122119815Y-101187273D01*
X122118602Y-101189125D01*
X122030609Y-101320814D01*
X122030602Y-101320827D01*
X121970264Y-101466498D01*
X121970261Y-101466510D01*
X121939500Y-101621153D01*
X121939500Y-101778846D01*
X121970261Y-101933489D01*
X121970264Y-101933501D01*
X122030602Y-102079172D01*
X122030609Y-102079185D01*
X122118210Y-102210288D01*
X122118213Y-102210292D01*
X122229707Y-102321786D01*
X122229711Y-102321789D01*
X122360814Y-102409390D01*
X122360827Y-102409397D01*
X122470784Y-102454942D01*
X122506503Y-102469737D01*
X122607336Y-102489794D01*
X122639691Y-102496230D01*
X122701602Y-102528615D01*
X122736176Y-102589330D01*
X122739500Y-102617847D01*
X122739500Y-102849903D01*
X122719815Y-102916942D01*
X122703181Y-102937584D01*
X122355339Y-103285425D01*
X122294016Y-103318910D01*
X122291850Y-103319361D01*
X122136508Y-103350261D01*
X122136498Y-103350264D01*
X121990827Y-103410602D01*
X121990814Y-103410609D01*
X121859711Y-103498210D01*
X121859707Y-103498213D01*
X121748213Y-103609707D01*
X121748210Y-103609711D01*
X121704179Y-103675608D01*
X121650566Y-103720413D01*
X121581241Y-103729120D01*
X121518214Y-103698965D01*
X121491716Y-103665166D01*
X121489390Y-103660814D01*
X121401789Y-103529711D01*
X121401786Y-103529707D01*
X121290292Y-103418213D01*
X121290288Y-103418210D01*
X121159185Y-103330609D01*
X121159172Y-103330602D01*
X121013501Y-103270264D01*
X121013489Y-103270261D01*
X120858845Y-103239500D01*
X120858842Y-103239500D01*
X120701158Y-103239500D01*
X120701155Y-103239500D01*
X120546510Y-103270261D01*
X120546498Y-103270264D01*
X120400827Y-103330602D01*
X120400814Y-103330609D01*
X120269125Y-103418602D01*
X120202447Y-103439480D01*
X120200234Y-103439500D01*
X119070097Y-103439500D01*
X119003058Y-103419815D01*
X118982416Y-103403181D01*
X118106819Y-102527584D01*
X118073334Y-102466261D01*
X118070500Y-102439903D01*
X118070500Y-101949765D01*
X118090185Y-101882726D01*
X118091398Y-101880874D01*
X118096325Y-101873501D01*
X118179394Y-101749179D01*
X118239737Y-101603497D01*
X118270500Y-101448842D01*
X118270500Y-101291158D01*
X118270500Y-101291155D01*
X118270499Y-101291153D01*
X118264467Y-101260827D01*
X118239737Y-101136503D01*
X118220224Y-101089394D01*
X118179397Y-100990827D01*
X118179390Y-100990814D01*
X118091789Y-100859711D01*
X118091786Y-100859707D01*
X118050445Y-100818367D01*
X118016959Y-100757044D01*
X118021943Y-100687353D01*
X118050442Y-100643006D01*
X121877819Y-96815630D01*
X121939142Y-96782145D01*
X122008834Y-96787129D01*
G37*
%TD.AperFunction*%
%TA.AperFunction,NonConductor*%
G36*
X123325411Y-104146111D02*
G01*
X123382083Y-104186978D01*
X123391542Y-104201044D01*
X123459480Y-104318716D01*
X123571284Y-104430520D01*
X123653717Y-104478112D01*
X123701933Y-104528679D01*
X123715157Y-104597286D01*
X123689189Y-104662151D01*
X123632275Y-104702680D01*
X123591718Y-104709500D01*
X123170850Y-104709500D01*
X123103811Y-104689815D01*
X123058056Y-104637011D01*
X123048112Y-104567853D01*
X123067748Y-104516608D01*
X123072446Y-104509577D01*
X123079394Y-104499179D01*
X123139737Y-104353497D01*
X123152779Y-104287932D01*
X123162541Y-104238857D01*
X123194926Y-104176946D01*
X123255642Y-104142372D01*
X123325411Y-104146111D01*
G37*
%TD.AperFunction*%
%TA.AperFunction,NonConductor*%
G36*
X138086564Y-79250185D02*
G01*
X138132319Y-79302989D01*
X138142263Y-79372147D01*
X138113238Y-79435703D01*
X138066977Y-79469061D01*
X137990827Y-79500602D01*
X137990814Y-79500609D01*
X137859125Y-79588602D01*
X137792447Y-79609480D01*
X137790234Y-79609500D01*
X133850475Y-79609500D01*
X133783436Y-79589815D01*
X133737681Y-79537011D01*
X133727737Y-79467853D01*
X133756762Y-79404297D01*
X133803023Y-79370939D01*
X133879172Y-79339397D01*
X133879172Y-79339396D01*
X133879179Y-79339394D01*
X133955780Y-79288211D01*
X134010875Y-79251398D01*
X134077553Y-79230520D01*
X134079766Y-79230500D01*
X138019525Y-79230500D01*
X138086564Y-79250185D01*
G37*
%TD.AperFunction*%
M02*
