%TF.GenerationSoftware,KiCad,Pcbnew,10.0.5*%
%TF.CreationDate,2026-09-15T22:53:05+05:45*%
%TF.ProjectId,sanchar,73616e63-6861-4722-9e6b-696361645f70,rev?*%
%TF.SameCoordinates,Original*%
%TF.FileFunction,Copper,L1,Top*%
%TF.FilePolarity,Positive*%
%FSLAX46Y46*%
G04 Gerber Fmt 4.6, Leading zero omitted, Abs format (unit mm)*
G04 Created by KiCad (PCBNEW 10.0.5) date 2026-09-15 22:53:05*
%MOMM*%
%LPD*%
G01*
G04 APERTURE LIST*
G04 Aperture macros list*
%AMRoundRect*
0 Rectangle with rounded corners*
0 $1 Rounding radius*
0 $2 $3 $4 $5 $6 $7 $8 $9 X,Y pos of 4 corners*
0 Add a 4 corners polygon primitive as box body*
4,1,4,$2,$3,$4,$5,$6,$7,$8,$9,$2,$3,0*
0 Add four circle primitives for the rounded corners*
1,1,$1+$1,$2,$3*
1,1,$1+$1,$4,$5*
1,1,$1+$1,$6,$7*
1,1,$1+$1,$8,$9*
0 Add four rect primitives between the rounded corners*
20,1,$1+$1,$2,$3,$4,$5,0*
20,1,$1+$1,$4,$5,$6,$7,0*
20,1,$1+$1,$6,$7,$8,$9,0*
20,1,$1+$1,$8,$9,$2,$3,0*%
G04 Aperture macros list end*
%TA.AperFunction,ComponentPad*%
%ADD10O,2.200000X3.500000*%
%TD*%
%TA.AperFunction,ComponentPad*%
%ADD11R,1.500000X2.500000*%
%TD*%
%TA.AperFunction,ComponentPad*%
%ADD12O,1.500000X2.500000*%
%TD*%
%TA.AperFunction,SMDPad,CuDef*%
%ADD13RoundRect,0.250000X-0.250000X-0.475000X0.250000X-0.475000X0.250000X0.475000X-0.250000X0.475000X0*%
%TD*%
%TA.AperFunction,SMDPad,CuDef*%
%ADD14RoundRect,0.250000X-0.262500X-0.450000X0.262500X-0.450000X0.262500X0.450000X-0.262500X0.450000X0*%
%TD*%
%TA.AperFunction,SMDPad,CuDef*%
%ADD15RoundRect,0.375000X-0.625000X-0.375000X0.625000X-0.375000X0.625000X0.375000X-0.625000X0.375000X0*%
%TD*%
%TA.AperFunction,SMDPad,CuDef*%
%ADD16RoundRect,0.500000X-0.500000X-1.400000X0.500000X-1.400000X0.500000X1.400000X-0.500000X1.400000X0*%
%TD*%
%TA.AperFunction,SMDPad,CuDef*%
%ADD17RoundRect,0.250000X-0.800000X-0.450000X0.800000X-0.450000X0.800000X0.450000X-0.800000X0.450000X0*%
%TD*%
%TA.AperFunction,SMDPad,CuDef*%
%ADD18RoundRect,0.090000X-0.660000X-0.360000X0.660000X-0.360000X0.660000X0.360000X-0.660000X0.360000X0*%
%TD*%
%TA.AperFunction,SMDPad,CuDef*%
%ADD19R,1.500000X0.900000*%
%TD*%
%TA.AperFunction,SMDPad,CuDef*%
%ADD20R,0.900000X1.500000*%
%TD*%
%TA.AperFunction,SMDPad,CuDef*%
%ADD21R,0.900000X0.900000*%
%TD*%
%TA.AperFunction,ComponentPad*%
%ADD22C,0.400000*%
%TD*%
%TA.AperFunction,ComponentPad*%
%ADD23C,1.800000*%
%TD*%
%TA.AperFunction,ComponentPad*%
%ADD24C,4.400000*%
%TD*%
%TA.AperFunction,SMDPad,CuDef*%
%ADD25RoundRect,0.062500X-0.350000X-0.062500X0.350000X-0.062500X0.350000X0.062500X-0.350000X0.062500X0*%
%TD*%
%TA.AperFunction,SMDPad,CuDef*%
%ADD26RoundRect,0.062500X-0.062500X-0.350000X0.062500X-0.350000X0.062500X0.350000X-0.062500X0.350000X0*%
%TD*%
%TA.AperFunction,HeatsinkPad*%
%ADD27R,1.230000X1.230000*%
%TD*%
%TA.AperFunction,ComponentPad*%
%ADD28RoundRect,0.170000X0.680000X0.680000X-0.680000X0.680000X-0.680000X-0.680000X0.680000X-0.680000X0*%
%TD*%
%TA.AperFunction,ComponentPad*%
%ADD29C,1.700000*%
%TD*%
%TA.AperFunction,ComponentPad*%
%ADD30R,2.800000X2.800000*%
%TD*%
%TA.AperFunction,ComponentPad*%
%ADD31RoundRect,0.250000X0.625000X-0.350000X0.625000X0.350000X-0.625000X0.350000X-0.625000X-0.350000X0*%
%TD*%
%TA.AperFunction,ComponentPad*%
%ADD32O,1.750000X1.200000*%
%TD*%
%TA.AperFunction,ComponentPad*%
%ADD33RoundRect,0.250000X-0.350000X-0.625000X0.350000X-0.625000X0.350000X0.625000X-0.350000X0.625000X0*%
%TD*%
%TA.AperFunction,ComponentPad*%
%ADD34O,1.200000X1.750000*%
%TD*%
%TA.AperFunction,ComponentPad*%
%ADD35R,1.730000X2.030000*%
%TD*%
%TA.AperFunction,ComponentPad*%
%ADD36O,1.730000X2.030000*%
%TD*%
%TA.AperFunction,ComponentPad*%
%ADD37R,1.524000X1.524000*%
%TD*%
%TA.AperFunction,ComponentPad*%
%ADD38O,1.524000X1.524000*%
%TD*%
%TA.AperFunction,ViaPad*%
%ADD39C,0.600000*%
%TD*%
%TA.AperFunction,Conductor*%
%ADD40C,0.200000*%
%TD*%
G04 APERTURE END LIST*
D10*
%TO.P,SW2,*%
%TO.N,*%
X185670000Y-97220000D03*
X193870000Y-97220000D03*
D11*
%TO.P,SW2,1,A_1*%
%TO.N,Slide_s_1*%
X187770000Y-97220000D03*
D12*
%TO.P,SW2,2,B_2*%
%TO.N,Slide_s_2*%
X189770000Y-97220000D03*
%TO.P,SW2,3,C_3*%
%TO.N,unconnected-(SW2-C-Pad3)*%
X191770000Y-97220000D03*
%TD*%
D13*
%TO.P,C1,1*%
%TO.N,Slide_s_2*%
X148580000Y-58360000D03*
%TO.P,C1,2*%
%TO.N,GND*%
X150480000Y-58360000D03*
%TD*%
%TO.P,C4,1*%
%TO.N,3V3*%
X142620000Y-70660000D03*
%TO.P,C4,2*%
%TO.N,GND*%
X144520000Y-70660000D03*
%TD*%
%TO.P,C6,1*%
%TO.N,Slide_s_2*%
X142470000Y-66690000D03*
%TO.P,C6,2*%
%TO.N,GND*%
X144370000Y-66690000D03*
%TD*%
D14*
%TO.P,R2,1*%
%TO.N,3V3*%
X142080000Y-58450000D03*
%TO.P,R2,2*%
%TO.N,ESP_EN*%
X143905000Y-58450000D03*
%TD*%
D13*
%TO.P,C3,1*%
%TO.N,GND*%
X142620000Y-74540000D03*
%TO.P,C3,2*%
%TO.N,3V3*%
X144520000Y-74540000D03*
%TD*%
D15*
%TO.P,U3,1,GND_1*%
%TO.N,GND*%
X131130000Y-61370000D03*
%TO.P,U3,2,VO_2*%
%TO.N,3V3*%
X131130000Y-63670000D03*
D16*
X137430000Y-63670000D03*
D15*
%TO.P,U3,3,VI_3*%
%TO.N,Slide_s_2*%
X131130000Y-65970000D03*
%TD*%
D13*
%TO.P,C5,1*%
%TO.N,Slide_s_2*%
X148670000Y-63570000D03*
%TO.P,C5,2*%
%TO.N,GND*%
X150570000Y-63570000D03*
%TD*%
D17*
%TO.P,SW1,1,1_1*%
%TO.N,ESP_IO10*%
X171440000Y-94390000D03*
X180540000Y-94390000D03*
%TO.P,SW1,2,2_2*%
%TO.N,GND*%
X171440000Y-98890000D03*
X180540000Y-98890000D03*
%TD*%
D18*
%TO.P,D1,1,VDD_1*%
%TO.N,3V3*%
X119360000Y-61770000D03*
%TO.P,D1,2,DOUT_2*%
%TO.N,unconnected-(D1-DOUT-Pad2)*%
X119360000Y-65070000D03*
%TO.P,D1,3,VSS_3*%
%TO.N,GND*%
X124260000Y-65070000D03*
%TO.P,D1,4,DIN_4*%
%TO.N,ESP_IO11*%
X124260000Y-61770000D03*
%TD*%
D13*
%TO.P,C7,1*%
%TO.N,ESP_EN*%
X142360000Y-62350000D03*
%TO.P,C7,2*%
%TO.N,GND*%
X144260000Y-62350000D03*
%TD*%
D14*
%TO.P,R1,1*%
%TO.N,Slide_s_2*%
X126265000Y-99980000D03*
%TO.P,R1,2*%
%TO.N,Net-(U4-~{SD_MODE})*%
X128090000Y-99980000D03*
%TD*%
D19*
%TO.P,U1,1,GND_1*%
%TO.N,GND*%
X118810000Y-74710000D03*
%TO.P,U1,2,3V3_2*%
%TO.N,3V3*%
X118810000Y-75980000D03*
%TO.P,U1,3,EN_3*%
%TO.N,ESP_EN*%
X118810000Y-77250000D03*
%TO.P,U1,4,IO4_4*%
%TO.N,ESP_IO4*%
X118810000Y-78520000D03*
%TO.P,U1,5,IO5_5*%
%TO.N,ESP_IO5*%
X118810000Y-79790000D03*
%TO.P,U1,6,IO6_6*%
%TO.N,ESP_IO6*%
X118810000Y-81060000D03*
%TO.P,U1,7,IO7_7*%
%TO.N,ESP_IO7*%
X118810000Y-82330000D03*
%TO.P,U1,8,IO15_8*%
%TO.N,ESP_IO15*%
X118810000Y-83600000D03*
%TO.P,U1,9,IO16_9*%
%TO.N,ESP_IO16*%
X118810000Y-84870000D03*
%TO.P,U1,10,IO17_10*%
%TO.N,unconnected-(U1-IO17-Pad10)*%
X118810000Y-86140000D03*
%TO.P,U1,11,IO18_11*%
%TO.N,unconnected-(U1-IO18-Pad11)*%
X118810000Y-87410000D03*
%TO.P,U1,12,IO8_12*%
%TO.N,ESP_IO8*%
X118810000Y-88680000D03*
%TO.P,U1,13,IO19_13*%
%TO.N,unconnected-(U1-IO19-Pad13)*%
X118810000Y-89950000D03*
%TO.P,U1,14,IO20_14*%
%TO.N,unconnected-(U1-IO20-Pad14)*%
X118810000Y-91220000D03*
D20*
%TO.P,U1,15,IO3_15*%
%TO.N,ESP_IO3*%
X120575000Y-92470000D03*
%TO.P,U1,16,IO46_16*%
%TO.N,unconnected-(U1-IO46-Pad16)*%
X121845000Y-92470000D03*
%TO.P,U1,17,IO9_17*%
%TO.N,ESP_IO9*%
X123115000Y-92470000D03*
%TO.P,U1,18,IO10_18*%
%TO.N,ESP_IO10*%
X124385000Y-92470000D03*
%TO.P,U1,19,IO11_19*%
%TO.N,ESP_IO11*%
X125655000Y-92470000D03*
%TO.P,U1,20,IO12_20*%
%TO.N,unconnected-(U1-IO12-Pad20)*%
X126925000Y-92470000D03*
%TO.P,U1,21,IO13_21*%
%TO.N,unconnected-(U1-IO13-Pad21)*%
X128195000Y-92470000D03*
%TO.P,U1,22,IO14_22*%
%TO.N,unconnected-(U1-IO14-Pad22)*%
X129465000Y-92470000D03*
%TO.P,U1,23,IO21_23*%
%TO.N,unconnected-(U1-IO21-Pad23)*%
X130735000Y-92470000D03*
%TO.P,U1,24,IO47_24*%
%TO.N,unconnected-(U1-IO47-Pad24)*%
X132005000Y-92470000D03*
%TO.P,U1,25,IO48_25*%
%TO.N,unconnected-(U1-IO48-Pad25)*%
X133275000Y-92470000D03*
%TO.P,U1,26,IO45_26*%
%TO.N,unconnected-(U1-IO45-Pad26)*%
X134545000Y-92470000D03*
D19*
%TO.P,U1,27,IO0_27*%
%TO.N,ESP_IO0*%
X136310000Y-91220000D03*
%TO.P,U1,28,IO35_28*%
%TO.N,unconnected-(U1-IO35-Pad28)*%
X136310000Y-89950000D03*
%TO.P,U1,29,IO36_29*%
%TO.N,unconnected-(U1-IO36-Pad29)*%
X136310000Y-88680000D03*
%TO.P,U1,30,IO37_30*%
%TO.N,unconnected-(U1-IO37-Pad30)*%
X136310000Y-87410000D03*
%TO.P,U1,31,IO38_31*%
%TO.N,unconnected-(U1-IO38-Pad31)*%
X136310000Y-86140000D03*
%TO.P,U1,32,IO39_32*%
%TO.N,unconnected-(U1-IO39-Pad32)*%
X136310000Y-84870000D03*
%TO.P,U1,33,IO40_33*%
%TO.N,unconnected-(U1-IO40-Pad33)*%
X136310000Y-83600000D03*
%TO.P,U1,34,IO41_34*%
%TO.N,unconnected-(U1-IO41-Pad34)*%
X136310000Y-82330000D03*
%TO.P,U1,35,IO42_35*%
%TO.N,unconnected-(U1-IO42-Pad35)*%
X136310000Y-81060000D03*
%TO.P,U1,36,RXD0_36*%
%TO.N,ESP_TX*%
X136310000Y-79790000D03*
%TO.P,U1,37,TXD0_37*%
%TO.N,ESP_RX*%
X136310000Y-78520000D03*
%TO.P,U1,38,IO2_38*%
%TO.N,unconnected-(U1-IO2-Pad38)*%
X136310000Y-77250000D03*
%TO.P,U1,39,IO1_39*%
%TO.N,unconnected-(U1-IO1-Pad39)*%
X136310000Y-75980000D03*
%TO.P,U1,40,GND_40*%
%TO.N,GND*%
X136310000Y-74710000D03*
D21*
%TO.P,U1,41_1,GND_41_1*%
X124660000Y-81030000D03*
%TO.P,U1,41_2,GND_41_2*%
X126060000Y-81030000D03*
%TO.P,U1,41_3,GND_41_3*%
X127460000Y-81030000D03*
%TO.P,U1,41_4,GND_41_4*%
X124660000Y-82430000D03*
%TO.P,U1,41_5,GND_41_5*%
X126060000Y-82430000D03*
%TO.P,U1,41_6,GND_41_6*%
X127460000Y-82430000D03*
%TO.P,U1,41_7,GND_41_7*%
X124660000Y-83830000D03*
%TO.P,U1,41_8,GND_41_8*%
X126060000Y-83830000D03*
%TO.P,U1,41_9,GND_41_9*%
X127460000Y-83830000D03*
D22*
%TO.P,U1,41_10*%
X125360000Y-81030000D03*
%TO.P,U1,41_11*%
X126760000Y-81030000D03*
%TO.P,U1,41_12*%
X124660000Y-81730000D03*
%TO.P,U1,41_13*%
X126060000Y-81730000D03*
%TO.P,U1,41_14*%
X127460000Y-81730000D03*
%TO.P,U1,41_15*%
X125360000Y-82430000D03*
%TO.P,U1,41_16*%
X126760000Y-82430000D03*
%TO.P,U1,41_17*%
X124660000Y-83130000D03*
%TO.P,U1,41_18*%
X126060000Y-83130000D03*
%TO.P,U1,41_19*%
X127460000Y-83130000D03*
%TO.P,U1,41_20*%
X125360000Y-83830000D03*
%TO.P,U1,41_21*%
X126760000Y-83830000D03*
%TD*%
D23*
%TO.P,RV1,1,1_1*%
%TO.N,3V3*%
X154220000Y-66490000D03*
%TO.P,RV1,2,2_2*%
%TO.N,ESP_IO3*%
X154220000Y-63990000D03*
%TO.P,RV1,3,3_3*%
%TO.N,GND*%
X154220000Y-61490000D03*
D24*
%TO.P,RV1,MP,MountPin_MP*%
%TO.N,unconnected-(RV1-MountPin-PadMP)*%
X161220000Y-59590000D03*
%TO.N,unconnected-(RV1-MountPin-PadMP)_1*%
X161220000Y-68390000D03*
%TD*%
D25*
%TO.P,U4,1,DIN_1*%
%TO.N,ESP_IO7*%
X119645000Y-99400000D03*
%TO.P,U4,2,GAIN_SLOT_2*%
%TO.N,GND*%
X119645000Y-99900000D03*
%TO.P,U4,3,GND_3*%
X119645000Y-100400000D03*
%TO.P,U4,4,~{SD_MODE}_4*%
%TO.N,Net-(U4-~{SD_MODE})*%
X119645000Y-100900000D03*
D26*
%TO.P,U4,5,NC_5*%
%TO.N,unconnected-(U4-NC-Pad5)*%
X120332500Y-101587500D03*
%TO.P,U4,6,NC_6*%
%TO.N,unconnected-(U4-NC-Pad6)*%
X120832500Y-101587500D03*
%TO.P,U4,7,VDD_7*%
%TO.N,Slide_s_2*%
X121332500Y-101587500D03*
%TO.P,U4,8,VDD_8*%
X121832500Y-101587500D03*
D25*
%TO.P,U4,9,OUTP_9*%
%TO.N,SPEAK+*%
X122520000Y-100900000D03*
%TO.P,U4,10,OUTN_10*%
%TO.N,SPEAK-*%
X122520000Y-100400000D03*
%TO.P,U4,11,GND_11*%
%TO.N,GND*%
X122520000Y-99900000D03*
%TO.P,U4,12,NC_12*%
%TO.N,unconnected-(U4-NC-Pad12)*%
X122520000Y-99400000D03*
D26*
%TO.P,U4,13,NC_13*%
%TO.N,unconnected-(U4-NC-Pad13)*%
X121832500Y-98712500D03*
%TO.P,U4,14,LRCLK_14*%
%TO.N,ESP_IO16*%
X121332500Y-98712500D03*
%TO.P,U4,15,GND_15*%
%TO.N,GND*%
X120832500Y-98712500D03*
%TO.P,U4,16,BCLK_16*%
%TO.N,ESP_IO15*%
X120332500Y-98712500D03*
D27*
%TO.P,U4,17,PAD_17*%
%TO.N,GND*%
X121082500Y-100150000D03*
%TD*%
D13*
%TO.P,C2,1*%
%TO.N,3V3*%
X148960000Y-67830000D03*
%TO.P,C2,2*%
%TO.N,GND*%
X150860000Y-67830000D03*
%TD*%
D28*
%TO.P,U2,1,GND_1*%
%TO.N,GND*%
X109210000Y-98120000D03*
D29*
%TO.P,U2,2,VCC_2*%
%TO.N,3V3*%
X106670000Y-98120000D03*
%TO.P,U2,3,SCL_3*%
%TO.N,ESP_IO8*%
X104130000Y-98120000D03*
%TO.P,U2,4,SDA_4*%
%TO.N,ESP_IO9*%
X101590000Y-98120000D03*
%TD*%
D30*
%TO.P,TP1,1,5V+_1*%
%TO.N,unconnected-(TP1-5V+-Pad1)*%
X194720000Y-72820000D03*
%TO.P,TP1,2,-_2*%
%TO.N,unconnected-(TP1---Pad2)*%
X194720000Y-87020000D03*
%TO.P,TP1,3,B+_3*%
%TO.N,Net-(BT1-+)*%
X171820000Y-72820000D03*
%TO.P,TP1,4,B-_4*%
%TO.N,Net-(BT1--)*%
X171820000Y-87320000D03*
%TO.P,TP1,5,OUT+_5*%
%TO.N,Slide_s_1*%
X171820000Y-76320000D03*
%TO.P,TP1,6,OUT-_6*%
%TO.N,GND*%
X171820000Y-83920000D03*
%TD*%
D31*
%TO.P,BT1,1,+_1*%
%TO.N,Net-(BT1-+)*%
X181280000Y-61910000D03*
D32*
%TO.P,BT1,2,-_2*%
%TO.N,Net-(BT1--)*%
X181280000Y-59910000D03*
%TD*%
D33*
%TO.P,LS1,1,1_1*%
%TO.N,SPEAK+*%
X187660000Y-62530000D03*
D34*
%TO.P,LS1,2,2_2*%
%TO.N,SPEAK-*%
X189660000Y-62530000D03*
%TD*%
D35*
%TO.P,J1,1,Pin_1_1*%
%TO.N,3V3*%
X144530000Y-96850000D03*
D36*
%TO.P,J1,2,Pin_2_2*%
%TO.N,GND*%
X141990000Y-96850000D03*
%TO.P,J1,3,Pin_3_3*%
%TO.N,ESP_TX*%
X139450000Y-96850000D03*
%TO.P,J1,4,Pin_4_4*%
%TO.N,ESP_RX*%
X136910000Y-96850000D03*
%TD*%
D37*
%TO.P,M1,1,GND_1*%
%TO.N,GND*%
X153260000Y-91390000D03*
D38*
%TO.P,M1,2,VDD_2*%
%TO.N,3V3*%
X153260000Y-93930000D03*
%TO.P,M1,3,SD_3*%
%TO.N,ESP_IO4*%
X153260000Y-96470000D03*
%TO.P,M1,4,SCK_4*%
%TO.N,ESP_IO5*%
X160880000Y-96470000D03*
%TO.P,M1,5,WS_5*%
%TO.N,ESP_IO6*%
X160880000Y-93930000D03*
%TO.P,M1,6,L/R_6*%
%TO.N,GND*%
X160880000Y-91390000D03*
%TD*%
D39*
%TO.N,Slide_s_2*%
X138700000Y-70420000D03*
X126440000Y-103860000D03*
X146420000Y-65010000D03*
X124000000Y-97680000D03*
X146360000Y-59890000D03*
X146490000Y-63560000D03*
X122740000Y-101700000D03*
X140760000Y-64920000D03*
X140700000Y-68380000D03*
%TO.N,GND*%
X146180000Y-91700000D03*
X139600000Y-74640000D03*
X119110000Y-97320000D03*
X169580000Y-100700000D03*
X133970000Y-74640000D03*
X121190000Y-78970000D03*
X112740000Y-78350000D03*
X124620000Y-79640000D03*
%TO.N,3V3*%
X147410000Y-68580000D03*
X116630000Y-76140000D03*
X112590000Y-80250000D03*
X143300000Y-68820000D03*
X116680000Y-61770000D03*
%TO.N,ESP_IO10*%
X124710000Y-96290000D03*
X128440000Y-103250000D03*
%TO.N,Net-(U4-~{SD_MODE})*%
X120780000Y-104040000D03*
X127450000Y-102900000D03*
X117470000Y-101370000D03*
X129800000Y-99920000D03*
%TO.N,ESP_IO4*%
X114240000Y-78540000D03*
X116660000Y-78590000D03*
%TO.N,ESP_IO5*%
X116560000Y-79910000D03*
X114210000Y-79970000D03*
%TO.N,ESP_IO6*%
X116600000Y-81240000D03*
X114400000Y-81300000D03*
%TO.N,ESP_IO7*%
X116690000Y-82500000D03*
X115720000Y-93210000D03*
%TO.N,ESP_IO15*%
X118510000Y-95480000D03*
X121690000Y-83720000D03*
%TO.N,ESP_IO16*%
X116530000Y-84840000D03*
X119800000Y-96560000D03*
%TO.N,ESP_IO8*%
X112660000Y-98210000D03*
X117150000Y-87600000D03*
%TO.N,ESP_IO3*%
X148360000Y-74540000D03*
X123150000Y-90580000D03*
%TO.N,ESP_IO9*%
X123060000Y-94570000D03*
X112590000Y-100380000D03*
%TO.N,SPEAK+*%
X124540000Y-101640000D03*
X122890000Y-96920000D03*
%TO.N,SPEAK-*%
X122370000Y-104120000D03*
X123340000Y-100300000D03*
%TO.N,ESP_EN*%
X116660000Y-77300000D03*
X140290000Y-62560000D03*
X114390000Y-77270000D03*
%TO.N,ESP_RX*%
X138800000Y-78630000D03*
X133500000Y-78630000D03*
%TO.N,ESP_TX*%
X132970000Y-79890000D03*
X138370000Y-80210000D03*
%TO.N,ESP_IO0*%
X134130000Y-90390000D03*
%TD*%
%TO.N,Slide_s_1*%
D40*
X187770000Y-92130000D02*
X171960000Y-76320000D01*
X187770000Y-97220000D02*
X187770000Y-92130000D01*
%TO.N,Slide_s_2*%
X138700000Y-70950000D02*
X137360000Y-72290000D01*
X127265000Y-98980000D02*
X126265000Y-99980000D01*
X121332500Y-101587500D02*
X121832500Y-101587500D01*
X130350000Y-98980000D02*
X127265000Y-98980000D01*
X142470000Y-66690000D02*
X140760000Y-64980000D01*
X137360000Y-72200000D02*
X137360000Y-72290000D01*
X146490000Y-63560000D02*
X146500000Y-63570000D01*
X137360000Y-91970000D02*
X130350000Y-98980000D01*
X121832500Y-101587500D02*
X122627500Y-101587500D01*
X189770000Y-97720000D02*
X183630000Y-103860000D01*
X147050000Y-59890000D02*
X146360000Y-59890000D01*
X146420000Y-63630000D02*
X146490000Y-63560000D01*
X131130000Y-65970000D02*
X137360000Y-72200000D01*
X138700000Y-70420000D02*
X138700000Y-70950000D01*
X122627500Y-101587500D02*
X122740000Y-101700000D01*
X140760000Y-64980000D02*
X140760000Y-64920000D01*
X148580000Y-58360000D02*
X147050000Y-59890000D01*
X183630000Y-103860000D02*
X126440000Y-103860000D01*
X140780000Y-68380000D02*
X140700000Y-68380000D01*
X189770000Y-97220000D02*
X189770000Y-97720000D01*
X146420000Y-65010000D02*
X146420000Y-63630000D01*
X126265000Y-99945000D02*
X126265000Y-99980000D01*
X137360000Y-72290000D02*
X137360000Y-91970000D01*
X142470000Y-66690000D02*
X140780000Y-68380000D01*
X124000000Y-97680000D02*
X126265000Y-99945000D01*
X146500000Y-63570000D02*
X148670000Y-63570000D01*
%TO.N,GND*%
X108720000Y-62246346D02*
X118810000Y-72336346D01*
X120832500Y-99139386D02*
X120071886Y-99900000D01*
X124620000Y-80990000D02*
X124660000Y-81030000D01*
X144520000Y-66840000D02*
X144370000Y-66690000D01*
X133970000Y-74640000D02*
X134040000Y-74710000D01*
X121835964Y-61020000D02*
X120335964Y-62520000D01*
X124660000Y-81030000D02*
X124660000Y-83830000D01*
X134040000Y-74710000D02*
X136310000Y-74710000D01*
X150480000Y-58360000D02*
X150480000Y-63480000D01*
X163940000Y-91390000D02*
X171440000Y-98890000D01*
X143645000Y-73515000D02*
X145004744Y-73515000D01*
X133850000Y-74640000D02*
X127460000Y-81030000D01*
X124660000Y-83830000D02*
X127460000Y-83830000D01*
X150720000Y-91390000D02*
X163940000Y-91390000D01*
X127460000Y-82430000D02*
X127460000Y-83830000D01*
X142620000Y-74540000D02*
X139700000Y-74540000D01*
X145004744Y-73515000D02*
X150720000Y-79230256D01*
X121190000Y-76560000D02*
X121190000Y-78970000D01*
X119866886Y-97320000D02*
X119110000Y-97320000D01*
X108720000Y-61293654D02*
X108720000Y-62246346D01*
X171960000Y-83920000D02*
X171410000Y-83920000D01*
X109393654Y-60620000D02*
X108720000Y-61293654D01*
X120832500Y-100400000D02*
X121082500Y-100150000D01*
X142620000Y-74540000D02*
X143645000Y-73515000D01*
X112640000Y-62520000D02*
X110740000Y-60620000D01*
X142620000Y-72560000D02*
X144520000Y-70660000D01*
X127430000Y-65070000D02*
X131130000Y-61370000D01*
X118810000Y-72336346D02*
X118810000Y-74710000D01*
X124260000Y-65070000D02*
X125310000Y-64020000D01*
X141990000Y-96850000D02*
X141990000Y-95890000D01*
X150720000Y-79230256D02*
X150720000Y-91390000D01*
X119340000Y-74710000D02*
X121190000Y-76560000D01*
X119645000Y-100400000D02*
X119645000Y-99900000D01*
X124660000Y-81030000D02*
X127460000Y-81030000D01*
X110740000Y-60620000D02*
X109393654Y-60620000D01*
X141990000Y-95890000D02*
X146180000Y-91700000D01*
X133970000Y-74640000D02*
X133850000Y-74640000D01*
X150480000Y-63480000D02*
X150570000Y-63570000D01*
X125310000Y-64020000D02*
X125310000Y-61245964D01*
X109210000Y-98120000D02*
X109210000Y-81880000D01*
X120832500Y-98712500D02*
X120832500Y-99139386D01*
X126060000Y-81030000D02*
X126060000Y-83830000D01*
X144200000Y-62280000D02*
X146560000Y-62280000D01*
X120832500Y-98285614D02*
X119866886Y-97320000D01*
X144520000Y-70660000D02*
X144520000Y-66840000D01*
X121332500Y-99900000D02*
X121082500Y-100150000D01*
X153610000Y-61490000D02*
X154220000Y-61490000D01*
X144200000Y-62280000D02*
X144200000Y-66520000D01*
X124620000Y-79640000D02*
X124620000Y-80990000D01*
X146560000Y-62280000D02*
X150480000Y-58360000D01*
X150860000Y-63860000D02*
X150570000Y-63570000D01*
X142620000Y-74540000D02*
X142620000Y-72560000D01*
X139700000Y-74540000D02*
X139600000Y-74640000D01*
X171410000Y-83920000D02*
X163940000Y-91390000D01*
X169580000Y-100700000D02*
X169630000Y-100700000D01*
X120071886Y-99900000D02*
X119645000Y-99900000D01*
X171440000Y-98890000D02*
X180540000Y-98890000D01*
X124260000Y-65070000D02*
X127430000Y-65070000D01*
X150860000Y-67830000D02*
X150860000Y-63860000D01*
X150480000Y-58360000D02*
X153610000Y-61490000D01*
X169630000Y-100700000D02*
X171440000Y-98890000D01*
X124660000Y-82430000D02*
X127460000Y-82430000D01*
X125084036Y-61020000D02*
X121835964Y-61020000D01*
X127460000Y-81030000D02*
X127460000Y-83830000D01*
X120335964Y-62520000D02*
X112640000Y-62520000D01*
X122520000Y-99900000D02*
X121332500Y-99900000D01*
X144200000Y-66520000D02*
X144370000Y-66690000D01*
X109210000Y-81880000D02*
X112740000Y-78350000D01*
X120832500Y-98712500D02*
X120832500Y-98285614D01*
X171820000Y-83920000D02*
X171410000Y-83920000D01*
X119645000Y-100400000D02*
X120832500Y-100400000D01*
X125310000Y-61245964D02*
X125084036Y-61020000D01*
X118810000Y-74710000D02*
X119340000Y-74710000D01*
%TO.N,3V3*%
X119360000Y-61770000D02*
X116680000Y-61770000D01*
X144520000Y-74540000D02*
X144520000Y-88270000D01*
X151895000Y-68855000D02*
X149985000Y-68855000D01*
X139000000Y-74888529D02*
X139676471Y-75565000D01*
X149118000Y-92868000D02*
X152198000Y-92868000D01*
X110089390Y-99270000D02*
X112590000Y-96769390D01*
X139676471Y-75565000D02*
X143495000Y-75565000D01*
X151895000Y-68815000D02*
X151895000Y-68855000D01*
X132430000Y-60715406D02*
X132430000Y-62370000D01*
X132034594Y-60320000D02*
X132430000Y-60715406D01*
X116630000Y-76140000D02*
X116790000Y-75980000D01*
X154220000Y-66490000D02*
X151895000Y-68815000D01*
X107820000Y-99270000D02*
X110089390Y-99270000D01*
X142620000Y-70660000D02*
X142620000Y-69500000D01*
X137430000Y-66620000D02*
X141470000Y-70660000D01*
X141470000Y-70660000D02*
X142620000Y-70660000D01*
X145136000Y-96850000D02*
X149118000Y-92868000D01*
X132430000Y-62370000D02*
X131130000Y-63670000D01*
X148210000Y-68580000D02*
X148960000Y-67830000D01*
X142620000Y-70660000D02*
X139000000Y-74280000D01*
X149985000Y-68855000D02*
X148960000Y-67830000D01*
X137430000Y-63670000D02*
X137430000Y-66620000D01*
X137430000Y-63670000D02*
X142080000Y-59020000D01*
X139000000Y-74280000D02*
X139000000Y-74888529D01*
X142205000Y-58895000D02*
X142205000Y-58210000D01*
X143495000Y-75565000D02*
X144520000Y-74540000D01*
X120810000Y-60320000D02*
X132034594Y-60320000D01*
X142080000Y-59020000D02*
X142080000Y-58450000D01*
X137430000Y-63670000D02*
X131130000Y-63670000D01*
X152198000Y-92868000D02*
X153260000Y-93930000D01*
X112590000Y-96769390D02*
X112590000Y-80250000D01*
X147410000Y-68580000D02*
X148210000Y-68580000D01*
X142620000Y-69500000D02*
X143300000Y-68820000D01*
X116790000Y-75980000D02*
X118810000Y-75980000D01*
X144530000Y-96850000D02*
X145136000Y-96850000D01*
X119360000Y-61770000D02*
X120810000Y-60320000D01*
X144520000Y-88270000D02*
X149118000Y-92868000D01*
X106670000Y-98120000D02*
X107820000Y-99270000D01*
%TO.N,ESP_IO10*%
X171440000Y-94390000D02*
X178074744Y-94390000D01*
X181890000Y-99574744D02*
X178214744Y-103250000D01*
X124385000Y-95965000D02*
X124385000Y-92470000D01*
X180540000Y-94390000D02*
X171440000Y-94390000D01*
X178214744Y-103250000D02*
X128440000Y-103250000D01*
X124710000Y-96290000D02*
X124385000Y-95965000D01*
X181890000Y-98205256D02*
X181890000Y-99574744D01*
X178074744Y-94390000D02*
X181890000Y-98205256D01*
%TO.N,ESP_IO11*%
X125655000Y-92470000D02*
X125655000Y-91520000D01*
X122700000Y-63330000D02*
X124260000Y-61770000D01*
X122700000Y-73794314D02*
X122700000Y-63330000D01*
X125655000Y-91520000D02*
X123760000Y-89625000D01*
X123760000Y-75154314D02*
X123910000Y-75004314D01*
X123910000Y-75004314D02*
X122700000Y-73794314D01*
X123760000Y-89625000D02*
X123760000Y-75154314D01*
%TO.N,Net-(U4-~{SD_MODE})*%
X117940000Y-100900000D02*
X117470000Y-101370000D01*
X129800000Y-99920000D02*
X128150000Y-99920000D01*
X119645000Y-100900000D02*
X117940000Y-100900000D01*
X120780000Y-104040000D02*
X121920000Y-102900000D01*
X121920000Y-102900000D02*
X127450000Y-102900000D01*
X128150000Y-99920000D02*
X128090000Y-99980000D01*
%TO.N,ESP_IO4*%
X113400000Y-79380000D02*
X113400000Y-100760000D01*
X153260000Y-96470000D02*
X153260000Y-101550000D01*
X116730000Y-78520000D02*
X118810000Y-78520000D01*
X152510000Y-102300000D02*
X120118114Y-102300000D01*
X116660000Y-78590000D02*
X116730000Y-78520000D01*
X113400000Y-100760000D02*
X115020000Y-102380000D01*
X114240000Y-78540000D02*
X113400000Y-79380000D01*
X153260000Y-101550000D02*
X152510000Y-102300000D01*
X120038114Y-102380000D02*
X120118114Y-102300000D01*
X115020000Y-102380000D02*
X120038114Y-102380000D01*
%TO.N,ESP_IO5*%
X151782000Y-95408000D02*
X159818000Y-95408000D01*
X116680000Y-79790000D02*
X118810000Y-79790000D01*
X113800000Y-80380000D02*
X113800000Y-89577930D01*
X145810000Y-101380000D02*
X151782000Y-95408000D01*
X125602070Y-101380000D02*
X145810000Y-101380000D01*
X159818000Y-95408000D02*
X160880000Y-96470000D01*
X116560000Y-79910000D02*
X116680000Y-79790000D01*
X114210000Y-79970000D02*
X113800000Y-80380000D01*
X113800000Y-89577930D02*
X125602070Y-101380000D01*
%TO.N,ESP_IO6*%
X150720000Y-93930000D02*
X151782000Y-94992000D01*
X116780000Y-81060000D02*
X118810000Y-81060000D01*
X114400000Y-89612244D02*
X114400000Y-81300000D01*
X125767756Y-100980000D02*
X114400000Y-89612244D01*
X151782000Y-94992000D02*
X159818000Y-94992000D01*
X159818000Y-94992000D02*
X160880000Y-93930000D01*
X150720000Y-93930000D02*
X143670000Y-100980000D01*
X143670000Y-100980000D02*
X125767756Y-100980000D01*
X116600000Y-81240000D02*
X116780000Y-81060000D01*
%TO.N,ESP_IO7*%
X116690000Y-82500000D02*
X116860000Y-82330000D01*
X115720000Y-95475000D02*
X115720000Y-93210000D01*
X116860000Y-82330000D02*
X118810000Y-82330000D01*
X119645000Y-99400000D02*
X115720000Y-95475000D01*
%TO.N,ESP_IO15*%
X119840000Y-98220000D02*
X120332500Y-98712500D01*
X118510000Y-97600000D02*
X119130000Y-98220000D01*
X121570000Y-83600000D02*
X118810000Y-83600000D01*
X118510000Y-95480000D02*
X118510000Y-97600000D01*
X119130000Y-98220000D02*
X119840000Y-98220000D01*
X121690000Y-83720000D02*
X121570000Y-83600000D01*
%TO.N,ESP_IO16*%
X116530000Y-84840000D02*
X116870000Y-84840000D01*
X116900000Y-84870000D02*
X118810000Y-84870000D01*
X121332500Y-98092500D02*
X119800000Y-96560000D01*
X121332500Y-98712500D02*
X121332500Y-98092500D01*
X116870000Y-84840000D02*
X116900000Y-84870000D01*
%TO.N,ESP_IO8*%
X105680000Y-99670000D02*
X111200000Y-99670000D01*
X104130000Y-98120000D02*
X105680000Y-99670000D01*
X117150000Y-87600000D02*
X118230000Y-88680000D01*
X118230000Y-88680000D02*
X118810000Y-88680000D01*
X111200000Y-99670000D02*
X112660000Y-98210000D01*
%TO.N,ESP_IO3*%
X123150000Y-90580000D02*
X121515000Y-90580000D01*
X154220000Y-63990000D02*
X155420000Y-65190000D01*
X155420000Y-67480000D02*
X148360000Y-74540000D01*
X155420000Y-65190000D02*
X155420000Y-67480000D01*
X121515000Y-90580000D02*
X120575000Y-91520000D01*
X120575000Y-91520000D02*
X120575000Y-92470000D01*
%TO.N,ESP_IO9*%
X123115000Y-94185000D02*
X123115000Y-92470000D01*
X123060000Y-94240000D02*
X123115000Y-94185000D01*
X103850000Y-100380000D02*
X112590000Y-100380000D01*
X123060000Y-94570000D02*
X123060000Y-94240000D01*
X101590000Y-98120000D02*
X103850000Y-100380000D01*
%TO.N,SPEAK+*%
X106770000Y-70718529D02*
X113991471Y-77940000D01*
X115000000Y-78451471D02*
X115000000Y-89210000D01*
X187660000Y-62530000D02*
X181940000Y-56810000D01*
X114488529Y-77940000D02*
X115000000Y-78451471D01*
X124540000Y-101640000D02*
X123800000Y-100900000D01*
X181940000Y-56810000D02*
X111398628Y-56810000D01*
X115000000Y-89210000D02*
X122710000Y-96920000D01*
X113991471Y-77940000D02*
X114488529Y-77940000D01*
X123800000Y-100900000D02*
X122520000Y-100900000D01*
X111398628Y-56810000D02*
X106770000Y-61438629D01*
X122710000Y-96920000D02*
X122890000Y-96920000D01*
X106770000Y-61438629D02*
X106770000Y-70718529D01*
%TO.N,SPEAK-*%
X122710000Y-104460000D02*
X122370000Y-104120000D01*
X185990000Y-86710101D02*
X195270000Y-95990101D01*
X123240000Y-100400000D02*
X122520000Y-100400000D01*
X195270000Y-95990101D02*
X195270000Y-98449899D01*
X185990000Y-66200000D02*
X185990000Y-86710101D01*
X189259899Y-104460000D02*
X122710000Y-104460000D01*
X195270000Y-98449899D02*
X189259899Y-104460000D01*
X189660000Y-62530000D02*
X185990000Y-66200000D01*
X123340000Y-100300000D02*
X123240000Y-100400000D01*
%TO.N,Net-(BT1-+)*%
X171820000Y-71370000D02*
X171820000Y-72820000D01*
X181280000Y-61910000D02*
X171820000Y-71370000D01*
%TO.N,Net-(BT1--)*%
X170120000Y-69134315D02*
X170120000Y-78020000D01*
X170120000Y-78020000D02*
X173520000Y-81420000D01*
X173520000Y-81420000D02*
X173520000Y-85620000D01*
X181280000Y-59910000D02*
X179344315Y-59910000D01*
X179344315Y-59910000D02*
X170120000Y-69134315D01*
X173520000Y-85620000D02*
X171820000Y-87320000D01*
%TO.N,ESP_EN*%
X140290000Y-62560000D02*
X140500000Y-62350000D01*
X116710000Y-77250000D02*
X118810000Y-77250000D01*
X107170000Y-70050000D02*
X114390000Y-77270000D01*
X144030000Y-58210000D02*
X144030000Y-60550000D01*
X111564314Y-57210000D02*
X107170000Y-61604314D01*
X140500000Y-62350000D02*
X142360000Y-62350000D01*
X144030000Y-58210000D02*
X143030000Y-57210000D01*
X143030000Y-57210000D02*
X111564314Y-57210000D01*
X116660000Y-77300000D02*
X116710000Y-77250000D01*
X107170000Y-61604314D02*
X107170000Y-70050000D01*
X144030000Y-60550000D02*
X142300000Y-62280000D01*
%TO.N,ESP_RX*%
X133500000Y-78630000D02*
X133850000Y-78630000D01*
X137760000Y-79670000D02*
X138800000Y-78630000D01*
X136910000Y-96850000D02*
X137760000Y-96000000D01*
X133960000Y-78520000D02*
X136310000Y-78520000D01*
X133850000Y-78630000D02*
X133960000Y-78520000D01*
X137760000Y-96000000D02*
X137760000Y-79670000D01*
%TO.N,ESP_TX*%
X133070000Y-79790000D02*
X136310000Y-79790000D01*
X132970000Y-79890000D02*
X133070000Y-79790000D01*
X139450000Y-96850000D02*
X138370000Y-95770000D01*
X138370000Y-95770000D02*
X138370000Y-80210000D01*
%TO.N,ESP_IO0*%
X134960000Y-91220000D02*
X134130000Y-90390000D01*
X136310000Y-91220000D02*
X134960000Y-91220000D01*
%TD*%
%TA.AperFunction,Conductor*%
%TO.N,GND*%
G36*
X191682702Y-54270617D02*
G01*
X192066773Y-54287386D01*
X192077505Y-54288326D01*
X192455963Y-54338150D01*
X192466601Y-54340025D01*
X192839279Y-54422647D01*
X192849720Y-54425445D01*
X193213765Y-54540227D01*
X193223911Y-54543920D01*
X193576578Y-54690000D01*
X193586369Y-54694566D01*
X193791138Y-54801162D01*
X193924942Y-54870816D01*
X193934310Y-54876224D01*
X194256244Y-55081318D01*
X194265105Y-55087523D01*
X194567930Y-55319889D01*
X194576217Y-55326843D01*
X194857635Y-55584715D01*
X194865284Y-55592364D01*
X195123156Y-55873782D01*
X195130110Y-55882069D01*
X195362476Y-56184894D01*
X195368681Y-56193755D01*
X195573775Y-56515689D01*
X195579183Y-56525057D01*
X195755430Y-56863623D01*
X195760002Y-56873427D01*
X195906075Y-57226078D01*
X195909775Y-57236244D01*
X196024553Y-57600276D01*
X196027353Y-57610724D01*
X196109972Y-57983390D01*
X196111850Y-57994044D01*
X196161671Y-58372472D01*
X196162614Y-58383248D01*
X196179382Y-58767297D01*
X196179500Y-58772706D01*
X196179500Y-66757528D01*
X196159815Y-66824567D01*
X196107011Y-66870322D01*
X196037853Y-66880266D01*
X195974297Y-66851241D01*
X195940939Y-66804981D01*
X195893227Y-66689794D01*
X195893222Y-66689785D01*
X195771936Y-66479711D01*
X195624265Y-66287262D01*
X195624260Y-66287256D01*
X195452743Y-66115739D01*
X195452736Y-66115733D01*
X195260293Y-65968067D01*
X195260292Y-65968066D01*
X195260289Y-65968064D01*
X195050212Y-65846776D01*
X195050205Y-65846773D01*
X194826104Y-65753947D01*
X194697465Y-65719478D01*
X194591789Y-65691162D01*
X194591788Y-65691161D01*
X194591785Y-65691161D01*
X194351289Y-65659500D01*
X194351288Y-65659500D01*
X194108712Y-65659500D01*
X194108711Y-65659500D01*
X193868214Y-65691161D01*
X193633895Y-65753947D01*
X193409794Y-65846773D01*
X193409785Y-65846777D01*
X193199706Y-65968067D01*
X193007263Y-66115733D01*
X193007256Y-66115739D01*
X192835739Y-66287256D01*
X192835733Y-66287263D01*
X192688067Y-66479706D01*
X192566777Y-66689785D01*
X192566773Y-66689794D01*
X192473947Y-66913895D01*
X192411161Y-67148214D01*
X192379500Y-67388711D01*
X192379500Y-67631288D01*
X192411161Y-67871785D01*
X192473947Y-68106104D01*
X192558284Y-68309711D01*
X192566776Y-68330212D01*
X192688064Y-68540289D01*
X192688066Y-68540292D01*
X192688067Y-68540293D01*
X192835733Y-68732736D01*
X192835739Y-68732743D01*
X193007256Y-68904260D01*
X193007262Y-68904265D01*
X193199711Y-69051936D01*
X193409788Y-69173224D01*
X193633900Y-69266054D01*
X193868211Y-69328838D01*
X194026965Y-69349738D01*
X194108711Y-69360500D01*
X194108712Y-69360500D01*
X194351289Y-69360500D01*
X194415329Y-69352069D01*
X194591789Y-69328838D01*
X194826100Y-69266054D01*
X195050212Y-69173224D01*
X195260289Y-69051936D01*
X195452738Y-68904265D01*
X195624265Y-68732738D01*
X195771936Y-68540289D01*
X195893224Y-68330212D01*
X195940939Y-68215018D01*
X195984780Y-68160615D01*
X196051074Y-68138550D01*
X196118773Y-68155829D01*
X196166384Y-68206966D01*
X196179500Y-68262471D01*
X196179500Y-70795500D01*
X196159815Y-70862539D01*
X196107011Y-70908294D01*
X196055500Y-70919500D01*
X193272129Y-70919500D01*
X193272123Y-70919501D01*
X193212516Y-70925908D01*
X193077671Y-70976202D01*
X193077664Y-70976206D01*
X192962455Y-71062452D01*
X192962452Y-71062455D01*
X192876206Y-71177664D01*
X192876202Y-71177671D01*
X192825908Y-71312517D01*
X192819501Y-71372116D01*
X192819501Y-71372123D01*
X192819500Y-71372135D01*
X192819500Y-74267870D01*
X192819501Y-74267876D01*
X192825908Y-74327483D01*
X192876202Y-74462328D01*
X192876206Y-74462335D01*
X192962452Y-74577544D01*
X192962455Y-74577547D01*
X193077664Y-74663793D01*
X193077671Y-74663797D01*
X193212517Y-74714091D01*
X193212516Y-74714091D01*
X193219444Y-74714835D01*
X193272127Y-74720500D01*
X196055500Y-74720499D01*
X196122539Y-74740184D01*
X196168294Y-74792987D01*
X196179500Y-74844499D01*
X196179500Y-84995500D01*
X196159815Y-85062539D01*
X196107011Y-85108294D01*
X196055500Y-85119500D01*
X193272129Y-85119500D01*
X193272123Y-85119501D01*
X193212516Y-85125908D01*
X193077671Y-85176202D01*
X193077664Y-85176206D01*
X192962455Y-85262452D01*
X192962452Y-85262455D01*
X192876206Y-85377664D01*
X192876202Y-85377671D01*
X192825908Y-85512517D01*
X192819501Y-85572116D01*
X192819500Y-85572135D01*
X192819500Y-88467870D01*
X192819501Y-88467876D01*
X192825908Y-88527483D01*
X192876202Y-88662328D01*
X192876206Y-88662335D01*
X192962452Y-88777544D01*
X192962455Y-88777547D01*
X193077664Y-88863793D01*
X193077671Y-88863797D01*
X193212517Y-88914091D01*
X193212516Y-88914091D01*
X193219444Y-88914835D01*
X193272127Y-88920500D01*
X196055500Y-88920499D01*
X196122539Y-88940184D01*
X196168294Y-88992987D01*
X196179500Y-89044499D01*
X196179500Y-100207293D01*
X196179382Y-100212702D01*
X196162614Y-100596751D01*
X196161671Y-100607527D01*
X196111850Y-100985955D01*
X196109972Y-100996609D01*
X196027353Y-101369275D01*
X196024553Y-101379723D01*
X195909775Y-101743755D01*
X195906075Y-101753921D01*
X195760002Y-102106572D01*
X195755430Y-102116376D01*
X195579183Y-102454942D01*
X195573775Y-102464310D01*
X195368681Y-102786244D01*
X195362476Y-102795105D01*
X195130110Y-103097930D01*
X195123156Y-103106217D01*
X194865284Y-103387635D01*
X194857635Y-103395284D01*
X194576217Y-103653156D01*
X194567930Y-103660110D01*
X194265105Y-103892476D01*
X194256244Y-103898681D01*
X193934310Y-104103775D01*
X193924942Y-104109183D01*
X193586376Y-104285430D01*
X193576572Y-104290002D01*
X193223921Y-104436075D01*
X193213755Y-104439775D01*
X192849723Y-104554553D01*
X192839275Y-104557353D01*
X192466609Y-104639972D01*
X192455955Y-104641850D01*
X192077527Y-104691671D01*
X192066751Y-104692614D01*
X191682703Y-104709382D01*
X191677294Y-104709500D01*
X190158996Y-104709500D01*
X190091957Y-104689815D01*
X190046202Y-104637011D01*
X190036258Y-104567853D01*
X190065283Y-104504297D01*
X190071315Y-104497819D01*
X191456952Y-103112182D01*
X195628506Y-98940626D01*
X195628511Y-98940623D01*
X195638714Y-98930419D01*
X195638716Y-98930419D01*
X195750520Y-98818615D01*
X195829577Y-98681683D01*
X195859534Y-98569880D01*
X195870500Y-98528957D01*
X195870500Y-98370842D01*
X195870500Y-96079160D01*
X195870501Y-96079147D01*
X195870501Y-95911046D01*
X195870501Y-95911044D01*
X195829577Y-95758316D01*
X195790679Y-95690943D01*
X195750520Y-95621385D01*
X195638716Y-95509581D01*
X195638715Y-95509580D01*
X195634385Y-95505250D01*
X195634374Y-95505240D01*
X186626819Y-86497685D01*
X186593334Y-86436362D01*
X186590500Y-86410004D01*
X186590500Y-66500097D01*
X186610185Y-66433058D01*
X186626819Y-66412416D01*
X187885746Y-65153489D01*
X189166320Y-63872914D01*
X189227641Y-63839431D01*
X189292315Y-63842665D01*
X189402299Y-63878402D01*
X189573389Y-63905500D01*
X189573390Y-63905500D01*
X189746610Y-63905500D01*
X189746611Y-63905500D01*
X189917701Y-63878402D01*
X190082445Y-63824873D01*
X190236788Y-63746232D01*
X190376928Y-63644414D01*
X190499414Y-63521928D01*
X190601232Y-63381788D01*
X190679873Y-63227445D01*
X190733402Y-63062701D01*
X190760500Y-62891611D01*
X190760500Y-62168389D01*
X190733402Y-61997299D01*
X190679873Y-61832555D01*
X190601232Y-61678212D01*
X190499414Y-61538072D01*
X190376928Y-61415586D01*
X190236788Y-61313768D01*
X190082445Y-61235127D01*
X189917701Y-61181598D01*
X189917699Y-61181597D01*
X189917698Y-61181597D01*
X189782688Y-61160214D01*
X189746611Y-61154500D01*
X189573389Y-61154500D01*
X189537312Y-61160214D01*
X189402302Y-61181597D01*
X189237552Y-61235128D01*
X189083211Y-61313768D01*
X188943073Y-61415585D01*
X188835530Y-61523128D01*
X188774207Y-61556612D01*
X188704515Y-61551628D01*
X188648582Y-61509756D01*
X188642310Y-61500543D01*
X188635806Y-61489999D01*
X188602712Y-61436344D01*
X188478656Y-61312288D01*
X188353559Y-61235128D01*
X188329336Y-61220187D01*
X188329331Y-61220185D01*
X188327862Y-61219698D01*
X188162797Y-61165001D01*
X188162795Y-61165000D01*
X188060010Y-61154500D01*
X187259998Y-61154500D01*
X187259977Y-61154502D01*
X187204054Y-61160214D01*
X187135361Y-61147443D01*
X187103773Y-61124537D01*
X182427590Y-56448355D01*
X182427588Y-56448352D01*
X182308717Y-56329481D01*
X182308716Y-56329480D01*
X182221904Y-56279360D01*
X182221904Y-56279359D01*
X182221900Y-56279358D01*
X182171785Y-56250423D01*
X182019057Y-56209499D01*
X181860943Y-56209499D01*
X181853347Y-56209499D01*
X181853331Y-56209500D01*
X111477685Y-56209500D01*
X111319570Y-56209500D01*
X111166843Y-56250423D01*
X111166842Y-56250423D01*
X111166840Y-56250424D01*
X111166837Y-56250425D01*
X111116724Y-56279359D01*
X111116723Y-56279360D01*
X111073317Y-56304420D01*
X111029913Y-56329479D01*
X111029910Y-56329481D01*
X110918106Y-56441286D01*
X106401286Y-60958107D01*
X106289481Y-61069911D01*
X106289479Y-61069913D01*
X106278933Y-61088181D01*
X106257964Y-61124501D01*
X106210423Y-61206844D01*
X106169499Y-61359572D01*
X106169499Y-61359574D01*
X106169499Y-61527675D01*
X106169500Y-61527688D01*
X106169500Y-70631859D01*
X106169499Y-70631877D01*
X106169499Y-70797583D01*
X106169498Y-70797583D01*
X106203883Y-70925909D01*
X106210423Y-70950314D01*
X106225370Y-70976202D01*
X106225371Y-70976205D01*
X106225372Y-70976205D01*
X106271752Y-71056539D01*
X106289479Y-71087243D01*
X106289481Y-71087246D01*
X106408349Y-71206114D01*
X106408355Y-71206119D01*
X113429779Y-78227543D01*
X113463264Y-78288866D01*
X113463715Y-78339416D01*
X113439361Y-78461850D01*
X113406976Y-78523761D01*
X113405425Y-78525339D01*
X112919482Y-79011281D01*
X112919478Y-79011287D01*
X112874322Y-79089500D01*
X112840424Y-79148212D01*
X112840423Y-79148213D01*
X112826993Y-79198334D01*
X112799499Y-79300943D01*
X112799499Y-79300945D01*
X112799499Y-79325555D01*
X112779814Y-79392594D01*
X112727010Y-79438349D01*
X112674934Y-79447057D01*
X112674934Y-79449500D01*
X112511155Y-79449500D01*
X112356510Y-79480261D01*
X112356498Y-79480264D01*
X112210827Y-79540602D01*
X112210814Y-79540609D01*
X112079711Y-79628210D01*
X112079707Y-79628213D01*
X111968213Y-79739707D01*
X111968210Y-79739711D01*
X111880609Y-79870814D01*
X111880602Y-79870827D01*
X111820264Y-80016498D01*
X111820261Y-80016510D01*
X111789500Y-80171153D01*
X111789500Y-80328846D01*
X111820261Y-80483489D01*
X111820264Y-80483501D01*
X111880602Y-80629172D01*
X111880609Y-80629185D01*
X111968602Y-80760874D01*
X111989480Y-80827551D01*
X111989500Y-80829765D01*
X111989500Y-96469292D01*
X111969815Y-96536331D01*
X111953181Y-96556973D01*
X110771680Y-97738474D01*
X110710357Y-97771959D01*
X110640665Y-97766975D01*
X110584732Y-97725103D01*
X110560315Y-97659639D01*
X110559999Y-97650793D01*
X110559999Y-97385837D01*
X110553867Y-97318348D01*
X110553865Y-97318341D01*
X110505462Y-97163010D01*
X110505459Y-97163001D01*
X110421289Y-97023766D01*
X110421286Y-97023762D01*
X110306237Y-96908713D01*
X110306233Y-96908710D01*
X110166998Y-96824540D01*
X110166992Y-96824538D01*
X110011662Y-96776135D01*
X110011655Y-96776134D01*
X109944151Y-96770000D01*
X109460000Y-96770000D01*
X109460000Y-97686988D01*
X109402993Y-97654075D01*
X109275826Y-97620000D01*
X109144174Y-97620000D01*
X109017007Y-97654075D01*
X108960000Y-97686988D01*
X108960000Y-96770000D01*
X108475837Y-96770000D01*
X108408348Y-96776132D01*
X108408341Y-96776134D01*
X108253010Y-96824537D01*
X108253001Y-96824540D01*
X108113766Y-96908710D01*
X108113762Y-96908713D01*
X107998713Y-97023762D01*
X107998710Y-97023766D01*
X107914540Y-97163001D01*
X107914539Y-97163004D01*
X107906275Y-97189525D01*
X107867535Y-97247672D01*
X107803509Y-97275644D01*
X107734524Y-97264561D01*
X107700209Y-97240313D01*
X107549786Y-97089890D01*
X107377820Y-96964951D01*
X107188414Y-96868444D01*
X107188413Y-96868443D01*
X107188412Y-96868443D01*
X106986243Y-96802754D01*
X106986241Y-96802753D01*
X106986240Y-96802753D01*
X106818172Y-96776134D01*
X106776287Y-96769500D01*
X106563713Y-96769500D01*
X106521828Y-96776134D01*
X106353760Y-96802753D01*
X106151585Y-96868444D01*
X105962179Y-96964951D01*
X105790213Y-97089890D01*
X105639890Y-97240213D01*
X105514949Y-97412182D01*
X105510484Y-97420946D01*
X105462509Y-97471742D01*
X105394688Y-97488536D01*
X105328553Y-97465998D01*
X105289516Y-97420946D01*
X105285050Y-97412182D01*
X105160109Y-97240213D01*
X105009786Y-97089890D01*
X104837820Y-96964951D01*
X104648414Y-96868444D01*
X104648413Y-96868443D01*
X104648412Y-96868443D01*
X104446243Y-96802754D01*
X104446241Y-96802753D01*
X104446240Y-96802753D01*
X104278172Y-96776134D01*
X104236287Y-96769500D01*
X104023713Y-96769500D01*
X103981828Y-96776134D01*
X103813760Y-96802753D01*
X103611585Y-96868444D01*
X103422179Y-96964951D01*
X103250213Y-97089890D01*
X103099890Y-97240213D01*
X102974949Y-97412182D01*
X102970484Y-97420946D01*
X102922509Y-97471742D01*
X102854688Y-97488536D01*
X102788553Y-97465998D01*
X102749516Y-97420946D01*
X102745050Y-97412182D01*
X102620109Y-97240213D01*
X102469786Y-97089890D01*
X102297820Y-96964951D01*
X102108414Y-96868444D01*
X102108413Y-96868443D01*
X102108412Y-96868443D01*
X101906243Y-96802754D01*
X101906241Y-96802753D01*
X101906240Y-96802753D01*
X101738172Y-96776134D01*
X101696287Y-96769500D01*
X101483713Y-96769500D01*
X101441828Y-96776134D01*
X101273760Y-96802753D01*
X101071585Y-96868444D01*
X100882179Y-96964951D01*
X100710213Y-97089890D01*
X100559890Y-97240213D01*
X100434951Y-97412179D01*
X100338444Y-97601585D01*
X100272753Y-97803760D01*
X100239500Y-98013713D01*
X100239500Y-98226286D01*
X100270248Y-98420426D01*
X100272754Y-98436243D01*
X100318547Y-98577180D01*
X100338444Y-98638414D01*
X100434951Y-98827820D01*
X100559890Y-98999786D01*
X100710213Y-99150109D01*
X100882179Y-99275048D01*
X100882181Y-99275049D01*
X100882184Y-99275051D01*
X101071588Y-99371557D01*
X101273757Y-99437246D01*
X101483713Y-99470500D01*
X101483714Y-99470500D01*
X101696286Y-99470500D01*
X101696287Y-99470500D01*
X101906243Y-99437246D01*
X101948523Y-99423507D01*
X102018362Y-99421511D01*
X102074521Y-99453756D01*
X103481284Y-100860520D01*
X103481286Y-100860521D01*
X103481290Y-100860524D01*
X103618209Y-100939573D01*
X103618216Y-100939577D01*
X103770943Y-100980501D01*
X103770945Y-100980501D01*
X103936654Y-100980501D01*
X103936670Y-100980500D01*
X112010234Y-100980500D01*
X112077273Y-101000185D01*
X112079125Y-101001398D01*
X112210814Y-101089390D01*
X112210827Y-101089397D01*
X112305753Y-101128716D01*
X112356503Y-101149737D01*
X112478752Y-101174054D01*
X112511153Y-101180499D01*
X112511156Y-101180500D01*
X112511158Y-101180500D01*
X112668844Y-101180500D01*
X112668845Y-101180499D01*
X112823497Y-101149737D01*
X112829684Y-101147173D01*
X112899153Y-101139705D01*
X112961632Y-101170980D01*
X112964818Y-101174054D01*
X113038349Y-101247585D01*
X113038355Y-101247590D01*
X114535139Y-102744374D01*
X114535149Y-102744385D01*
X114539479Y-102748715D01*
X114539480Y-102748716D01*
X114651284Y-102860520D01*
X114720532Y-102900500D01*
X114788215Y-102939577D01*
X114940943Y-102980501D01*
X114940946Y-102980501D01*
X115106653Y-102980501D01*
X115106669Y-102980500D01*
X119951445Y-102980500D01*
X119951461Y-102980501D01*
X119959057Y-102980501D01*
X120117168Y-102980501D01*
X120117171Y-102980501D01*
X120269899Y-102939577D01*
X120308808Y-102917112D01*
X120370808Y-102900500D01*
X120770903Y-102900500D01*
X120837942Y-102920185D01*
X120883697Y-102972989D01*
X120893641Y-103042147D01*
X120864616Y-103105703D01*
X120858597Y-103112167D01*
X120783754Y-103187011D01*
X120765339Y-103205426D01*
X120704015Y-103238910D01*
X120701850Y-103239361D01*
X120546508Y-103270261D01*
X120546498Y-103270264D01*
X120400827Y-103330602D01*
X120400814Y-103330609D01*
X120269711Y-103418210D01*
X120269707Y-103418213D01*
X120158213Y-103529707D01*
X120158210Y-103529711D01*
X120070609Y-103660814D01*
X120070602Y-103660827D01*
X120010264Y-103806498D01*
X120010261Y-103806510D01*
X119979500Y-103961153D01*
X119979500Y-104118846D01*
X120010261Y-104273489D01*
X120010264Y-104273501D01*
X120070602Y-104419172D01*
X120070609Y-104419185D01*
X120135706Y-104516609D01*
X120156584Y-104583287D01*
X120138099Y-104650667D01*
X120086121Y-104697357D01*
X120032604Y-104709500D01*
X103235425Y-104709500D01*
X103168386Y-104689815D01*
X103122631Y-104637011D01*
X103112687Y-104567853D01*
X103137049Y-104510014D01*
X103193783Y-104436075D01*
X103251936Y-104360289D01*
X103373224Y-104150212D01*
X103466054Y-103926100D01*
X103528838Y-103691789D01*
X103560500Y-103451288D01*
X103560500Y-103208712D01*
X103560067Y-103205426D01*
X103547792Y-103112182D01*
X103528838Y-102968211D01*
X103466054Y-102733900D01*
X103373224Y-102509788D01*
X103251936Y-102299711D01*
X103184008Y-102211185D01*
X103104266Y-102107263D01*
X103104260Y-102107256D01*
X102932743Y-101935739D01*
X102932736Y-101935733D01*
X102740293Y-101788067D01*
X102740292Y-101788066D01*
X102740289Y-101788064D01*
X102552796Y-101679815D01*
X102530214Y-101666777D01*
X102530205Y-101666773D01*
X102306104Y-101573947D01*
X102071785Y-101511161D01*
X101831289Y-101479500D01*
X101831288Y-101479500D01*
X101588712Y-101479500D01*
X101588711Y-101479500D01*
X101348214Y-101511161D01*
X101113895Y-101573947D01*
X100889794Y-101666773D01*
X100889785Y-101666777D01*
X100679706Y-101788067D01*
X100487263Y-101935733D01*
X100487256Y-101935739D01*
X100315739Y-102107256D01*
X100315733Y-102107263D01*
X100168067Y-102299706D01*
X100046777Y-102509785D01*
X100046773Y-102509794D01*
X99953947Y-102733895D01*
X99891161Y-102968214D01*
X99859500Y-103208711D01*
X99859500Y-103451288D01*
X99891161Y-103691785D01*
X99953947Y-103926104D01*
X100046773Y-104150205D01*
X100046777Y-104150215D01*
X100068695Y-104188177D01*
X100085168Y-104256077D01*
X100062315Y-104322104D01*
X100007394Y-104365295D01*
X99937841Y-104371936D01*
X99913855Y-104364738D01*
X99733427Y-104290002D01*
X99723623Y-104285430D01*
X99385057Y-104109183D01*
X99375689Y-104103775D01*
X99053755Y-103898681D01*
X99044894Y-103892476D01*
X98742069Y-103660110D01*
X98733782Y-103653156D01*
X98452364Y-103395284D01*
X98444715Y-103387635D01*
X98186843Y-103106217D01*
X98179889Y-103097930D01*
X97947523Y-102795105D01*
X97941318Y-102786244D01*
X97736224Y-102464310D01*
X97730816Y-102454942D01*
X97554569Y-102116376D01*
X97549997Y-102106572D01*
X97403920Y-101753911D01*
X97400224Y-101743755D01*
X97400043Y-101743181D01*
X97285445Y-101379720D01*
X97282646Y-101369275D01*
X97271044Y-101316942D01*
X97200025Y-100996601D01*
X97198149Y-100985955D01*
X97197431Y-100980500D01*
X97148326Y-100607505D01*
X97147386Y-100596773D01*
X97130618Y-100212702D01*
X97130500Y-100207293D01*
X97130500Y-58772706D01*
X97130618Y-58767297D01*
X97133377Y-58704108D01*
X97147387Y-58383224D01*
X97148325Y-58372496D01*
X97198151Y-57994032D01*
X97200024Y-57983402D01*
X97282648Y-57610714D01*
X97285446Y-57600276D01*
X97400230Y-57236227D01*
X97403917Y-57226095D01*
X97550003Y-56873412D01*
X97554561Y-56863638D01*
X97730822Y-56525045D01*
X97736217Y-56515700D01*
X97747040Y-56498711D01*
X99039500Y-56498711D01*
X99039500Y-56741288D01*
X99071161Y-56981785D01*
X99133947Y-57216104D01*
X99226773Y-57440205D01*
X99226777Y-57440214D01*
X99241400Y-57465541D01*
X99348064Y-57650289D01*
X99348066Y-57650292D01*
X99348067Y-57650293D01*
X99495733Y-57842736D01*
X99495739Y-57842743D01*
X99667256Y-58014260D01*
X99667263Y-58014266D01*
X99764720Y-58089047D01*
X99859711Y-58161936D01*
X100069788Y-58283224D01*
X100293900Y-58376054D01*
X100528211Y-58438838D01*
X100708586Y-58462584D01*
X100768711Y-58470500D01*
X100768712Y-58470500D01*
X101011289Y-58470500D01*
X101059388Y-58464167D01*
X101251789Y-58438838D01*
X101486100Y-58376054D01*
X101710212Y-58283224D01*
X101920289Y-58161936D01*
X102112738Y-58014265D01*
X102284265Y-57842738D01*
X102431936Y-57650289D01*
X102553224Y-57440212D01*
X102646054Y-57216100D01*
X102708838Y-56981789D01*
X102740500Y-56741288D01*
X102740500Y-56498712D01*
X102733870Y-56448355D01*
X102721203Y-56352134D01*
X102708838Y-56258211D01*
X102646054Y-56023900D01*
X102553224Y-55799788D01*
X102431936Y-55589711D01*
X102284265Y-55397262D01*
X102284260Y-55397256D01*
X102112743Y-55225739D01*
X102112736Y-55225733D01*
X101920293Y-55078067D01*
X101920292Y-55078066D01*
X101920289Y-55078064D01*
X101710212Y-54956776D01*
X101710205Y-54956773D01*
X101486104Y-54863947D01*
X101251785Y-54801161D01*
X101011289Y-54769500D01*
X101011288Y-54769500D01*
X100768712Y-54769500D01*
X100768711Y-54769500D01*
X100528214Y-54801161D01*
X100293895Y-54863947D01*
X100069794Y-54956773D01*
X100069785Y-54956777D01*
X99859706Y-55078067D01*
X99667263Y-55225733D01*
X99667256Y-55225739D01*
X99495739Y-55397256D01*
X99495733Y-55397263D01*
X99348067Y-55589706D01*
X99226777Y-55799785D01*
X99226773Y-55799794D01*
X99133947Y-56023895D01*
X99071161Y-56258214D01*
X99039500Y-56498711D01*
X97747040Y-56498711D01*
X97941325Y-56193744D01*
X97947515Y-56184905D01*
X98179896Y-55882060D01*
X98186834Y-55873791D01*
X98444726Y-55592352D01*
X98452352Y-55584726D01*
X98733791Y-55326834D01*
X98742060Y-55319896D01*
X99044905Y-55087515D01*
X99053744Y-55081325D01*
X99375700Y-54876217D01*
X99385045Y-54870822D01*
X99723638Y-54694561D01*
X99733412Y-54690003D01*
X100086095Y-54543917D01*
X100096227Y-54540230D01*
X100460285Y-54425443D01*
X100470714Y-54422648D01*
X100843402Y-54340024D01*
X100854032Y-54338151D01*
X101232496Y-54288325D01*
X101243224Y-54287387D01*
X101627297Y-54270617D01*
X101632706Y-54270500D01*
X101695892Y-54270500D01*
X191614108Y-54270500D01*
X191677294Y-54270500D01*
X191682702Y-54270617D01*
G37*
%TD.AperFunction*%
%TA.AperFunction,Conductor*%
G36*
X147591922Y-57430185D02*
G01*
X147637677Y-57482989D01*
X147647621Y-57552147D01*
X147642589Y-57573501D01*
X147626459Y-57622181D01*
X147590001Y-57732203D01*
X147590000Y-57732204D01*
X147579500Y-57834983D01*
X147579500Y-58459901D01*
X147559815Y-58526940D01*
X147543181Y-58547582D01*
X146913630Y-59177132D01*
X146852307Y-59210617D01*
X146782615Y-59205633D01*
X146757062Y-59192555D01*
X146739179Y-59180606D01*
X146739175Y-59180604D01*
X146739171Y-59180602D01*
X146593501Y-59120264D01*
X146593489Y-59120261D01*
X146438845Y-59089500D01*
X146438842Y-59089500D01*
X146281158Y-59089500D01*
X146281155Y-59089500D01*
X146126510Y-59120261D01*
X146126498Y-59120264D01*
X145980827Y-59180602D01*
X145980814Y-59180609D01*
X145849711Y-59268210D01*
X145849707Y-59268213D01*
X145738213Y-59379707D01*
X145738210Y-59379711D01*
X145650609Y-59510814D01*
X145650602Y-59510827D01*
X145590264Y-59656498D01*
X145590261Y-59656510D01*
X145559500Y-59811153D01*
X145559500Y-59968846D01*
X145590261Y-60123489D01*
X145590264Y-60123501D01*
X145650602Y-60269172D01*
X145650609Y-60269185D01*
X145738210Y-60400288D01*
X145738213Y-60400292D01*
X145849707Y-60511786D01*
X145849711Y-60511789D01*
X145980814Y-60599390D01*
X145980827Y-60599397D01*
X146070041Y-60636350D01*
X146126503Y-60659737D01*
X146281153Y-60690499D01*
X146281156Y-60690500D01*
X146281158Y-60690500D01*
X146438844Y-60690500D01*
X146438845Y-60690499D01*
X146593497Y-60659737D01*
X146739179Y-60599394D01*
X146817863Y-60546819D01*
X146870875Y-60511398D01*
X146937553Y-60490520D01*
X146939766Y-60490500D01*
X146963331Y-60490500D01*
X146963347Y-60490501D01*
X146970943Y-60490501D01*
X147129054Y-60490501D01*
X147129057Y-60490501D01*
X147281785Y-60449577D01*
X147331904Y-60420639D01*
X147418716Y-60370520D01*
X147530520Y-60258716D01*
X147530520Y-60258714D01*
X147540724Y-60248511D01*
X147540728Y-60248506D01*
X148169138Y-59620095D01*
X148230459Y-59586612D01*
X148269421Y-59584420D01*
X148279991Y-59585500D01*
X148880008Y-59585499D01*
X148880016Y-59585498D01*
X148880019Y-59585498D01*
X148936302Y-59579748D01*
X148982797Y-59574999D01*
X149149334Y-59519814D01*
X149298656Y-59427712D01*
X149422712Y-59303656D01*
X149424752Y-59300347D01*
X149426745Y-59298555D01*
X149427193Y-59297989D01*
X149427289Y-59298065D01*
X149476694Y-59253623D01*
X149545656Y-59242395D01*
X149609740Y-59270234D01*
X149635829Y-59300339D01*
X149637681Y-59303341D01*
X149637683Y-59303344D01*
X149761654Y-59427315D01*
X149910875Y-59519356D01*
X149910880Y-59519358D01*
X150077302Y-59574505D01*
X150077309Y-59574506D01*
X150180019Y-59584999D01*
X150730000Y-59584999D01*
X150779972Y-59584999D01*
X150779986Y-59584998D01*
X150882697Y-59574505D01*
X151049119Y-59519358D01*
X151049124Y-59519356D01*
X151198345Y-59427315D01*
X151322315Y-59303345D01*
X151414356Y-59154124D01*
X151414358Y-59154119D01*
X151469505Y-58987697D01*
X151469506Y-58987690D01*
X151479999Y-58884986D01*
X151480000Y-58884973D01*
X151480000Y-58610000D01*
X150730000Y-58610000D01*
X150730000Y-59584999D01*
X150180019Y-59584999D01*
X150229999Y-59584998D01*
X150230000Y-59584998D01*
X150230000Y-58484000D01*
X150249685Y-58416961D01*
X150302489Y-58371206D01*
X150354000Y-58360000D01*
X150480000Y-58360000D01*
X150480000Y-58234000D01*
X150499685Y-58166961D01*
X150552489Y-58121206D01*
X150604000Y-58110000D01*
X151479999Y-58110000D01*
X151479999Y-57835028D01*
X151479998Y-57835013D01*
X151469505Y-57732302D01*
X151416885Y-57573504D01*
X151414483Y-57503676D01*
X151450215Y-57443634D01*
X151512735Y-57412441D01*
X151534591Y-57410500D01*
X159281055Y-57410500D01*
X159348094Y-57430185D01*
X159393849Y-57482989D01*
X159403793Y-57552147D01*
X159374768Y-57615703D01*
X159368736Y-57622181D01*
X159203220Y-57787696D01*
X159014107Y-58024837D01*
X158852733Y-58281661D01*
X158721133Y-58554931D01*
X158620957Y-58841216D01*
X158620953Y-58841228D01*
X158553460Y-59136937D01*
X158553457Y-59136951D01*
X158519500Y-59438336D01*
X158519500Y-59741663D01*
X158553457Y-60043048D01*
X158553460Y-60043062D01*
X158620953Y-60338771D01*
X158620957Y-60338783D01*
X158721133Y-60625068D01*
X158852733Y-60898338D01*
X158852735Y-60898341D01*
X159014108Y-61155164D01*
X159203221Y-61392304D01*
X159417696Y-61606779D01*
X159654836Y-61795892D01*
X159911659Y-61957265D01*
X160184935Y-62088868D01*
X160357312Y-62149185D01*
X160471216Y-62189042D01*
X160471228Y-62189046D01*
X160766937Y-62256540D01*
X160766946Y-62256541D01*
X160766951Y-62256542D01*
X160963934Y-62278736D01*
X161068337Y-62290499D01*
X161068340Y-62290500D01*
X161068343Y-62290500D01*
X161371660Y-62290500D01*
X161371661Y-62290499D01*
X161525694Y-62273144D01*
X161673048Y-62256542D01*
X161673051Y-62256541D01*
X161673063Y-62256540D01*
X161968772Y-62189046D01*
X162255065Y-62088868D01*
X162528341Y-61957265D01*
X162785164Y-61795892D01*
X163022304Y-61606779D01*
X163236779Y-61392304D01*
X163425892Y-61155164D01*
X163587265Y-60898341D01*
X163718868Y-60625065D01*
X163819046Y-60338772D01*
X163886540Y-60043063D01*
X163920500Y-59741657D01*
X163920500Y-59438343D01*
X163899687Y-59253623D01*
X163886542Y-59136951D01*
X163886541Y-59136946D01*
X163886540Y-59136937D01*
X163819046Y-58841228D01*
X163718868Y-58554935D01*
X163587265Y-58281659D01*
X163425892Y-58024836D01*
X163236779Y-57787696D01*
X163071264Y-57622181D01*
X163037779Y-57560858D01*
X163042763Y-57491166D01*
X163084635Y-57435233D01*
X163150099Y-57410816D01*
X163158945Y-57410500D01*
X181639903Y-57410500D01*
X181706942Y-57430185D01*
X181727584Y-57446819D01*
X186523181Y-62242417D01*
X186556666Y-62303740D01*
X186559500Y-62330098D01*
X186559500Y-63205001D01*
X186559501Y-63205019D01*
X186570000Y-63307796D01*
X186570001Y-63307799D01*
X186617915Y-63452393D01*
X186625186Y-63474334D01*
X186717288Y-63623656D01*
X186841344Y-63747712D01*
X186990666Y-63839814D01*
X187157203Y-63894999D01*
X187159415Y-63895225D01*
X187160691Y-63895745D01*
X187163827Y-63896417D01*
X187163707Y-63896975D01*
X187224106Y-63921617D01*
X187264261Y-63978796D01*
X187267127Y-64048607D01*
X187234498Y-64106264D01*
X185621286Y-65719478D01*
X185509481Y-65831282D01*
X185509479Y-65831285D01*
X185498011Y-65851149D01*
X185464208Y-65909698D01*
X185430423Y-65968215D01*
X185389499Y-66120943D01*
X185389499Y-66120945D01*
X185389499Y-66289046D01*
X185389500Y-66289059D01*
X185389500Y-86623431D01*
X185389499Y-86623449D01*
X185389499Y-86789155D01*
X185389498Y-86789155D01*
X185430423Y-86941886D01*
X185459358Y-86992001D01*
X185459359Y-86992005D01*
X185459360Y-86992005D01*
X185509479Y-87078815D01*
X185509481Y-87078818D01*
X185628349Y-87197686D01*
X185628355Y-87197691D01*
X193310136Y-94879472D01*
X193343621Y-94940795D01*
X193338637Y-95010487D01*
X193296765Y-95066420D01*
X193260788Y-95085079D01*
X193255622Y-95086758D01*
X193031151Y-95201132D01*
X192827350Y-95349201D01*
X192827345Y-95349205D01*
X192649209Y-95527341D01*
X192649202Y-95527350D01*
X192585699Y-95614753D01*
X192530369Y-95657419D01*
X192460756Y-95663397D01*
X192429087Y-95652352D01*
X192250029Y-95561117D01*
X192062826Y-95500290D01*
X191868422Y-95469500D01*
X191868417Y-95469500D01*
X191671583Y-95469500D01*
X191671578Y-95469500D01*
X191477173Y-95500290D01*
X191289970Y-95561117D01*
X191114594Y-95650476D01*
X191027849Y-95713501D01*
X190955354Y-95766172D01*
X190955352Y-95766174D01*
X190955351Y-95766174D01*
X190857681Y-95863845D01*
X190796358Y-95897330D01*
X190726666Y-95892346D01*
X190682319Y-95863845D01*
X190584648Y-95766174D01*
X190584646Y-95766172D01*
X190425405Y-95650476D01*
X190419629Y-95647533D01*
X190250029Y-95561117D01*
X190062826Y-95500290D01*
X189868422Y-95469500D01*
X189868417Y-95469500D01*
X189671583Y-95469500D01*
X189671578Y-95469500D01*
X189477173Y-95500290D01*
X189289970Y-95561117D01*
X189114595Y-95650475D01*
X189078385Y-95676784D01*
X189012578Y-95700263D01*
X188944524Y-95684437D01*
X188906235Y-95650778D01*
X188877546Y-95612454D01*
X188877544Y-95612452D01*
X188877543Y-95612451D01*
X188762335Y-95526206D01*
X188762328Y-95526202D01*
X188627482Y-95475908D01*
X188627483Y-95475908D01*
X188567883Y-95469501D01*
X188567881Y-95469500D01*
X188567873Y-95469500D01*
X188567865Y-95469500D01*
X188494500Y-95469500D01*
X188427461Y-95449815D01*
X188381706Y-95397011D01*
X188370500Y-95345500D01*
X188370500Y-92050945D01*
X188370500Y-92050943D01*
X188329577Y-91898216D01*
X188300123Y-91847200D01*
X188250524Y-91761290D01*
X188250521Y-91761286D01*
X188250520Y-91761284D01*
X188138716Y-91649480D01*
X188138715Y-91649479D01*
X188134385Y-91645149D01*
X188134374Y-91645139D01*
X173756818Y-77267583D01*
X173723333Y-77206260D01*
X173720499Y-77179902D01*
X173720499Y-74872129D01*
X173720498Y-74872123D01*
X173714091Y-74812516D01*
X173663797Y-74677670D01*
X173653411Y-74663797D01*
X173638823Y-74644310D01*
X173614406Y-74578849D01*
X173629257Y-74510575D01*
X173638820Y-74495694D01*
X173663796Y-74462331D01*
X173664236Y-74461153D01*
X173698589Y-74369046D01*
X173714091Y-74327483D01*
X173720500Y-74267873D01*
X173720499Y-71372128D01*
X173714091Y-71312517D01*
X173712437Y-71308083D01*
X173663797Y-71177671D01*
X173663793Y-71177664D01*
X173577547Y-71062455D01*
X173577544Y-71062452D01*
X173462335Y-70976206D01*
X173462328Y-70976202D01*
X173352285Y-70935159D01*
X173296351Y-70893288D01*
X173271934Y-70827824D01*
X173286786Y-70759551D01*
X173307934Y-70731299D01*
X180992416Y-63046818D01*
X181053739Y-63013333D01*
X181080097Y-63010499D01*
X181955002Y-63010499D01*
X181955008Y-63010499D01*
X182057797Y-62999999D01*
X182224334Y-62944814D01*
X182373656Y-62852712D01*
X182497712Y-62728656D01*
X182589814Y-62579334D01*
X182644999Y-62412797D01*
X182655500Y-62310009D01*
X182655499Y-61509992D01*
X182644999Y-61407203D01*
X182589814Y-61240666D01*
X182497712Y-61091344D01*
X182373656Y-60967288D01*
X182373652Y-60967285D01*
X182309456Y-60927688D01*
X182262731Y-60875740D01*
X182251510Y-60806777D01*
X182279353Y-60742695D01*
X182286850Y-60734491D01*
X182394414Y-60626928D01*
X182496232Y-60486788D01*
X182574873Y-60332445D01*
X182628402Y-60167701D01*
X182655500Y-59996611D01*
X182655500Y-59823389D01*
X182628402Y-59652299D01*
X182574873Y-59487555D01*
X182496232Y-59333212D01*
X182394414Y-59193072D01*
X182271928Y-59070586D01*
X182131788Y-58968768D01*
X181977445Y-58890127D01*
X181812701Y-58836598D01*
X181812699Y-58836597D01*
X181812698Y-58836597D01*
X181681271Y-58815781D01*
X181641611Y-58809500D01*
X180918389Y-58809500D01*
X180878728Y-58815781D01*
X180747302Y-58836597D01*
X180747299Y-58836598D01*
X180598307Y-58885009D01*
X180582552Y-58890128D01*
X180428211Y-58968768D01*
X180348256Y-59026859D01*
X180288072Y-59070586D01*
X180288070Y-59070588D01*
X180288069Y-59070588D01*
X180165588Y-59193069D01*
X180165588Y-59193070D01*
X180165586Y-59193072D01*
X180118133Y-59258386D01*
X180062803Y-59301051D01*
X180017815Y-59309500D01*
X179265256Y-59309500D01*
X179250198Y-59313534D01*
X179250199Y-59313535D01*
X179112529Y-59350423D01*
X179112524Y-59350426D01*
X178975605Y-59429475D01*
X178975597Y-59429481D01*
X169639481Y-68765597D01*
X169639479Y-68765600D01*
X169594758Y-68843061D01*
X169594757Y-68843062D01*
X169560423Y-68902529D01*
X169560423Y-68902530D01*
X169519499Y-69055258D01*
X169519499Y-69055260D01*
X169519499Y-69223361D01*
X169519500Y-69223374D01*
X169519500Y-77933330D01*
X169519499Y-77933348D01*
X169519499Y-78099054D01*
X169519498Y-78099054D01*
X169560423Y-78251785D01*
X169577793Y-78281869D01*
X169577794Y-78281873D01*
X169639475Y-78388709D01*
X169639481Y-78388717D01*
X169758349Y-78507585D01*
X169758355Y-78507590D01*
X172883181Y-81632416D01*
X172916666Y-81693739D01*
X172919500Y-81720097D01*
X172919500Y-81896000D01*
X172899815Y-81963039D01*
X172847011Y-82008794D01*
X172795500Y-82020000D01*
X172070000Y-82020000D01*
X172070000Y-83190110D01*
X172044601Y-83179590D01*
X171895838Y-83150000D01*
X171744162Y-83150000D01*
X171595399Y-83179590D01*
X171570000Y-83190110D01*
X171570000Y-82020000D01*
X170372155Y-82020000D01*
X170312627Y-82026401D01*
X170312620Y-82026403D01*
X170177913Y-82076645D01*
X170177906Y-82076649D01*
X170062812Y-82162809D01*
X170062809Y-82162812D01*
X169976649Y-82277906D01*
X169976645Y-82277913D01*
X169926403Y-82412620D01*
X169926401Y-82412627D01*
X169920000Y-82472155D01*
X169920000Y-83670000D01*
X171090111Y-83670000D01*
X171079590Y-83695399D01*
X171050000Y-83844162D01*
X171050000Y-83995838D01*
X171079590Y-84144601D01*
X171090111Y-84170000D01*
X169920000Y-84170000D01*
X169920000Y-85367844D01*
X169926401Y-85427372D01*
X169926403Y-85427379D01*
X169979746Y-85570399D01*
X169977930Y-85571076D01*
X169990383Y-85628316D01*
X169978428Y-85669033D01*
X169979303Y-85669359D01*
X169925908Y-85812517D01*
X169919501Y-85872116D01*
X169919500Y-85872135D01*
X169919500Y-88767870D01*
X169919501Y-88767876D01*
X169925908Y-88827483D01*
X169976202Y-88962328D01*
X169976206Y-88962335D01*
X170062452Y-89077544D01*
X170062455Y-89077547D01*
X170177664Y-89163793D01*
X170177671Y-89163797D01*
X170312517Y-89214091D01*
X170312516Y-89214091D01*
X170319444Y-89214835D01*
X170372127Y-89220500D01*
X173267872Y-89220499D01*
X173327483Y-89214091D01*
X173462331Y-89163796D01*
X173577546Y-89077546D01*
X173663796Y-88962331D01*
X173714091Y-88827483D01*
X173720500Y-88767873D01*
X173720499Y-86320095D01*
X173740184Y-86253057D01*
X173756813Y-86232420D01*
X173888713Y-86100521D01*
X173888716Y-86100520D01*
X174000520Y-85988716D01*
X174050639Y-85901904D01*
X174079577Y-85851785D01*
X174120500Y-85699057D01*
X174120500Y-85540943D01*
X174120500Y-81340943D01*
X174079577Y-81188216D01*
X174079577Y-81188215D01*
X174034567Y-81110256D01*
X174000520Y-81051284D01*
X173888716Y-80939480D01*
X173884385Y-80935149D01*
X173884374Y-80935139D01*
X171381415Y-78432180D01*
X171347930Y-78370857D01*
X171352914Y-78301165D01*
X171394786Y-78245232D01*
X171460250Y-78220815D01*
X171469096Y-78220499D01*
X172959902Y-78220499D01*
X173026941Y-78240184D01*
X173047583Y-78256818D01*
X187133181Y-92342416D01*
X187166666Y-92403739D01*
X187169500Y-92430097D01*
X187169500Y-95345500D01*
X187149815Y-95412539D01*
X187097011Y-95458294D01*
X187045502Y-95469500D01*
X186972130Y-95469500D01*
X186972123Y-95469501D01*
X186905443Y-95476669D01*
X186836683Y-95464262D01*
X186804509Y-95441060D01*
X186712654Y-95349205D01*
X186712649Y-95349201D01*
X186508848Y-95201132D01*
X186508847Y-95201131D01*
X186508845Y-95201130D01*
X186419831Y-95155775D01*
X186284383Y-95086760D01*
X186044785Y-95008910D01*
X185943046Y-94992796D01*
X185795962Y-94969500D01*
X185544038Y-94969500D01*
X185419626Y-94989205D01*
X185295214Y-95008910D01*
X185055616Y-95086760D01*
X184831151Y-95201132D01*
X184627350Y-95349201D01*
X184627345Y-95349205D01*
X184449205Y-95527345D01*
X184449201Y-95527350D01*
X184301132Y-95731151D01*
X184186760Y-95955616D01*
X184108910Y-96195214D01*
X184090131Y-96313782D01*
X184069500Y-96444038D01*
X184069500Y-97995962D01*
X184089285Y-98120880D01*
X184108910Y-98244785D01*
X184186760Y-98484383D01*
X184233521Y-98576155D01*
X184287293Y-98681689D01*
X184301132Y-98708848D01*
X184449201Y-98912649D01*
X184449205Y-98912654D01*
X184627345Y-99090794D01*
X184627350Y-99090798D01*
X184791764Y-99210251D01*
X184831155Y-99238870D01*
X184950965Y-99299916D01*
X185055616Y-99353239D01*
X185055618Y-99353239D01*
X185055621Y-99353241D01*
X185295215Y-99431090D01*
X185544038Y-99470500D01*
X185544039Y-99470500D01*
X185795961Y-99470500D01*
X185795962Y-99470500D01*
X186044785Y-99431090D01*
X186284379Y-99353241D01*
X186508845Y-99238870D01*
X186712656Y-99090793D01*
X186804511Y-98998937D01*
X186865831Y-98965454D01*
X186905445Y-98963330D01*
X186912514Y-98964089D01*
X186912517Y-98964091D01*
X186972127Y-98970500D01*
X187370903Y-98970499D01*
X187437941Y-98990183D01*
X187483696Y-99042987D01*
X187493640Y-99112146D01*
X187464615Y-99175701D01*
X187458583Y-99182180D01*
X183417584Y-103223181D01*
X183356261Y-103256666D01*
X183329903Y-103259500D01*
X179353841Y-103259500D01*
X179286802Y-103239815D01*
X179241047Y-103187011D01*
X179231103Y-103117853D01*
X179260128Y-103054297D01*
X179266160Y-103047819D01*
X179876160Y-102437819D01*
X182248506Y-100065471D01*
X182248511Y-100065468D01*
X182258714Y-100055264D01*
X182258716Y-100055264D01*
X182370520Y-99943460D01*
X182442099Y-99819481D01*
X182449577Y-99806529D01*
X182490501Y-99653801D01*
X182490501Y-99495687D01*
X182490501Y-99488092D01*
X182490500Y-99488074D01*
X182490500Y-98294316D01*
X182490501Y-98294303D01*
X182490501Y-98126200D01*
X182490501Y-98126199D01*
X182449577Y-97973472D01*
X182414590Y-97912872D01*
X182370524Y-97836546D01*
X182370518Y-97836538D01*
X180336160Y-95802180D01*
X180302675Y-95740857D01*
X180307659Y-95671165D01*
X180349531Y-95615232D01*
X180414995Y-95590815D01*
X180423841Y-95590499D01*
X181390002Y-95590499D01*
X181390008Y-95590499D01*
X181492797Y-95579999D01*
X181659334Y-95524814D01*
X181808656Y-95432712D01*
X181932712Y-95308656D01*
X182024814Y-95159334D01*
X182079999Y-94992797D01*
X182090500Y-94890009D01*
X182090499Y-93889992D01*
X182088544Y-93870857D01*
X182079999Y-93787203D01*
X182079998Y-93787200D01*
X182058633Y-93722726D01*
X182024814Y-93620666D01*
X181932712Y-93471344D01*
X181808656Y-93347288D01*
X181680605Y-93268306D01*
X181659336Y-93255187D01*
X181659331Y-93255185D01*
X181627949Y-93244786D01*
X181492797Y-93200001D01*
X181492795Y-93200000D01*
X181390010Y-93189500D01*
X179689998Y-93189500D01*
X179689981Y-93189501D01*
X179587203Y-93200000D01*
X179587200Y-93200001D01*
X179420668Y-93255185D01*
X179420663Y-93255187D01*
X179271342Y-93347289D01*
X179147289Y-93471342D01*
X179055187Y-93620663D01*
X179055185Y-93620668D01*
X179050647Y-93634364D01*
X179030105Y-93696357D01*
X179027405Y-93704504D01*
X178987632Y-93761949D01*
X178923116Y-93788772D01*
X178909699Y-93789500D01*
X178161413Y-93789500D01*
X178161397Y-93789499D01*
X178153801Y-93789499D01*
X177995687Y-93789499D01*
X177988091Y-93789499D01*
X177988075Y-93789500D01*
X173070301Y-93789500D01*
X173003262Y-93769815D01*
X172957507Y-93717011D01*
X172952595Y-93704504D01*
X172950455Y-93698046D01*
X172924814Y-93620666D01*
X172832712Y-93471344D01*
X172708656Y-93347288D01*
X172580605Y-93268306D01*
X172559336Y-93255187D01*
X172559331Y-93255185D01*
X172527949Y-93244786D01*
X172392797Y-93200001D01*
X172392795Y-93200000D01*
X172290010Y-93189500D01*
X170589998Y-93189500D01*
X170589981Y-93189501D01*
X170487203Y-93200000D01*
X170487200Y-93200001D01*
X170320668Y-93255185D01*
X170320663Y-93255187D01*
X170171342Y-93347289D01*
X170047289Y-93471342D01*
X169955187Y-93620663D01*
X169955185Y-93620668D01*
X169950647Y-93634364D01*
X169900001Y-93787203D01*
X169900001Y-93787204D01*
X169900000Y-93787204D01*
X169889500Y-93889983D01*
X169889500Y-94890001D01*
X169889501Y-94890019D01*
X169900000Y-94992796D01*
X169900001Y-94992799D01*
X169955185Y-95159331D01*
X169955187Y-95159336D01*
X169964789Y-95174903D01*
X170047288Y-95308656D01*
X170171344Y-95432712D01*
X170320666Y-95524814D01*
X170487203Y-95579999D01*
X170589991Y-95590500D01*
X172290008Y-95590499D01*
X172392797Y-95579999D01*
X172559334Y-95524814D01*
X172708656Y-95432712D01*
X172832712Y-95308656D01*
X172924814Y-95159334D01*
X172952595Y-95075495D01*
X172992368Y-95018051D01*
X173056884Y-94991228D01*
X173070301Y-94990500D01*
X177774647Y-94990500D01*
X177841686Y-95010185D01*
X177862328Y-95026819D01*
X180313828Y-97478319D01*
X180347313Y-97539642D01*
X180342329Y-97609334D01*
X180300457Y-97665267D01*
X180234993Y-97689684D01*
X180226147Y-97690000D01*
X179690028Y-97690000D01*
X179690012Y-97690001D01*
X179587302Y-97700494D01*
X179420880Y-97755641D01*
X179420875Y-97755643D01*
X179271654Y-97847684D01*
X179147684Y-97971654D01*
X179055643Y-98120875D01*
X179055641Y-98120880D01*
X179000494Y-98287302D01*
X179000493Y-98287309D01*
X178990000Y-98390013D01*
X178990000Y-98640000D01*
X180416000Y-98640000D01*
X180483039Y-98659685D01*
X180528794Y-98712489D01*
X180540000Y-98764000D01*
X180540000Y-99016000D01*
X180520315Y-99083039D01*
X180467511Y-99128794D01*
X180416000Y-99140000D01*
X178990001Y-99140000D01*
X178990001Y-99389986D01*
X179000494Y-99492697D01*
X179055641Y-99659119D01*
X179055643Y-99659124D01*
X179147684Y-99808345D01*
X179271654Y-99932315D01*
X179420875Y-100024356D01*
X179420880Y-100024358D01*
X179587302Y-100079505D01*
X179587309Y-100079506D01*
X179690019Y-100089999D01*
X180226146Y-100089999D01*
X180293185Y-100109683D01*
X180338940Y-100162487D01*
X180348884Y-100231646D01*
X180319859Y-100295202D01*
X180313827Y-100301680D01*
X178002328Y-102613181D01*
X177941005Y-102646666D01*
X177914647Y-102649500D01*
X153309097Y-102649500D01*
X153242058Y-102629815D01*
X153196303Y-102577011D01*
X153186359Y-102507853D01*
X153215384Y-102444297D01*
X153221416Y-102437819D01*
X153448049Y-102211185D01*
X153618506Y-102040727D01*
X153618511Y-102040724D01*
X153628714Y-102030520D01*
X153628716Y-102030520D01*
X153740520Y-101918716D01*
X153744359Y-101912065D01*
X153797813Y-101819482D01*
X153797814Y-101819480D01*
X153819574Y-101781790D01*
X153819573Y-101781790D01*
X153819577Y-101781785D01*
X153860500Y-101629057D01*
X153860500Y-101470943D01*
X153860500Y-99389986D01*
X169890001Y-99389986D01*
X169900494Y-99492697D01*
X169955641Y-99659119D01*
X169955643Y-99659124D01*
X170047684Y-99808345D01*
X170171654Y-99932315D01*
X170320875Y-100024356D01*
X170320880Y-100024358D01*
X170487302Y-100079505D01*
X170487309Y-100079506D01*
X170590019Y-100089999D01*
X171189999Y-100089999D01*
X171690000Y-100089999D01*
X172289972Y-100089999D01*
X172289986Y-100089998D01*
X172392697Y-100079505D01*
X172559119Y-100024358D01*
X172559124Y-100024356D01*
X172708345Y-99932315D01*
X172832315Y-99808345D01*
X172924356Y-99659124D01*
X172924358Y-99659119D01*
X172979505Y-99492697D01*
X172979506Y-99492690D01*
X172989999Y-99389986D01*
X172990000Y-99389973D01*
X172990000Y-99140000D01*
X171690000Y-99140000D01*
X171690000Y-100089999D01*
X171189999Y-100089999D01*
X171190000Y-100089998D01*
X171190000Y-99140000D01*
X169890001Y-99140000D01*
X169890001Y-99389986D01*
X153860500Y-99389986D01*
X153860500Y-98390013D01*
X169890000Y-98390013D01*
X169890000Y-98640000D01*
X171190000Y-98640000D01*
X171690000Y-98640000D01*
X172989999Y-98640000D01*
X172989999Y-98390028D01*
X172989998Y-98390013D01*
X172979505Y-98287302D01*
X172924358Y-98120880D01*
X172924356Y-98120875D01*
X172832315Y-97971654D01*
X172708345Y-97847684D01*
X172559124Y-97755643D01*
X172559119Y-97755641D01*
X172392697Y-97700494D01*
X172392690Y-97700493D01*
X172289986Y-97690000D01*
X171690000Y-97690000D01*
X171690000Y-98640000D01*
X171190000Y-98640000D01*
X171190000Y-97690000D01*
X170590028Y-97690000D01*
X170590012Y-97690001D01*
X170487302Y-97700494D01*
X170320880Y-97755641D01*
X170320875Y-97755643D01*
X170171654Y-97847684D01*
X170047684Y-97971654D01*
X169955643Y-98120875D01*
X169955641Y-98120880D01*
X169900494Y-98287302D01*
X169900493Y-98287309D01*
X169890000Y-98390013D01*
X153860500Y-98390013D01*
X153860500Y-97656730D01*
X153880185Y-97589691D01*
X153917866Y-97552808D01*
X153917752Y-97552651D01*
X153918823Y-97551872D01*
X153919715Y-97551000D01*
X153921690Y-97549789D01*
X153921689Y-97549789D01*
X153921694Y-97549787D01*
X154082464Y-97432981D01*
X154222981Y-97292464D01*
X154339787Y-97131694D01*
X154430005Y-96954632D01*
X154491413Y-96765636D01*
X154522500Y-96569361D01*
X154522500Y-96370639D01*
X154491413Y-96174364D01*
X154490673Y-96172087D01*
X154490262Y-96170820D01*
X154488265Y-96100979D01*
X154524345Y-96041146D01*
X154587045Y-96010316D01*
X154608192Y-96008500D01*
X159517903Y-96008500D01*
X159584942Y-96028185D01*
X159605584Y-96044819D01*
X159616237Y-96055472D01*
X159649722Y-96116795D01*
X159649160Y-96169522D01*
X159649349Y-96169552D01*
X159649146Y-96170831D01*
X159649133Y-96172087D01*
X159648587Y-96174360D01*
X159628971Y-96298213D01*
X159617500Y-96370639D01*
X159617500Y-96569361D01*
X159623876Y-96609616D01*
X159648587Y-96765637D01*
X159709993Y-96954629D01*
X159709994Y-96954632D01*
X159779829Y-97091689D01*
X159800213Y-97131694D01*
X159917019Y-97292464D01*
X160057536Y-97432981D01*
X160218306Y-97549787D01*
X160279500Y-97580967D01*
X160395367Y-97640005D01*
X160395370Y-97640006D01*
X160488013Y-97670107D01*
X160584364Y-97701413D01*
X160780639Y-97732500D01*
X160780640Y-97732500D01*
X160979360Y-97732500D01*
X160979361Y-97732500D01*
X161175636Y-97701413D01*
X161364632Y-97640005D01*
X161541694Y-97549787D01*
X161702464Y-97432981D01*
X161842981Y-97292464D01*
X161959787Y-97131694D01*
X162050005Y-96954632D01*
X162111413Y-96765636D01*
X162142500Y-96569361D01*
X162142500Y-96370639D01*
X162111413Y-96174364D01*
X162074178Y-96059765D01*
X162050006Y-95985370D01*
X162050005Y-95985367D01*
X161995466Y-95878330D01*
X161959787Y-95808306D01*
X161842981Y-95647536D01*
X161702464Y-95507019D01*
X161541694Y-95390213D01*
X161385218Y-95310484D01*
X161334423Y-95262510D01*
X161317628Y-95194689D01*
X161340165Y-95128554D01*
X161385218Y-95089515D01*
X161541694Y-95009787D01*
X161702464Y-94892981D01*
X161842981Y-94752464D01*
X161959787Y-94591694D01*
X162050005Y-94414632D01*
X162111413Y-94225636D01*
X162142500Y-94029361D01*
X162142500Y-93830639D01*
X162111413Y-93634364D01*
X162058445Y-93471344D01*
X162050006Y-93445370D01*
X162050005Y-93445367D01*
X162000031Y-93347289D01*
X161959787Y-93268306D01*
X161842981Y-93107536D01*
X161702464Y-92967019D01*
X161541694Y-92850213D01*
X161384667Y-92770203D01*
X161333872Y-92722229D01*
X161317077Y-92654408D01*
X161339614Y-92588273D01*
X161384668Y-92549234D01*
X161541432Y-92469358D01*
X161702139Y-92352596D01*
X161702140Y-92352596D01*
X161842596Y-92212140D01*
X161842596Y-92212139D01*
X161959358Y-92051432D01*
X162049543Y-91874435D01*
X162110925Y-91685517D01*
X162118134Y-91640000D01*
X161263591Y-91640000D01*
X161306042Y-91566473D01*
X161337200Y-91450192D01*
X161337200Y-91329808D01*
X161306042Y-91213527D01*
X161263591Y-91140000D01*
X162118135Y-91140000D01*
X162118134Y-91139999D01*
X162110925Y-91094482D01*
X162049543Y-90905564D01*
X161959358Y-90728567D01*
X161842596Y-90567860D01*
X161842596Y-90567859D01*
X161702140Y-90427403D01*
X161541432Y-90310641D01*
X161364434Y-90220456D01*
X161364436Y-90220456D01*
X161175517Y-90159074D01*
X161130000Y-90151865D01*
X161130000Y-91006408D01*
X161056473Y-90963958D01*
X160940192Y-90932800D01*
X160819808Y-90932800D01*
X160703527Y-90963958D01*
X160630000Y-91006408D01*
X160630000Y-90151865D01*
X160629999Y-90151865D01*
X160584482Y-90159074D01*
X160395564Y-90220456D01*
X160218567Y-90310641D01*
X160057860Y-90427403D01*
X160057859Y-90427403D01*
X159917403Y-90567859D01*
X159917403Y-90567860D01*
X159800641Y-90728567D01*
X159710456Y-90905564D01*
X159649074Y-91094482D01*
X159641865Y-91139999D01*
X159641865Y-91140000D01*
X160496409Y-91140000D01*
X160453958Y-91213527D01*
X160422800Y-91329808D01*
X160422800Y-91450192D01*
X160453958Y-91566473D01*
X160496409Y-91640000D01*
X159641865Y-91640000D01*
X159649074Y-91685517D01*
X159710456Y-91874435D01*
X159800641Y-92051432D01*
X159917403Y-92212139D01*
X159917403Y-92212140D01*
X160057859Y-92352596D01*
X160218567Y-92469358D01*
X160375331Y-92549234D01*
X160426127Y-92597209D01*
X160442922Y-92665030D01*
X160420384Y-92731165D01*
X160375331Y-92770204D01*
X160218305Y-92850213D01*
X160057533Y-92967021D01*
X159917021Y-93107533D01*
X159800213Y-93268305D01*
X159709994Y-93445367D01*
X159709993Y-93445370D01*
X159648587Y-93634362D01*
X159622168Y-93801165D01*
X159617500Y-93830639D01*
X159617500Y-94029361D01*
X159620395Y-94047638D01*
X159648586Y-94225636D01*
X159649131Y-94227903D01*
X159649086Y-94228790D01*
X159649349Y-94230448D01*
X159649000Y-94230503D01*
X159645638Y-94297685D01*
X159616241Y-94344522D01*
X159605587Y-94355177D01*
X159544266Y-94388665D01*
X159517902Y-94391500D01*
X154608192Y-94391500D01*
X154541153Y-94371815D01*
X154495398Y-94319011D01*
X154485454Y-94249853D01*
X154490262Y-94229180D01*
X154491412Y-94225638D01*
X154491413Y-94225636D01*
X154522500Y-94029361D01*
X154522500Y-93830639D01*
X154491413Y-93634364D01*
X154438445Y-93471344D01*
X154430006Y-93445370D01*
X154430005Y-93445367D01*
X154380031Y-93347289D01*
X154339787Y-93268306D01*
X154222981Y-93107536D01*
X154082464Y-92967019D01*
X153957625Y-92876318D01*
X153914959Y-92820988D01*
X153908980Y-92751375D01*
X153941586Y-92689580D01*
X154002424Y-92655223D01*
X154030510Y-92652000D01*
X154069828Y-92652000D01*
X154069844Y-92651999D01*
X154129372Y-92645598D01*
X154129379Y-92645596D01*
X154264086Y-92595354D01*
X154264093Y-92595350D01*
X154379187Y-92509190D01*
X154379190Y-92509187D01*
X154465350Y-92394093D01*
X154465354Y-92394086D01*
X154515596Y-92259379D01*
X154515598Y-92259372D01*
X154521999Y-92199844D01*
X154522000Y-92199827D01*
X154522000Y-91640000D01*
X153643591Y-91640000D01*
X153686042Y-91566473D01*
X153717200Y-91450192D01*
X153717200Y-91329808D01*
X153686042Y-91213527D01*
X153643591Y-91140000D01*
X154522000Y-91140000D01*
X154522000Y-90580172D01*
X154521999Y-90580155D01*
X154515598Y-90520627D01*
X154515596Y-90520620D01*
X154465354Y-90385913D01*
X154465350Y-90385906D01*
X154379190Y-90270812D01*
X154379187Y-90270809D01*
X154264093Y-90184649D01*
X154264086Y-90184645D01*
X154129379Y-90134403D01*
X154129372Y-90134401D01*
X154069844Y-90128000D01*
X153510000Y-90128000D01*
X153510000Y-91006408D01*
X153436473Y-90963958D01*
X153320192Y-90932800D01*
X153199808Y-90932800D01*
X153083527Y-90963958D01*
X153010000Y-91006408D01*
X153010000Y-90128000D01*
X152450155Y-90128000D01*
X152390627Y-90134401D01*
X152390620Y-90134403D01*
X152255913Y-90184645D01*
X152255906Y-90184649D01*
X152140812Y-90270809D01*
X152140809Y-90270812D01*
X152054649Y-90385906D01*
X152054645Y-90385913D01*
X152004403Y-90520620D01*
X152004401Y-90520627D01*
X151998000Y-90580155D01*
X151998000Y-91140000D01*
X152876409Y-91140000D01*
X152833958Y-91213527D01*
X152802800Y-91329808D01*
X152802800Y-91450192D01*
X152833958Y-91566473D01*
X152876409Y-91640000D01*
X151998000Y-91640000D01*
X151998000Y-92143500D01*
X151978315Y-92210539D01*
X151925511Y-92256294D01*
X151874000Y-92267500D01*
X149418097Y-92267500D01*
X149351058Y-92247815D01*
X149330416Y-92231181D01*
X145156819Y-88057584D01*
X145123334Y-87996261D01*
X145120500Y-87969903D01*
X145120500Y-78828711D01*
X159679500Y-78828711D01*
X159679500Y-79071288D01*
X159711161Y-79311785D01*
X159773947Y-79546104D01*
X159854140Y-79739707D01*
X159866776Y-79770212D01*
X159988064Y-79980289D01*
X159988066Y-79980292D01*
X159988067Y-79980293D01*
X160135733Y-80172736D01*
X160135739Y-80172743D01*
X160307256Y-80344260D01*
X160307263Y-80344266D01*
X160412478Y-80425000D01*
X160499711Y-80491936D01*
X160709788Y-80613224D01*
X160933900Y-80706054D01*
X161168211Y-80768838D01*
X161348586Y-80792584D01*
X161408711Y-80800500D01*
X161408712Y-80800500D01*
X161651289Y-80800500D01*
X161699388Y-80794167D01*
X161891789Y-80768838D01*
X162126100Y-80706054D01*
X162350212Y-80613224D01*
X162560289Y-80491936D01*
X162752738Y-80344265D01*
X162924265Y-80172738D01*
X163071936Y-79980289D01*
X163193224Y-79770212D01*
X163286054Y-79546100D01*
X163348838Y-79311789D01*
X163380500Y-79071288D01*
X163380500Y-78828712D01*
X163379813Y-78823497D01*
X163372584Y-78768586D01*
X163348838Y-78588211D01*
X163286054Y-78353900D01*
X163193224Y-78129788D01*
X163071936Y-77919711D01*
X162985819Y-77807481D01*
X162924266Y-77727263D01*
X162924260Y-77727256D01*
X162752743Y-77555739D01*
X162752736Y-77555733D01*
X162560293Y-77408067D01*
X162560292Y-77408066D01*
X162560289Y-77408064D01*
X162350212Y-77286776D01*
X162303876Y-77267583D01*
X162126104Y-77193947D01*
X161891785Y-77131161D01*
X161651289Y-77099500D01*
X161651288Y-77099500D01*
X161408712Y-77099500D01*
X161408711Y-77099500D01*
X161168214Y-77131161D01*
X160933895Y-77193947D01*
X160709794Y-77286773D01*
X160709785Y-77286777D01*
X160499706Y-77408067D01*
X160307263Y-77555733D01*
X160307256Y-77555739D01*
X160135739Y-77727256D01*
X160135733Y-77727263D01*
X159988067Y-77919706D01*
X159866777Y-78129785D01*
X159866773Y-78129794D01*
X159773947Y-78353895D01*
X159711161Y-78588214D01*
X159679500Y-78828711D01*
X145120500Y-78828711D01*
X145120500Y-75749797D01*
X145140185Y-75682758D01*
X145179403Y-75644258D01*
X145238656Y-75607712D01*
X145362712Y-75483656D01*
X145454814Y-75334334D01*
X145509999Y-75167797D01*
X145520500Y-75065009D01*
X145520499Y-74014992D01*
X145509999Y-73912203D01*
X145454814Y-73745666D01*
X145362712Y-73596344D01*
X145238656Y-73472288D01*
X145089334Y-73380186D01*
X144922797Y-73325001D01*
X144922795Y-73325000D01*
X144820010Y-73314500D01*
X144219998Y-73314500D01*
X144219980Y-73314501D01*
X144117203Y-73325000D01*
X144117200Y-73325001D01*
X143950668Y-73380185D01*
X143950663Y-73380187D01*
X143801342Y-73472289D01*
X143677288Y-73596343D01*
X143677283Y-73596349D01*
X143675241Y-73599661D01*
X143673247Y-73601453D01*
X143672807Y-73602011D01*
X143672711Y-73601935D01*
X143623291Y-73646383D01*
X143554328Y-73657602D01*
X143490247Y-73629755D01*
X143464168Y-73599656D01*
X143462319Y-73596659D01*
X143462316Y-73596655D01*
X143338345Y-73472684D01*
X143189124Y-73380643D01*
X143189119Y-73380641D01*
X143022697Y-73325494D01*
X143022690Y-73325493D01*
X142919986Y-73315000D01*
X142870000Y-73315000D01*
X142870000Y-74416000D01*
X142850315Y-74483039D01*
X142797511Y-74528794D01*
X142746000Y-74540000D01*
X142620000Y-74540000D01*
X142620000Y-74666000D01*
X142600315Y-74733039D01*
X142547511Y-74778794D01*
X142496000Y-74790000D01*
X141620001Y-74790000D01*
X141620001Y-74840500D01*
X141600316Y-74907539D01*
X141547512Y-74953294D01*
X141496001Y-74964500D01*
X139976568Y-74964500D01*
X139909529Y-74944815D01*
X139888887Y-74928181D01*
X139636819Y-74676113D01*
X139603334Y-74614790D01*
X139600500Y-74588432D01*
X139600500Y-74580096D01*
X139620185Y-74513057D01*
X139636814Y-74492420D01*
X140114221Y-74015013D01*
X141620000Y-74015013D01*
X141620000Y-74290000D01*
X142370000Y-74290000D01*
X142370000Y-73315000D01*
X142369999Y-73314999D01*
X142320029Y-73315000D01*
X142320011Y-73315001D01*
X142217302Y-73325494D01*
X142050880Y-73380641D01*
X142050875Y-73380643D01*
X141901654Y-73472684D01*
X141777684Y-73596654D01*
X141685643Y-73745875D01*
X141685641Y-73745880D01*
X141630494Y-73912302D01*
X141630493Y-73912309D01*
X141620000Y-74015013D01*
X140114221Y-74015013D01*
X142209138Y-71920095D01*
X142270459Y-71886612D01*
X142309421Y-71884420D01*
X142319991Y-71885500D01*
X142920008Y-71885499D01*
X142920016Y-71885498D01*
X142920019Y-71885498D01*
X142976302Y-71879748D01*
X143022797Y-71874999D01*
X143189334Y-71819814D01*
X143338656Y-71727712D01*
X143462712Y-71603656D01*
X143464752Y-71600347D01*
X143466745Y-71598555D01*
X143467193Y-71597989D01*
X143467289Y-71598065D01*
X143516694Y-71553623D01*
X143585656Y-71542395D01*
X143649740Y-71570234D01*
X143675829Y-71600339D01*
X143677681Y-71603341D01*
X143677683Y-71603344D01*
X143801654Y-71727315D01*
X143950875Y-71819356D01*
X143950880Y-71819358D01*
X144117302Y-71874505D01*
X144117309Y-71874506D01*
X144220019Y-71884999D01*
X144770000Y-71884999D01*
X144819972Y-71884999D01*
X144819986Y-71884998D01*
X144922697Y-71874505D01*
X145089119Y-71819358D01*
X145089124Y-71819356D01*
X145238345Y-71727315D01*
X145362315Y-71603345D01*
X145454356Y-71454124D01*
X145454358Y-71454119D01*
X145509505Y-71287697D01*
X145509506Y-71287690D01*
X145519999Y-71184986D01*
X145520000Y-71184973D01*
X145520000Y-70910000D01*
X144770000Y-70910000D01*
X144770000Y-71884999D01*
X144220019Y-71884999D01*
X144269999Y-71884998D01*
X144270000Y-71884998D01*
X144270000Y-70410000D01*
X144770000Y-70410000D01*
X145519999Y-70410000D01*
X145519999Y-70135028D01*
X145519998Y-70135013D01*
X145509505Y-70032302D01*
X145454358Y-69865880D01*
X145454356Y-69865875D01*
X145362315Y-69716654D01*
X145238345Y-69592684D01*
X145089124Y-69500643D01*
X145089119Y-69500641D01*
X144922697Y-69445494D01*
X144922690Y-69445493D01*
X144819986Y-69435000D01*
X144770000Y-69435000D01*
X144770000Y-70410000D01*
X144270000Y-70410000D01*
X144270000Y-69435000D01*
X144269999Y-69434999D01*
X144220029Y-69435000D01*
X144220011Y-69435001D01*
X144117303Y-69445494D01*
X144109973Y-69447923D01*
X144040144Y-69450323D01*
X143980103Y-69414590D01*
X143948912Y-69352069D01*
X143956474Y-69282610D01*
X143967870Y-69261324D01*
X144009389Y-69199187D01*
X144009390Y-69199184D01*
X144009394Y-69199179D01*
X144069737Y-69053497D01*
X144100500Y-68898842D01*
X144100500Y-68741158D01*
X144100500Y-68741155D01*
X144100499Y-68741153D01*
X144069738Y-68586510D01*
X144069738Y-68586508D01*
X144069737Y-68586503D01*
X144034384Y-68501153D01*
X146609500Y-68501153D01*
X146609500Y-68658846D01*
X146640261Y-68813489D01*
X146640264Y-68813501D01*
X146700602Y-68959172D01*
X146700609Y-68959185D01*
X146788210Y-69090288D01*
X146788213Y-69090292D01*
X146899707Y-69201786D01*
X146899711Y-69201789D01*
X147030814Y-69289390D01*
X147030827Y-69289397D01*
X147169246Y-69346731D01*
X147176503Y-69349737D01*
X147265165Y-69367373D01*
X147331153Y-69380499D01*
X147331156Y-69380500D01*
X147331158Y-69380500D01*
X147488844Y-69380500D01*
X147488845Y-69380499D01*
X147643497Y-69349737D01*
X147789179Y-69289394D01*
X147838992Y-69256110D01*
X147920875Y-69201398D01*
X147987553Y-69180520D01*
X147989766Y-69180500D01*
X148123331Y-69180500D01*
X148123347Y-69180501D01*
X148130943Y-69180501D01*
X148289054Y-69180501D01*
X148289057Y-69180501D01*
X148441785Y-69139577D01*
X148491904Y-69110639D01*
X148563606Y-69069243D01*
X148631503Y-69052773D01*
X148638196Y-69053273D01*
X148659991Y-69055500D01*
X149260008Y-69055499D01*
X149270576Y-69054419D01*
X149339268Y-69067187D01*
X149370861Y-69090096D01*
X149500139Y-69219374D01*
X149500149Y-69219385D01*
X149504479Y-69223715D01*
X149504480Y-69223716D01*
X149616284Y-69335520D01*
X149659552Y-69360500D01*
X149703095Y-69385639D01*
X149703097Y-69385641D01*
X149741151Y-69407611D01*
X149753215Y-69414577D01*
X149905943Y-69455501D01*
X149905946Y-69455501D01*
X150071653Y-69455501D01*
X150071669Y-69455500D01*
X151974055Y-69455500D01*
X151974057Y-69455500D01*
X152126784Y-69414577D01*
X152263716Y-69335520D01*
X152375520Y-69223716D01*
X152421999Y-69143209D01*
X152441702Y-69117531D01*
X153695797Y-67863436D01*
X153757118Y-67829953D01*
X153821794Y-67833188D01*
X153892049Y-67856015D01*
X153912995Y-67859332D01*
X153976127Y-67889260D01*
X154013059Y-67948570D01*
X154012063Y-68018433D01*
X153981277Y-68069486D01*
X148345339Y-73705425D01*
X148284016Y-73738910D01*
X148281850Y-73739361D01*
X148126508Y-73770261D01*
X148126498Y-73770264D01*
X147980827Y-73830602D01*
X147980814Y-73830609D01*
X147849711Y-73918210D01*
X147849707Y-73918213D01*
X147738213Y-74029707D01*
X147738210Y-74029711D01*
X147650609Y-74160814D01*
X147650602Y-74160827D01*
X147590264Y-74306498D01*
X147590261Y-74306510D01*
X147559500Y-74461153D01*
X147559500Y-74618846D01*
X147590261Y-74773489D01*
X147590264Y-74773501D01*
X147650602Y-74919172D01*
X147650609Y-74919185D01*
X147738210Y-75050288D01*
X147738213Y-75050292D01*
X147849707Y-75161786D01*
X147849711Y-75161789D01*
X147980814Y-75249390D01*
X147980827Y-75249397D01*
X148105294Y-75300952D01*
X148126503Y-75309737D01*
X148250145Y-75334331D01*
X148281153Y-75340499D01*
X148281156Y-75340500D01*
X148281158Y-75340500D01*
X148438844Y-75340500D01*
X148438845Y-75340499D01*
X148593497Y-75309737D01*
X148706166Y-75263067D01*
X148739172Y-75249397D01*
X148739172Y-75249396D01*
X148739179Y-75249394D01*
X148870289Y-75161789D01*
X148981789Y-75050289D01*
X149069394Y-74919179D01*
X149129737Y-74773497D01*
X149155434Y-74644312D01*
X149160638Y-74618150D01*
X149193023Y-74556239D01*
X149194518Y-74554716D01*
X155510900Y-68238336D01*
X158519500Y-68238336D01*
X158519500Y-68541663D01*
X158553457Y-68843048D01*
X158553460Y-68843061D01*
X158620953Y-69138771D01*
X158620957Y-69138783D01*
X158721133Y-69425068D01*
X158852733Y-69698338D01*
X158864046Y-69716343D01*
X159014108Y-69955164D01*
X159203221Y-70192304D01*
X159417696Y-70406779D01*
X159654836Y-70595892D01*
X159911659Y-70757265D01*
X160184935Y-70888868D01*
X160399951Y-70964105D01*
X160471216Y-70989042D01*
X160471228Y-70989046D01*
X160766937Y-71056540D01*
X160766946Y-71056541D01*
X160766951Y-71056542D01*
X160967874Y-71079180D01*
X161068337Y-71090499D01*
X161068340Y-71090500D01*
X161068343Y-71090500D01*
X161371660Y-71090500D01*
X161371661Y-71090499D01*
X161525694Y-71073144D01*
X161673048Y-71056542D01*
X161673051Y-71056541D01*
X161673063Y-71056540D01*
X161968772Y-70989046D01*
X162255065Y-70888868D01*
X162528341Y-70757265D01*
X162785164Y-70595892D01*
X163022304Y-70406779D01*
X163236779Y-70192304D01*
X163425892Y-69955164D01*
X163587265Y-69698341D01*
X163718868Y-69425065D01*
X163819046Y-69138772D01*
X163886540Y-68843063D01*
X163889872Y-68813497D01*
X163907296Y-68658846D01*
X163920500Y-68541657D01*
X163920500Y-68238343D01*
X163901500Y-68069711D01*
X163886542Y-67936951D01*
X163886541Y-67936946D01*
X163886540Y-67936937D01*
X163819046Y-67641228D01*
X163816397Y-67633659D01*
X163784738Y-67543181D01*
X163718868Y-67354935D01*
X163599750Y-67107585D01*
X163587266Y-67081661D01*
X163558367Y-67035668D01*
X163425892Y-66824836D01*
X163236779Y-66587696D01*
X163022304Y-66373221D01*
X162785164Y-66184108D01*
X162528341Y-66022735D01*
X162528338Y-66022733D01*
X162255068Y-65891133D01*
X161968783Y-65790957D01*
X161968771Y-65790953D01*
X161737301Y-65738122D01*
X161673063Y-65723460D01*
X161673060Y-65723459D01*
X161673048Y-65723457D01*
X161371663Y-65689500D01*
X161371657Y-65689500D01*
X161068343Y-65689500D01*
X161068336Y-65689500D01*
X160766951Y-65723457D01*
X160766937Y-65723460D01*
X160471228Y-65790953D01*
X160471216Y-65790957D01*
X160184931Y-65891133D01*
X159911661Y-66022733D01*
X159654837Y-66184107D01*
X159417696Y-66373220D01*
X159203220Y-66587696D01*
X159014107Y-66824837D01*
X158852733Y-67081661D01*
X158721133Y-67354931D01*
X158620957Y-67641216D01*
X158620953Y-67641228D01*
X158553460Y-67936937D01*
X158553457Y-67936951D01*
X158519500Y-68238336D01*
X155510900Y-68238336D01*
X155900520Y-67848716D01*
X155979577Y-67711784D01*
X156020501Y-67559057D01*
X156020501Y-67400942D01*
X156020501Y-67393347D01*
X156020500Y-67393329D01*
X156020500Y-65110944D01*
X156020499Y-65110938D01*
X156017288Y-65098954D01*
X156014755Y-65089500D01*
X155979577Y-64958215D01*
X155920523Y-64855931D01*
X155900520Y-64821284D01*
X155788716Y-64709480D01*
X155788715Y-64709479D01*
X155784385Y-64705149D01*
X155784374Y-64705139D01*
X155593438Y-64514203D01*
X155559953Y-64452880D01*
X155563187Y-64388205D01*
X155586015Y-64317951D01*
X155620500Y-64100222D01*
X155620500Y-63879778D01*
X155586015Y-63662049D01*
X155536551Y-63509812D01*
X155517896Y-63452396D01*
X155517895Y-63452393D01*
X155471072Y-63360500D01*
X155417815Y-63255978D01*
X155363211Y-63180821D01*
X155288247Y-63077641D01*
X155288243Y-63077636D01*
X155132359Y-62921752D01*
X155019846Y-62840008D01*
X154977180Y-62784679D01*
X154971201Y-62715065D01*
X155003806Y-62653270D01*
X155017486Y-62641416D01*
X155017514Y-62641066D01*
X154349409Y-61972962D01*
X154412993Y-61955925D01*
X154527007Y-61890099D01*
X154620099Y-61797007D01*
X154685925Y-61682993D01*
X154702962Y-61619410D01*
X155371066Y-62287514D01*
X155371066Y-62287513D01*
X155417386Y-62223760D01*
X155517432Y-62027410D01*
X155585526Y-61817835D01*
X155620000Y-61600181D01*
X155620000Y-61379818D01*
X155585526Y-61162164D01*
X155517432Y-60952589D01*
X155417388Y-60756243D01*
X155371066Y-60692485D01*
X155371065Y-60692485D01*
X154702962Y-61360589D01*
X154685925Y-61297007D01*
X154620099Y-61182993D01*
X154527007Y-61089901D01*
X154412993Y-61024075D01*
X154349407Y-61007037D01*
X155017513Y-60338932D01*
X154953756Y-60292611D01*
X154757410Y-60192567D01*
X154547835Y-60124473D01*
X154330181Y-60090000D01*
X154109819Y-60090000D01*
X153892164Y-60124473D01*
X153682589Y-60192567D01*
X153486233Y-60292616D01*
X153422485Y-60338931D01*
X153422485Y-60338932D01*
X154090590Y-61007037D01*
X154027007Y-61024075D01*
X153912993Y-61089901D01*
X153819901Y-61182993D01*
X153754075Y-61297007D01*
X153737037Y-61360590D01*
X153068932Y-60692485D01*
X153068931Y-60692485D01*
X153022616Y-60756233D01*
X152922567Y-60952589D01*
X152854473Y-61162164D01*
X152820000Y-61379818D01*
X152820000Y-61600181D01*
X152854473Y-61817835D01*
X152922567Y-62027410D01*
X153022611Y-62223756D01*
X153068932Y-62287513D01*
X153737037Y-61619408D01*
X153754075Y-61682993D01*
X153819901Y-61797007D01*
X153912993Y-61890099D01*
X154027007Y-61955925D01*
X154090590Y-61972962D01*
X153422485Y-62641065D01*
X153422602Y-62642548D01*
X153462818Y-62694701D01*
X153468797Y-62764315D01*
X153436192Y-62826110D01*
X153420153Y-62840008D01*
X153307636Y-62921756D01*
X153151756Y-63077636D01*
X153151752Y-63077641D01*
X153022187Y-63255974D01*
X152922104Y-63452393D01*
X152922103Y-63452396D01*
X152853985Y-63662047D01*
X152833165Y-63793501D01*
X152819500Y-63879778D01*
X152819500Y-64100222D01*
X152827426Y-64150263D01*
X152853985Y-64317952D01*
X152922103Y-64527603D01*
X152922104Y-64527606D01*
X152974696Y-64630821D01*
X153021844Y-64723353D01*
X153022187Y-64724025D01*
X153151752Y-64902358D01*
X153151756Y-64902363D01*
X153307636Y-65058243D01*
X153307641Y-65058247D01*
X153419727Y-65139682D01*
X153462393Y-65195011D01*
X153468372Y-65264625D01*
X153435767Y-65326420D01*
X153419727Y-65340318D01*
X153307641Y-65421752D01*
X153307636Y-65421756D01*
X153151756Y-65577636D01*
X153151752Y-65577641D01*
X153022187Y-65755974D01*
X152922104Y-65952393D01*
X152922103Y-65952396D01*
X152853985Y-66162047D01*
X152819500Y-66379778D01*
X152819500Y-66600221D01*
X152853985Y-66817952D01*
X152856222Y-66824836D01*
X152876309Y-66886660D01*
X152876811Y-66888203D01*
X152878806Y-66958044D01*
X152846561Y-67014202D01*
X151817084Y-68043681D01*
X151755761Y-68077166D01*
X151729403Y-68080000D01*
X150984000Y-68080000D01*
X150916961Y-68060315D01*
X150871206Y-68007511D01*
X150860000Y-67956000D01*
X150860000Y-67830000D01*
X150734000Y-67830000D01*
X150666961Y-67810315D01*
X150621206Y-67757511D01*
X150610000Y-67706000D01*
X150610000Y-67580000D01*
X151110000Y-67580000D01*
X151859999Y-67580000D01*
X151859999Y-67305028D01*
X151859998Y-67305013D01*
X151849505Y-67202302D01*
X151794358Y-67035880D01*
X151794356Y-67035875D01*
X151702315Y-66886654D01*
X151578345Y-66762684D01*
X151429124Y-66670643D01*
X151429119Y-66670641D01*
X151262697Y-66615494D01*
X151262690Y-66615493D01*
X151159986Y-66605000D01*
X151110000Y-66605000D01*
X151110000Y-67580000D01*
X150610000Y-67580000D01*
X150610000Y-66605000D01*
X150609999Y-66604999D01*
X150560029Y-66605000D01*
X150560011Y-66605001D01*
X150457302Y-66615494D01*
X150290880Y-66670641D01*
X150290875Y-66670643D01*
X150141654Y-66762684D01*
X150017683Y-66886655D01*
X150017679Y-66886660D01*
X150015826Y-66889665D01*
X150014018Y-66891290D01*
X150013202Y-66892323D01*
X150013025Y-66892183D01*
X149963874Y-66936385D01*
X149894911Y-66947601D01*
X149830831Y-66919752D01*
X149804753Y-66889653D01*
X149804737Y-66889628D01*
X149802712Y-66886344D01*
X149678656Y-66762288D01*
X149529334Y-66670186D01*
X149362797Y-66615001D01*
X149362795Y-66615000D01*
X149260010Y-66604500D01*
X148659998Y-66604500D01*
X148659980Y-66604501D01*
X148557203Y-66615000D01*
X148557200Y-66615001D01*
X148390668Y-66670185D01*
X148390663Y-66670187D01*
X148241342Y-66762289D01*
X148117289Y-66886342D01*
X148025187Y-67035663D01*
X148025185Y-67035668D01*
X148008165Y-67087032D01*
X147970001Y-67202203D01*
X147970001Y-67202204D01*
X147970000Y-67202204D01*
X147959500Y-67304983D01*
X147959500Y-67755576D01*
X147939815Y-67822615D01*
X147887011Y-67868370D01*
X147817853Y-67878314D01*
X147788048Y-67870137D01*
X147643501Y-67810264D01*
X147643489Y-67810261D01*
X147488845Y-67779500D01*
X147488842Y-67779500D01*
X147331158Y-67779500D01*
X147331155Y-67779500D01*
X147176510Y-67810261D01*
X147176498Y-67810264D01*
X147030827Y-67870602D01*
X147030814Y-67870609D01*
X146899711Y-67958210D01*
X146899707Y-67958213D01*
X146788213Y-68069707D01*
X146788210Y-68069711D01*
X146700609Y-68200814D01*
X146700602Y-68200827D01*
X146640264Y-68346498D01*
X146640261Y-68346510D01*
X146609500Y-68501153D01*
X144034384Y-68501153D01*
X144029929Y-68490398D01*
X144009397Y-68440827D01*
X144009390Y-68440814D01*
X143921789Y-68309711D01*
X143921786Y-68309707D01*
X143810292Y-68198213D01*
X143810288Y-68198210D01*
X143679185Y-68110609D01*
X143679172Y-68110602D01*
X143533501Y-68050264D01*
X143533489Y-68050261D01*
X143378845Y-68019500D01*
X143378842Y-68019500D01*
X143221158Y-68019500D01*
X143221155Y-68019500D01*
X143215093Y-68020097D01*
X143214953Y-68018677D01*
X143152488Y-68013076D01*
X143097318Y-67970203D01*
X143074086Y-67904309D01*
X143090166Y-67836315D01*
X143132810Y-67792157D01*
X143188656Y-67757712D01*
X143312712Y-67633656D01*
X143314752Y-67630347D01*
X143316745Y-67628555D01*
X143317193Y-67627989D01*
X143317289Y-67628065D01*
X143366694Y-67583623D01*
X143435656Y-67572395D01*
X143499740Y-67600234D01*
X143525829Y-67630339D01*
X143527681Y-67633341D01*
X143527683Y-67633344D01*
X143651654Y-67757315D01*
X143800875Y-67849356D01*
X143800880Y-67849358D01*
X143967302Y-67904505D01*
X143967309Y-67904506D01*
X144070019Y-67914999D01*
X144620000Y-67914999D01*
X144669972Y-67914999D01*
X144669986Y-67914998D01*
X144772697Y-67904505D01*
X144939119Y-67849358D01*
X144939124Y-67849356D01*
X145088345Y-67757315D01*
X145212315Y-67633345D01*
X145304356Y-67484124D01*
X145304358Y-67484119D01*
X145359505Y-67317697D01*
X145359506Y-67317690D01*
X145369999Y-67214986D01*
X145370000Y-67214973D01*
X145370000Y-66940000D01*
X144620000Y-66940000D01*
X144620000Y-67914999D01*
X144070019Y-67914999D01*
X144119999Y-67914998D01*
X144120000Y-67914998D01*
X144120000Y-66440000D01*
X144620000Y-66440000D01*
X145369999Y-66440000D01*
X145369999Y-66165028D01*
X145369998Y-66165013D01*
X145359505Y-66062302D01*
X145304358Y-65895880D01*
X145304356Y-65895875D01*
X145212315Y-65746654D01*
X145088345Y-65622684D01*
X144939124Y-65530643D01*
X144939119Y-65530641D01*
X144772697Y-65475494D01*
X144772690Y-65475493D01*
X144669986Y-65465000D01*
X144620000Y-65465000D01*
X144620000Y-66440000D01*
X144120000Y-66440000D01*
X144120000Y-65465000D01*
X144119999Y-65464999D01*
X144070029Y-65465000D01*
X144070011Y-65465001D01*
X143967302Y-65475494D01*
X143800880Y-65530641D01*
X143800875Y-65530643D01*
X143651654Y-65622684D01*
X143527683Y-65746655D01*
X143527679Y-65746660D01*
X143525826Y-65749665D01*
X143524018Y-65751290D01*
X143523202Y-65752323D01*
X143523025Y-65752183D01*
X143473874Y-65796385D01*
X143404911Y-65807601D01*
X143340831Y-65779752D01*
X143314753Y-65749653D01*
X143314737Y-65749628D01*
X143312712Y-65746344D01*
X143188656Y-65622288D01*
X143039334Y-65530186D01*
X142872797Y-65475001D01*
X142872795Y-65475000D01*
X142770010Y-65464500D01*
X142169999Y-65464500D01*
X142169983Y-65464501D01*
X142159413Y-65465581D01*
X142090721Y-65452807D01*
X142059138Y-65429903D01*
X141596819Y-64967584D01*
X141576926Y-64931153D01*
X145619500Y-64931153D01*
X145619500Y-65088846D01*
X145650261Y-65243489D01*
X145650264Y-65243501D01*
X145710602Y-65389172D01*
X145710609Y-65389185D01*
X145798210Y-65520288D01*
X145798213Y-65520292D01*
X145909707Y-65631786D01*
X145909711Y-65631789D01*
X146040814Y-65719390D01*
X146040827Y-65719397D01*
X146129143Y-65755978D01*
X146186503Y-65779737D01*
X146326584Y-65807601D01*
X146341153Y-65810499D01*
X146341156Y-65810500D01*
X146341158Y-65810500D01*
X146498844Y-65810500D01*
X146498845Y-65810499D01*
X146653497Y-65779737D01*
X146778890Y-65727798D01*
X146799172Y-65719397D01*
X146799172Y-65719396D01*
X146799179Y-65719394D01*
X146930289Y-65631789D01*
X147041789Y-65520289D01*
X147129394Y-65389179D01*
X147189737Y-65243497D01*
X147220500Y-65088842D01*
X147220500Y-64931158D01*
X147220500Y-64931155D01*
X147220499Y-64931153D01*
X147206207Y-64859304D01*
X147189737Y-64776503D01*
X147170208Y-64729356D01*
X147129397Y-64630827D01*
X147129390Y-64630814D01*
X147041398Y-64499125D01*
X147020520Y-64432447D01*
X147020500Y-64430234D01*
X147020500Y-64294500D01*
X147040185Y-64227461D01*
X147092989Y-64181706D01*
X147144500Y-64170500D01*
X147581415Y-64170500D01*
X147648454Y-64190185D01*
X147694209Y-64242989D01*
X147699118Y-64255489D01*
X147735186Y-64364334D01*
X147827288Y-64513656D01*
X147951344Y-64637712D01*
X148100666Y-64729814D01*
X148267203Y-64784999D01*
X148369991Y-64795500D01*
X148970008Y-64795499D01*
X148970016Y-64795498D01*
X148970019Y-64795498D01*
X149028911Y-64789482D01*
X149072797Y-64784999D01*
X149239334Y-64729814D01*
X149388656Y-64637712D01*
X149512712Y-64513656D01*
X149514752Y-64510347D01*
X149516745Y-64508555D01*
X149517193Y-64507989D01*
X149517289Y-64508065D01*
X149566694Y-64463623D01*
X149635656Y-64452395D01*
X149699740Y-64480234D01*
X149725829Y-64510339D01*
X149727681Y-64513341D01*
X149727683Y-64513344D01*
X149851654Y-64637315D01*
X150000875Y-64729356D01*
X150000880Y-64729358D01*
X150167302Y-64784505D01*
X150167309Y-64784506D01*
X150270019Y-64794999D01*
X150820000Y-64794999D01*
X150869972Y-64794999D01*
X150869986Y-64794998D01*
X150972697Y-64784505D01*
X151139119Y-64729358D01*
X151139124Y-64729356D01*
X151288345Y-64637315D01*
X151412315Y-64513345D01*
X151504356Y-64364124D01*
X151504358Y-64364119D01*
X151559505Y-64197697D01*
X151559506Y-64197690D01*
X151569999Y-64094986D01*
X151570000Y-64094973D01*
X151570000Y-63820000D01*
X150820000Y-63820000D01*
X150820000Y-64794999D01*
X150270019Y-64794999D01*
X150319999Y-64794998D01*
X150320000Y-64794998D01*
X150320000Y-63320000D01*
X150820000Y-63320000D01*
X151569999Y-63320000D01*
X151569999Y-63045028D01*
X151569998Y-63045013D01*
X151559505Y-62942302D01*
X151504358Y-62775880D01*
X151504356Y-62775875D01*
X151412315Y-62626654D01*
X151288345Y-62502684D01*
X151139124Y-62410643D01*
X151139119Y-62410641D01*
X150972697Y-62355494D01*
X150972690Y-62355493D01*
X150869986Y-62345000D01*
X150820000Y-62345000D01*
X150820000Y-63320000D01*
X150320000Y-63320000D01*
X150320000Y-62345000D01*
X150319999Y-62344999D01*
X150270029Y-62345000D01*
X150270011Y-62345001D01*
X150167302Y-62355494D01*
X150000880Y-62410641D01*
X150000875Y-62410643D01*
X149851654Y-62502684D01*
X149727683Y-62626655D01*
X149727679Y-62626660D01*
X149725826Y-62629665D01*
X149724018Y-62631290D01*
X149723202Y-62632323D01*
X149723025Y-62632183D01*
X149673874Y-62676385D01*
X149604911Y-62687601D01*
X149540831Y-62659752D01*
X149514753Y-62629653D01*
X149514737Y-62629628D01*
X149512712Y-62626344D01*
X149388656Y-62502288D01*
X149254436Y-62419501D01*
X149239336Y-62410187D01*
X149239331Y-62410185D01*
X149229602Y-62406961D01*
X149072797Y-62355001D01*
X149072795Y-62355000D01*
X148970010Y-62344500D01*
X148369998Y-62344500D01*
X148369980Y-62344501D01*
X148267203Y-62355000D01*
X148267200Y-62355001D01*
X148100668Y-62410185D01*
X148100663Y-62410187D01*
X147951342Y-62502289D01*
X147827289Y-62626342D01*
X147735187Y-62775663D01*
X147735185Y-62775668D01*
X147729712Y-62792185D01*
X147709656Y-62852712D01*
X147699121Y-62884504D01*
X147659348Y-62941949D01*
X147594833Y-62968772D01*
X147581415Y-62969500D01*
X147082783Y-62969500D01*
X147015744Y-62949815D01*
X147004118Y-62941353D01*
X147000289Y-62938210D01*
X146869185Y-62850609D01*
X146869172Y-62850602D01*
X146723501Y-62790264D01*
X146723489Y-62790261D01*
X146568845Y-62759500D01*
X146568842Y-62759500D01*
X146411158Y-62759500D01*
X146411155Y-62759500D01*
X146256510Y-62790261D01*
X146256498Y-62790264D01*
X146110827Y-62850602D01*
X146110814Y-62850609D01*
X145979711Y-62938210D01*
X145979707Y-62938213D01*
X145868213Y-63049707D01*
X145868210Y-63049711D01*
X145780609Y-63180814D01*
X145780602Y-63180827D01*
X145720264Y-63326498D01*
X145720261Y-63326510D01*
X145689500Y-63481153D01*
X145689500Y-63638846D01*
X145720261Y-63793489D01*
X145720264Y-63793501D01*
X145780603Y-63939174D01*
X145780604Y-63939175D01*
X145780606Y-63939179D01*
X145798602Y-63966111D01*
X145819480Y-64032788D01*
X145819500Y-64035002D01*
X145819500Y-64430234D01*
X145799815Y-64497273D01*
X145798602Y-64499125D01*
X145710609Y-64630814D01*
X145710602Y-64630827D01*
X145650264Y-64776498D01*
X145650261Y-64776510D01*
X145619500Y-64931153D01*
X141576926Y-64931153D01*
X141563334Y-64906261D01*
X141560500Y-64879903D01*
X141560500Y-64841155D01*
X141560499Y-64841153D01*
X141551418Y-64795499D01*
X141529737Y-64686503D01*
X141509527Y-64637712D01*
X141469397Y-64540827D01*
X141469390Y-64540814D01*
X141381789Y-64409711D01*
X141381786Y-64409707D01*
X141270292Y-64298213D01*
X141270288Y-64298210D01*
X141139185Y-64210609D01*
X141139172Y-64210602D01*
X140993501Y-64150264D01*
X140993489Y-64150261D01*
X140838845Y-64119500D01*
X140838842Y-64119500D01*
X140681158Y-64119500D01*
X140681155Y-64119500D01*
X140526510Y-64150261D01*
X140526498Y-64150264D01*
X140380827Y-64210602D01*
X140380814Y-64210609D01*
X140249711Y-64298210D01*
X140249707Y-64298213D01*
X140138213Y-64409707D01*
X140138210Y-64409711D01*
X140050609Y-64540814D01*
X140050602Y-64540827D01*
X139990264Y-64686498D01*
X139990261Y-64686510D01*
X139959500Y-64841153D01*
X139959500Y-64998846D01*
X139990261Y-65153489D01*
X139990264Y-65153501D01*
X140050602Y-65299172D01*
X140050609Y-65299185D01*
X140138210Y-65430288D01*
X140138213Y-65430292D01*
X140249707Y-65541786D01*
X140249711Y-65541789D01*
X140380814Y-65629390D01*
X140380827Y-65629397D01*
X140490082Y-65674651D01*
X140526503Y-65689737D01*
X140606952Y-65705739D01*
X140668859Y-65738122D01*
X140670439Y-65739674D01*
X141433181Y-66502416D01*
X141466666Y-66563739D01*
X141469500Y-66590097D01*
X141469500Y-66789902D01*
X141449815Y-66856941D01*
X141433181Y-66877583D01*
X140767584Y-67543181D01*
X140706261Y-67576666D01*
X140679903Y-67579500D01*
X140621155Y-67579500D01*
X140466510Y-67610261D01*
X140466498Y-67610264D01*
X140320827Y-67670602D01*
X140320814Y-67670609D01*
X140189711Y-67758210D01*
X140189707Y-67758213D01*
X140078213Y-67869707D01*
X140078210Y-67869711D01*
X139990609Y-68000814D01*
X139990602Y-68000827D01*
X139964808Y-68063102D01*
X139920967Y-68117506D01*
X139854673Y-68139571D01*
X139786974Y-68122292D01*
X139762566Y-68103331D01*
X138964263Y-67305028D01*
X138066819Y-66407583D01*
X138033334Y-66346260D01*
X138030500Y-66319902D01*
X138030500Y-66175390D01*
X138050185Y-66108351D01*
X138102989Y-66062596D01*
X138120382Y-66056176D01*
X138303049Y-66003909D01*
X138483407Y-65909698D01*
X138641109Y-65781109D01*
X138769698Y-65623407D01*
X138863909Y-65443049D01*
X138919886Y-65247418D01*
X138930500Y-65128037D01*
X138930499Y-63070095D01*
X138950184Y-63003057D01*
X138966813Y-62982420D01*
X139295746Y-62653487D01*
X139357067Y-62620004D01*
X139426759Y-62624988D01*
X139482692Y-62666860D01*
X139505042Y-62716979D01*
X139520261Y-62793489D01*
X139520264Y-62793501D01*
X139580602Y-62939172D01*
X139580609Y-62939185D01*
X139668210Y-63070288D01*
X139668213Y-63070292D01*
X139779707Y-63181786D01*
X139779711Y-63181789D01*
X139910814Y-63269390D01*
X139910827Y-63269397D01*
X140048683Y-63326498D01*
X140056503Y-63329737D01*
X140211153Y-63360499D01*
X140211156Y-63360500D01*
X140211158Y-63360500D01*
X140368844Y-63360500D01*
X140368845Y-63360499D01*
X140523497Y-63329737D01*
X140669179Y-63269394D01*
X140800289Y-63181789D01*
X140911789Y-63070289D01*
X140955007Y-63005608D01*
X141008619Y-62960804D01*
X141058109Y-62950500D01*
X141271415Y-62950500D01*
X141338454Y-62970185D01*
X141384209Y-63022989D01*
X141389118Y-63035489D01*
X141425186Y-63144334D01*
X141517288Y-63293656D01*
X141641344Y-63417712D01*
X141790666Y-63509814D01*
X141957203Y-63564999D01*
X142059991Y-63575500D01*
X142660008Y-63575499D01*
X142660016Y-63575498D01*
X142660019Y-63575498D01*
X142716302Y-63569748D01*
X142762797Y-63564999D01*
X142929334Y-63509814D01*
X143078656Y-63417712D01*
X143202712Y-63293656D01*
X143204752Y-63290347D01*
X143206745Y-63288555D01*
X143207193Y-63287989D01*
X143207289Y-63288065D01*
X143256694Y-63243623D01*
X143325656Y-63232395D01*
X143389740Y-63260234D01*
X143415829Y-63290339D01*
X143417681Y-63293341D01*
X143417683Y-63293344D01*
X143541654Y-63417315D01*
X143690875Y-63509356D01*
X143690880Y-63509358D01*
X143857302Y-63564505D01*
X143857309Y-63564506D01*
X143960019Y-63574999D01*
X144510000Y-63574999D01*
X144559972Y-63574999D01*
X144559986Y-63574998D01*
X144662697Y-63564505D01*
X144829119Y-63509358D01*
X144829124Y-63509356D01*
X144978345Y-63417315D01*
X145102315Y-63293345D01*
X145194356Y-63144124D01*
X145194358Y-63144119D01*
X145249505Y-62977697D01*
X145249506Y-62977690D01*
X145259999Y-62874986D01*
X145260000Y-62874973D01*
X145260000Y-62600000D01*
X144510000Y-62600000D01*
X144510000Y-63574999D01*
X143960019Y-63574999D01*
X144009999Y-63574998D01*
X144010000Y-63574998D01*
X144010000Y-62474000D01*
X144029685Y-62406961D01*
X144082489Y-62361206D01*
X144134000Y-62350000D01*
X144260000Y-62350000D01*
X144260000Y-62224000D01*
X144279685Y-62156961D01*
X144332489Y-62111206D01*
X144384000Y-62100000D01*
X145259999Y-62100000D01*
X145259999Y-61825028D01*
X145259998Y-61825013D01*
X145249505Y-61722302D01*
X145194358Y-61555880D01*
X145194356Y-61555875D01*
X145122910Y-61440043D01*
X145122909Y-61440040D01*
X145102319Y-61406659D01*
X145102316Y-61406655D01*
X144978345Y-61282684D01*
X144829124Y-61190643D01*
X144829119Y-61190641D01*
X144662697Y-61135494D01*
X144662689Y-61135493D01*
X144587537Y-61127815D01*
X144522845Y-61101418D01*
X144482694Y-61044237D01*
X144479831Y-60974426D01*
X144507068Y-60926307D01*
X144505574Y-60925161D01*
X144510514Y-60918721D01*
X144510520Y-60918716D01*
X144589577Y-60781784D01*
X144630500Y-60629057D01*
X144630500Y-59549730D01*
X144650185Y-59482691D01*
X144666819Y-59462049D01*
X144701553Y-59427315D01*
X144760212Y-59368656D01*
X144852314Y-59219334D01*
X144907499Y-59052797D01*
X144918000Y-58950009D01*
X144917999Y-57949992D01*
X144907499Y-57847203D01*
X144852314Y-57680666D01*
X144802309Y-57599595D01*
X144783870Y-57532204D01*
X144804793Y-57465541D01*
X144858435Y-57420771D01*
X144907849Y-57410500D01*
X147524883Y-57410500D01*
X147591922Y-57430185D01*
G37*
%TD.AperFunction*%
%TA.AperFunction,Conductor*%
G36*
X120890581Y-99483181D02*
G01*
X120908015Y-99494385D01*
X120909029Y-99495162D01*
X120950207Y-99551606D01*
X120957500Y-99593505D01*
X120957500Y-99621624D01*
X121041843Y-99610521D01*
X121049695Y-99608418D01*
X121050665Y-99612041D01*
X121102616Y-99605919D01*
X121115018Y-99609494D01*
X121115177Y-99608905D01*
X121123026Y-99611008D01*
X121123028Y-99611009D01*
X121233099Y-99625500D01*
X121431900Y-99625499D01*
X121473843Y-99619977D01*
X121542876Y-99630742D01*
X121579729Y-99657304D01*
X121728696Y-99813388D01*
X121730810Y-99817484D01*
X121737385Y-99823534D01*
X121738152Y-99824534D01*
X121749176Y-99853066D01*
X121760742Y-99875475D01*
X121760167Y-99881516D01*
X121763333Y-99889708D01*
X121755992Y-99925460D01*
X121754133Y-99945032D01*
X121751210Y-99948751D01*
X121749281Y-99958150D01*
X121738152Y-99975466D01*
X121737385Y-99976466D01*
X121718731Y-99990092D01*
X121710969Y-99999973D01*
X121700002Y-100003774D01*
X121680966Y-100017681D01*
X121638994Y-100025000D01*
X121610874Y-100025000D01*
X121621978Y-100109346D01*
X121624082Y-100117197D01*
X121620813Y-100118072D01*
X121626148Y-100172512D01*
X121623150Y-100182554D01*
X121623595Y-100182673D01*
X121621491Y-100190524D01*
X121607000Y-100300598D01*
X121607000Y-100499396D01*
X121612455Y-100540833D01*
X121601687Y-100609868D01*
X121555306Y-100662123D01*
X121488036Y-100681006D01*
X121473330Y-100679954D01*
X121431901Y-100674500D01*
X121233096Y-100674500D01*
X121123031Y-100688989D01*
X121115178Y-100691094D01*
X121114302Y-100687824D01*
X121060353Y-100693567D01*
X121049977Y-100690518D01*
X121049823Y-100691095D01*
X121041970Y-100688990D01*
X120931901Y-100674500D01*
X120733096Y-100674500D01*
X120691155Y-100680022D01*
X120622120Y-100669256D01*
X120585270Y-100642695D01*
X120436304Y-100486612D01*
X120434197Y-100482530D01*
X120427638Y-100476497D01*
X120426103Y-100474497D01*
X120414306Y-100443994D01*
X120404258Y-100424525D01*
X120404755Y-100419294D01*
X120400902Y-100409331D01*
X120409848Y-100365687D01*
X120410867Y-100354968D01*
X120412462Y-100352937D01*
X120414933Y-100340884D01*
X120450779Y-100304166D01*
X120454031Y-100300027D01*
X120455223Y-100299613D01*
X120463741Y-100290889D01*
X120524471Y-100275000D01*
X120554126Y-100275000D01*
X120543021Y-100190653D01*
X120540918Y-100182803D01*
X120544169Y-100181931D01*
X120538366Y-100127995D01*
X120541491Y-100117350D01*
X120540918Y-100117197D01*
X120543021Y-100109346D01*
X120554126Y-100025000D01*
X120524471Y-100025000D01*
X120504753Y-100019210D01*
X120484221Y-100018286D01*
X120471906Y-100009565D01*
X120457432Y-100005315D01*
X120443975Y-99989784D01*
X120427201Y-99977906D01*
X120421556Y-99963912D01*
X120411677Y-99952511D01*
X120408752Y-99932168D01*
X120401064Y-99913109D01*
X120403880Y-99898287D01*
X120401733Y-99883353D01*
X120410270Y-99864658D01*
X120414107Y-99844468D01*
X120426103Y-99825503D01*
X120427638Y-99823503D01*
X120429779Y-99821939D01*
X120430758Y-99819797D01*
X120434505Y-99815665D01*
X120584938Y-99657068D01*
X120598611Y-99649125D01*
X120609109Y-99637298D01*
X120628204Y-99631936D01*
X120645355Y-99621975D01*
X120661153Y-99622686D01*
X120676378Y-99618412D01*
X120691089Y-99619464D01*
X120707499Y-99621624D01*
X120707500Y-99621624D01*
X120707500Y-99593505D01*
X120727185Y-99526466D01*
X120755969Y-99495163D01*
X120756975Y-99494391D01*
X120822130Y-99469171D01*
X120890581Y-99483181D01*
G37*
%TD.AperFunction*%
%TA.AperFunction,Conductor*%
G36*
X137078834Y-93202914D02*
G01*
X137134767Y-93244786D01*
X137159184Y-93310250D01*
X137159500Y-93319096D01*
X137159500Y-95211810D01*
X137139815Y-95278849D01*
X137087011Y-95324604D01*
X137022395Y-95333894D01*
X137022318Y-95334882D01*
X137017932Y-95334536D01*
X137017853Y-95334548D01*
X137017608Y-95334511D01*
X137017467Y-95334500D01*
X136802533Y-95334500D01*
X136733084Y-95345500D01*
X136590243Y-95368124D01*
X136590240Y-95368124D01*
X136385832Y-95434540D01*
X136385829Y-95434541D01*
X136194321Y-95532120D01*
X136110981Y-95592671D01*
X136020437Y-95658455D01*
X136020435Y-95658457D01*
X136020434Y-95658457D01*
X135868457Y-95810434D01*
X135868457Y-95810435D01*
X135868455Y-95810437D01*
X135829652Y-95863845D01*
X135742120Y-95984321D01*
X135644541Y-96175829D01*
X135644540Y-96175832D01*
X135578124Y-96380240D01*
X135578124Y-96380243D01*
X135573457Y-96409711D01*
X135544500Y-96592533D01*
X135544500Y-97107467D01*
X135556272Y-97181789D01*
X135578124Y-97319756D01*
X135578124Y-97319759D01*
X135644540Y-97524167D01*
X135644541Y-97524170D01*
X135732684Y-97697159D01*
X135742120Y-97715678D01*
X135868455Y-97889563D01*
X136020437Y-98041545D01*
X136194322Y-98167880D01*
X136288251Y-98215739D01*
X136385829Y-98265458D01*
X136385832Y-98265459D01*
X136576494Y-98327408D01*
X136590245Y-98331876D01*
X136802533Y-98365500D01*
X136802534Y-98365500D01*
X137017466Y-98365500D01*
X137017467Y-98365500D01*
X137229755Y-98331876D01*
X137229758Y-98331875D01*
X137229759Y-98331875D01*
X137434167Y-98265459D01*
X137434170Y-98265458D01*
X137474743Y-98244785D01*
X137625678Y-98167880D01*
X137799563Y-98041545D01*
X137951545Y-97889563D01*
X138077880Y-97715678D01*
X138077879Y-97715678D01*
X138079682Y-97713198D01*
X138135012Y-97670532D01*
X138204625Y-97664553D01*
X138266420Y-97697159D01*
X138280318Y-97713198D01*
X138369930Y-97836538D01*
X138408455Y-97889563D01*
X138560437Y-98041545D01*
X138734322Y-98167880D01*
X138828251Y-98215739D01*
X138925829Y-98265458D01*
X138925832Y-98265459D01*
X139116494Y-98327408D01*
X139130245Y-98331876D01*
X139342533Y-98365500D01*
X139342534Y-98365500D01*
X139557466Y-98365500D01*
X139557467Y-98365500D01*
X139769755Y-98331876D01*
X139769758Y-98331875D01*
X139769759Y-98331875D01*
X139974167Y-98265459D01*
X139974170Y-98265458D01*
X140014743Y-98244785D01*
X140165678Y-98167880D01*
X140339563Y-98041545D01*
X140491545Y-97889563D01*
X140617880Y-97715678D01*
X140617881Y-97715675D01*
X140619990Y-97712773D01*
X140675320Y-97670107D01*
X140744933Y-97664128D01*
X140806728Y-97696734D01*
X140820626Y-97712772D01*
X140948838Y-97889239D01*
X140948838Y-97889240D01*
X141100759Y-98041161D01*
X141274583Y-98167452D01*
X141466024Y-98264996D01*
X141670359Y-98331388D01*
X141739999Y-98342418D01*
X141740000Y-98342418D01*
X141740000Y-97294560D01*
X141793147Y-97325245D01*
X141922857Y-97360000D01*
X142057143Y-97360000D01*
X142186853Y-97325245D01*
X142240000Y-97294560D01*
X142240000Y-98342418D01*
X142309638Y-98331388D01*
X142309641Y-98331388D01*
X142513975Y-98264996D01*
X142705416Y-98167452D01*
X142879236Y-98041164D01*
X142973896Y-97946504D01*
X143035219Y-97913019D01*
X143104911Y-97918003D01*
X143160845Y-97959874D01*
X143177760Y-97990852D01*
X143221202Y-98107328D01*
X143221206Y-98107335D01*
X143307452Y-98222544D01*
X143307455Y-98222547D01*
X143422664Y-98308793D01*
X143422671Y-98308797D01*
X143557517Y-98359091D01*
X143557516Y-98359091D01*
X143564444Y-98359835D01*
X143617127Y-98365500D01*
X145135902Y-98365499D01*
X145202941Y-98385184D01*
X145248696Y-98437987D01*
X145258640Y-98507146D01*
X145229615Y-98570702D01*
X145223583Y-98577180D01*
X143457584Y-100343181D01*
X143396261Y-100376666D01*
X143369903Y-100379500D01*
X130661703Y-100379500D01*
X130594664Y-100359815D01*
X130548909Y-100307011D01*
X130538965Y-100237853D01*
X130547142Y-100208048D01*
X130569735Y-100153501D01*
X130569737Y-100153497D01*
X130600500Y-99998842D01*
X130600500Y-99841158D01*
X130600500Y-99841155D01*
X130600499Y-99841153D01*
X130569739Y-99686511D01*
X130569736Y-99686501D01*
X130564563Y-99674012D01*
X130557094Y-99604543D01*
X130588370Y-99542064D01*
X130617122Y-99519174D01*
X130651200Y-99499500D01*
X130718716Y-99460520D01*
X130830520Y-99348716D01*
X130830520Y-99348714D01*
X130840724Y-99338511D01*
X130840727Y-99338506D01*
X136947821Y-93231413D01*
X137009142Y-93197930D01*
X137078834Y-93202914D01*
G37*
%TD.AperFunction*%
%TA.AperFunction,Conductor*%
G36*
X119303391Y-97190930D02*
G01*
X119420814Y-97269390D01*
X119420827Y-97269397D01*
X119555658Y-97325245D01*
X119566503Y-97329737D01*
X119631147Y-97342595D01*
X119721849Y-97360638D01*
X119783760Y-97393023D01*
X119785339Y-97394574D01*
X119798584Y-97407819D01*
X119832069Y-97469142D01*
X119827085Y-97538834D01*
X119785213Y-97594767D01*
X119719749Y-97619184D01*
X119710903Y-97619500D01*
X119430097Y-97619500D01*
X119363058Y-97599815D01*
X119342416Y-97583181D01*
X119146819Y-97387584D01*
X119113334Y-97326261D01*
X119110500Y-97299903D01*
X119110500Y-97294032D01*
X119130185Y-97226993D01*
X119182989Y-97181238D01*
X119252147Y-97171294D01*
X119303391Y-97190930D01*
G37*
%TD.AperFunction*%
%TA.AperFunction,Conductor*%
G36*
X135872540Y-64290185D02*
G01*
X135918295Y-64342989D01*
X135929501Y-64394500D01*
X135929501Y-65128034D01*
X135940113Y-65247415D01*
X135996089Y-65443045D01*
X135996090Y-65443048D01*
X135996091Y-65443049D01*
X136090302Y-65623407D01*
X136097134Y-65631786D01*
X136218890Y-65781109D01*
X136299425Y-65846776D01*
X136376593Y-65909698D01*
X136556951Y-66003909D01*
X136556953Y-66003909D01*
X136556954Y-66003910D01*
X136593130Y-66014261D01*
X136739612Y-66056174D01*
X136798649Y-66093541D01*
X136828113Y-66156895D01*
X136829500Y-66175390D01*
X136829500Y-66533330D01*
X136829499Y-66533348D01*
X136829499Y-66699054D01*
X136829498Y-66699054D01*
X136846442Y-66762288D01*
X136870423Y-66851785D01*
X136870424Y-66851786D01*
X136886423Y-66879499D01*
X136886424Y-66879500D01*
X136949475Y-66988709D01*
X136949481Y-66988717D01*
X137068349Y-67107585D01*
X137068355Y-67107590D01*
X141107031Y-71146267D01*
X141104798Y-71148499D01*
X141137227Y-71192906D01*
X141141386Y-71262651D01*
X141108221Y-71322542D01*
X138631286Y-73799478D01*
X138519481Y-73911282D01*
X138519479Y-73911285D01*
X138512033Y-73924183D01*
X138479563Y-73980423D01*
X138440423Y-74048215D01*
X138399499Y-74200943D01*
X138399499Y-74200945D01*
X138399499Y-74369046D01*
X138399500Y-74369059D01*
X138399500Y-74801859D01*
X138399499Y-74801877D01*
X138399499Y-74967583D01*
X138399498Y-74967583D01*
X138399499Y-74967586D01*
X138421660Y-75050292D01*
X138440424Y-75120316D01*
X138452077Y-75140499D01*
X138452078Y-75140501D01*
X138519477Y-75257241D01*
X138519481Y-75257246D01*
X138638349Y-75376114D01*
X138638355Y-75376119D01*
X139191610Y-75929374D01*
X139191620Y-75929385D01*
X139195950Y-75933715D01*
X139195951Y-75933716D01*
X139307755Y-76045520D01*
X139307757Y-76045521D01*
X139307761Y-76045524D01*
X139409439Y-76104227D01*
X139444687Y-76124577D01*
X139556490Y-76154534D01*
X139597413Y-76165500D01*
X139597414Y-76165500D01*
X143408331Y-76165500D01*
X143408347Y-76165501D01*
X143415943Y-76165501D01*
X143574054Y-76165501D01*
X143574057Y-76165501D01*
X143726785Y-76124577D01*
X143733497Y-76120701D01*
X143801395Y-76104227D01*
X143867423Y-76127077D01*
X143910616Y-76181996D01*
X143919500Y-76228087D01*
X143919500Y-88183330D01*
X143919499Y-88183348D01*
X143919499Y-88349054D01*
X143919498Y-88349054D01*
X143933283Y-88400500D01*
X143960423Y-88501785D01*
X143960424Y-88501786D01*
X143975259Y-88527483D01*
X143975260Y-88527484D01*
X144039475Y-88638709D01*
X144039481Y-88638717D01*
X144158349Y-88757585D01*
X144158355Y-88757590D01*
X148181083Y-92780318D01*
X148214568Y-92841641D01*
X148209584Y-92911333D01*
X148181083Y-92955680D01*
X145772508Y-95364255D01*
X145711185Y-95397740D01*
X145641494Y-95392756D01*
X145502482Y-95340908D01*
X145502483Y-95340908D01*
X145442883Y-95334501D01*
X145442881Y-95334500D01*
X145442873Y-95334500D01*
X145442864Y-95334500D01*
X143617129Y-95334500D01*
X143617123Y-95334501D01*
X143557516Y-95340908D01*
X143422671Y-95391202D01*
X143422664Y-95391206D01*
X143307455Y-95477452D01*
X143307452Y-95477455D01*
X143221206Y-95592664D01*
X143221202Y-95592671D01*
X143177760Y-95709147D01*
X143135889Y-95765081D01*
X143070425Y-95789498D01*
X143002152Y-95774646D01*
X142973897Y-95753495D01*
X142879240Y-95658838D01*
X142705416Y-95532547D01*
X142513975Y-95435003D01*
X142309635Y-95368610D01*
X142309636Y-95368610D01*
X142240000Y-95357581D01*
X142240000Y-96405439D01*
X142186853Y-96374755D01*
X142057143Y-96340000D01*
X141922857Y-96340000D01*
X141793147Y-96374755D01*
X141740000Y-96405439D01*
X141740000Y-95357581D01*
X141670364Y-95368610D01*
X141466024Y-95435003D01*
X141274583Y-95532547D01*
X141100759Y-95658838D01*
X140948838Y-95810759D01*
X140948838Y-95810760D01*
X140820626Y-95987227D01*
X140765296Y-96029892D01*
X140695682Y-96035871D01*
X140633887Y-96003265D01*
X140619990Y-95987226D01*
X140530348Y-95863845D01*
X140491545Y-95810437D01*
X140339563Y-95658455D01*
X140165678Y-95532120D01*
X140121439Y-95509579D01*
X140035725Y-95465905D01*
X139984929Y-95417930D01*
X139968134Y-95350109D01*
X139990672Y-95283974D01*
X140004333Y-95267744D01*
X140071789Y-95200289D01*
X140159394Y-95069179D01*
X140219737Y-94923497D01*
X140250500Y-94768842D01*
X140250500Y-94611158D01*
X140250500Y-94611155D01*
X140250499Y-94611153D01*
X140219738Y-94456510D01*
X140219737Y-94456503D01*
X140202394Y-94414632D01*
X140159397Y-94310827D01*
X140159390Y-94310814D01*
X140071789Y-94179711D01*
X140071786Y-94179707D01*
X139960292Y-94068213D01*
X139960288Y-94068210D01*
X139829185Y-93980609D01*
X139829172Y-93980602D01*
X139683501Y-93920264D01*
X139683489Y-93920261D01*
X139528845Y-93889500D01*
X139528842Y-93889500D01*
X139371158Y-93889500D01*
X139371155Y-93889500D01*
X139216510Y-93920261D01*
X139216498Y-93920264D01*
X139141952Y-93951142D01*
X139072482Y-93958611D01*
X139010003Y-93927335D01*
X138974352Y-93867246D01*
X138970500Y-93836581D01*
X138970500Y-80789765D01*
X138990185Y-80722726D01*
X138991398Y-80720874D01*
X139001301Y-80706054D01*
X139079394Y-80589179D01*
X139139737Y-80443497D01*
X139170500Y-80288842D01*
X139170500Y-80131158D01*
X139170500Y-80131155D01*
X139170499Y-80131153D01*
X139168964Y-80123434D01*
X139139737Y-79976503D01*
X139095965Y-79870827D01*
X139079397Y-79830827D01*
X139079390Y-79830814D01*
X138991789Y-79699711D01*
X138991786Y-79699707D01*
X138912544Y-79620465D01*
X138879059Y-79559142D01*
X138884043Y-79489450D01*
X138925915Y-79433517D01*
X138976031Y-79411167D01*
X139033497Y-79399737D01*
X139179179Y-79339394D01*
X139310289Y-79251789D01*
X139421789Y-79140289D01*
X139509394Y-79009179D01*
X139569737Y-78863497D01*
X139600500Y-78708842D01*
X139600500Y-78551158D01*
X139600500Y-78551155D01*
X139600499Y-78551153D01*
X139591833Y-78507585D01*
X139569737Y-78396503D01*
X139553877Y-78358214D01*
X139509397Y-78250827D01*
X139509390Y-78250814D01*
X139421789Y-78119711D01*
X139421786Y-78119707D01*
X139310292Y-78008213D01*
X139310288Y-78008210D01*
X139179185Y-77920609D01*
X139179172Y-77920602D01*
X139033501Y-77860264D01*
X139033489Y-77860261D01*
X138878845Y-77829500D01*
X138878842Y-77829500D01*
X138721158Y-77829500D01*
X138721155Y-77829500D01*
X138566510Y-77860261D01*
X138566498Y-77860264D01*
X138420827Y-77920602D01*
X138420814Y-77920609D01*
X138289711Y-78008210D01*
X138289707Y-78008213D01*
X138173903Y-78124018D01*
X138172402Y-78122517D01*
X138122600Y-78156437D01*
X138052756Y-78158303D01*
X137992989Y-78122112D01*
X137962277Y-78059354D01*
X137960500Y-78038435D01*
X137960500Y-72590096D01*
X137980185Y-72523057D01*
X137996814Y-72502419D01*
X139058506Y-71440727D01*
X139058511Y-71440724D01*
X139068714Y-71430520D01*
X139068716Y-71430520D01*
X139180520Y-71318716D01*
X139237225Y-71220500D01*
X139259577Y-71181785D01*
X139300500Y-71029057D01*
X139300500Y-70999765D01*
X139320185Y-70932726D01*
X139321398Y-70930874D01*
X139409390Y-70799185D01*
X139409390Y-70799184D01*
X139409394Y-70799179D01*
X139469737Y-70653497D01*
X139500500Y-70498842D01*
X139500500Y-70341158D01*
X139500500Y-70341155D01*
X139500499Y-70341153D01*
X139470891Y-70192304D01*
X139469737Y-70186503D01*
X139448416Y-70135028D01*
X139409397Y-70040827D01*
X139409390Y-70040814D01*
X139321789Y-69909711D01*
X139321786Y-69909707D01*
X139210292Y-69798213D01*
X139210288Y-69798210D01*
X139079185Y-69710609D01*
X139079172Y-69710602D01*
X138933501Y-69650264D01*
X138933489Y-69650261D01*
X138778845Y-69619500D01*
X138778842Y-69619500D01*
X138621158Y-69619500D01*
X138621155Y-69619500D01*
X138466510Y-69650261D01*
X138466498Y-69650264D01*
X138320827Y-69710602D01*
X138320814Y-69710609D01*
X138189711Y-69798210D01*
X138189707Y-69798213D01*
X138078213Y-69909707D01*
X138078210Y-69909711D01*
X137990609Y-70040814D01*
X137990602Y-70040827D01*
X137930264Y-70186498D01*
X137930261Y-70186510D01*
X137899500Y-70341153D01*
X137899500Y-70498846D01*
X137930261Y-70653489D01*
X137930264Y-70653501D01*
X137962115Y-70730396D01*
X137969584Y-70799865D01*
X137938309Y-70862344D01*
X137935235Y-70865529D01*
X137492680Y-71308083D01*
X137431357Y-71341568D01*
X137361665Y-71336584D01*
X137317318Y-71308083D01*
X132646407Y-66637172D01*
X132612922Y-66575849D01*
X132613752Y-66519567D01*
X132627600Y-66463889D01*
X132630500Y-66421123D01*
X132630499Y-65518878D01*
X132627600Y-65476111D01*
X132581641Y-65291307D01*
X132559872Y-65247413D01*
X132497032Y-65120707D01*
X132497030Y-65120704D01*
X132377722Y-64972278D01*
X132377721Y-64972277D01*
X132308514Y-64916647D01*
X132268595Y-64859304D01*
X132266015Y-64789482D01*
X132301594Y-64729349D01*
X132308514Y-64723353D01*
X132325775Y-64709478D01*
X132377722Y-64667722D01*
X132497030Y-64519296D01*
X132558923Y-64394500D01*
X132584628Y-64342671D01*
X132586535Y-64343617D01*
X132622131Y-64295590D01*
X132687478Y-64270860D01*
X132696916Y-64270500D01*
X135805501Y-64270500D01*
X135872540Y-64290185D01*
G37*
%TD.AperFunction*%
%TA.AperFunction,Conductor*%
G36*
X129573039Y-60940185D02*
G01*
X129618794Y-60992989D01*
X129630000Y-61044500D01*
X129630000Y-61120000D01*
X131006000Y-61120000D01*
X131073039Y-61139685D01*
X131118794Y-61192489D01*
X131130000Y-61244000D01*
X131130000Y-61496000D01*
X131110315Y-61563039D01*
X131057511Y-61608794D01*
X131006000Y-61620000D01*
X129630000Y-61620000D01*
X129630000Y-61821096D01*
X129632897Y-61863824D01*
X129678831Y-62048523D01*
X129763390Y-62219022D01*
X129763392Y-62219025D01*
X129882630Y-62367364D01*
X129951884Y-62423031D01*
X129991803Y-62480375D01*
X129994383Y-62550197D01*
X129958805Y-62610329D01*
X129951885Y-62616326D01*
X129920672Y-62641416D01*
X129889019Y-62666860D01*
X129882276Y-62672280D01*
X129762969Y-62820704D01*
X129762967Y-62820707D01*
X129678360Y-62991302D01*
X129632400Y-63176107D01*
X129629500Y-63218879D01*
X129629500Y-64121122D01*
X129629501Y-64121125D01*
X129632399Y-64163886D01*
X129632399Y-64163887D01*
X129644017Y-64210602D01*
X129676940Y-64342989D01*
X129678360Y-64348696D01*
X129762967Y-64519292D01*
X129762969Y-64519295D01*
X129882277Y-64667721D01*
X129882278Y-64667722D01*
X129951486Y-64723353D01*
X129991405Y-64780696D01*
X129993985Y-64850518D01*
X129958406Y-64910651D01*
X129951486Y-64916647D01*
X129882278Y-64972277D01*
X129882277Y-64972278D01*
X129762969Y-65120704D01*
X129762967Y-65120707D01*
X129678360Y-65291302D01*
X129632400Y-65476107D01*
X129629500Y-65518879D01*
X129629500Y-66421122D01*
X129629501Y-66421125D01*
X129632399Y-66463886D01*
X129632399Y-66463887D01*
X129657232Y-66563739D01*
X129670102Y-66615493D01*
X129678360Y-66648696D01*
X129762967Y-66819292D01*
X129762969Y-66819295D01*
X129882277Y-66967721D01*
X129882278Y-66967722D01*
X130030704Y-67087030D01*
X130030707Y-67087032D01*
X130201302Y-67171639D01*
X130201303Y-67171639D01*
X130201307Y-67171641D01*
X130386111Y-67217600D01*
X130428877Y-67220500D01*
X131479902Y-67220499D01*
X131546941Y-67240183D01*
X131567583Y-67256818D01*
X136723181Y-72412416D01*
X136756666Y-72473739D01*
X136759500Y-72500097D01*
X136759500Y-73636000D01*
X136739815Y-73703039D01*
X136687011Y-73748794D01*
X136635500Y-73760000D01*
X136560000Y-73760000D01*
X136560000Y-74586000D01*
X136540315Y-74653039D01*
X136487511Y-74698794D01*
X136436000Y-74710000D01*
X136310000Y-74710000D01*
X136310000Y-74836000D01*
X136290315Y-74903039D01*
X136237511Y-74948794D01*
X136186000Y-74960000D01*
X135060000Y-74960000D01*
X135060000Y-75207844D01*
X135066401Y-75267372D01*
X135066403Y-75267379D01*
X135078925Y-75300952D01*
X135083909Y-75370643D01*
X135078925Y-75387617D01*
X135065909Y-75422514D01*
X135065908Y-75422516D01*
X135059501Y-75482116D01*
X135059501Y-75482123D01*
X135059500Y-75482135D01*
X135059500Y-76477870D01*
X135059501Y-76477876D01*
X135065908Y-76537481D01*
X135078659Y-76571669D01*
X135083642Y-76641361D01*
X135078659Y-76658331D01*
X135065908Y-76692518D01*
X135061341Y-76735000D01*
X135059501Y-76752123D01*
X135059500Y-76752135D01*
X135059500Y-77747870D01*
X135059501Y-77747876D01*
X135063196Y-77782247D01*
X135050789Y-77851006D01*
X135003178Y-77902143D01*
X134939906Y-77919500D01*
X133901173Y-77919500D01*
X133853721Y-77910061D01*
X133733498Y-77860263D01*
X133733488Y-77860260D01*
X133578845Y-77829500D01*
X133578842Y-77829500D01*
X133421158Y-77829500D01*
X133421155Y-77829500D01*
X133266510Y-77860261D01*
X133266498Y-77860264D01*
X133120827Y-77920602D01*
X133120814Y-77920609D01*
X132989711Y-78008210D01*
X132989707Y-78008213D01*
X132878213Y-78119707D01*
X132878210Y-78119711D01*
X132790609Y-78250814D01*
X132790602Y-78250827D01*
X132730264Y-78396498D01*
X132730261Y-78396510D01*
X132699500Y-78551153D01*
X132699500Y-78708846D01*
X132730261Y-78863489D01*
X132730264Y-78863501D01*
X132774504Y-78970306D01*
X132781973Y-79039775D01*
X132750698Y-79102254D01*
X132707396Y-79132319D01*
X132590823Y-79180604D01*
X132590814Y-79180609D01*
X132459711Y-79268210D01*
X132459707Y-79268213D01*
X132348213Y-79379707D01*
X132348210Y-79379711D01*
X132260609Y-79510814D01*
X132260602Y-79510827D01*
X132200264Y-79656498D01*
X132200261Y-79656510D01*
X132169500Y-79811153D01*
X132169500Y-79968846D01*
X132200261Y-80123489D01*
X132200264Y-80123501D01*
X132260602Y-80269172D01*
X132260609Y-80269185D01*
X132348210Y-80400288D01*
X132348213Y-80400292D01*
X132459707Y-80511786D01*
X132459711Y-80511789D01*
X132590814Y-80599390D01*
X132590827Y-80599397D01*
X132662743Y-80629185D01*
X132736503Y-80659737D01*
X132891153Y-80690499D01*
X132891156Y-80690500D01*
X132891158Y-80690500D01*
X133048844Y-80690500D01*
X133048845Y-80690499D01*
X133203497Y-80659737D01*
X133349179Y-80599394D01*
X133480289Y-80511789D01*
X133565260Y-80426817D01*
X133626581Y-80393334D01*
X133652940Y-80390500D01*
X134939906Y-80390500D01*
X135006945Y-80410185D01*
X135052700Y-80462989D01*
X135063195Y-80527752D01*
X135059500Y-80562127D01*
X135059500Y-80562128D01*
X135059500Y-80562132D01*
X135059500Y-81557870D01*
X135059501Y-81557876D01*
X135065908Y-81617481D01*
X135078659Y-81651669D01*
X135083642Y-81721361D01*
X135078659Y-81738331D01*
X135065908Y-81772518D01*
X135059501Y-81832116D01*
X135059501Y-81832123D01*
X135059500Y-81832135D01*
X135059500Y-82827870D01*
X135059501Y-82827876D01*
X135065908Y-82887481D01*
X135078659Y-82921669D01*
X135083642Y-82991361D01*
X135078659Y-83008331D01*
X135065908Y-83042518D01*
X135059501Y-83102116D01*
X135059500Y-83102135D01*
X135059500Y-84097870D01*
X135059501Y-84097876D01*
X135065908Y-84157481D01*
X135078659Y-84191669D01*
X135083642Y-84261361D01*
X135078659Y-84278331D01*
X135065908Y-84312518D01*
X135059501Y-84372116D01*
X135059501Y-84372123D01*
X135059500Y-84372135D01*
X135059500Y-85367870D01*
X135059501Y-85367876D01*
X135065908Y-85427481D01*
X135078659Y-85461669D01*
X135083642Y-85531361D01*
X135078659Y-85548331D01*
X135065908Y-85582518D01*
X135062982Y-85609737D01*
X135059501Y-85642123D01*
X135059500Y-85642135D01*
X135059500Y-86637870D01*
X135059501Y-86637876D01*
X135065908Y-86697481D01*
X135078659Y-86731669D01*
X135083642Y-86801361D01*
X135078659Y-86818331D01*
X135065908Y-86852518D01*
X135059501Y-86912116D01*
X135059501Y-86912123D01*
X135059500Y-86912135D01*
X135059500Y-87907870D01*
X135059501Y-87907876D01*
X135065908Y-87967481D01*
X135078659Y-88001669D01*
X135083642Y-88071361D01*
X135078659Y-88088331D01*
X135065908Y-88122518D01*
X135059501Y-88182116D01*
X135059501Y-88182123D01*
X135059500Y-88182135D01*
X135059500Y-89177870D01*
X135059501Y-89177876D01*
X135065908Y-89237481D01*
X135078659Y-89271669D01*
X135083642Y-89341361D01*
X135078659Y-89358331D01*
X135065908Y-89392518D01*
X135059501Y-89452116D01*
X135059501Y-89452123D01*
X135059500Y-89452135D01*
X135059500Y-89931459D01*
X135039815Y-89998498D01*
X134987011Y-90044253D01*
X134917853Y-90054197D01*
X134854297Y-90025172D01*
X134832398Y-90000350D01*
X134751789Y-89879711D01*
X134751786Y-89879707D01*
X134640292Y-89768213D01*
X134640288Y-89768210D01*
X134509185Y-89680609D01*
X134509172Y-89680602D01*
X134363501Y-89620264D01*
X134363489Y-89620261D01*
X134208845Y-89589500D01*
X134208842Y-89589500D01*
X134051158Y-89589500D01*
X134051155Y-89589500D01*
X133896510Y-89620261D01*
X133896498Y-89620264D01*
X133750827Y-89680602D01*
X133750814Y-89680609D01*
X133619711Y-89768210D01*
X133619707Y-89768213D01*
X133508213Y-89879707D01*
X133508210Y-89879711D01*
X133420609Y-90010814D01*
X133420602Y-90010827D01*
X133360264Y-90156498D01*
X133360261Y-90156510D01*
X133329500Y-90311153D01*
X133329500Y-90468846D01*
X133360261Y-90623489D01*
X133360264Y-90623501D01*
X133420602Y-90769172D01*
X133420609Y-90769185D01*
X133508210Y-90900288D01*
X133508213Y-90900292D01*
X133615740Y-91007819D01*
X133649225Y-91069142D01*
X133644241Y-91138834D01*
X133602369Y-91194767D01*
X133536905Y-91219184D01*
X133528059Y-91219500D01*
X132777129Y-91219500D01*
X132777123Y-91219501D01*
X132717518Y-91225908D01*
X132683331Y-91238659D01*
X132613639Y-91243642D01*
X132596669Y-91238659D01*
X132562480Y-91225908D01*
X132562482Y-91225908D01*
X132502883Y-91219501D01*
X132502881Y-91219500D01*
X132502873Y-91219500D01*
X132502864Y-91219500D01*
X131507129Y-91219500D01*
X131507123Y-91219501D01*
X131447518Y-91225908D01*
X131413331Y-91238659D01*
X131343639Y-91243642D01*
X131326669Y-91238659D01*
X131292480Y-91225908D01*
X131292482Y-91225908D01*
X131232883Y-91219501D01*
X131232881Y-91219500D01*
X131232873Y-91219500D01*
X131232864Y-91219500D01*
X130237129Y-91219500D01*
X130237123Y-91219501D01*
X130177518Y-91225908D01*
X130143331Y-91238659D01*
X130073639Y-91243642D01*
X130056669Y-91238659D01*
X130022480Y-91225908D01*
X130022482Y-91225908D01*
X129962883Y-91219501D01*
X129962881Y-91219500D01*
X129962873Y-91219500D01*
X129962864Y-91219500D01*
X128967129Y-91219500D01*
X128967123Y-91219501D01*
X128907518Y-91225908D01*
X128873331Y-91238659D01*
X128803639Y-91243642D01*
X128786669Y-91238659D01*
X128752480Y-91225908D01*
X128752482Y-91225908D01*
X128692883Y-91219501D01*
X128692881Y-91219500D01*
X128692873Y-91219500D01*
X128692864Y-91219500D01*
X127697129Y-91219500D01*
X127697123Y-91219501D01*
X127637518Y-91225908D01*
X127603331Y-91238659D01*
X127533639Y-91243642D01*
X127516669Y-91238659D01*
X127482480Y-91225908D01*
X127482482Y-91225908D01*
X127422883Y-91219501D01*
X127422881Y-91219500D01*
X127422873Y-91219500D01*
X127422864Y-91219500D01*
X126427129Y-91219500D01*
X126427123Y-91219501D01*
X126367518Y-91225908D01*
X126333331Y-91238659D01*
X126263639Y-91243642D01*
X126246666Y-91238658D01*
X126211072Y-91225382D01*
X126155139Y-91183510D01*
X126147019Y-91171200D01*
X126135522Y-91151287D01*
X126135518Y-91151282D01*
X124396819Y-89412583D01*
X124363334Y-89351260D01*
X124360500Y-89324902D01*
X124360500Y-84880862D01*
X124380185Y-84813823D01*
X124396819Y-84793181D01*
X124410000Y-84780000D01*
X124910000Y-84780000D01*
X125157828Y-84780000D01*
X125157844Y-84779999D01*
X125217372Y-84773598D01*
X125217376Y-84773597D01*
X125316666Y-84736564D01*
X125386358Y-84731580D01*
X125403334Y-84736564D01*
X125502623Y-84773597D01*
X125502627Y-84773598D01*
X125562155Y-84779999D01*
X125562172Y-84780000D01*
X125810000Y-84780000D01*
X126310000Y-84780000D01*
X126557828Y-84780000D01*
X126557844Y-84779999D01*
X126617372Y-84773598D01*
X126617376Y-84773597D01*
X126716666Y-84736564D01*
X126786358Y-84731580D01*
X126803334Y-84736564D01*
X126902623Y-84773597D01*
X126902627Y-84773598D01*
X126962155Y-84779999D01*
X126962172Y-84780000D01*
X127210000Y-84780000D01*
X127710000Y-84780000D01*
X127957828Y-84780000D01*
X127957844Y-84779999D01*
X128017372Y-84773598D01*
X128017379Y-84773596D01*
X128152086Y-84723354D01*
X128152093Y-84723350D01*
X128267187Y-84637190D01*
X128267190Y-84637187D01*
X128353350Y-84522093D01*
X128353354Y-84522086D01*
X128403596Y-84387379D01*
X128403598Y-84387372D01*
X128409999Y-84327844D01*
X128410000Y-84327827D01*
X128410000Y-84080000D01*
X127710000Y-84080000D01*
X127710000Y-84780000D01*
X127210000Y-84780000D01*
X127210000Y-84080000D01*
X126310000Y-84080000D01*
X126310000Y-84780000D01*
X125810000Y-84780000D01*
X125810000Y-84080000D01*
X124910000Y-84080000D01*
X124910000Y-84780000D01*
X124410000Y-84780000D01*
X124410000Y-83810109D01*
X125260000Y-83810109D01*
X125260000Y-83849891D01*
X125275224Y-83886645D01*
X125303355Y-83914776D01*
X125340109Y-83930000D01*
X125379891Y-83930000D01*
X125416645Y-83914776D01*
X125444776Y-83886645D01*
X125460000Y-83849891D01*
X125460000Y-83810109D01*
X126660000Y-83810109D01*
X126660000Y-83849891D01*
X126675224Y-83886645D01*
X126703355Y-83914776D01*
X126740109Y-83930000D01*
X126779891Y-83930000D01*
X126816645Y-83914776D01*
X126844776Y-83886645D01*
X126860000Y-83849891D01*
X126860000Y-83810109D01*
X126844776Y-83773355D01*
X126816645Y-83745224D01*
X126779891Y-83730000D01*
X126740109Y-83730000D01*
X126703355Y-83745224D01*
X126675224Y-83773355D01*
X126660000Y-83810109D01*
X125460000Y-83810109D01*
X125444776Y-83773355D01*
X125416645Y-83745224D01*
X125379891Y-83730000D01*
X125340109Y-83730000D01*
X125303355Y-83745224D01*
X125275224Y-83773355D01*
X125260000Y-83810109D01*
X124410000Y-83810109D01*
X124410000Y-83580000D01*
X127710000Y-83580000D01*
X128410000Y-83580000D01*
X128410000Y-83332172D01*
X128409999Y-83332155D01*
X128403598Y-83272627D01*
X128403597Y-83272623D01*
X128366564Y-83173334D01*
X128361580Y-83103642D01*
X128366564Y-83086666D01*
X128403597Y-82987376D01*
X128403598Y-82987372D01*
X128409999Y-82927844D01*
X128410000Y-82927827D01*
X128410000Y-82680000D01*
X127710000Y-82680000D01*
X127710000Y-83580000D01*
X124410000Y-83580000D01*
X124410000Y-83110109D01*
X124560000Y-83110109D01*
X124560000Y-83149891D01*
X124575224Y-83186645D01*
X124603355Y-83214776D01*
X124640109Y-83230000D01*
X124679891Y-83230000D01*
X124716645Y-83214776D01*
X124744776Y-83186645D01*
X124760000Y-83149891D01*
X124760000Y-83129999D01*
X124942842Y-83129999D01*
X125113343Y-83300499D01*
X125113343Y-83300500D01*
X125360000Y-83547157D01*
X125777157Y-83130000D01*
X125757266Y-83110109D01*
X125960000Y-83110109D01*
X125960000Y-83149891D01*
X125975224Y-83186645D01*
X126003355Y-83214776D01*
X126040109Y-83230000D01*
X126079891Y-83230000D01*
X126116645Y-83214776D01*
X126144776Y-83186645D01*
X126160000Y-83149891D01*
X126160000Y-83129999D01*
X126342842Y-83129999D01*
X126513343Y-83300499D01*
X126513343Y-83300500D01*
X126760000Y-83547157D01*
X127177157Y-83130000D01*
X127157266Y-83110109D01*
X127360000Y-83110109D01*
X127360000Y-83149891D01*
X127375224Y-83186645D01*
X127403355Y-83214776D01*
X127440109Y-83230000D01*
X127479891Y-83230000D01*
X127516645Y-83214776D01*
X127544776Y-83186645D01*
X127560000Y-83149891D01*
X127560000Y-83110109D01*
X127544776Y-83073355D01*
X127516645Y-83045224D01*
X127479891Y-83030000D01*
X127440109Y-83030000D01*
X127403355Y-83045224D01*
X127375224Y-83073355D01*
X127360000Y-83110109D01*
X127157266Y-83110109D01*
X126922634Y-82875477D01*
X126922633Y-82875477D01*
X126763477Y-82716319D01*
X126763475Y-82716316D01*
X126760001Y-82712842D01*
X126759999Y-82712842D01*
X126597365Y-82875477D01*
X126342842Y-83129999D01*
X126160000Y-83129999D01*
X126160000Y-83110109D01*
X126144776Y-83073355D01*
X126116645Y-83045224D01*
X126079891Y-83030000D01*
X126040109Y-83030000D01*
X126003355Y-83045224D01*
X125975224Y-83073355D01*
X125960000Y-83110109D01*
X125757266Y-83110109D01*
X125522634Y-82875477D01*
X125522632Y-82875474D01*
X125360001Y-82712842D01*
X125359999Y-82712842D01*
X125197365Y-82875477D01*
X124942842Y-83129999D01*
X124760000Y-83129999D01*
X124760000Y-83110109D01*
X124744776Y-83073355D01*
X124716645Y-83045224D01*
X124679891Y-83030000D01*
X124640109Y-83030000D01*
X124603355Y-83045224D01*
X124575224Y-83073355D01*
X124560000Y-83110109D01*
X124410000Y-83110109D01*
X124410000Y-82410109D01*
X125260000Y-82410109D01*
X125260000Y-82449891D01*
X125275224Y-82486645D01*
X125303355Y-82514776D01*
X125340109Y-82530000D01*
X125379891Y-82530000D01*
X125416645Y-82514776D01*
X125444776Y-82486645D01*
X125460000Y-82449891D01*
X125460000Y-82410109D01*
X126660000Y-82410109D01*
X126660000Y-82449891D01*
X126675224Y-82486645D01*
X126703355Y-82514776D01*
X126740109Y-82530000D01*
X126779891Y-82530000D01*
X126816645Y-82514776D01*
X126844776Y-82486645D01*
X126860000Y-82449891D01*
X126860000Y-82410109D01*
X126844776Y-82373355D01*
X126816645Y-82345224D01*
X126779891Y-82330000D01*
X126740109Y-82330000D01*
X126703355Y-82345224D01*
X126675224Y-82373355D01*
X126660000Y-82410109D01*
X125460000Y-82410109D01*
X125444776Y-82373355D01*
X125416645Y-82345224D01*
X125379891Y-82330000D01*
X125340109Y-82330000D01*
X125303355Y-82345224D01*
X125275224Y-82373355D01*
X125260000Y-82410109D01*
X124410000Y-82410109D01*
X124410000Y-82180000D01*
X127710000Y-82180000D01*
X128410000Y-82180000D01*
X128410000Y-81932172D01*
X128409999Y-81932155D01*
X128403598Y-81872627D01*
X128403597Y-81872623D01*
X128366564Y-81773334D01*
X128361580Y-81703642D01*
X128366564Y-81686666D01*
X128403597Y-81587376D01*
X128403598Y-81587372D01*
X128409999Y-81527844D01*
X128410000Y-81527827D01*
X128410000Y-81280000D01*
X127710000Y-81280000D01*
X127710000Y-82180000D01*
X124410000Y-82180000D01*
X124410000Y-81710109D01*
X124560000Y-81710109D01*
X124560000Y-81749891D01*
X124575224Y-81786645D01*
X124603355Y-81814776D01*
X124640109Y-81830000D01*
X124679891Y-81830000D01*
X124716645Y-81814776D01*
X124744776Y-81786645D01*
X124760000Y-81749891D01*
X124760000Y-81729999D01*
X124942842Y-81729999D01*
X124942842Y-81730000D01*
X125102828Y-81889986D01*
X125102843Y-81890000D01*
X125360000Y-82147157D01*
X125777157Y-81730000D01*
X125757266Y-81710109D01*
X125960000Y-81710109D01*
X125960000Y-81749891D01*
X125975224Y-81786645D01*
X126003355Y-81814776D01*
X126040109Y-81830000D01*
X126079891Y-81830000D01*
X126116645Y-81814776D01*
X126144776Y-81786645D01*
X126160000Y-81749891D01*
X126160000Y-81729999D01*
X126342842Y-81729999D01*
X126342842Y-81730000D01*
X126502828Y-81889986D01*
X126502843Y-81890000D01*
X126760000Y-82147157D01*
X127177157Y-81730000D01*
X127157266Y-81710109D01*
X127360000Y-81710109D01*
X127360000Y-81749891D01*
X127375224Y-81786645D01*
X127403355Y-81814776D01*
X127440109Y-81830000D01*
X127479891Y-81830000D01*
X127516645Y-81814776D01*
X127544776Y-81786645D01*
X127560000Y-81749891D01*
X127560000Y-81710109D01*
X127544776Y-81673355D01*
X127516645Y-81645224D01*
X127479891Y-81630000D01*
X127440109Y-81630000D01*
X127403355Y-81645224D01*
X127375224Y-81673355D01*
X127360000Y-81710109D01*
X127157266Y-81710109D01*
X126920654Y-81473497D01*
X126920653Y-81473497D01*
X126763477Y-81316319D01*
X126763475Y-81316316D01*
X126760001Y-81312842D01*
X126759999Y-81312842D01*
X126599345Y-81473497D01*
X126342842Y-81729999D01*
X126160000Y-81729999D01*
X126160000Y-81710109D01*
X126144776Y-81673355D01*
X126116645Y-81645224D01*
X126079891Y-81630000D01*
X126040109Y-81630000D01*
X126003355Y-81645224D01*
X125975224Y-81673355D01*
X125960000Y-81710109D01*
X125757266Y-81710109D01*
X125520654Y-81473497D01*
X125520652Y-81473494D01*
X125360001Y-81312842D01*
X125359999Y-81312842D01*
X125199345Y-81473497D01*
X124942842Y-81729999D01*
X124760000Y-81729999D01*
X124760000Y-81710109D01*
X124744776Y-81673355D01*
X124716645Y-81645224D01*
X124679891Y-81630000D01*
X124640109Y-81630000D01*
X124603355Y-81645224D01*
X124575224Y-81673355D01*
X124560000Y-81710109D01*
X124410000Y-81710109D01*
X124410000Y-81010109D01*
X125260000Y-81010109D01*
X125260000Y-81049891D01*
X125275224Y-81086645D01*
X125303355Y-81114776D01*
X125340109Y-81130000D01*
X125379891Y-81130000D01*
X125416645Y-81114776D01*
X125444776Y-81086645D01*
X125460000Y-81049891D01*
X125460000Y-81010109D01*
X126660000Y-81010109D01*
X126660000Y-81049891D01*
X126675224Y-81086645D01*
X126703355Y-81114776D01*
X126740109Y-81130000D01*
X126779891Y-81130000D01*
X126816645Y-81114776D01*
X126844776Y-81086645D01*
X126860000Y-81049891D01*
X126860000Y-81010109D01*
X126844776Y-80973355D01*
X126816645Y-80945224D01*
X126779891Y-80930000D01*
X126740109Y-80930000D01*
X126703355Y-80945224D01*
X126675224Y-80973355D01*
X126660000Y-81010109D01*
X125460000Y-81010109D01*
X125444776Y-80973355D01*
X125416645Y-80945224D01*
X125379891Y-80930000D01*
X125340109Y-80930000D01*
X125303355Y-80945224D01*
X125275224Y-80973355D01*
X125260000Y-81010109D01*
X124410000Y-81010109D01*
X124410000Y-80780000D01*
X124910000Y-80780000D01*
X125810000Y-80780000D01*
X126310000Y-80780000D01*
X127210000Y-80780000D01*
X127710000Y-80780000D01*
X128410000Y-80780000D01*
X128410000Y-80532172D01*
X128409999Y-80532155D01*
X128403598Y-80472627D01*
X128403596Y-80472620D01*
X128353354Y-80337913D01*
X128353350Y-80337906D01*
X128267190Y-80222812D01*
X128267187Y-80222809D01*
X128152093Y-80136649D01*
X128152086Y-80136645D01*
X128017379Y-80086403D01*
X128017372Y-80086401D01*
X127957844Y-80080000D01*
X127710000Y-80080000D01*
X127710000Y-80780000D01*
X127210000Y-80780000D01*
X127210000Y-80080000D01*
X126962155Y-80080000D01*
X126902627Y-80086401D01*
X126902616Y-80086403D01*
X126803332Y-80123434D01*
X126733640Y-80128418D01*
X126716668Y-80123434D01*
X126617383Y-80086403D01*
X126617372Y-80086401D01*
X126557844Y-80080000D01*
X126310000Y-80080000D01*
X126310000Y-80780000D01*
X125810000Y-80780000D01*
X125810000Y-80080000D01*
X125562155Y-80080000D01*
X125502627Y-80086401D01*
X125502616Y-80086403D01*
X125403332Y-80123434D01*
X125333640Y-80128418D01*
X125316668Y-80123434D01*
X125217383Y-80086403D01*
X125217372Y-80086401D01*
X125157844Y-80080000D01*
X124910000Y-80080000D01*
X124910000Y-80780000D01*
X124410000Y-80780000D01*
X124410000Y-80080000D01*
X124396819Y-80066819D01*
X124363334Y-80005496D01*
X124360500Y-79979138D01*
X124360500Y-75454243D01*
X124380185Y-75387204D01*
X124386126Y-75378754D01*
X124390511Y-75373037D01*
X124390519Y-75373030D01*
X124469577Y-75236099D01*
X124510501Y-75083371D01*
X124510501Y-74925257D01*
X124469577Y-74772529D01*
X124390519Y-74635598D01*
X124278716Y-74523795D01*
X123967076Y-74212155D01*
X135060000Y-74212155D01*
X135060000Y-74460000D01*
X136060000Y-74460000D01*
X136060000Y-73760000D01*
X135512155Y-73760000D01*
X135452627Y-73766401D01*
X135452620Y-73766403D01*
X135317913Y-73816645D01*
X135317906Y-73816649D01*
X135202812Y-73902809D01*
X135202809Y-73902812D01*
X135116649Y-74017906D01*
X135116645Y-74017913D01*
X135066403Y-74152620D01*
X135066401Y-74152627D01*
X135060000Y-74212155D01*
X123967076Y-74212155D01*
X123336819Y-73581898D01*
X123303334Y-73520575D01*
X123300500Y-73494217D01*
X123300500Y-66127055D01*
X123320185Y-66060016D01*
X123372989Y-66014261D01*
X123440686Y-66004116D01*
X123561330Y-66020000D01*
X124010000Y-66020000D01*
X124510000Y-66020000D01*
X124958671Y-66020000D01*
X125074019Y-66004814D01*
X125074024Y-66004812D01*
X125217541Y-65945366D01*
X125217542Y-65945366D01*
X125340792Y-65850792D01*
X125435366Y-65727542D01*
X125435366Y-65727541D01*
X125494812Y-65584024D01*
X125494814Y-65584019D01*
X125510000Y-65468670D01*
X125510000Y-65320000D01*
X124510000Y-65320000D01*
X124510000Y-66020000D01*
X124010000Y-66020000D01*
X124010000Y-64820000D01*
X124510000Y-64820000D01*
X125510000Y-64820000D01*
X125510000Y-64671329D01*
X125494814Y-64555980D01*
X125494812Y-64555975D01*
X125435366Y-64412458D01*
X125435366Y-64412457D01*
X125340792Y-64289207D01*
X125217541Y-64194633D01*
X125074024Y-64135187D01*
X125074019Y-64135185D01*
X124958671Y-64120000D01*
X124510000Y-64120000D01*
X124510000Y-64820000D01*
X124010000Y-64820000D01*
X124010000Y-64120000D01*
X123561329Y-64120000D01*
X123440685Y-64135883D01*
X123371650Y-64125117D01*
X123319394Y-64078737D01*
X123300500Y-64012944D01*
X123300500Y-63630096D01*
X123320185Y-63563057D01*
X123336815Y-63542419D01*
X124122416Y-62756817D01*
X124183739Y-62723333D01*
X124210097Y-62720499D01*
X124958703Y-62720499D01*
X125074142Y-62705303D01*
X125074146Y-62705301D01*
X125074151Y-62705301D01*
X125217798Y-62645800D01*
X125341149Y-62551149D01*
X125435800Y-62427798D01*
X125495301Y-62284151D01*
X125510500Y-62168701D01*
X125510499Y-61371300D01*
X125510499Y-61371298D01*
X125510499Y-61371296D01*
X125495303Y-61255857D01*
X125495301Y-61255850D01*
X125495301Y-61255849D01*
X125440895Y-61124502D01*
X125435801Y-61112204D01*
X125432510Y-61106504D01*
X125416035Y-61038604D01*
X125438885Y-60972576D01*
X125493805Y-60929384D01*
X125539895Y-60920500D01*
X129506000Y-60920500D01*
X129573039Y-60940185D01*
G37*
%TD.AperFunction*%
%TA.AperFunction,Conductor*%
G36*
X141010976Y-57830185D02*
G01*
X141056731Y-57882989D01*
X141067295Y-57947104D01*
X141067000Y-57949986D01*
X141067000Y-58950001D01*
X141067001Y-58950019D01*
X141077500Y-59052796D01*
X141077502Y-59052804D01*
X141083426Y-59070682D01*
X141085826Y-59140510D01*
X141053400Y-59197363D01*
X138748289Y-61502474D01*
X138686966Y-61535959D01*
X138617274Y-61530975D01*
X138582248Y-61510895D01*
X138483412Y-61430305D01*
X138483408Y-61430303D01*
X138483407Y-61430302D01*
X138303049Y-61336091D01*
X138303048Y-61336090D01*
X138303045Y-61336089D01*
X138166456Y-61297007D01*
X138107418Y-61280114D01*
X138107415Y-61280113D01*
X138107413Y-61280113D01*
X138041102Y-61274217D01*
X137988037Y-61269500D01*
X137988032Y-61269500D01*
X136871971Y-61269500D01*
X136871965Y-61269500D01*
X136871964Y-61269501D01*
X136860316Y-61270536D01*
X136752584Y-61280113D01*
X136556954Y-61336089D01*
X136489547Y-61371300D01*
X136376593Y-61430302D01*
X136376591Y-61430303D01*
X136376590Y-61430304D01*
X136218890Y-61558890D01*
X136090304Y-61716590D01*
X136090302Y-61716593D01*
X136067008Y-61761187D01*
X135996089Y-61896954D01*
X135965604Y-62003497D01*
X135941178Y-62088866D01*
X135940114Y-62092583D01*
X135940113Y-62092586D01*
X135929500Y-62211966D01*
X135929500Y-62945500D01*
X135909815Y-63012539D01*
X135857011Y-63058294D01*
X135805500Y-63069500D01*
X132879098Y-63069500D01*
X132812059Y-63049815D01*
X132766304Y-62997011D01*
X132756360Y-62927853D01*
X132785385Y-62864297D01*
X132791417Y-62857819D01*
X132828532Y-62820704D01*
X132910520Y-62738716D01*
X132989577Y-62601784D01*
X133030501Y-62449057D01*
X133030501Y-62290942D01*
X133030501Y-62283347D01*
X133030500Y-62283329D01*
X133030500Y-60804466D01*
X133030501Y-60804453D01*
X133030501Y-60636350D01*
X133028547Y-60629056D01*
X132989577Y-60483622D01*
X132941465Y-60400288D01*
X132910524Y-60346696D01*
X132910518Y-60346688D01*
X132403311Y-59839481D01*
X132403310Y-59839480D01*
X132316498Y-59789360D01*
X132316498Y-59789359D01*
X132316494Y-59789358D01*
X132266379Y-59760423D01*
X132113651Y-59719499D01*
X131955537Y-59719499D01*
X131947941Y-59719499D01*
X131947925Y-59719500D01*
X120896670Y-59719500D01*
X120896654Y-59719499D01*
X120889058Y-59719499D01*
X120730943Y-59719499D01*
X120654579Y-59739961D01*
X120578214Y-59760423D01*
X120578209Y-59760426D01*
X120441290Y-59839475D01*
X120441282Y-59839481D01*
X119497582Y-60783181D01*
X119436259Y-60816666D01*
X119409901Y-60819500D01*
X118661296Y-60819500D01*
X118545857Y-60834696D01*
X118545848Y-60834699D01*
X118402205Y-60894198D01*
X118402202Y-60894199D01*
X118402202Y-60894200D01*
X118278851Y-60988851D01*
X118184200Y-61112202D01*
X118184199Y-61112204D01*
X118179253Y-61118650D01*
X118177017Y-61116934D01*
X118136358Y-61155711D01*
X118079528Y-61169500D01*
X117259766Y-61169500D01*
X117192727Y-61149815D01*
X117190875Y-61148602D01*
X117059185Y-61060609D01*
X117059172Y-61060602D01*
X116913501Y-61000264D01*
X116913489Y-61000261D01*
X116758845Y-60969500D01*
X116758842Y-60969500D01*
X116601158Y-60969500D01*
X116601155Y-60969500D01*
X116446510Y-61000261D01*
X116446498Y-61000264D01*
X116300827Y-61060602D01*
X116300814Y-61060609D01*
X116169711Y-61148210D01*
X116169707Y-61148213D01*
X116058213Y-61259707D01*
X116058210Y-61259711D01*
X115970609Y-61390814D01*
X115970602Y-61390827D01*
X115910264Y-61536498D01*
X115910261Y-61536510D01*
X115879500Y-61691153D01*
X115879500Y-61848846D01*
X115910261Y-62003489D01*
X115910264Y-62003501D01*
X115970602Y-62149172D01*
X115970609Y-62149185D01*
X116058210Y-62280288D01*
X116058213Y-62280292D01*
X116169707Y-62391786D01*
X116169711Y-62391789D01*
X116300814Y-62479390D01*
X116300827Y-62479397D01*
X116357048Y-62502684D01*
X116446503Y-62539737D01*
X116601153Y-62570499D01*
X116601156Y-62570500D01*
X116601158Y-62570500D01*
X116758844Y-62570500D01*
X116758845Y-62570499D01*
X116913497Y-62539737D01*
X117026166Y-62493067D01*
X117059172Y-62479397D01*
X117059172Y-62479396D01*
X117059179Y-62479394D01*
X117096563Y-62454415D01*
X117190875Y-62391398D01*
X117257553Y-62370520D01*
X117259766Y-62370500D01*
X118079528Y-62370500D01*
X118146567Y-62390185D01*
X118177536Y-62422667D01*
X118179253Y-62421350D01*
X118184198Y-62427794D01*
X118184200Y-62427798D01*
X118278851Y-62551149D01*
X118402202Y-62645800D01*
X118545849Y-62705301D01*
X118661299Y-62720500D01*
X120058700Y-62720499D01*
X120058703Y-62720499D01*
X120174142Y-62705303D01*
X120174146Y-62705301D01*
X120174151Y-62705301D01*
X120317798Y-62645800D01*
X120441149Y-62551149D01*
X120535800Y-62427798D01*
X120595301Y-62284151D01*
X120610500Y-62168701D01*
X120610499Y-61420096D01*
X120630183Y-61353058D01*
X120646818Y-61332416D01*
X120723378Y-61255857D01*
X120918633Y-61060602D01*
X121022417Y-60956819D01*
X121083740Y-60923334D01*
X121110098Y-60920500D01*
X122980105Y-60920500D01*
X123047144Y-60940185D01*
X123092899Y-60992989D01*
X123102843Y-61062147D01*
X123087490Y-61106504D01*
X123084198Y-61112204D01*
X123024699Y-61255848D01*
X123024698Y-61255850D01*
X123009500Y-61371298D01*
X123009500Y-62119901D01*
X122989815Y-62186940D01*
X122973181Y-62207582D01*
X122331286Y-62849478D01*
X122219481Y-62961282D01*
X122219479Y-62961284D01*
X122209946Y-62977797D01*
X122180096Y-63029500D01*
X122140423Y-63098215D01*
X122099499Y-63250943D01*
X122099499Y-63250945D01*
X122099499Y-63419046D01*
X122099500Y-63419059D01*
X122099500Y-73707644D01*
X122099499Y-73707662D01*
X122099499Y-73873368D01*
X122099498Y-73873368D01*
X122140423Y-74026099D01*
X122169358Y-74076214D01*
X122169359Y-74076218D01*
X122169360Y-74076218D01*
X122219479Y-74163028D01*
X122219481Y-74163031D01*
X122338349Y-74281899D01*
X122338355Y-74281904D01*
X123123180Y-75066729D01*
X123156665Y-75128052D01*
X123159499Y-75154410D01*
X123159499Y-75243360D01*
X123159500Y-75243373D01*
X123159500Y-89538330D01*
X123159499Y-89538348D01*
X123159499Y-89660163D01*
X123139814Y-89727202D01*
X123087010Y-89772957D01*
X123059691Y-89781780D01*
X122916508Y-89810261D01*
X122916498Y-89810264D01*
X122770827Y-89870602D01*
X122770814Y-89870609D01*
X122639125Y-89958602D01*
X122572447Y-89979480D01*
X122570234Y-89979500D01*
X121601670Y-89979500D01*
X121601654Y-89979499D01*
X121594058Y-89979499D01*
X121435943Y-89979499D01*
X121359579Y-89999961D01*
X121283214Y-90020423D01*
X121283209Y-90020426D01*
X121146290Y-90099475D01*
X121146282Y-90099481D01*
X120272180Y-90973584D01*
X120210857Y-91007069D01*
X120141165Y-91002085D01*
X120085232Y-90960213D01*
X120060815Y-90894749D01*
X120060499Y-90885903D01*
X120060499Y-90722129D01*
X120060498Y-90722123D01*
X120060326Y-90720527D01*
X120054091Y-90662517D01*
X120041340Y-90628332D01*
X120036357Y-90558642D01*
X120041340Y-90541669D01*
X120054091Y-90507483D01*
X120060500Y-90447873D01*
X120060499Y-89452128D01*
X120054091Y-89392517D01*
X120041340Y-89358332D01*
X120036357Y-89288642D01*
X120041340Y-89271669D01*
X120054091Y-89237483D01*
X120060500Y-89177873D01*
X120060499Y-88182128D01*
X120054091Y-88122517D01*
X120041340Y-88088332D01*
X120036357Y-88018642D01*
X120041340Y-88001669D01*
X120054091Y-87967483D01*
X120060500Y-87907873D01*
X120060499Y-86912128D01*
X120054091Y-86852517D01*
X120041340Y-86818332D01*
X120036357Y-86748642D01*
X120041340Y-86731669D01*
X120054091Y-86697483D01*
X120060500Y-86637873D01*
X120060499Y-85642128D01*
X120054091Y-85582517D01*
X120041340Y-85548332D01*
X120036357Y-85478642D01*
X120041340Y-85461669D01*
X120054091Y-85427483D01*
X120060500Y-85367873D01*
X120060499Y-84372128D01*
X120056804Y-84337753D01*
X120069211Y-84268994D01*
X120116822Y-84217857D01*
X120180094Y-84200500D01*
X120987059Y-84200500D01*
X121054098Y-84220185D01*
X121074740Y-84236819D01*
X121179707Y-84341786D01*
X121179711Y-84341789D01*
X121310814Y-84429390D01*
X121310827Y-84429397D01*
X121417800Y-84473706D01*
X121456503Y-84489737D01*
X121611153Y-84520499D01*
X121611156Y-84520500D01*
X121611158Y-84520500D01*
X121768844Y-84520500D01*
X121768845Y-84520499D01*
X121923497Y-84489737D01*
X122069179Y-84429394D01*
X122200289Y-84341789D01*
X122311789Y-84230289D01*
X122399394Y-84099179D01*
X122459737Y-83953497D01*
X122490500Y-83798842D01*
X122490500Y-83641158D01*
X122490500Y-83641155D01*
X122490499Y-83641153D01*
X122459738Y-83486510D01*
X122459737Y-83486503D01*
X122435982Y-83429153D01*
X122399397Y-83340827D01*
X122399390Y-83340814D01*
X122311789Y-83209711D01*
X122311786Y-83209707D01*
X122200292Y-83098213D01*
X122200288Y-83098210D01*
X122069185Y-83010609D01*
X122069172Y-83010602D01*
X121923501Y-82950264D01*
X121923489Y-82950261D01*
X121768845Y-82919500D01*
X121768842Y-82919500D01*
X121611158Y-82919500D01*
X121611155Y-82919500D01*
X121456511Y-82950260D01*
X121456501Y-82950263D01*
X121360421Y-82990061D01*
X121312969Y-82999500D01*
X120180094Y-82999500D01*
X120113055Y-82979815D01*
X120067300Y-82927011D01*
X120056804Y-82862246D01*
X120060500Y-82827873D01*
X120060499Y-81832128D01*
X120054091Y-81772517D01*
X120041340Y-81738332D01*
X120036357Y-81668642D01*
X120041340Y-81651669D01*
X120054091Y-81617483D01*
X120060500Y-81557873D01*
X120060499Y-80562128D01*
X120054091Y-80502517D01*
X120041340Y-80468332D01*
X120036357Y-80398642D01*
X120041338Y-80381672D01*
X120054091Y-80347483D01*
X120060500Y-80287873D01*
X120060499Y-79292128D01*
X120054091Y-79232517D01*
X120041340Y-79198332D01*
X120036357Y-79128642D01*
X120041338Y-79111672D01*
X120054091Y-79077483D01*
X120060500Y-79017873D01*
X120060499Y-78022128D01*
X120054091Y-77962517D01*
X120041340Y-77928332D01*
X120036357Y-77858642D01*
X120041338Y-77841672D01*
X120054091Y-77807483D01*
X120060500Y-77747873D01*
X120060499Y-76752128D01*
X120054091Y-76692517D01*
X120041340Y-76658332D01*
X120036357Y-76588642D01*
X120041340Y-76571669D01*
X120054091Y-76537483D01*
X120060500Y-76477873D01*
X120060499Y-75482128D01*
X120054091Y-75422517D01*
X120041073Y-75387616D01*
X120036090Y-75317926D01*
X120041075Y-75300949D01*
X120053597Y-75267375D01*
X120053598Y-75267372D01*
X120059999Y-75207844D01*
X120060000Y-75207827D01*
X120060000Y-74960000D01*
X117560000Y-74960000D01*
X117560000Y-75207839D01*
X117563700Y-75242242D01*
X117551296Y-75311002D01*
X117503687Y-75362140D01*
X117440411Y-75379500D01*
X116910462Y-75379500D01*
X116869528Y-75371358D01*
X116869324Y-75372031D01*
X116863500Y-75370264D01*
X116863497Y-75370263D01*
X116863492Y-75370262D01*
X116863489Y-75370261D01*
X116708845Y-75339500D01*
X116708842Y-75339500D01*
X116551158Y-75339500D01*
X116551155Y-75339500D01*
X116396510Y-75370261D01*
X116396498Y-75370264D01*
X116250827Y-75430602D01*
X116250814Y-75430609D01*
X116119711Y-75518210D01*
X116119707Y-75518213D01*
X116008213Y-75629707D01*
X116008210Y-75629711D01*
X115920609Y-75760814D01*
X115920602Y-75760827D01*
X115860264Y-75906498D01*
X115860261Y-75906510D01*
X115829500Y-76061153D01*
X115829500Y-76218846D01*
X115860261Y-76373489D01*
X115860264Y-76373501D01*
X115920602Y-76519172D01*
X115920609Y-76519185D01*
X116008210Y-76650288D01*
X116008213Y-76650292D01*
X116010080Y-76652159D01*
X116010745Y-76653377D01*
X116012076Y-76654999D01*
X116011768Y-76655251D01*
X116043565Y-76713482D01*
X116038581Y-76783174D01*
X116025501Y-76808730D01*
X115950612Y-76920809D01*
X115950602Y-76920827D01*
X115890264Y-77066498D01*
X115890261Y-77066510D01*
X115859500Y-77221153D01*
X115859500Y-77378846D01*
X115890261Y-77533489D01*
X115890264Y-77533501D01*
X115950602Y-77679172D01*
X115950609Y-77679185D01*
X116038210Y-77810288D01*
X116038213Y-77810292D01*
X116085240Y-77857319D01*
X116118725Y-77918642D01*
X116113741Y-77988334D01*
X116085240Y-78032681D01*
X116038213Y-78079707D01*
X116038210Y-78079711D01*
X115950609Y-78210814D01*
X115950602Y-78210827D01*
X115890264Y-78356498D01*
X115890261Y-78356510D01*
X115859500Y-78511153D01*
X115859500Y-78668846D01*
X115890261Y-78823489D01*
X115890264Y-78823501D01*
X115950602Y-78969172D01*
X115950609Y-78969185D01*
X116038210Y-79100288D01*
X116038213Y-79100292D01*
X116050240Y-79112319D01*
X116083725Y-79173642D01*
X116078741Y-79243334D01*
X116050240Y-79287681D01*
X115938213Y-79399707D01*
X115938210Y-79399711D01*
X115850609Y-79530814D01*
X115850602Y-79530827D01*
X115839061Y-79558692D01*
X115795220Y-79613096D01*
X115728926Y-79635161D01*
X115661227Y-79617882D01*
X115613616Y-79566745D01*
X115600500Y-79511240D01*
X115600500Y-78372416D01*
X115600500Y-78372414D01*
X115596696Y-78358215D01*
X115559577Y-78219686D01*
X115519043Y-78149480D01*
X115519043Y-78149478D01*
X115480524Y-78082761D01*
X115480521Y-78082757D01*
X115480520Y-78082755D01*
X115368716Y-77970951D01*
X115368715Y-77970950D01*
X115364385Y-77966620D01*
X115364374Y-77966610D01*
X115142618Y-77744854D01*
X115109133Y-77683531D01*
X115114117Y-77613839D01*
X115115738Y-77609720D01*
X115159737Y-77503497D01*
X115190500Y-77348842D01*
X115190500Y-77191158D01*
X115190500Y-77191155D01*
X115190499Y-77191153D01*
X115172268Y-77099500D01*
X115159737Y-77036503D01*
X115111823Y-76920827D01*
X115099397Y-76890827D01*
X115099390Y-76890814D01*
X115011789Y-76759711D01*
X115011786Y-76759707D01*
X114900292Y-76648213D01*
X114900288Y-76648210D01*
X114769185Y-76560609D01*
X114769172Y-76560602D01*
X114623501Y-76500264D01*
X114623491Y-76500261D01*
X114468149Y-76469361D01*
X114406238Y-76436976D01*
X114404660Y-76435425D01*
X112181390Y-74212155D01*
X117560000Y-74212155D01*
X117560000Y-74460000D01*
X118560000Y-74460000D01*
X119060000Y-74460000D01*
X120060000Y-74460000D01*
X120060000Y-74212172D01*
X120059999Y-74212155D01*
X120053598Y-74152627D01*
X120053596Y-74152620D01*
X120003354Y-74017913D01*
X120003350Y-74017906D01*
X119917190Y-73902812D01*
X119917187Y-73902809D01*
X119802093Y-73816649D01*
X119802086Y-73816645D01*
X119667379Y-73766403D01*
X119667372Y-73766401D01*
X119607844Y-73760000D01*
X119060000Y-73760000D01*
X119060000Y-74460000D01*
X118560000Y-74460000D01*
X118560000Y-73760000D01*
X118012155Y-73760000D01*
X117952627Y-73766401D01*
X117952620Y-73766403D01*
X117817913Y-73816645D01*
X117817906Y-73816649D01*
X117702812Y-73902809D01*
X117702809Y-73902812D01*
X117616649Y-74017906D01*
X117616645Y-74017913D01*
X117566403Y-74152620D01*
X117566401Y-74152627D01*
X117560000Y-74212155D01*
X112181390Y-74212155D01*
X107806819Y-69837584D01*
X107773334Y-69776261D01*
X107770500Y-69749903D01*
X107770500Y-64671298D01*
X118109500Y-64671298D01*
X118109500Y-65468703D01*
X118124696Y-65584142D01*
X118124699Y-65584151D01*
X118184093Y-65727541D01*
X118184200Y-65727798D01*
X118278851Y-65851149D01*
X118402202Y-65945800D01*
X118545849Y-66005301D01*
X118661299Y-66020500D01*
X120058700Y-66020499D01*
X120058703Y-66020499D01*
X120174142Y-66005303D01*
X120174146Y-66005301D01*
X120174151Y-66005301D01*
X120317798Y-65945800D01*
X120441149Y-65851149D01*
X120535800Y-65727798D01*
X120595301Y-65584151D01*
X120610500Y-65468701D01*
X120610499Y-64671300D01*
X120610499Y-64671298D01*
X120610499Y-64671296D01*
X120595303Y-64555857D01*
X120595301Y-64555850D01*
X120595301Y-64555849D01*
X120535800Y-64412202D01*
X120441149Y-64288851D01*
X120317798Y-64194200D01*
X120317794Y-64194198D01*
X120174151Y-64134699D01*
X120174149Y-64134698D01*
X120058701Y-64119500D01*
X118661296Y-64119500D01*
X118545857Y-64134696D01*
X118545848Y-64134699D01*
X118402205Y-64194198D01*
X118402202Y-64194199D01*
X118402202Y-64194200D01*
X118278851Y-64288851D01*
X118186112Y-64409711D01*
X118184198Y-64412205D01*
X118124699Y-64555848D01*
X118124698Y-64555850D01*
X118109500Y-64671298D01*
X107770500Y-64671298D01*
X107770500Y-61904411D01*
X107790185Y-61837372D01*
X107806819Y-61816730D01*
X111776730Y-57846819D01*
X111838053Y-57813334D01*
X111864411Y-57810500D01*
X140943937Y-57810500D01*
X141010976Y-57830185D01*
G37*
%TD.AperFunction*%
%TD*%
%TA.AperFunction,NonConductor*%
G36*
X143035834Y-59370548D02*
G01*
X143080181Y-59399049D01*
X143173844Y-59492712D01*
X143323166Y-59584814D01*
X143344501Y-59591883D01*
X143401946Y-59631653D01*
X143428771Y-59696167D01*
X143429500Y-59709590D01*
X143429500Y-60249902D01*
X143409815Y-60316941D01*
X143393181Y-60337583D01*
X142642582Y-61088181D01*
X142581259Y-61121666D01*
X142554901Y-61124500D01*
X142059998Y-61124500D01*
X142059980Y-61124501D01*
X141957203Y-61135000D01*
X141957200Y-61135001D01*
X141790668Y-61190185D01*
X141790663Y-61190187D01*
X141641342Y-61282289D01*
X141517289Y-61406342D01*
X141425187Y-61555663D01*
X141425185Y-61555668D01*
X141389121Y-61664504D01*
X141349348Y-61721949D01*
X141284833Y-61748772D01*
X141271415Y-61749500D01*
X140586669Y-61749500D01*
X140586653Y-61749499D01*
X140579057Y-61749499D01*
X140499097Y-61749499D01*
X140432058Y-61729814D01*
X140386303Y-61677010D01*
X140376359Y-61607852D01*
X140405384Y-61544296D01*
X140411416Y-61537818D01*
X142262416Y-59686818D01*
X142323739Y-59653333D01*
X142350097Y-59650499D01*
X142392502Y-59650499D01*
X142392508Y-59650499D01*
X142495297Y-59639999D01*
X142661834Y-59584814D01*
X142811156Y-59492712D01*
X142904819Y-59399049D01*
X142966142Y-59365564D01*
X143035834Y-59370548D01*
G37*
%TD.AperFunction*%
%TA.AperFunction,NonConductor*%
G36*
X142865137Y-67925567D02*
G01*
X142916022Y-67973447D01*
X142932943Y-68041236D01*
X142910528Y-68107413D01*
X142877939Y-68139258D01*
X142789707Y-68198213D01*
X142678213Y-68309707D01*
X142678210Y-68309711D01*
X142590609Y-68440814D01*
X142590602Y-68440827D01*
X142530264Y-68586498D01*
X142530261Y-68586508D01*
X142499361Y-68741849D01*
X142466976Y-68803760D01*
X142465425Y-68805338D01*
X142251286Y-69019478D01*
X142139481Y-69131282D01*
X142139479Y-69131284D01*
X142128826Y-69149737D01*
X142111065Y-69180501D01*
X142086115Y-69223716D01*
X142064402Y-69261324D01*
X142060423Y-69268215D01*
X142019499Y-69420943D01*
X142019499Y-69420945D01*
X142019499Y-69450202D01*
X141999814Y-69517241D01*
X141960596Y-69555740D01*
X141901347Y-69592285D01*
X141901343Y-69592288D01*
X141777288Y-69716343D01*
X141777285Y-69716347D01*
X141706365Y-69831326D01*
X141654417Y-69878051D01*
X141585454Y-69889272D01*
X141521373Y-69861429D01*
X141513146Y-69853910D01*
X140976668Y-69317433D01*
X140943183Y-69256110D01*
X140948167Y-69186419D01*
X140990038Y-69130485D01*
X141016892Y-69115193D01*
X141079179Y-69089394D01*
X141210289Y-69001789D01*
X141321789Y-68890289D01*
X141409394Y-68759179D01*
X141469737Y-68613497D01*
X141480773Y-68558012D01*
X141513155Y-68496106D01*
X141514652Y-68494581D01*
X142059138Y-67950095D01*
X142120459Y-67916612D01*
X142159421Y-67914420D01*
X142169991Y-67915500D01*
X142770008Y-67915499D01*
X142796445Y-67912798D01*
X142865137Y-67925567D01*
G37*
%TD.AperFunction*%
%TA.AperFunction,NonConductor*%
G36*
X180084854Y-60530185D02*
G01*
X180118131Y-60561612D01*
X180165586Y-60626928D01*
X180165588Y-60626930D01*
X180273127Y-60734469D01*
X180306612Y-60795792D01*
X180301628Y-60865484D01*
X180259756Y-60921417D01*
X180250544Y-60927688D01*
X180186344Y-60967287D01*
X180062289Y-61091342D01*
X179970187Y-61240663D01*
X179970185Y-61240668D01*
X179951516Y-61297007D01*
X179915001Y-61407203D01*
X179915001Y-61407204D01*
X179915000Y-61407204D01*
X179904500Y-61509983D01*
X179904500Y-62310001D01*
X179904502Y-62310022D01*
X179910214Y-62365945D01*
X179897443Y-62434638D01*
X179874537Y-62466226D01*
X171457583Y-70883181D01*
X171396260Y-70916666D01*
X171369902Y-70919500D01*
X170844500Y-70919500D01*
X170777461Y-70899815D01*
X170731706Y-70847011D01*
X170720500Y-70795500D01*
X170720500Y-69434412D01*
X170740185Y-69367373D01*
X170756819Y-69346731D01*
X179556731Y-60546819D01*
X179618054Y-60513334D01*
X179644412Y-60510500D01*
X180017815Y-60510500D01*
X180084854Y-60530185D01*
G37*
%TD.AperFunction*%
%TA.AperFunction,NonConductor*%
G36*
X115805703Y-80215046D02*
G01*
X115839062Y-80261308D01*
X115850605Y-80289178D01*
X115850609Y-80289185D01*
X115938210Y-80420288D01*
X115938213Y-80420292D01*
X116025240Y-80507319D01*
X116058725Y-80568642D01*
X116053741Y-80638334D01*
X116025240Y-80682681D01*
X115978213Y-80729707D01*
X115978210Y-80729711D01*
X115890609Y-80860814D01*
X115890602Y-80860827D01*
X115839061Y-80985261D01*
X115795220Y-81039665D01*
X115728926Y-81061730D01*
X115661227Y-81044451D01*
X115613616Y-80993314D01*
X115600500Y-80937809D01*
X115600500Y-80308759D01*
X115620185Y-80241720D01*
X115672989Y-80195965D01*
X115742147Y-80186021D01*
X115805703Y-80215046D01*
G37*
%TD.AperFunction*%
%TA.AperFunction,NonConductor*%
G36*
X115805703Y-81448477D02*
G01*
X115839061Y-81494738D01*
X115890602Y-81619172D01*
X115890609Y-81619185D01*
X115978210Y-81750288D01*
X115978213Y-81750292D01*
X116056102Y-81828181D01*
X116089587Y-81889504D01*
X116084603Y-81959196D01*
X116071523Y-81984753D01*
X115980609Y-82120814D01*
X115980602Y-82120827D01*
X115920264Y-82266498D01*
X115920261Y-82266510D01*
X115889500Y-82421153D01*
X115889500Y-82578846D01*
X115920261Y-82733489D01*
X115920264Y-82733501D01*
X115980602Y-82879172D01*
X115980609Y-82879185D01*
X116068210Y-83010288D01*
X116068213Y-83010292D01*
X116179707Y-83121786D01*
X116179711Y-83121789D01*
X116310814Y-83209390D01*
X116310827Y-83209397D01*
X116379001Y-83237635D01*
X116456503Y-83269737D01*
X116611153Y-83300499D01*
X116611156Y-83300500D01*
X116611158Y-83300500D01*
X116768844Y-83300500D01*
X116768845Y-83300499D01*
X116923497Y-83269737D01*
X117068414Y-83209711D01*
X117069172Y-83209397D01*
X117069172Y-83209396D01*
X117069179Y-83209394D01*
X117200289Y-83121789D01*
X117311789Y-83010289D01*
X117328280Y-82985609D01*
X117381892Y-82940804D01*
X117431382Y-82930500D01*
X117439906Y-82930500D01*
X117506945Y-82950185D01*
X117552700Y-83002989D01*
X117563195Y-83067752D01*
X117559500Y-83102127D01*
X117559500Y-83102131D01*
X117559500Y-83102132D01*
X117559500Y-84097870D01*
X117559501Y-84097876D01*
X117563196Y-84132247D01*
X117550789Y-84201006D01*
X117503178Y-84252143D01*
X117439906Y-84269500D01*
X117142941Y-84269500D01*
X117075902Y-84249815D01*
X117055260Y-84233181D01*
X117040292Y-84218213D01*
X117040288Y-84218210D01*
X116909185Y-84130609D01*
X116909172Y-84130602D01*
X116763501Y-84070264D01*
X116763489Y-84070261D01*
X116608845Y-84039500D01*
X116608842Y-84039500D01*
X116451158Y-84039500D01*
X116451155Y-84039500D01*
X116296510Y-84070261D01*
X116296498Y-84070264D01*
X116150827Y-84130602D01*
X116150814Y-84130609D01*
X116019711Y-84218210D01*
X116019707Y-84218213D01*
X115908213Y-84329707D01*
X115908210Y-84329711D01*
X115827602Y-84450349D01*
X115773989Y-84495154D01*
X115704664Y-84503861D01*
X115641637Y-84473706D01*
X115604918Y-84414263D01*
X115600500Y-84381458D01*
X115600500Y-81542190D01*
X115620185Y-81475151D01*
X115672989Y-81429396D01*
X115742147Y-81419452D01*
X115805703Y-81448477D01*
G37*
%TD.AperFunction*%
%TA.AperFunction,NonConductor*%
G36*
X115805703Y-85204828D02*
G01*
X115827602Y-85229650D01*
X115908210Y-85350288D01*
X115908213Y-85350292D01*
X116019707Y-85461786D01*
X116019711Y-85461789D01*
X116150814Y-85549390D01*
X116150827Y-85549397D01*
X116296498Y-85609735D01*
X116296503Y-85609737D01*
X116451153Y-85640499D01*
X116451156Y-85640500D01*
X116451158Y-85640500D01*
X116608844Y-85640500D01*
X116608845Y-85640499D01*
X116763497Y-85609737D01*
X116909179Y-85549394D01*
X116995976Y-85491398D01*
X117062653Y-85470520D01*
X117064867Y-85470500D01*
X117439906Y-85470500D01*
X117506945Y-85490185D01*
X117552700Y-85542989D01*
X117563195Y-85607752D01*
X117559500Y-85642127D01*
X117559500Y-85642128D01*
X117559500Y-85642132D01*
X117559500Y-86637870D01*
X117559501Y-86637876D01*
X117566738Y-86705196D01*
X117564073Y-86705482D01*
X117561015Y-86762410D01*
X117520142Y-86819077D01*
X117455120Y-86844650D01*
X117396634Y-86835704D01*
X117383501Y-86830264D01*
X117383489Y-86830261D01*
X117228845Y-86799500D01*
X117228842Y-86799500D01*
X117071158Y-86799500D01*
X117071155Y-86799500D01*
X116916510Y-86830261D01*
X116916498Y-86830264D01*
X116770827Y-86890602D01*
X116770814Y-86890609D01*
X116639711Y-86978210D01*
X116639707Y-86978213D01*
X116528213Y-87089707D01*
X116528210Y-87089711D01*
X116440609Y-87220814D01*
X116440602Y-87220827D01*
X116380264Y-87366498D01*
X116380261Y-87366510D01*
X116349500Y-87521153D01*
X116349500Y-87678846D01*
X116380261Y-87833489D01*
X116380264Y-87833501D01*
X116440602Y-87979172D01*
X116440609Y-87979185D01*
X116528210Y-88110288D01*
X116528213Y-88110292D01*
X116639707Y-88221786D01*
X116639711Y-88221789D01*
X116770814Y-88309390D01*
X116770827Y-88309397D01*
X116916498Y-88369735D01*
X116916503Y-88369737D01*
X116981147Y-88382595D01*
X117071849Y-88400638D01*
X117133760Y-88433023D01*
X117135339Y-88434574D01*
X117523181Y-88822417D01*
X117556666Y-88883740D01*
X117559500Y-88910098D01*
X117559500Y-89177869D01*
X117559501Y-89177876D01*
X117565908Y-89237481D01*
X117578659Y-89271669D01*
X117583642Y-89341361D01*
X117578659Y-89358331D01*
X117565908Y-89392518D01*
X117559501Y-89452116D01*
X117559501Y-89452123D01*
X117559500Y-89452135D01*
X117559500Y-90447870D01*
X117559501Y-90447876D01*
X117565908Y-90507481D01*
X117578659Y-90541669D01*
X117583642Y-90611361D01*
X117578659Y-90628331D01*
X117563199Y-90669784D01*
X117561277Y-90669067D01*
X117531959Y-90720527D01*
X117470041Y-90752899D01*
X117400451Y-90746657D01*
X117358194Y-90718958D01*
X115636819Y-88997583D01*
X115603334Y-88936260D01*
X115600500Y-88909902D01*
X115600500Y-85298541D01*
X115620185Y-85231502D01*
X115672989Y-85185747D01*
X115742147Y-85175803D01*
X115805703Y-85204828D01*
G37*
%TD.AperFunction*%
%TA.AperFunction,NonConductor*%
G36*
X124079133Y-90798815D02*
G01*
X124103542Y-90817777D01*
X124293583Y-91007819D01*
X124327068Y-91069142D01*
X124322084Y-91138834D01*
X124280212Y-91194767D01*
X124214748Y-91219184D01*
X124205902Y-91219500D01*
X123917440Y-91219500D01*
X123850401Y-91199815D01*
X123804646Y-91147011D01*
X123794702Y-91077853D01*
X123814339Y-91026608D01*
X123859389Y-90959187D01*
X123859390Y-90959183D01*
X123859394Y-90959179D01*
X123901302Y-90858003D01*
X123945139Y-90803603D01*
X124011433Y-90781537D01*
X124079133Y-90798815D01*
G37*
%TD.AperFunction*%
%TA.AperFunction,NonConductor*%
G36*
X136077941Y-92190184D02*
G01*
X136123696Y-92242988D01*
X136133640Y-92312146D01*
X136104615Y-92375702D01*
X136098583Y-92382180D01*
X135707180Y-92773584D01*
X135645857Y-92807069D01*
X135576166Y-92802085D01*
X135520232Y-92760214D01*
X135495815Y-92694749D01*
X135495499Y-92685903D01*
X135495499Y-92294499D01*
X135515184Y-92227460D01*
X135567988Y-92181705D01*
X135619495Y-92170499D01*
X136010903Y-92170499D01*
X136077941Y-92190184D01*
G37*
%TD.AperFunction*%
%TA.AperFunction,NonConductor*%
G36*
X119567539Y-92190184D02*
G01*
X119613294Y-92242988D01*
X119624500Y-92294499D01*
X119624500Y-92685903D01*
X119604815Y-92752942D01*
X119552011Y-92798697D01*
X119482853Y-92808641D01*
X119419297Y-92779616D01*
X119412819Y-92773584D01*
X119021415Y-92382180D01*
X118987930Y-92320857D01*
X118992914Y-92251165D01*
X119034786Y-92195232D01*
X119100250Y-92170815D01*
X119109096Y-92170499D01*
X119500500Y-92170499D01*
X119567539Y-92190184D01*
G37*
%TD.AperFunction*%
%TA.AperFunction,NonConductor*%
G36*
X151964942Y-93488185D02*
G01*
X151985584Y-93504819D01*
X151996237Y-93515472D01*
X152029722Y-93576795D01*
X152029160Y-93629522D01*
X152029349Y-93629552D01*
X152029146Y-93630831D01*
X152029133Y-93632087D01*
X152028587Y-93634360D01*
X152002168Y-93801165D01*
X151997500Y-93830639D01*
X151997500Y-94029361D01*
X151999696Y-94043230D01*
X151990741Y-94112522D01*
X151945744Y-94165974D01*
X151878992Y-94186612D01*
X151811678Y-94167886D01*
X151789542Y-94150306D01*
X151319416Y-93680181D01*
X151285931Y-93618858D01*
X151290915Y-93549167D01*
X151332786Y-93493233D01*
X151398251Y-93468816D01*
X151407097Y-93468500D01*
X151897903Y-93468500D01*
X151964942Y-93488185D01*
G37*
%TD.AperFunction*%
%TA.AperFunction,NonConductor*%
G36*
X116661532Y-93305871D02*
G01*
X116707962Y-93335127D01*
X118031546Y-94658711D01*
X118065031Y-94720034D01*
X118060047Y-94789726D01*
X118018175Y-94845659D01*
X118012757Y-94849493D01*
X117999713Y-94858208D01*
X117999707Y-94858213D01*
X117888213Y-94969707D01*
X117888210Y-94969711D01*
X117800609Y-95100814D01*
X117800602Y-95100827D01*
X117740264Y-95246498D01*
X117740261Y-95246510D01*
X117709500Y-95401153D01*
X117709500Y-95558846D01*
X117740261Y-95713489D01*
X117740264Y-95713501D01*
X117800602Y-95859172D01*
X117800609Y-95859185D01*
X117888602Y-95990874D01*
X117909480Y-96057551D01*
X117909500Y-96059765D01*
X117909500Y-96515903D01*
X117889815Y-96582942D01*
X117837011Y-96628697D01*
X117767853Y-96638641D01*
X117704297Y-96609616D01*
X117697819Y-96603584D01*
X116356819Y-95262584D01*
X116323334Y-95201261D01*
X116320500Y-95174903D01*
X116320500Y-93789765D01*
X116340185Y-93722726D01*
X116341398Y-93720874D01*
X116344118Y-93716804D01*
X116429394Y-93589179D01*
X116489737Y-93443497D01*
X116498664Y-93398614D01*
X116531048Y-93336707D01*
X116591763Y-93302132D01*
X116661532Y-93305871D01*
G37*
%TD.AperFunction*%
%TA.AperFunction,NonConductor*%
G36*
X121253327Y-93701338D02*
G01*
X121287517Y-93714091D01*
X121347127Y-93720500D01*
X122342872Y-93720499D01*
X122342874Y-93720498D01*
X122342887Y-93720498D01*
X122375319Y-93717011D01*
X122377244Y-93716804D01*
X122446003Y-93729208D01*
X122497141Y-93776818D01*
X122514500Y-93840093D01*
X122514500Y-93932059D01*
X122494815Y-93999098D01*
X122478181Y-94019740D01*
X122438213Y-94059707D01*
X122438210Y-94059711D01*
X122350609Y-94190814D01*
X122350602Y-94190827D01*
X122290264Y-94336498D01*
X122290261Y-94336510D01*
X122259500Y-94491153D01*
X122259500Y-94648846D01*
X122290261Y-94803489D01*
X122290264Y-94803501D01*
X122350602Y-94949172D01*
X122350609Y-94949185D01*
X122438210Y-95080288D01*
X122438213Y-95080292D01*
X122549707Y-95191786D01*
X122549711Y-95191789D01*
X122680814Y-95279390D01*
X122680827Y-95279397D01*
X122814782Y-95334882D01*
X122826503Y-95339737D01*
X122981153Y-95370499D01*
X122981156Y-95370500D01*
X122981158Y-95370500D01*
X123138844Y-95370500D01*
X123138845Y-95370499D01*
X123293497Y-95339737D01*
X123439179Y-95279394D01*
X123570289Y-95191789D01*
X123570292Y-95191786D01*
X123572819Y-95189260D01*
X123574468Y-95188359D01*
X123574999Y-95187924D01*
X123575081Y-95188024D01*
X123634142Y-95155775D01*
X123703834Y-95160759D01*
X123759767Y-95202631D01*
X123784184Y-95268095D01*
X123784500Y-95276941D01*
X123784500Y-95878330D01*
X123784499Y-95878348D01*
X123784499Y-96044054D01*
X123784498Y-96044054D01*
X123825424Y-96196789D01*
X123825425Y-96196790D01*
X123850358Y-96239974D01*
X123850360Y-96239976D01*
X123892971Y-96313782D01*
X123908986Y-96363625D01*
X123909500Y-96368848D01*
X123940261Y-96523489D01*
X123940264Y-96523501D01*
X124000602Y-96669172D01*
X124000611Y-96669188D01*
X124012617Y-96687157D01*
X124033494Y-96753835D01*
X124015008Y-96821214D01*
X123963029Y-96867904D01*
X123927059Y-96877946D01*
X123927132Y-96878311D01*
X123922334Y-96879265D01*
X123921680Y-96879448D01*
X123921156Y-96879499D01*
X123828232Y-96897983D01*
X123758640Y-96891756D01*
X123703463Y-96848892D01*
X123682424Y-96800557D01*
X123659738Y-96686510D01*
X123659737Y-96686503D01*
X123611216Y-96569361D01*
X123599397Y-96540827D01*
X123599390Y-96540814D01*
X123511789Y-96409711D01*
X123511786Y-96409707D01*
X123400292Y-96298213D01*
X123400288Y-96298210D01*
X123269185Y-96210609D01*
X123269172Y-96210602D01*
X123123501Y-96150264D01*
X123123489Y-96150261D01*
X122968845Y-96119500D01*
X122968842Y-96119500D01*
X122811158Y-96119500D01*
X122810098Y-96119500D01*
X122743059Y-96099815D01*
X122722417Y-96083181D01*
X120571416Y-93932180D01*
X120537931Y-93870857D01*
X120542915Y-93801165D01*
X120584787Y-93745232D01*
X120650251Y-93720815D01*
X120659097Y-93720499D01*
X121072871Y-93720499D01*
X121072872Y-93720499D01*
X121132483Y-93714091D01*
X121166667Y-93701340D01*
X121236358Y-93696357D01*
X121253327Y-93701338D01*
G37*
%TD.AperFunction*%
%TA.AperFunction,NonConductor*%
G36*
X150099941Y-93488185D02*
G01*
X150145696Y-93540989D01*
X150155640Y-93610147D01*
X150126615Y-93673703D01*
X150120583Y-93680181D01*
X146107180Y-97693583D01*
X146045857Y-97727068D01*
X145976165Y-97722084D01*
X145920232Y-97680212D01*
X145895815Y-97614748D01*
X145895499Y-97605902D01*
X145895499Y-96991097D01*
X145915184Y-96924058D01*
X145931818Y-96903416D01*
X149330416Y-93504819D01*
X149391739Y-93471334D01*
X149418097Y-93468500D01*
X150032902Y-93468500D01*
X150099941Y-93488185D01*
G37*
%TD.AperFunction*%
%TA.AperFunction,NonConductor*%
G36*
X133953327Y-93701338D02*
G01*
X133987517Y-93714091D01*
X134047127Y-93720500D01*
X134460903Y-93720499D01*
X134527941Y-93740183D01*
X134573696Y-93792987D01*
X134583640Y-93862146D01*
X134554615Y-93925702D01*
X134548583Y-93932180D01*
X130137584Y-98343181D01*
X130076261Y-98376666D01*
X130049903Y-98379500D01*
X127351670Y-98379500D01*
X127351654Y-98379499D01*
X127344058Y-98379499D01*
X127185943Y-98379499D01*
X127109579Y-98399961D01*
X127033214Y-98420423D01*
X127033209Y-98420426D01*
X126896290Y-98499475D01*
X126896282Y-98499481D01*
X126652582Y-98743181D01*
X126591259Y-98776666D01*
X126564901Y-98779500D01*
X126000097Y-98779500D01*
X125933058Y-98759815D01*
X125912416Y-98743181D01*
X124834573Y-97665337D01*
X124801088Y-97604014D01*
X124800637Y-97601847D01*
X124790908Y-97552938D01*
X124769737Y-97446503D01*
X124764135Y-97432978D01*
X124709397Y-97300827D01*
X124709391Y-97300816D01*
X124697382Y-97282843D01*
X124676505Y-97216166D01*
X124694990Y-97148786D01*
X124746969Y-97102096D01*
X124782940Y-97092055D01*
X124782868Y-97091689D01*
X124787697Y-97090728D01*
X124788340Y-97090549D01*
X124788832Y-97090500D01*
X124788842Y-97090500D01*
X124943497Y-97059737D01*
X125089179Y-96999394D01*
X125220289Y-96911789D01*
X125331789Y-96800289D01*
X125419394Y-96669179D01*
X125479737Y-96523497D01*
X125510500Y-96368842D01*
X125510500Y-96211158D01*
X125510500Y-96211155D01*
X125510499Y-96211153D01*
X125507329Y-96195215D01*
X125479737Y-96056503D01*
X125474582Y-96044057D01*
X125419397Y-95910827D01*
X125419390Y-95910814D01*
X125331789Y-95779711D01*
X125331786Y-95779707D01*
X125220292Y-95668213D01*
X125220288Y-95668210D01*
X125089185Y-95580609D01*
X125089180Y-95580607D01*
X125089179Y-95580606D01*
X125071124Y-95573127D01*
X125062046Y-95569367D01*
X125007643Y-95525525D01*
X124985579Y-95459231D01*
X124985500Y-95454806D01*
X124985500Y-93840093D01*
X125005185Y-93773054D01*
X125057989Y-93727299D01*
X125122754Y-93716804D01*
X125157127Y-93720500D01*
X126152872Y-93720499D01*
X126212483Y-93714091D01*
X126246667Y-93701340D01*
X126316358Y-93696357D01*
X126333327Y-93701338D01*
X126367517Y-93714091D01*
X126427127Y-93720500D01*
X127422872Y-93720499D01*
X127482483Y-93714091D01*
X127516667Y-93701340D01*
X127586358Y-93696357D01*
X127603327Y-93701338D01*
X127637517Y-93714091D01*
X127697127Y-93720500D01*
X128692872Y-93720499D01*
X128752483Y-93714091D01*
X128786667Y-93701340D01*
X128856358Y-93696357D01*
X128873327Y-93701338D01*
X128907517Y-93714091D01*
X128967127Y-93720500D01*
X129962872Y-93720499D01*
X130022483Y-93714091D01*
X130056667Y-93701340D01*
X130126358Y-93696357D01*
X130143327Y-93701338D01*
X130177517Y-93714091D01*
X130237127Y-93720500D01*
X131232872Y-93720499D01*
X131292483Y-93714091D01*
X131326667Y-93701340D01*
X131396358Y-93696357D01*
X131413327Y-93701338D01*
X131447517Y-93714091D01*
X131507127Y-93720500D01*
X132502872Y-93720499D01*
X132562483Y-93714091D01*
X132596667Y-93701340D01*
X132666358Y-93696357D01*
X132683327Y-93701338D01*
X132717517Y-93714091D01*
X132777127Y-93720500D01*
X133772872Y-93720499D01*
X133832483Y-93714091D01*
X133866667Y-93701340D01*
X133936358Y-93696357D01*
X133953327Y-93701338D01*
G37*
%TD.AperFunction*%
%TA.AperFunction,NonConductor*%
G36*
X112718834Y-99102915D02*
G01*
X112774767Y-99144787D01*
X112799184Y-99210251D01*
X112799500Y-99219097D01*
X112799500Y-99455555D01*
X112779815Y-99522594D01*
X112727011Y-99568349D01*
X112674934Y-99577062D01*
X112674934Y-99579500D01*
X112511153Y-99579500D01*
X112448428Y-99591977D01*
X112378836Y-99585750D01*
X112323659Y-99542887D01*
X112300415Y-99476997D01*
X112316483Y-99409000D01*
X112336554Y-99382681D01*
X112587820Y-99131414D01*
X112649142Y-99097931D01*
X112718834Y-99102915D01*
G37*
%TD.AperFunction*%
%TA.AperFunction,NonConductor*%
G36*
X104614522Y-99453757D02*
G01*
X104728584Y-99567819D01*
X104762069Y-99629142D01*
X104757085Y-99698834D01*
X104715213Y-99754767D01*
X104649749Y-99779184D01*
X104640903Y-99779500D01*
X104150098Y-99779500D01*
X104083059Y-99759815D01*
X104062417Y-99743181D01*
X104001417Y-99682181D01*
X103967932Y-99620858D01*
X103972916Y-99551166D01*
X104014788Y-99495233D01*
X104080252Y-99470816D01*
X104089098Y-99470500D01*
X104236286Y-99470500D01*
X104236287Y-99470500D01*
X104446243Y-99437246D01*
X104488523Y-99423507D01*
X104558362Y-99421511D01*
X104614522Y-99453757D01*
G37*
%TD.AperFunction*%
%TA.AperFunction,NonConductor*%
G36*
X150763333Y-94838415D02*
G01*
X150807680Y-94866916D01*
X150930381Y-94989617D01*
X151053083Y-95112319D01*
X151086568Y-95173641D01*
X151081584Y-95243332D01*
X151053083Y-95287680D01*
X145597584Y-100743181D01*
X145536261Y-100776666D01*
X145509903Y-100779500D01*
X145019097Y-100779500D01*
X144952058Y-100759815D01*
X144906303Y-100707011D01*
X144896359Y-100637853D01*
X144925384Y-100574297D01*
X144931416Y-100567819D01*
X147779334Y-97719901D01*
X150632320Y-94866914D01*
X150693641Y-94833431D01*
X150763333Y-94838415D01*
G37*
%TD.AperFunction*%
%TA.AperFunction,NonConductor*%
G36*
X151920557Y-96221191D02*
G01*
X151976490Y-96263063D01*
X152000907Y-96328527D01*
X151999697Y-96356767D01*
X151997500Y-96370639D01*
X151997500Y-96569361D01*
X152003876Y-96609616D01*
X152028587Y-96765637D01*
X152089993Y-96954629D01*
X152089994Y-96954632D01*
X152159829Y-97091689D01*
X152180213Y-97131694D01*
X152297019Y-97292464D01*
X152437536Y-97432981D01*
X152584343Y-97539642D01*
X152598309Y-97549789D01*
X152600285Y-97551000D01*
X152600878Y-97551656D01*
X152602248Y-97552651D01*
X152602039Y-97552938D01*
X152647163Y-97602810D01*
X152659500Y-97656730D01*
X152659500Y-101249903D01*
X152639815Y-101316942D01*
X152623181Y-101337584D01*
X152297584Y-101663181D01*
X152236261Y-101696666D01*
X152209903Y-101699500D01*
X146639097Y-101699500D01*
X146572058Y-101679815D01*
X146526303Y-101627011D01*
X146516359Y-101557853D01*
X146545384Y-101494297D01*
X146551416Y-101487819D01*
X149160353Y-98878882D01*
X151789544Y-96249690D01*
X151850865Y-96216207D01*
X151920557Y-96221191D01*
G37*
%TD.AperFunction*%
%TA.AperFunction,NonConductor*%
G36*
X119145442Y-101509938D02*
G01*
X119148028Y-101511009D01*
X119258099Y-101525500D01*
X119583000Y-101525499D01*
X119650039Y-101545183D01*
X119695794Y-101597987D01*
X119707000Y-101649478D01*
X119707001Y-101655479D01*
X119687328Y-101722522D01*
X119634531Y-101768286D01*
X119583001Y-101779500D01*
X118352413Y-101779500D01*
X118285374Y-101759815D01*
X118239619Y-101707011D01*
X118229675Y-101637853D01*
X118237850Y-101608051D01*
X118239737Y-101603497D01*
X118239739Y-101603487D01*
X118240373Y-101600304D01*
X118241164Y-101598791D01*
X118241506Y-101597665D01*
X118241719Y-101597729D01*
X118272760Y-101538394D01*
X118333477Y-101503822D01*
X118361989Y-101500500D01*
X119097992Y-101500500D01*
X119145442Y-101509938D01*
G37*
%TD.AperFunction*%
%TA.AperFunction,NonConductor*%
G36*
X114205703Y-90833314D02*
G01*
X114212181Y-90839346D01*
X115594872Y-92222037D01*
X115628357Y-92283360D01*
X115623373Y-92353052D01*
X115581501Y-92408985D01*
X115531383Y-92431335D01*
X115486508Y-92440261D01*
X115486498Y-92440264D01*
X115340827Y-92500602D01*
X115340814Y-92500609D01*
X115209711Y-92588210D01*
X115209707Y-92588213D01*
X115098213Y-92699707D01*
X115098210Y-92699711D01*
X115010609Y-92830814D01*
X115010602Y-92830827D01*
X114950264Y-92976498D01*
X114950261Y-92976510D01*
X114919500Y-93131153D01*
X114919500Y-93288846D01*
X114950261Y-93443489D01*
X114950264Y-93443501D01*
X115010602Y-93589172D01*
X115010609Y-93589185D01*
X115098602Y-93720874D01*
X115119480Y-93787551D01*
X115119500Y-93789765D01*
X115119500Y-95388330D01*
X115119499Y-95388348D01*
X115119499Y-95554054D01*
X115119498Y-95554054D01*
X115119499Y-95554057D01*
X115158675Y-95700263D01*
X115160424Y-95706787D01*
X115171577Y-95726104D01*
X115171578Y-95726106D01*
X115239477Y-95843712D01*
X115239481Y-95843717D01*
X115358349Y-95962585D01*
X115358355Y-95962590D01*
X118695681Y-99299916D01*
X118729166Y-99361239D01*
X118732000Y-99387596D01*
X118732000Y-99499402D01*
X118746489Y-99609468D01*
X118748594Y-99617322D01*
X118745510Y-99618148D01*
X118751349Y-99672737D01*
X118748514Y-99682653D01*
X118749082Y-99682806D01*
X118746978Y-99690658D01*
X118735873Y-99775000D01*
X118763994Y-99775000D01*
X118831033Y-99794685D01*
X118862362Y-99823503D01*
X118863897Y-99825503D01*
X118889098Y-99890669D01*
X118875067Y-99959116D01*
X118826259Y-100009111D01*
X118765529Y-100025000D01*
X118735874Y-100025000D01*
X118746978Y-100109340D01*
X118749082Y-100117193D01*
X118745847Y-100118059D01*
X118751612Y-100172126D01*
X118748519Y-100182656D01*
X118749082Y-100182807D01*
X118746977Y-100190660D01*
X118746843Y-100191684D01*
X118746489Y-100192484D01*
X118744875Y-100198508D01*
X118743935Y-100198256D01*
X118718577Y-100255581D01*
X118660253Y-100294053D01*
X118623904Y-100299500D01*
X117860940Y-100299500D01*
X117820019Y-100310464D01*
X117820019Y-100310465D01*
X117782751Y-100320451D01*
X117708214Y-100340423D01*
X117708209Y-100340426D01*
X117571290Y-100419475D01*
X117571282Y-100419481D01*
X117459480Y-100531284D01*
X117459465Y-100531295D01*
X117459467Y-100531297D01*
X117455326Y-100535437D01*
X117452597Y-100536926D01*
X117440582Y-100546777D01*
X117440579Y-100546779D01*
X117438969Y-100544365D01*
X117393998Y-100568914D01*
X117391847Y-100569362D01*
X117236508Y-100600261D01*
X117236498Y-100600264D01*
X117090827Y-100660602D01*
X117090814Y-100660609D01*
X116959711Y-100748210D01*
X116959707Y-100748213D01*
X116848213Y-100859707D01*
X116848210Y-100859711D01*
X116760609Y-100990814D01*
X116760602Y-100990827D01*
X116700264Y-101136498D01*
X116700261Y-101136510D01*
X116669500Y-101291153D01*
X116669500Y-101448846D01*
X116700261Y-101603487D01*
X116700263Y-101603497D01*
X116702148Y-101608048D01*
X116709617Y-101677515D01*
X116678343Y-101739995D01*
X116618254Y-101775648D01*
X116587587Y-101779500D01*
X115320097Y-101779500D01*
X115253058Y-101759815D01*
X115232416Y-101743181D01*
X114036819Y-100547584D01*
X114003334Y-100486261D01*
X114000500Y-100459903D01*
X114000500Y-90927027D01*
X114020185Y-90859988D01*
X114072989Y-90814233D01*
X114142147Y-90804289D01*
X114205703Y-90833314D01*
G37*
%TD.AperFunction*%
%TA.AperFunction,NonConductor*%
G36*
X190813334Y-98547654D02*
G01*
X190857681Y-98576155D01*
X190955354Y-98673828D01*
X191114595Y-98789524D01*
X191171676Y-98818608D01*
X191289970Y-98878882D01*
X191289972Y-98878882D01*
X191289975Y-98878884D01*
X191390317Y-98911487D01*
X191477173Y-98939709D01*
X191671578Y-98970500D01*
X191671583Y-98970500D01*
X191868422Y-98970500D01*
X192062826Y-98939709D01*
X192091414Y-98930420D01*
X192250025Y-98878884D01*
X192425405Y-98789524D01*
X192425409Y-98789520D01*
X192429087Y-98787647D01*
X192497756Y-98774751D01*
X192562497Y-98801027D01*
X192585699Y-98825245D01*
X192649207Y-98912656D01*
X192649209Y-98912658D01*
X192827345Y-99090794D01*
X192827350Y-99090798D01*
X192991764Y-99210251D01*
X193031155Y-99238870D01*
X193150965Y-99299916D01*
X193255620Y-99353241D01*
X193255623Y-99353242D01*
X193260772Y-99354915D01*
X193318447Y-99394352D01*
X193345646Y-99458711D01*
X193333731Y-99527557D01*
X193310135Y-99560527D01*
X189047483Y-103823181D01*
X188986160Y-103856666D01*
X188959802Y-103859500D01*
X184779097Y-103859500D01*
X184712058Y-103839815D01*
X184666303Y-103787011D01*
X184656359Y-103717853D01*
X184685384Y-103654297D01*
X184691416Y-103647819D01*
X185831382Y-102507853D01*
X189365468Y-98973765D01*
X189426789Y-98940282D01*
X189472546Y-98938975D01*
X189477168Y-98939707D01*
X189477174Y-98939709D01*
X189594642Y-98958313D01*
X189671579Y-98970500D01*
X189671583Y-98970500D01*
X189868422Y-98970500D01*
X190062826Y-98939709D01*
X190091414Y-98930420D01*
X190250025Y-98878884D01*
X190425405Y-98789524D01*
X190584646Y-98673828D01*
X190682319Y-98576155D01*
X190743642Y-98542670D01*
X190813334Y-98547654D01*
G37*
%TD.AperFunction*%
%TA.AperFunction,NonConductor*%
G36*
X125611271Y-103520185D02*
G01*
X125657026Y-103572989D01*
X125666970Y-103642147D01*
X125665849Y-103648692D01*
X125643769Y-103759692D01*
X125611384Y-103821603D01*
X125550668Y-103856177D01*
X125522152Y-103859500D01*
X123211406Y-103859500D01*
X123144367Y-103839815D01*
X123098612Y-103787011D01*
X123096857Y-103782981D01*
X123079394Y-103740821D01*
X123079390Y-103740814D01*
X123047703Y-103693391D01*
X123026825Y-103626713D01*
X123045310Y-103559333D01*
X123097289Y-103512643D01*
X123150805Y-103500500D01*
X125544232Y-103500500D01*
X125611271Y-103520185D01*
G37*
%TD.AperFunction*%
M02*
