<svg xmlns="http://www.w3.org/2000/svg" viewBox="0 0 100 100" width="13.3mm" height="13.4mm">
  <g fill="#ffffff">
    <!-- Microphone head -->
    <circle cx="45" cy="20" r="1.8" />
    <circle cx="50" cy="20" r="1.8" />
    <circle cx="55" cy="20" r="1.8" />

    <circle cx="40" cy="25" r="1.8" />
    <circle cx="45" cy="25" r="1.8" />
    <circle cx="50" cy="25" r="1.8" />
    <circle cx="55" cy="25" r="1.8" />
    <circle cx="60" cy="25" r="1.8" />

    <circle cx="40" cy="30" r="1.8" />
    <circle cx="45" cy="30" r="1.8" />
    <circle cx="50" cy="30" r="1.8" />
    <circle cx="55" cy="30" r="1.8" />
    <circle cx="60" cy="30" r="1.8" />

    <circle cx="30" cy="35" r="1.8" />
    <circle cx="40" cy="35" r="1.8" />
    <circle cx="45" cy="35" r="1.8" />
    <circle cx="50" cy="35" r="1.8" />
    <circle cx="55" cy="35" r="1.8" />
    <circle cx="60" cy="35" r="1.8" />
    <circle cx="70" cy="35" r="1.8" />

    <circle cx="30" cy="40" r="1.8" />
    <circle cx="40" cy="40" r="1.8" />
    <circle cx="45" cy="40" r="1.8" />
    <circle cx="50" cy="40" r="1.8" />
    <circle cx="55" cy="40" r="1.8" />
    <circle cx="60" cy="40" r="1.8" />
    <circle cx="70" cy="40" r="1.8" />

    <circle cx="30" cy="45" r="1.8" />
    <circle cx="40" cy="45" r="1.8" />
    <circle cx="45" cy="45" r="1.8" />
    <circle cx="50" cy="45" r="1.8" />
    <circle cx="55" cy="45" r="1.8" />
    <circle cx="60" cy="45" r="1.8" />
    <circle cx="70" cy="45" r="1.8" />

    <circle cx="30" cy="50" r="1.8" />
    <circle cx="40" cy="50" r="1.8" />
    <circle cx="45" cy="50" r="1.8" />
    <circle cx="50" cy="50" r="1.8" />
    <circle cx="55" cy="50" r="1.8" />
    <circle cx="60" cy="50" r="1.8" />
    <circle cx="70" cy="50" r="1.8" />

    <circle cx="30" cy="55" r="1.8" />
    <circle cx="45" cy="55" r="1.8" />
    <circle cx="50" cy="55" r="1.8" />
    <circle cx="55" cy="55" r="1.8" />
    <circle cx="70" cy="55" r="1.8" />

    <circle cx="35" cy="60" r="1.8" />
    <circle cx="65" cy="60" r="1.8" />

    <circle cx="40" cy="65" r="1.8" />
    <circle cx="45" cy="65" r="1.8" />
    <circle cx="50" cy="65" r="1.8" />
    <circle cx="55" cy="65" r="1.8" />
    <circle cx="60" cy="65" r="1.8" />

    <!-- Microphone stem and base -->
    <circle cx="50" cy="70" r="1.8" />
    <circle cx="50" cy="75" r="1.8" />
    <circle cx="50" cy="80" r="1.8" />

    <circle cx="35" cy="85" r="1.8" />
    <circle cx="40" cy="85" r="1.8" />
    <circle cx="45" cy="85" r="1.8" />
    <circle cx="50" cy="85" r="1.8" />
    <circle cx="55" cy="85" r="1.8" />
    <circle cx="60" cy="85" r="1.8" />
    <circle cx="65" cy="85" r="1.8" />
  </g>
</svg>
