<svg xmlns="http://www.w3.org/2000/svg" viewBox="0 0 52 13.5" width="52mm" height="13.5mm">
  <!-- Solid Background Plate (13.5mm height) -->
  <rect x="0" y="0" width="52" height="13.5" fill="#000000" />

  <!-- S -->
  <circle cx="4.5" cy="2.5" r="0.6" fill="#ffffff" />
  <circle cx="2.5" cy="3.5" r="0.6" fill="#ffffff" />
  <circle cx="3.5" cy="6.75" r="0.6" fill="#ffffff" />
  <circle cx="4.5" cy="10.0" r="0.6" fill="#ffffff" />
  <circle cx="2.5" cy="11.0" r="0.6" fill="#ffffff" />

  <!-- P -->
  <circle cx="8.5" cy="2.5" r="0.6" fill="#ffffff" />
  <circle cx="8.5" cy="6.75" r="0.6" fill="#ffffff" />
  <circle cx="8.5" cy="11.0" r="0.6" fill="#ffffff" />
  <circle cx="10.5" cy="2.5" r="0.6" fill="#ffffff" />
  <circle cx="11.5" cy="4.625" r="0.6" fill="#ffffff" />
  <circle cx="10.5" cy="6.75" r="0.6" fill="#ffffff" />

  <!-- E -->
  <circle cx="15.5" cy="2.5" r="0.6" fill="#ffffff" />
  <circle cx="15.5" cy="6.75" r="0.6" fill="#ffffff" />
  <circle cx="15.5" cy="11.0" r="0.6" fill="#ffffff" />
  <circle cx="17.5" cy="2.5" r="0.6" fill="#ffffff" />
  <circle cx="17.5" cy="6.75" r="0.6" fill="#ffffff" />
  <circle cx="17.5" cy="11.0" r="0.6" fill="#ffffff" />

  <!-- A -->
  <circle cx="23.0" cy="2.5" r="0.6" fill="#ffffff" />
  <circle cx="21.5" cy="6.75" r="0.6" fill="#ffffff" />
  <circle cx="24.5" cy="6.75" r="0.6" fill="#ffffff" />
  <circle cx="23.0" cy="6.75" r="0.6" fill="#ffffff" />
  <circle cx="20.5" cy="11.0" r="0.6" fill="#ffffff" />
  <circle cx="25.5" cy="11.0" r="0.6" fill="#ffffff" />

  <!-- K -->
  <circle cx="29.5" cy="2.5" r="0.6" fill="#ffffff" />
  <circle cx="29.5" cy="6.75" r="0.6" fill="#ffffff" />
  <circle cx="29.5" cy="11.0" r="0.6" fill="#ffffff" />
  <circle cx="32.5" cy="2.5" r="0.6" fill="#ffffff" />
  <circle cx="31.0" cy="6.75" r="0.6" fill="#ffffff" />
  <circle cx="32.5" cy="11.0" r="0.6" fill="#ffffff" />

  <!-- E -->
  <circle cx="36.5" cy="2.5" r="0.6" fill="#ffffff" />
  <circle cx="36.5" cy="6.75" r="0.6" fill="#ffffff" />
  <circle cx="36.5" cy="11.0" r="0.6" fill="#ffffff" />
  <circle cx="38.5" cy="2.5" r="0.6" fill="#ffffff" />
  <circle cx="38.5" cy="6.75" r="0.6" fill="#ffffff" />
  <circle cx="38.5" cy="11.0" r="0.6" fill="#ffffff" />

  <!-- R -->
  <circle cx="42.5" cy="2.5" r="0.6" fill="#ffffff" />
  <circle cx="42.5" cy="6.75" r="0.6" fill="#ffffff" />
  <circle cx="42.5" cy="11.0" r="0.6" fill="#ffffff" />
  <circle cx="44.5" cy="2.5" r="0.6" fill="#ffffff" />
  <circle cx="45.5" cy="4.625" r="0.6" fill="#ffffff" />
  <circle cx="44.5" cy="6.75" r="0.6" fill="#ffffff" />
  <circle cx="45.5" cy="11.0" r="0.6" fill="#ffffff" />
</svg>
